<svg xmlns="http://www.w3.org/2000/svg" viewBox="0 0 600 353.70711"><title>404_2</title><g id="4d220f50-6135-4e15-8e3f-b7aec2736557" data-name="Layer 2"><g id="74ee150f-be2d-4060-bd64-ba010504f14f" data-name="pets"><path d="M588.01652,280.49736H436.52278a11.98384,11.98384,0,0,0-11.98346,11.98476H194.87865a11.926,11.926,0,0,0,1.37029-5.55517h0a11.98334,11.98334,0,0,0-11.98332-11.98334H32.77188a11.9836,11.9836,0,0,0-11.98412,11.98334h0a11.98371,11.98371,0,0,0,11.98412,11.98346h74.19938a11.97485,11.97485,0,0,0,10.613,17.53851h364.658A11.98448,11.98448,0,0,0,494.227,304.46545h93.78955a11.984,11.984,0,0,0,0-23.96809Z" opacity="0.05"/><path d="M509.80558,201.05829h7.01157a2.89182,2.89182,0,0,1,2.89182,2.89182v23.91053a2.892,2.892,0,0,1-2.892,2.892H509.8054a2.89265,2.89265,0,0,1-2.89265-2.89265V203.95112a2.89283,2.89283,0,0,1,2.89283-2.89283Z" transform="translate(56.36377 -102.37517) rotate(12.04637)" fill="#ffd800"/><path d="M513.24163,228.79579l-5.13069-1.095a3.77673,3.77673,0,0,1-2.90375-4.48054l-.4652,2.1784a3.77552,3.77552,0,0,0,2.90374,4.47936l5.13057,1.09487a3.77485,3.77485,0,0,0,4.48066-2.90374l.4639-2.17722A3.77537,3.77537,0,0,1,513.24163,228.79579Z" opacity="0.1"/><path d="M507.84074,225.90732h0a1.64244,1.64244,0,0,1-1.26326-1.94906l3.91848-18.3594a1.64505,1.64505,0,0,1,1.95023-1.26456h0a1.64333,1.64333,0,0,1,1.26326,1.95036l-3.91848,18.3594A1.6432,1.6432,0,0,1,507.84074,225.90732Z" opacity="0.2"/><path d="M514.21929,227.26861h0a1.64125,1.64125,0,0,1-1.26325-1.94893l3.91847-18.35954a1.64322,1.64322,0,0,1,1.95023-1.26312h0a1.64124,1.64124,0,0,1,1.26326,1.94892l-3.91834,18.35954A1.64333,1.64333,0,0,1,514.21929,227.26861Z" opacity="0.2"/><path d="M507.08269,230.40242h5.81976a0,0,0,0,1,0,0v1.67015a.42508.42508,0,0,1-.42508.42508H507.5075a.42481.42481,0,0,1-.42481-.42481v-1.67042A0,0,0,0,1,507.08269,230.40242Z" transform="translate(59.58224 -101.4044) rotate(12.05452)" fill="#cecece"/><path d="M507.1881,230.64539c.09306.02793.17974.06748.27528.08784l5.1307,1.09631c.09555.02037.19122.01776.28677.03055l.17595-.82729-5.69158-1.2147Z" opacity="0.1"/><path d="M506.12377,259.15772l5.6074-26.26632-3.9134-.835-5.60737,26.26645a11.81592,11.81592,0,0,1-2.22813,4.78519h0l-1.55644,7.28873,6.22309,1.32813,1.55643-7.28873h0A11.78834,11.78834,0,0,1,506.12377,259.15772Z" fill="#c2c2c2"/><rect x="498.6572" y="268.20173" width="6.36325" height="2.89089" transform="translate(67.34067 -98.81335) rotate(12.04846)" fill="#cecece"/><rect x="507.60156" y="232.45573" width="4.00161" height="1.64818" transform="translate(59.99334 -101.33304) rotate(12.06095)" opacity="0.1"/><path d="M513.21357,203.93279h0a1.19326,1.19326,0,0,1-.91775-1.41493h0a1.19321,1.19321,0,0,1,1.41611-.91775h0a1.19278,1.19278,0,0,1,.91788,1.41624h0A1.1929,1.1929,0,0,1,513.21357,203.93279Z" fill="#fff" opacity="0.2"/><path d="M510.55705,227.43059h0a.74163.74163,0,0,1-.57105-.88081l4.48691-21.02363a.74462.74462,0,0,1,.88212-.57106h0a.74433.74433,0,0,1,.57106.88211l-4.4881,21.02233A.74138.74138,0,0,1,510.55705,227.43059Z" fill="#fff" opacity="0.2"/><path d="M509.70939,232.15326l-1.46453-.31353a.372.372,0,0,1-.2869-.44237h0a.3726.3726,0,0,1,.44236-.28677l1.46466.31236a.37345.37345,0,0,1,.2881.44223h0A.37572.37572,0,0,1,509.70939,232.15326Z" fill="#fff" opacity="0.2"/><path d="M503.15371,260.073h0a.7123.7123,0,0,1-.54939-.84647l5.11529-23.963a.7143.7143,0,0,1,.84648-.5494h0a.71569.71569,0,0,1,.5494.84779l-5.11543,23.9617A.713.713,0,0,1,503.15371,260.073Z" fill="#fff" opacity="0.2"/><path d="M500.15559,269.6816h0a.61146.61146,0,0,1-.46912-.724L500.849,263.512a.61029.61029,0,0,1,.724-.469h0a.61017.61017,0,0,1,.46912.724l-1.16249,5.4441A.6101.6101,0,0,1,500.15559,269.6816Z" fill="#fff" opacity="0.2"/><rect x="568.54622" y="241.38713" width="5.40852" height="11.77193" transform="translate(1051.68889 643.06348) rotate(-163.92393)" fill="#c2c2c2"/><rect x="554.76551" y="238.46927" width="5.40911" height="11.77203" transform="translate(1025.4893 633.50868) rotate(-163.92604)" fill="#c2c2c2"/><path d="M575.4787,242.36609l-5.197-1.49768-1.4225,4.93555a3.792,3.792,0,0,0,5.16124,1.624Z" opacity="0.2"/><path d="M561.69916,239.44838l-5.19818-1.49782-1.40345,4.87317a3.77706,3.77706,0,0,0,5.1307,1.72846Z" opacity="0.2"/><path d="M579.73107,217.65489h0a3.81865,3.81865,0,0,1,2.61058,4.72659l-5.98984,20.78776a3.81887,3.81887,0,0,1-4.72658,2.61188h0a3.81585,3.81585,0,0,1-2.61058-4.7254l5.991-20.78894A3.8163,3.8163,0,0,1,579.73107,217.65489Z" fill="#d22426"/><path d="M566.00126,214.75115h0a3.81825,3.81825,0,0,1,2.61188,4.72658L562.622,240.26549a3.81806,3.81806,0,0,1-4.72658,2.61176h0a3.81772,3.81772,0,0,1-2.61058-4.72528L561.276,217.363A3.81731,3.81731,0,0,1,566.00126,214.75115Z" fill="#d22426"/><path d="M581.4162,218.69116c-.01656.0791-.02037.15807-.04334.23717l-5.99114,20.78894a3.81647,3.81647,0,0,1-4.72528,2.61058,3.766,3.766,0,0,1-1.68512-1.035,3.80861,3.80861,0,0,0,7.37918,1.87635l5.99115-20.78776A3.7992,3.7992,0,0,0,581.4162,218.69116Z" opacity="0.2"/><path d="M567.68769,215.78742c-.01788.0791-.02036.15807-.04333.23717l-5.991,20.78894a3.81841,3.81841,0,0,1-4.72656,2.61057h0a3.767,3.767,0,0,1-1.68528-1.035,3.80926,3.80926,0,0,0,7.38049,1.87635l5.99114-20.78776A3.80191,3.80191,0,0,0,567.68769,215.78742Z" opacity="0.2"/><path d="M561.624,225.9735h0a1.59243,1.59243,0,0,1-1.08483-1.97438l1.92609-6.631a1.59216,1.59216,0,0,1,1.9732-1.08482h0a1.59374,1.59374,0,0,1,1.08613,1.97451l-1.92608,6.62969A1.59419,1.59419,0,0,1,561.624,225.9735Z" fill="#fff" opacity="0.2"/><path d="M559.84069,232.19281h0a1.59419,1.59419,0,0,1-1.086-1.97451l.53791-1.8509a1.59244,1.59244,0,0,1,1.97451-1.0847h0a1.59112,1.59112,0,0,1,1.0847,1.97321l-.53791,1.85207A1.59162,1.59162,0,0,1,559.84069,232.19281Z" fill="#fff" opacity="0.2"/><path d="M576.83359,223.58352h0a1.59353,1.59353,0,0,1-1.0847-1.97451l.53793-1.8509a1.59189,1.59189,0,0,1,1.97449-1.0847h0a1.59308,1.59308,0,0,1,1.0847,1.97321l-.53791,1.85207A1.59294,1.59294,0,0,1,576.83359,223.58352Z" fill="#fff" opacity="0.2"/><path d="M572.399,239.05066h0a1.59293,1.59293,0,0,1-1.08482-1.97451l3.37156-11.6048a1.59367,1.59367,0,0,1,1.97451-1.086h0a1.59336,1.59336,0,0,1,1.08482,1.97438l-3.37156,11.60611A1.593,1.593,0,0,1,572.399,239.05066Z" fill="#fff" opacity="0.2"/><path d="M507.85092,261.623l33.03126-60.50352a2.83753,2.83753,0,0,1,3.84954-1.13l4.44738,2.42771-3.32444,1.327,2.12749,3.18413-3.78077,1.833,2.14668,2.98533-3.494,1.47484,1.87766,3.20083-3.85974,1.759,2.19119,3.73234-3.573,1.67495,1.77689,3.38683-3.49517,2.47169,1.70679,3.01587-2.96248,1.22253,1.28245,3.40341-3.47612.83617,1.9719,3.856-4.3607,1.847,1.47106,3.94523-3.40352.92167,2.33527,3.69018-4.4436.83616,3.03639,3.95411-5.32443,1.56413,2.88456,2.90375-4.81442,8.81826Z" fill="#c2c2c2"/><polygon points="495.112 267.799 493.718 269.973 491.875 268.376 495.112 267.799" fill="#c2c2c2"/><path d="M501.05807,259.93019l-1.30268,2.00388-1.08991-1.24421s.79414-2.19249.97518-2.042C499.82041,258.79824,501.05807,259.93019,501.05807,259.93019Z" fill="#c2c2c2"/><path d="M493.56547,269.05441l-5.6865-4.27534.60291-4.95344,4.5915-1.95414,5.68764,4.278a.67234.67234,0,0,0,1.076-.4921,9.50617,9.50617,0,0,0-3.78847-8.06616,9.627,9.627,0,0,0-9.63028-1.04018l-26.31736-19.78974a9.632,9.632,0,0,0-3.67373-8.96237,9.50847,9.50847,0,0,0-8.80169-1.40084.6722.6722,0,0,0-.17348,1.17019l5.6878,4.27783-.60291,4.95226-4.59018,1.954-5.68649-4.27535a.67268.67268,0,0,0-1.07713.49588,9.51445,9.51445,0,0,0,13.44045,9.11666l26.274,19.75776A9.51464,9.51464,0,0,0,493.387,270.22722.67276.67276,0,0,0,493.56547,269.05441Z" fill="#c2c2c2"/><polygon points="442.669 228.532 441.316 230.61 442.989 231.717 444.414 229.389 442.669 228.532" fill="#c2c2c2"/><polygon points="448.527 220.842 447.268 222.708 452.785 225.864 451.068 222.165 448.527 220.842" fill="#c2c2c2"/><path d="M494.89241,267.006l-5.68649-4.27664.60293-4.95214,4.59016-1.95414,5.6878,4.27795a.6721.6721,0,0,0,1.07581-.4921,9.51,9.51,0,0,0-3.78846-8.06759,9.63005,9.63005,0,0,0-9.63027-1.04006l-26.31738-19.78974a9.62921,9.62921,0,0,0-3.67373-8.96237,9.50923,9.50923,0,0,0-8.80039-1.39953.67176.67176,0,0,0-.17465,1.17006l5.689,4.27665-.60289,4.95227-4.5915,1.954-5.68649-4.27534a.67349.67349,0,0,0-1.07712.49718,9.51653,9.51653,0,0,0,13.44042,9.11666l26.27533,19.75646A9.51583,9.51583,0,0,0,494.714,268.1787.67358.67358,0,0,0,494.89241,267.006Z" fill="#cecece"/><path d="M481.49793,254.23234l-21.73488-16.34417a2.16071,2.16071,0,0,1-.42826-3.02487h0a2.1595,2.1595,0,0,1,3.02474-.42827l21.73488,16.34287a2.16127,2.16127,0,0,1,.42957,3.026h0A2.16227,2.16227,0,0,1,481.49793,254.23234Z" fill="#c2c2c2"/><path d="M476.44111,244.09586,461.5107,232.86842a.53908.53908,0,0,1-.10716-.75589h0a.5392.5392,0,0,1,.75589-.10716L477.09,243.23163a.54191.54191,0,0,1,.107.7572h0A.5404.5404,0,0,1,476.44111,244.09586Z" fill="#fff" opacity="0.2"/><path d="M481.63172,256.34573l-14.93054-11.22626a.54089.54089,0,0,1-.107-.7572h0a.54037.54037,0,0,1,.75591-.107l14.93052,11.22757a.53917.53917,0,0,1,.107.75589h0A.54051.54051,0,0,1,481.63172,256.34573Z" fill="#fff" opacity="0.2"/><path d="M482.111,248.35972l-3.50416-2.63473a.54186.54186,0,0,1-.107-.75719h0a.542.542,0,0,1,.75718-.107l3.50405,2.63473a.54208.54208,0,0,1,.10716.75719h0A.542.542,0,0,1,482.111,248.35972Z" fill="#fff" opacity="0.2"/><path d="M457.46862,223.54906l-1.32055-.99294a.53923.53923,0,0,1-.10718-.75589h0a.53919.53919,0,0,1,.75591-.107l1.32054.99293a.54025.54025,0,0,1,.10717.75589h0A.53951.53951,0,0,1,457.46862,223.54906Z" fill="#fff" opacity="0.2"/><path d="M497.35888,253.54393l-1.32056-.99293a.53934.53934,0,0,1-.107-.75589h0a.53919.53919,0,0,1,.75589-.10717l1.32056.99307a.53916.53916,0,0,1,.107.75589h0A.53935.53935,0,0,1,497.35888,253.54393Z" fill="#fff" opacity="0.2"/><path d="M447.92369,233.96839l-4.088-3.07448a.54035.54035,0,0,1-.107-.75589h0a.541.541,0,0,1,.7572-.10716l4.0879,3.0733a.54209.54209,0,0,1,.10716.7572h0A.5418.5418,0,0,1,447.92369,233.96839Z" fill="#fff" opacity="0.2"/><path d="M491.67383,266.86453l-4.088-3.0733a.54051.54051,0,0,1-.107-.75589h0a.54091.54091,0,0,1,.75722-.107l4.08788,3.07331a.54049.54049,0,0,1,.107.75589h0A.53943.53943,0,0,1,491.67383,266.86453Z" fill="#fff" opacity="0.2"/><polygon points="511.796 269.784 513.189 271.958 515.031 270.361 511.796 269.784" fill="#c2c2c2"/><path d="M505.84965,261.91618l1.30268,2.00375,1.08861-1.24407s-.79413-2.1938-.97385-2.042C507.08733,260.78424,505.84965,261.91618,505.84965,261.91618Z" fill="#c2c2c2"/><path d="M513.3411,271.04041l5.68636-4.27534-.60292-4.95344-4.59017-1.95415-5.68767,4.27795a.67215.67215,0,0,1-1.076-.49209,9.51042,9.51042,0,0,1,3.78849-8.06747,9.62976,9.62976,0,0,1,9.63027-1.04018l26.31737-19.78843a9.63138,9.63138,0,0,1,3.67372-8.96368,9.50983,9.50983,0,0,1,8.80051-1.39953.67194.67194,0,0,1,.17465,1.17019l-5.689,4.27652.60294,4.95344,4.59015,1.95414,5.68769-4.27651a.67343.67343,0,0,1,1.0771.49705,9.51642,9.51642,0,0,1-13.44042,9.11666L526.00892,261.8333a9.51573,9.51573,0,0,1-12.48939,10.37991A.6736.6736,0,0,1,513.3411,271.04041Z" fill="#c2c2c2"/><polygon points="564.238 230.518 565.591 232.596 563.918 233.703 562.492 231.374 564.238 230.518" fill="#c2c2c2"/><polygon points="558.381 222.826 559.639 224.692 554.122 227.85 555.839 224.151 558.381 222.826" fill="#c2c2c2"/><path d="M512.01532,268.99072l5.68648-4.27535-.60291-4.95213-4.59018-1.95415-5.689,4.27665a.67078.67078,0,0,1-1.07462-.49209,9.50423,9.50423,0,0,1,3.78845-8.0663,9.6301,9.6301,0,0,1,9.63029-1.04018l26.31735-19.78961a9.62826,9.62826,0,0,1,3.67243-8.96237,9.50912,9.50912,0,0,1,8.80171-1.39966.67159.67159,0,0,1,.17463,1.16888l-5.689,4.278.603,4.95213,4.59019,1.95415,5.68634-4.27534a.6733.6733,0,0,1,1.07712.49718,9.51513,9.51513,0,0,1-13.43911,9.11666L524.68327,259.7836a9.51579,9.51579,0,0,1-12.48939,10.38109A.67455.67455,0,0,1,512.01532,268.99072Z" fill="#cecece"/><path d="M525.40862,256.217l21.736-16.34286a2.16089,2.16089,0,0,0,.42827-3.02488h0a2.15968,2.15968,0,0,0-3.02475-.42826L522.812,252.76389a2.161,2.161,0,0,0-.42827,3.02475h0A2.15984,2.15984,0,0,0,525.40862,256.217Z" fill="#c2c2c2"/><path d="M530.46661,246.08055l14.93056-11.22613a.53937.53937,0,0,0,.107-.75589h0a.53929.53929,0,0,0-.75592-.10717l-14.93054,11.22627a.53934.53934,0,0,0-.107.75589h0A.53917.53917,0,0,0,530.46661,246.08055Z" fill="#fff" opacity="0.2"/><path d="M525.276,258.33173l14.93054-11.22757a.54032.54032,0,0,0,.107-.75589h0a.53935.53935,0,0,0-.7559-.107L524.62714,257.4675a.54089.54089,0,0,0-.107.7572h0A.54035.54035,0,0,0,525.276,258.33173Z" fill="#fff" opacity="0.2"/><path d="M524.79552,250.34441l3.50405-2.63342a.541.541,0,0,0,.10717-.7572h0a.54025.54025,0,0,0-.7559-.107l-3.50417,2.63472a.53967.53967,0,0,0-.10717.7559h0A.53831.53831,0,0,0,524.79552,250.34441Z" fill="#fff" opacity="0.2"/><path d="M549.43911,225.53505l1.32069-.99293a.53932.53932,0,0,0,.107-.75589h0a.53935.53935,0,0,0-.75589-.10717l-1.32056.99176a.5408.5408,0,0,0-.10716.7572h0A.54052.54052,0,0,0,549.43911,225.53505Z" fill="#fff" opacity="0.2"/><path d="M509.54884,255.52993l1.32056-.99293a.53935.53935,0,0,0,.107-.7559h0a.53924.53924,0,0,0-.7559-.10716L508.9,254.6657a.54086.54086,0,0,0-.107.75719h0A.54032.54032,0,0,0,509.54884,255.52993Z" fill="#fff" opacity="0.2"/><path d="M558.98286,235.95439l4.08792-3.07448a.53938.53938,0,0,0,.107-.75589h0a.53911.53911,0,0,0-.75591-.10717l-4.0879,3.07331a.53951.53951,0,0,0-.107.75589h0A.53944.53944,0,0,0,558.98286,235.95439Z" fill="#fff" opacity="0.2"/><path d="M515.23272,268.85053l4.0879-3.0733a.5395.5395,0,0,0,.107-.7559h0a.53939.53939,0,0,0-.7559-.10834l-4.0879,3.07448a.53948.53948,0,0,0-.107.756h0A.53934.53934,0,0,0,515.23272,268.85053Z" fill="#fff" opacity="0.2"/><path d="M484.95864,226.36874l-1.24276-.80314a1.33378,1.33378,0,0,0-1.3041-.08276l-12.47413,5.98344a1.48768,1.48768,0,0,0-.69846,1.98587l2.61814,5.45832a1.48832,1.48832,0,0,0,1.986.69846l9.65837-4.6322,3.49137-1.67495,7.77312-3.72843a.78525.78525,0,0,0,.36835-1.04788l-1.27344-2.65522a.78516.78516,0,0,0-1.04775-.36835l-2.5124,1.20582A5.47819,5.47819,0,0,1,484.95864,226.36874Z" fill="#929292"/><path d="M489.698,224.096l-1.2429-.80432a1.33634,1.33634,0,0,0-1.304-.08288L474.677,229.19221a1.49032,1.49032,0,0,0-.69859,1.98717l2.61829,5.45833a1.48925,1.48925,0,0,0,1.98716.69846l9.65717-4.63221,3.49139-1.67495,7.77312-3.72842a.78591.78591,0,0,0,.36968-1.04789l-1.27477-2.65522a.7841.7841,0,0,0-1.04775-.36835l-2.51242,1.20465A5.47829,5.47829,0,0,1,489.698,224.096Z" fill="#c2c2c2"/><path d="M502.57756,268.421l-2.96249,1.42a3.06165,3.06165,0,0,1-4.08411-1.43529l-15.2848-31.86745,8.48177-4.06754,15.28492,31.86614A3.06165,3.06165,0,0,1,502.57756,268.421Z" fill="#8b4b1d"/><path d="M505.749,266.899l-2.96251,1.4212a3.06019,3.06019,0,0,1-4.08281-1.4366l-15.2861-31.866,8.48176-4.06884,15.28493,31.86731A3.06,3.06,0,0,1,505.749,266.899Z" fill="#ba6529"/><rect x="480.19047" y="233.61166" width="12.9239" height="2.68047" transform="translate(-53.74664 233.6008) rotate(-25.62763)" opacity="0.2"/><path d="M492.08291,247.58216h94.1746a0,0,0,0,1,0,0v45.09122a2.8438,2.8438,0,0,1-2.8438,2.8438h-91.3308a0,0,0,0,1,0,0v-47.935A0,0,0,0,1,492.08291,247.58216Z" fill="#ffd800"/><path d="M459.41885,247.58216h32.66406a0,0,0,0,1,0,0v47.935a0,0,0,0,1,0,0H462.26265a2.8438,2.8438,0,0,1-2.8438-2.8438V247.58216A0,0,0,0,1,459.41885,247.58216Z" fill="#ffc400"/><path d="M586.25751,247.58216h4.40913a.8936.8936,0,0,1,.8936.8936v11.25681a.8936.8936,0,0,1-.8936.8936h-4.40913a0,0,0,0,1,0,0v-13.044A0,0,0,0,1,586.25751,247.58216Z" fill="#ffd800"/><path d="M455.43289,247.58216H459.842a0,0,0,0,1,0,0v13.044a0,0,0,0,1,0,0h-4.40915a.8936.8936,0,0,1-.8936-.8936V248.47576A.8936.8936,0,0,1,455.43289,247.58216Z" fill="#ffc400"/><rect x="459.41885" y="260.62617" width="126.83866" height="4.98411" opacity="0.1"/><g opacity="0.1"><path d="M480.20283,264.36738H469.44177c-1.91969,0-3.42378-2.12357-3.42378-4.83622v-4.07263h-1.08482a1.27279,1.27279,0,0,1,0-2.54557h2.35826a1.27275,1.27275,0,0,1,1.27214,1.27343v5.34477c0,1.47863.66021,2.29065.8782,2.29065h10.76106c.218,0,.87819-.812.87819-2.29065v-5.34477a1.27192,1.27192,0,0,1,1.27214-1.27343h2.30592a1.27279,1.27279,0,0,1,0,2.54557H483.6266v4.07263C483.6266,262.24381,482.12251,264.36738,480.20283,264.36738Z"/></g><path d="M480.20283,263.06588H469.44177c-1.91969,0-3.42378-2.12357-3.42378-4.83609V254.157h-1.08482a1.27214,1.27214,0,0,1,0-2.54427h2.35826a1.27173,1.27173,0,0,1,1.27214,1.27213v5.3449c0,1.47863.66021,2.29052.8782,2.29052h10.76106c.218,0,.87819-.81189.87819-2.29052v-5.3449a1.2709,1.2709,0,0,1,1.27214-1.27213h2.30592a1.27214,1.27214,0,0,1,0,2.54427H483.6266v4.07276C483.6266,260.94231,482.12251,263.06588,480.20283,263.06588Z" fill="#9b9b9b"/><g opacity="0.1"><path d="M466.018,252.84547h-1.08482a1.25053,1.25053,0,0,1-1.06432-.617,1.232,1.232,0,0,0-.20781.65643,1.27081,1.27081,0,0,0,1.27213,1.27214H466.018Z"/><path d="M484.65908,252.84547H483.6266V254.157h1.03248a1.27073,1.27073,0,0,0,1.27213-1.27214,1.2431,1.2431,0,0,0-.20767-.65643A1.25078,1.25078,0,0,1,484.65908,252.84547Z"/><path d="M480.20283,261.75433H469.44177c-1.91969,0-3.42378-2.12371-3.42378-4.83623v1.31169c0,2.71252,1.50409,4.83609,3.42378,4.83609h10.76106c1.91968,0,3.42377-2.12357,3.42377-4.83609V256.9181C483.6266,259.63062,482.12251,261.75433,480.20283,261.75433Z"/></g><path d="M467.53226,252.91048h-.59652a.44992.44992,0,0,1-.44993-.45007h0a.45017.45017,0,0,1,.44993-.45124h.59652a.45019.45019,0,0,1,.45006.45124h0A.44994.44994,0,0,1,467.53226,252.91048Z" fill="#fff" opacity="0.2"/><path d="M482.79423,252.91048h-.59651a.44993.44993,0,0,1-.45-.45007h0a.45018.45018,0,0,1,.45-.45124h.59651a.45017.45017,0,0,1,.44992.45124h0A.44992.44992,0,0,1,482.79423,252.91048Z" fill="#fff" opacity="0.2"/><path d="M479.60239,261.58085h-9.22747a.3783.3783,0,0,1-.37736-.37853h0a.37814.37814,0,0,1,.37736-.37736h9.22747a.37814.37814,0,0,1,.37736.37736h0A.3783.3783,0,0,1,479.60239,261.58085Z" fill="#fff" opacity="0.2"/><path d="M489.10269,250.30107H457.4074a.85231.85231,0,0,1-.85144-.85274h0a.8524.8524,0,0,1,.85144-.85275h31.69529a.85351.85351,0,0,1,.85273.85275h0A.85342.85342,0,0,1,489.10269,250.30107Z" fill="#fff" opacity="0.2"/><path d="M527.64314,250.30107H495.94787a.85242.85242,0,0,1-.85157-.85274h0a.85251.85251,0,0,1,.85157-.85275h31.69527a.85248.85248,0,0,1,.85144.85275h0A.85239.85239,0,0,1,527.64314,250.30107Z" fill="#fff" opacity="0.2"/><path d="M588.69213,250.30107h-55.36a.85343.85343,0,0,1-.85274-.85274h0a.85351.85351,0,0,1,.85274-.85275h55.36a.85276.85276,0,0,1,.85275.85275h0A.85267.85267,0,0,1,588.69213,250.30107Z" fill="#fff" opacity="0.2"/><polygon points="435.128 124.256 424.422 100.227 423.147 137.762 435.128 127.318 435.128 124.256" fill="#e9e9e9"/><path d="M332.67586,84.416h72.39143a22.85261,22.85261,0,0,1,22.85261,22.85261v87.71133a0,0,0,0,1,0,0h-95.244a0,0,0,0,1,0,0V84.416A0,0,0,0,1,332.67586,84.416Z" fill="#e9e9e9"/><path d="M51.85911,266.03476H47.72343a27.07386,27.07386,0,0,1-27.04335-27.04271V217.9927a14.33252,14.33252,0,0,0-14.3168-14.31614,6.36328,6.36328,0,1,1,0-12.72656,27.07386,27.07386,0,0,1,27.04336,27.0427v20.99935A14.33261,14.33261,0,0,0,47.72343,253.3082h4.13568a6.36328,6.36328,0,0,1,0,12.72656Z" fill="#e9e9e9"/><path d="M427.61132,177.24068h4.13515a27.0738,27.0738,0,0,0,27.044-27.04335v-20.9987A14.33359,14.33359,0,0,1,473.1078,114.882a6.363,6.363,0,1,0,0-12.72591,27.07344,27.07344,0,0,0-27.04388,27.04258v20.9987a14.33288,14.33288,0,0,1-14.31745,14.31679h-4.13515a6.36328,6.36328,0,1,0,0,12.72656Z" fill="#404040"/><path d="M55.88971,254.78552a6.30473,6.30473,0,0,0-4.0306-1.47732H47.72343a14.33261,14.33261,0,0,1-14.31679-14.31615V217.9927a26.89948,26.89948,0,0,0-6.78776-17.856v39.485a19.60237,19.60237,0,0,0,19.6023,19.6023h9.66853Z" fill="#ffcf86"/><path d="M47.31737,266.01427a19.69909,19.69909,0,0,0,10.80817-7.30649,6.348,6.348,0,0,0-6.26643-5.39958H47.72343a14.33261,14.33261,0,0,1-14.31679-14.31615v-9.60614a19.52732,19.52732,0,0,0-10.64815,19.98475A27.0718,27.0718,0,0,0,47.31737,266.01427Z" fill="#707070"/><path d="M51.85911,253.3082H47.72343a14.24389,14.24389,0,0,1-9.19066-3.35381A46.34153,46.34153,0,0,0,36.694,262.87348c0,.26772.032.52642.0402.79153a26.86359,26.86359,0,0,0,10.58316,2.34926,19.69909,19.69909,0,0,0,10.80817-7.30649A6.348,6.348,0,0,0,51.85911,253.3082Z" opacity="0.1"/><path d="M33.10642,214.18779a26.97,26.97,0,0,0-8.36651-15.97843A9.86929,9.86929,0,0,0,32.473,214.21964C32.687,214.21964,32.89614,214.20045,33.10642,214.18779Z" fill="#8d8e8d"/><path d="M147.49316,289.28129H66.0707a25.877,25.877,0,0,1-25.87695-25.8776h0A46.33842,46.33842,0,0,1,86.53149,217.066h87.237v45.93884A26.27556,26.27556,0,0,1,147.49316,289.28129Z" fill="#e9e9e9"/><path d="M120.33063,226.49366A24.81667,24.81667,0,0,0,94.76916,241.4751a24.7844,24.7844,0,1,0-4.35431,37.56529,26.92188,26.92188,0,0,1,21.27333-3.79852,24.80785,24.80785,0,1,0,8.64245-48.74821Z" fill="#ffcf86"/><path d="M87.08467,219.61283a24.805,24.805,0,0,0,49.61,0,25.06315,25.06315,0,0,0-.12947-2.54688H87.214A25.29063,25.29063,0,0,0,87.08467,219.61283Z" fill="#ffcf86"/><circle cx="105.81442" cy="247.38587" r="15.25814" transform="translate(-158.39431 298.27996) rotate(-77.74538)" fill="#707070"/><path d="M98.404,274.02326a7.84766,7.84766,0,1,1-7.84765-7.84831A7.84735,7.84735,0,0,1,98.404,274.02326Z" fill="#707070"/><path d="M45.89995,241.11954A25.91092,25.91092,0,1,0,91.14646,217.066h-4.615A46.322,46.322,0,0,0,45.89995,241.11954Z" fill="#707070"/><path d="M138.86415,275.86776a4.23233,4.23233,0,1,1-4.232-4.23331A4.2325,4.2325,0,0,1,138.86415,275.86776Z" fill="#ffcf86"/><path d="M147.49316,281.14373H66.0707A25.86354,25.86354,0,0,1,40.43719,258.6326a46.84951,46.84951,0,0,0-.24344,4.77109h0a25.877,25.877,0,0,0,25.877,25.8776h81.42246a26.27556,26.27556,0,0,0,26.27533-26.2765v-8.13638A26.27531,26.27531,0,0,1,147.49316,281.14373Z" opacity="0.05"/><path d="M109.11585,225.19985a2.94612,2.94612,0,0,0,1.91407,3.70167l.14332.046h-.00065v.00117q-.17778.7822-.31614,1.56413v.00378h0a32.55387,32.55387,0,0,0,.09881,11.92734l-10.58183,10.37352a2.57328,2.57328,0,0,0,1.38686,4.37728l19.19309,3.13322a32.5796,32.5796,0,0,0,9.48945,6.08669l-.5417,1.7004a2.94309,2.94309,0,0,0,1.912,3.69657h0c.01214.00392.02428.00392.03576.00771h0l.00509.0013a2.93156,2.93156,0,0,0,2.218-.20911c.01214-.00509.02233-.01527.03446-.02166a2.97791,2.97791,0,0,0,.434-.28169c.03759-.03054.06814-.06878.10442-.10076a2.87463,2.87463,0,0,0,.30087-.29056c.06435-.07519.11408-.16316.17086-.24474.05221-.07649.11213-.14528.15742-.22686a2.93179,2.93179,0,0,0,.23573-.54431l.38-1.19447.00823.00509c.17779.10586.355.2142.53544.31745.74948.43088,1.51242.84518,2.29625,1.2301.095.04582.19318.088.28808.1338.69989.3365,1.41558.65264,2.14158.9522.21472.088.43023.176.6469.26132.82731.32385,1.66477.63359,2.52326.90627,1.11785.35569,2.18479.6807,3.22119.98288.09359.02806.19175.0573.28481.08406,1.01147.29317,1.98091.55331,2.91967.78656.09059.02285.18235.04582.27215.06749q1.41794.34812,2.733.59273c.056.01149.11212.02049.16825.03067.90248.16434,1.77493.29448,2.61188.37854h.00065c6.92469.69976,11.71445-1.47485,16.17579-8.62835.25244-.00522.50228-.02689.75277-.04464a26.37033,26.37033,0,0,0,.29891-3.7578V217.066H111.70476Z" opacity="0.1"/><path d="M188.04542,111.41094H419.63279a8.28711,8.28711,0,0,1,8.28711,8.28711V266.67083a0,0,0,0,1,0,0H179.75832a0,0,0,0,1,0,0V119.698A8.2871,8.2871,0,0,1,188.04542,111.41094Z" fill="#cecece"/><path d="M197.15639,127.31849H410.52183a6.581,6.581,0,0,1,6.581,6.581V238.45558a6.581,6.581,0,0,1-6.581,6.581H197.15649a6.5811,6.5811,0,0,1-6.5811-6.5811v-104.556A6.581,6.581,0,0,1,197.15639,127.31849Z" fill="#f3f7fb"/><polygon points="427.92 266.671 303.838 266.671 179.758 266.671 121.642 286.185 303.838 286.185 486.037 286.185 427.92 266.671" fill="#c2c2c2"/><path d="M467.37171,304.85051H140.3065a18.66552,18.66552,0,0,1-18.66484-18.66536H486.03707A18.66561,18.66561,0,0,1,467.37171,304.85051Z" fill="#cecece"/><polygon points="193.121 268.367 182.728 268.367 147.094 281.518 457.191 281.518 422.83 268.367 193.121 268.367" fill="#cecece"/><line x1="166.39569" y1="272.82252" x2="438.94984" y2="272.82252" fill="none" stroke="#c2c2c2" stroke-miterlimit="10" stroke-width="0.97498"/><line x1="153.66913" y1="277.17044" x2="452.25895" y2="277.17044" fill="none" stroke="#c2c2c2" stroke-miterlimit="10" stroke-width="0.97498"/><line x1="194.52048" y1="267.82953" x2="169.84309" y2="277.42288" fill="none" stroke="#c2c2c2" stroke-miterlimit="10" stroke-width="0.97498"/><line x1="212.74035" y1="267.82953" x2="179.75832" y2="283.30555" fill="none" stroke="#c2c2c2" stroke-miterlimit="10" stroke-width="0.97498"/><line x1="204.57407" y1="283.30555" x2="230.96022" y2="267.82953" fill="none" stroke="#c2c2c2" stroke-miterlimit="10" stroke-width="0.97498"/><line x1="237.23553" y1="277.17044" x2="249.18009" y2="267.82953" fill="none" stroke="#c2c2c2" stroke-miterlimit="10" stroke-width="0.97498"/><path d="M264.18729,216.22575q0,13.15455,1.24672,18.82072,0,1.13139-4.875,2.38041a34.66035,34.66035,0,0,1-8.38911,1.24787l-3.062-.34022q-.45325-.6816-.45325-4.649,0-3.96678.45325-17.1196-6.46137.3408-20.237.34023-13.77389,0-14.22828-.45325a7.83921,7.83921,0,0,1-1.7-3.34457,19.11917,19.11917,0,0,1-.79463-4.13805l-.113-1.70111q0-3.06028,13.60549-23.69457,13.60434-20.63313,20.85975-28.57073.79233-.79232,4.42176-1.24671a57.79823,57.79823,0,0,1,7.14355-.45325q3.5118,0,3.5141,1.01952a.465.465,0,0,1-.113.34022q-7.03226,8.05119-7.02937,8.95654,10.20326.22835,10.20325,1.70111-.56915,17.11961-.56627,34.57943v4.30757a47.58228,47.58228,0,0,0,6.97171-.28371c.86843-.18683,1.30438-.05651,1.30438.39674a17.32524,17.32524,0,0,1-1.64461,6.91634,18.29267,18.29267,0,0,1-2.54994,4.64781A29.65532,29.65532,0,0,1,264.18729,216.22575Zm-26.86961-11.67717,12.2446-.113q.79059-19.04676.79347-26.70006,0-7.65331-.34022-7.65216-2.49459,2.49459-11.79135,16.72171-9.29676,14.23059-9.29676,17.17727Q228.92742,204.54973,237.31768,204.54858Z" fill="#707070"/><path d="M334.64821,171.89632a50.82675,50.82675,0,0,1,5.83916,13.03807,56.29575,56.29575,0,0,1,2.04019,15.70334,44.125,44.125,0,0,1-2.94784,16.212q-2.94957,7.54084-7.82284,11.39461a33.47689,33.47689,0,0,1-21.42718,7.59564q-16.21483,0-25.16964-11.45113a31.15324,31.15324,0,0,1-5.15871-10.54347,54.04266,54.04266,0,0,1-1.98368-15.53266,50.60763,50.60763,0,0,1,3.40109-17.96958,37.39449,37.39449,0,0,1,10.99787-15.475,26.7612,26.7612,0,0,1,17.91307-6.4631,27.40045,27.40045,0,0,1,14.17177,3.74131A29.56621,29.56621,0,0,1,334.64821,171.89632Zm-37.07286,46.14357q4.47711,6.23647,12.75435,6.2359,8.27436,0,12.75436-6.2359,4.47711-6.233,4.47827-18.81956,0-12.5854-4.93152-20.74789-4.93209-8.1619-12.30111-8.16306-7.37132,0-12.3011,8.16306-4.93209,8.16365-4.93152,20.74789Q293.09708,211.804,297.57535,218.03989Z" fill="#707070"/><path d="M400.3483,216.22575q0,13.15455,1.24672,18.82072,0,1.13139-4.875,2.38041a34.66042,34.66042,0,0,1-8.38911,1.24787l-3.062-.34022q-.45324-.6816-.45325-4.649,0-3.96678.45325-17.1196-6.46137.3408-20.237.34023-13.77387,0-14.22827-.45325a7.8391,7.8391,0,0,1-1.7-3.34457,19.1185,19.1185,0,0,1-.79462-4.13805l-.113-1.70111q0-3.06028,13.60549-23.69457,13.60434-20.63313,20.85976-28.57073.79231-.79232,4.42175-1.24671a57.79835,57.79835,0,0,1,7.14355-.45325q3.5118,0,3.51411,1.01952a.465.465,0,0,1-.113.34022q-7.03224,8.05119-7.02937,8.95654,10.20326.22835,10.20326,1.70111-.56916,17.11961-.56627,34.57943v4.30757a47.5822,47.5822,0,0,0,6.9717-.28371c.86844-.18683,1.30438-.05651,1.30438.39674a17.32538,17.32538,0,0,1-1.6446,6.91634,18.29259,18.29259,0,0,1-2.55,4.64781A29.65532,29.65532,0,0,1,400.3483,216.22575Zm-26.8696-11.67717,12.24459-.113q.79059-19.04676.79347-26.70006,0-7.65331-.34022-7.65216-2.49459,2.49459-11.79135,16.72171-9.29676,14.23059-9.29676,17.17727Q365.08843,204.54973,373.4787,204.54858Z" fill="#707070"/><path d="M262.50905,214.92046q0,13.15455,1.24672,18.82072,0,1.13139-4.875,2.38041a34.66035,34.66035,0,0,1-8.38911,1.24787l-3.062-.34022q-.45326-.6816-.45325-4.649,0-3.96676.45325-17.11959-6.46137.3408-20.237.34022-13.77389,0-14.22828-.45325a7.839,7.839,0,0,1-1.7-3.34457,19.11921,19.11921,0,0,1-.79463-4.138l-.113-1.70112q0-3.06028,13.60549-23.69457,13.60434-20.63313,20.85975-28.57072.79233-.79233,4.42176-1.24672a57.80017,57.80017,0,0,1,7.14355-.45325q3.5118,0,3.5141,1.01952a.465.465,0,0,1-.113.34022q-7.03225,8.05119-7.02937,8.95654,10.20326.22834,10.20325,1.70112-.56914,17.11959-.56627,34.57942v4.30758a47.58165,47.58165,0,0,0,6.97171-.28372c.86843-.18683,1.30438-.05651,1.30438.39674a17.32528,17.32528,0,0,1-1.64461,6.91635,18.29255,18.29255,0,0,1-2.54994,4.6478A29.65321,29.65321,0,0,1,262.50905,214.92046Zm-26.86961-11.67717,12.2446-.113q.79059-19.04677.79347-26.70007,0-7.65332-.34022-7.65215-2.49459,2.49459-11.79135,16.72171-9.29676,14.23057-9.29676,17.17726Q227.24918,203.24444,235.63944,203.24329Z" fill="#fd9702"/><path d="M332.97,170.591a50.82675,50.82675,0,0,1,5.83916,13.03807,56.29583,56.29583,0,0,1,2.04019,15.70335,44.125,44.125,0,0,1-2.94784,16.212q-2.94957,7.54086-7.82284,11.39461a33.47689,33.47689,0,0,1-21.42718,7.59564q-16.21483,0-25.16964-11.45112a31.15339,31.15339,0,0,1-5.15871-10.54348,54.04262,54.04262,0,0,1-1.98368-15.53266,50.60767,50.60767,0,0,1,3.40109-17.96958,37.39449,37.39449,0,0,1,10.99787-15.475,26.76123,26.76123,0,0,1,17.91307-6.4631,27.40045,27.40045,0,0,1,14.17177,3.74131A29.5663,29.5663,0,0,1,332.97,170.591ZM295.89711,216.7346q4.47711,6.23647,12.75435,6.2359,8.27436,0,12.75436-6.2359,4.47711-6.233,4.47827-18.81956,0-12.58539-4.93152-20.74788-4.93209-8.16192-12.30111-8.16307-7.37131,0-12.3011,8.16307-4.93209,8.16363-4.93152,20.74788Q291.41884,210.4987,295.89711,216.7346Z" fill="#fd9702"/><path d="M398.67006,214.92046q0,13.15455,1.24672,18.82072,0,1.13139-4.875,2.38041a34.66042,34.66042,0,0,1-8.38912,1.24787l-3.062-.34022q-.45324-.6816-.45325-4.649,0-3.96676.45325-17.11959-6.46137.3408-20.237.34022-13.77387,0-14.22827-.45325a7.839,7.839,0,0,1-1.7-3.34457,19.11853,19.11853,0,0,1-.79462-4.138l-.113-1.70112q0-3.06028,13.60549-23.69457,13.60434-20.63313,20.85976-28.57072.79231-.79233,4.42175-1.24672a57.80029,57.80029,0,0,1,7.14355-.45325q3.5118,0,3.51411,1.01952a.465.465,0,0,1-.113.34022q-7.03224,8.05119-7.02937,8.95654,10.20325.22834,10.20326,1.70112-.56916,17.11959-.56627,34.57942v4.30758a47.58157,47.58157,0,0,0,6.9717-.28372c.86844-.18683,1.30438-.05651,1.30438.39674a17.32543,17.32543,0,0,1-1.6446,6.91635,18.29246,18.29246,0,0,1-2.54995,4.6478A29.65321,29.65321,0,0,1,398.67006,214.92046Zm-26.8696-11.67717,12.24459-.113q.79059-19.04677.79347-26.70007,0-7.65332-.34022-7.65215-2.49459,2.49459-11.79135,16.72171-9.29676,14.23057-9.29676,17.17726Q363.41019,203.24444,371.80046,203.24329Z" fill="#fd9702"/><line x1="259.43691" y1="277.17044" x2="267.3993" y2="267.82953" fill="none" stroke="#c2c2c2" stroke-miterlimit="10" stroke-width="0.97498"/><line x1="281.63765" y1="277.17044" x2="285.61917" y2="267.82953" fill="none" stroke="#c2c2c2" stroke-miterlimit="10" stroke-width="0.97498"/><line x1="303.83839" y1="277.2763" x2="303.83839" y2="268.36744" fill="none" stroke="#c2c2c2" stroke-miterlimit="10" stroke-width="0.97498"/><line x1="326.03978" y1="277.17044" x2="322.05891" y2="267.82953" fill="none" stroke="#c2c2c2" stroke-miterlimit="10" stroke-width="0.97498"/><line x1="353.31195" y1="283.2151" x2="340.27812" y2="267.82953" fill="none" stroke="#c2c2c2" stroke-miterlimit="10" stroke-width="0.97498"/><line x1="379.24178" y1="284.16978" x2="358.49734" y2="267.82953" fill="none" stroke="#c2c2c2" stroke-miterlimit="10" stroke-width="0.97498"/><line x1="404.05882" y1="283.69309" x2="376.71786" y2="267.82953" fill="none" stroke="#c2c2c2" stroke-miterlimit="10" stroke-width="0.97498"/><line x1="428.74326" y1="283.69309" x2="394.93708" y2="267.82953" fill="none" stroke="#c2c2c2" stroke-miterlimit="10" stroke-width="0.97498"/><line x1="437.04542" y1="277.17044" x2="413.15629" y2="267.82953" fill="none" stroke="#c2c2c2" stroke-miterlimit="10" stroke-width="0.97498"/><line x1="281.48793" y1="256.27812" x2="326.19028" y2="256.27812" fill="none" stroke="#9b9b9b" stroke-linecap="round" stroke-miterlimit="10" stroke-width="3.8999"/><path d="M227.51856,255.35907a6.0933,6.0933,0,0,0,4.91781-7.38428,6.009,6.009,0,0,0-3.26766-4.07642l1.20073-.54822a5.86334,5.86334,0,0,0,3.2486-7.13053,5.69881,5.69881,0,0,0-7.75654-3.33723l-1.42381.64886a6.00487,6.00487,0,0,0-.93889-5.13957,6.091,6.091,0,0,0-8.79856-1.12425c-5.58507,4.59018-11.37154,8.92922-17.949,11.93112l-16.9929,7.75394v19.71834h13.251l13.73672-5.57176C213.3229,258.09848,220.39169,256.5675,227.51856,255.35907Z" opacity="0.2"/><path d="M226.96538,249.76316a6.13474,6.13474,0,0,0,2.55315-6.44486,6.01064,6.01064,0,0,0-3.26766-4.07772l1.20073-.54809a5.86254,5.86254,0,0,0,3.2486-7.12935,5.69837,5.69837,0,0,0-7.75654-3.33841l-1.4238.65a6.011,6.011,0,0,0-.93877-5.14088,6.09474,6.09474,0,0,0-8.79868-1.12424c-5.58508,4.59148-11.37221,8.93052-17.9489,11.93112l-38.167,17.41751,17.43343,16.94839,30.72845-12.46407c6.57617-3.00191,13.645-4.53157,20.77249-5.73988A6.16709,6.16709,0,0,0,226.96538,249.76316Z" fill="#e9e9e9"/><path d="M381.46872,118.47216a14.61223,14.61223,0,0,0,26.18983-2.84579c4.05736-.95156,6.95471-2.31806,9.0262-4.21543H346.76123a19.91585,19.91585,0,0,0,8.45514,4.04209,14.61422,14.61422,0,0,0,26.25235,3.01913Z" opacity="0.2"/><path d="M362.93206,44.462l-16.3276-8.65015a2.573,2.573,0,0,0-3.75009,2.64948l3.07957,20.90054Z" fill="#404040"/><path d="M359.88044,47.13762l-11.76419-6.413a.97741.97741,0,0,0-1.4353.99358l2.12358,15.12869Z" fill="#ff6462"/><path d="M400.00525,44.462l16.32891-8.65015a2.57324,2.57324,0,0,1,3.7501,2.64948l-3.07959,20.90054Z" fill="#404040"/><path d="M403.05819,47.13762l11.76417-6.413a.97631.97631,0,0,1,1.434.99358l-2.12227,15.12869Z" fill="#ff6462"/><circle cx="369.06078" cy="104.27519" r="14.63509" fill="#e9e9e9"/><path d="M408.5126,104.27519a14.63541,14.63541,0,1,1-14.63607-14.63542A14.63521,14.63521,0,0,1,408.5126,104.27519Z" fill="#e9e9e9"/><path d="M421.7695,83.6716c0,22.25687-2.54557,27.3907-40.30078,27.3907-36.37473,0-40.29959-5.13383-40.29959-27.3907a40.30019,40.30019,0,0,1,80.60037,0Z" fill="#e9e9e9"/><path d="M398.4808,47.13762a27.27772,27.27772,0,0,0-17.01208,15.21849,27.27572,27.27572,0,0,0-17.01091-15.21849A40.29734,40.29734,0,0,0,341.16913,83.671a62.89526,62.89526,0,0,0,.919,12.52268,27.13848,27.13848,0,0,0,37.28739-8.34354,2.47213,2.47213,0,0,1,4.18749,0,27.13851,27.13851,0,0,0,37.28741,8.34354,62.89677,62.89677,0,0,0,.919-12.52268A40.29736,40.29736,0,0,0,398.4808,47.13762Z" fill="#404040"/><path d="M372.13656,83.6716a7.84766,7.84766,0,1,1-7.84816-7.84831A7.84759,7.84759,0,0,1,372.13656,83.6716Z" fill="#ffc400"/><path d="M369.40237,83.6716a5.1134,5.1134,0,1,1-5.114-5.11412A5.11353,5.11353,0,0,1,369.40237,83.6716Z" fill="#404040"/><path d="M362.61461,80.06548a1.93176,1.93176,0,1,1-1.93117-1.93235A1.9318,1.9318,0,0,1,362.61461,80.06548Z" fill="#fff"/><path d="M406.49736,83.6716a7.84766,7.84766,0,1,1-7.8483-7.84831A7.84762,7.84762,0,0,1,406.49736,83.6716Z" fill="#ffc400"/><path d="M403.76305,83.6716a5.11341,5.11341,0,1,1-5.114-5.11412A5.11354,5.11354,0,0,1,403.76305,83.6716Z" fill="#404040"/><path d="M396.97528,80.06548a1.93175,1.93175,0,1,1-1.931-1.93235A1.93177,1.93177,0,0,1,396.97528,80.06548Z" fill="#fff"/><path d="M380.81607,99.95651l-3.62021-3.62009a.92348.92348,0,0,1,.65264-1.57626h7.24031a.92358.92358,0,0,1,.65395,1.57626l-3.62021,3.62009A.92381.92381,0,0,1,380.81607,99.95651Z" fill="#ff6462"/><path d="M387.51078,38.73483H375.42667A32.7963,32.7963,0,0,0,342.6313,71.53137h77.676A32.79654,32.79654,0,0,0,387.51078,38.73483Z" fill="#ffc400"/><path d="M421.95433,74.47467H340.98428a2.94267,2.94267,0,0,1-2.94316-2.9433h0a2.9422,2.9422,0,0,1,2.94316-2.94264h80.97005a2.943,2.943,0,0,1,2.94316,2.94264h0A2.94351,2.94351,0,0,1,421.95433,74.47467Z" fill="#ffd800"/><path d="M341.69058,77.21721H421.248c-.14907-.9261-.3352-1.83876-.54548-2.74254h-78.4665C342.02577,75.37845,341.83964,76.29111,341.69058,77.21721Z" opacity="0.1"/><path d="M424.89371,71.56844h-86.8488a2.94038,2.94038,0,0,0,2.93937,2.90623h80.97005A2.94121,2.94121,0,0,0,424.89371,71.56844Z" opacity="0.1"/><path d="M374.88267,35.76543h13.1721a2.2578,2.2578,0,0,1,2.2578,2.2578V68.58873a0,0,0,0,1,0,0h-17.6877a0,0,0,0,1,0,0V38.02323A2.2578,2.2578,0,0,1,374.88267,35.76543Z" fill="#ffd800"/><path d="M419.98869,66.998H391.90333V39.03622q-.78965-.10515-1.59076-.174V66.998h-17.6877V38.86222c-.53413.0453-1.06316.1039-1.59089.174V66.998H342.94992q-.10907.78963-.18105,1.59075h77.40087Q420.09887,67.78775,419.98869,66.998Z" opacity="0.1"/><path d="M380.9919,44.14394h-3.7501a2.70472,2.70472,0,0,1-2.70495-2.70429h0a2.70484,2.70484,0,0,1,2.70495-2.70482h3.7501a2.70363,2.70363,0,0,1,2.70364,2.70482h0A2.70352,2.70352,0,0,1,380.9919,44.14394Z" fill="#fff" opacity="0.2"/><path d="M364.2884,52.17708a4.9312,4.9312,0,1,1-4.93061-4.93112A4.9317,4.9317,0,0,1,364.2884,52.17708Z" fill="#fff" opacity="0.2"/><path d="M403.39092,49.70356a3.863,3.863,0,1,1-3.86234-3.863A3.86318,3.86318,0,0,1,403.39092,49.70356Z" fill="#fff" opacity="0.2"/><path d="M354.31,58.27839a1.43144,1.43144,0,1,1-1.43151-1.43151A1.43183,1.43183,0,0,1,354.31,58.27839Z" fill="#fff" opacity="0.2"/><path d="M217.57461,194.61668a6.1327,6.1327,0,0,0,.19893-6.92925,6.01187,6.01187,0,0,0-4.46394-2.71578l.94188-.92532a5.8632,5.8632,0,0,0,.61832-7.81072,5.69879,5.69879,0,0,0-8.43021-.48883l-1.116,1.09683a6.01074,6.01074,0,0,0-2.638-4.51055,6.093,6.093,0,0,0-8.65393,1.94775c-3.68131,6.22244-7.63855,12.27663-12.79535,17.3435l-29.92413,29.40476,16.87255,17.17133,29.92465-29.40463c5.15615-5.06687,11.2773-8.91838,17.56344-12.48887A6.15061,6.15061,0,0,0,217.57461,194.61668Z" opacity="0.2"/><path d="M214.72634,190.49171a6.1338,6.1338,0,0,0,.19828-6.92925,6.00807,6.00807,0,0,0-4.46344-2.71566l.94139-.92545a5.86247,5.86247,0,0,0,.6183-7.81071,5.69831,5.69831,0,0,0-8.42968-.48883l-1.11654,1.09683a6.00853,6.00853,0,0,0-2.638-4.51042,6.09353,6.09353,0,0,0-8.65393,1.94775c-3.6813,6.22179-7.63855,12.2765-12.7947,17.3435l-29.92478,29.40462,16.87308,17.17016,29.92412-29.40345c5.15681-5.06687,11.278-8.91838,17.56409-12.48874A6.16,6.16,0,0,0,214.72634,190.49171Z" fill="#e9e9e9"/><path d="M427.9199,135.7021l-11.90437,11.19637c-5.25053,4.96871-11.44294,8.70419-17.79485,12.1555a6.0918,6.0918,0,0,0-2.26261,8.57744,6.00662,6.00662,0,0,0,4.41175,2.8005l-.95848.90756a5.86229,5.86229,0,0,0-.7662,7.79728,5.69966,5.69966,0,0,0,8.42068.64755l1.13573-1.07582a6.00977,6.00977,0,0,0,2.55327,4.55963,6.091,6.091,0,0,0,8.68826-1.78459,105.12716,105.12716,0,0,1,8.47682-12.10394Z" opacity="0.2"/><path d="M396.287,156.04189a6.1313,6.1313,0,0,0-.32894,6.92351,6.01037,6.01037,0,0,0,4.41175,2.80049l-.95848.90692a5.86318,5.86318,0,0,0-.7662,7.79792,5.69959,5.69959,0,0,0,8.42068.6469l1.13573-1.07516a6.00977,6.00977,0,0,0,2.55327,4.55963,6.09007,6.09007,0,0,0,8.68826-1.78524c3.79867-6.1517,7.8688-12.13,13.1192-17.09941l1.57679-1.48255a23.99986,23.99986,0,0,0,.98914-33.97888h0L416.01553,142.2318c-5.25053,4.96871-11.44294,8.70484-17.79485,12.15615A6.15024,6.15024,0,0,0,396.287,156.04189Z" fill="#e9e9e9"/><path d="M320.70141,120.655l2.85532,5.24413c2.9878,6.58309,4.5022,13.65514,5.69654,20.78515a6.09,6.09,0,0,0,7.37292,4.93243,6.00547,6.00547,0,0,0,4.08411-3.25879l.54548,1.202a5.86259,5.86259,0,0,0,7.12309,3.26388,5.69843,5.69843,0,0,0,3.355-7.7495l-.64756-1.42511a6.01078,6.01078,0,0,0,5.14336-.92793,6.0924,6.0924,0,0,0,1.14213-8.79608c-4.57869-5.5946-8.90494-11.3906-11.89157-17.97382l-2.14028-4.54045h-24.7826A23.99842,23.99842,0,0,0,320.70141,120.655Z" opacity="0.2"/><path d="M330.18643,144.68118a6.13452,6.13452,0,0,0,6.43976,2.56711,6.00783,6.00783,0,0,0,4.08411-3.25931l.54548,1.202a5.86284,5.86284,0,0,0,7.12309,3.26388,5.69827,5.69827,0,0,0,3.355-7.7495l-.64756-1.42512a6.00864,6.00864,0,0,0,5.14336-.92806,6.09239,6.09239,0,0,0,1.14213-8.79607c-4.57869-5.5946-8.90494-11.3906-11.89157-17.97317L332.67586,84.416h0a24.07394,24.07394,0,0,0-11.97445,31.86992l2.85532,5.24413c2.9878,6.58322,4.5022,13.65514,5.69654,20.78528A6.16453,6.16453,0,0,0,330.18643,144.68118Z" fill="#e9e9e9"/><path d="M227.34014,238.74353l.11146-.051a5.86254,5.86254,0,0,0,3.2486-7.12935,5.67429,5.67429,0,0,0-1.60929-2.37994,5.95608,5.95608,0,0,1-3.50548,5.8815l-1.20073.54809A6.02156,6.02156,0,0,1,227.34014,238.74353Z" opacity="0.05"/><path d="M221.07749,224.59694l.01475-.00509a6.13218,6.13218,0,0,0-.51115-.858,5.91986,5.91986,0,0,0-.76869-.85013,6.20174,6.20174,0,0,1-.15807,2.36192Z" opacity="0.05"/><path d="M227.73968,240.26158a6.06973,6.06973,0,0,1-5.005,6.812c-7.12687,1.20843-14.19566,2.738-20.77249,5.73987l-18.69278,7.58321a14.57162,14.57162,0,0,0-.97074-17.68888,14.64088,14.64088,0,0,0,9.167-7.086l-35.79923,16.33647,15.59023,15.1574h0l1.8432,1.791,30.72845-12.46407c6.57617-3.00191,13.645-4.53157,20.77249-5.73988a6.09349,6.09349,0,0,0,4.91768-7.38441A5.94577,5.94577,0,0,0,227.73968,240.26158Z" opacity="0.05"/><path d="M214.92462,183.56246a5.948,5.948,0,0,0-2.30854-2.07319,6.05977,6.05977,0,0,1-2.70038,7.37031c-6.28627,3.57035-12.40729,7.42187-17.56344,12.48874l-2.13388,2.09629c-1.63474-6.30337-6.76153-9.25945-15.54938-12.29125l-26.20575,25.74943,16.87308,17.17146,29.92412-29.40345c5.15681-5.06687,11.278-8.91838,17.56409-12.48874a6.09367,6.09367,0,0,0,2.10008-8.6196Z" opacity="0.05"/><path d="M112.31029,235.9506,99.1159,248.88627a2.5731,2.5731,0,0,0,1.38687,4.37729l20.85016,3.40471Z" fill="#ffcf86"/><path d="M113.93419,239.67146l-9.67871,9.26441a.977.977,0,0,0,.51115,1.66868l15.05989,2.56594Z" fill="#ff6462"/><path d="M123.5556,200.62427l-3.28933-18.18279a2.57293,2.57293,0,0,1,3.6616-2.77L142.91,188.94625Z" fill="#8d8e8d"/><path d="M127.03106,198.52746,124.48875,185.372a.97678.97678,0,0,1,1.38178-1.06564l13.77184,6.61181Z" fill="#ff6462"/><path d="M175.604,234.3075a14.63529,14.63529,0,1,1-18.38486,9.50668A14.63583,14.63583,0,0,1,175.604,234.3075Z" fill="#e9e9e9"/><path d="M183.131,210.66064a14.63529,14.63529,0,1,1-18.3842,9.50667A14.63477,14.63477,0,0,1,183.131,210.66064Z" fill="#e9e9e9"/><path d="M167.51928,191.77925c21.20833,6.75134,25.32886,10.73352,13.87692,46.70922-11.03374,34.66285-17.116,36.84386-38.32432,30.093a40.2997,40.2997,0,1,1,24.4474-76.80226Z" fill="#e9e9e9"/><path d="M163.1993,196.70789a15.16564,15.16564,0,1,1-19.05095,9.85075A15.16562,15.16562,0,0,1,163.1993,196.70789Z" fill="#8d8e8d"/><path d="M115.323,235.30944a40.29514,40.29514,0,0,0,27.74886,33.27207,62.82022,62.82022,0,0,0,12.211,2.92293,27.19075,27.19075,0,1,0-39.95984-36.195Z" fill="#ffcf86"/><path d="M152.46448,239.07363a7.84776,7.84776,0,1,1-9.85845,5.09755A7.84827,7.84827,0,0,1,152.46448,239.07363Z" fill="#ffc400"/><path d="M151.63523,241.67912a5.11339,5.11339,0,1,1-6.42372,3.32183A5.11343,5.11343,0,0,1,151.63523,241.67912Z" fill="#404040"/><path d="M146.14076,247.05325a1.93171,1.93171,0,1,1-2.42707,1.25426A1.93129,1.93129,0,0,1,146.14076,247.05325Z" fill="#fff"/><path d="M162.88707,206.33178a7.84776,7.84776,0,1,1-9.85858,5.09754A7.8473,7.8473,0,0,1,162.88707,206.33178Z" fill="#ffc400"/><path d="M162.05783,208.93726a5.1135,5.1135,0,1,1-6.4245,3.32053A5.11337,5.11337,0,0,1,162.05783,208.93726Z" fill="#404040"/><path d="M156.56269,214.31009a1.93223,1.93223,0,1,1-2.427,1.25556A1.93331,1.93331,0,0,1,156.56269,214.31009Z" fill="#fff"/><path d="M170.61556,235.7428l-4.5475,2.35056a.923.923,0,0,1-1.304-1.10009l2.19628-6.89858a.9232.9232,0,0,1,1.69974-.14411l2.35122,4.54684A.924.924,0,0,1,170.61556,235.7428Z" fill="#ff6462"/><path d="M114.30907,210.79325l-3.66538,11.51435a32.7963,32.7963,0,0,0,21.30336,41.19934h0l23.56136-74.01769h0A32.79636,32.79636,0,0,0,114.30907,210.79325Z" fill="#ffc400"/><path d="M158.81183,188.813l-24.56017,77.15678a2.94288,2.94288,0,0,1-3.69671,1.91068h0a2.94232,2.94232,0,0,1-1.91133-3.69658l24.55952-77.15612a2.94385,2.94385,0,0,1,3.69723-1.912h0A2.943,2.943,0,0,1,158.81183,188.813Z" fill="#ffd800"/><path d="M137.07956,266.1277l24.13126-75.80933c-.9274-.13888-1.854-.239-2.77883-.31223l-23.79984,74.76915C135.42877,265.2508,136.24275,265.70452,137.07956,266.1277Z" opacity="0.1"/><path d="M156.93419,185.131l-26.34282,82.75712a2.93965,2.93965,0,0,0,3.66029-1.91838L158.81183,188.813A2.94025,2.94025,0,0,0,156.93419,185.131Z" opacity="0.1"/><path d="M111.43522,210.031l-3.57741,11.23775a2.94634,2.94634,0,0,0,1.9146,3.70166l28.46834,9.06314L143.606,217.1782l-28.46913-9.06183A2.94694,2.94694,0,0,0,111.43522,210.031Z" fill="#ffd800"/><path d="M151.09105,188.41852l-8.51883,26.7622-26.64367-8.48189q-.34128.7209-.64887,1.46335l26.8101,8.53411-5.3646,16.854-26.8101-8.534q-.17877.78376-.31667,1.56909l26.64434,8.48059-8.51884,26.7622q.719.34224,1.46075.65525l8.57365-26.93437.48244-1.51557L143.606,217.1782l.48243-1.5157,8.57366-26.93423Q151.87717,188.55322,151.09105,188.41852Z" opacity="0.1"/><path d="M117.48562,218.64535l-1.13769,3.57427a2.70589,2.70589,0,0,1-3.3978,1.75653h0a2.70424,2.70424,0,0,1-1.75652-3.39715l1.13769-3.57414a2.70507,2.70507,0,0,1,3.39714-1.75653h0A2.70547,2.70547,0,0,1,117.48562,218.64535Z" fill="#fff" opacity="0.2"/><path d="M120.07388,236.99836a4.93151,4.93151,0,1,1-6.195,3.2033A4.93174,4.93174,0,0,1,120.07388,236.99836Z" fill="#fff" opacity="0.2"/><path d="M129.57729,198.98823a3.86273,3.86273,0,1,1-4.85267,2.50993A3.863,3.863,0,0,1,129.57729,198.98823Z" fill="#fff" opacity="0.2"/><path d="M122.86094,248.35724a1.432,1.432,0,1,1-1.79857.93054A1.4324,1.4324,0,0,1,122.86094,248.35724Z" fill="#fff" opacity="0.2"/><path d="M341.11953,136.748a10.56072,10.56072,0,0,0,5.03631-14.06108L329.04677,86.48358a24.06217,24.06217,0,0,0-8.34536,29.80235l2.85532,5.24413a62.399,62.399,0,0,1,3.53341,10.23907A10.55885,10.55885,0,0,0,341.11953,136.748Z" fill="#404040"/><path d="M423.18432,171.03417a68.5142,68.5142,0,0,1,9.378-11.31672l1.57679-1.48255a23.99272,23.99272,0,0,0,3.67112-30.54675L411.61266,153.8353a10.56,10.56,0,0,0-.014,14.93563h0A10.55885,10.55885,0,0,0,423.18432,171.03417Z" fill="#404040"/><g opacity="0.05"><path d="M434.13907,153.93985l-1.57679,1.48255c-5.2504,4.96936-9.32053,10.94771-13.1192,17.0994a6.09149,6.09149,0,0,1-8.68826,1.78512,6.00955,6.00955,0,0,1-2.55327-4.55951l-1.13573,1.07517a5.69959,5.69959,0,0,1-8.42068-.6469,5.342,5.342,0,0,1-.71-1.2677,5.63751,5.63751,0,0,0,9.13063,6.20965l1.13573-1.07516a6.01084,6.01084,0,0,0,2.55327,4.55963,6.09007,6.09007,0,0,0,8.68826-1.78524c3.79867-6.1517,7.8688-12.13,13.1192-17.09941l1.57679-1.48255a23.93363,23.93363,0,0,0,7.43792-19.66469A23.87714,23.87714,0,0,1,434.13907,153.93985Z"/></g><g opacity="0.05"><path d="M350.90017,145.061a5.86314,5.86314,0,0,1-7.123-3.26388l-.54561-1.20139a6.00761,6.00761,0,0,1-4.08412,3.25879,6.09266,6.09266,0,0,1-7.37279-4.93308c-1.19447-7.13-2.70873-14.20206-5.69536-20.78528l-2.85661-5.24348A24.04949,24.04949,0,0,1,324.602,90.397a24.06162,24.06162,0,0,0-3.90059,25.889l2.85532,5.24413c2.9878,6.58322,4.5022,13.65514,5.69654,20.78528a6.09056,6.09056,0,0,0,7.37292,4.933,6.00783,6.00783,0,0,0,4.08411-3.25931l.54548,1.202a5.86284,5.86284,0,0,0,7.12309,3.26388,5.666,5.666,0,0,0,3.64306-3.91783A5.79639,5.79639,0,0,1,350.90017,145.061Z"/></g><rect x="427.9199" y="164.51412" width="5.09113" height="12.72656" opacity="0.2"/><polygon points="509.481 315.554 511.014 317.964 508.553 319.07 509.481 315.554" fill="#c2c2c2"/><path d="M504.35693,305.925l1.40344,2.23961-1.7552.51376s-1.83042-1.81774-1.59469-1.92869C502.64506,306.63889,504.35693,305.925,504.35693,305.925Z" fill="#c2c2c2"/><path d="M510.02175,317.6892l-6.93811,3.71446-4.68718-2.91145.17726-5.51562,6.93943-3.71446a.74228.74228,0,0,0,.00757-1.30777,10.51285,10.51285,0,0,0-9.85584.04464,10.64734,10.64734,0,0,0-5.5284,9.17527L458.0295,334.361a10.65119,10.65119,0,0,0-10.70245-.48948,10.52163,10.52163,0,0,0-5.50284,8.17711.74327.74327,0,0,0,1.0924.72025l6.93943-3.71446,4.68834,2.91014-.17713,5.5155-6.93813,3.71329a.74524.74524,0,0,0-.00261,1.31285A10.52419,10.52419,0,0,0,462.83,343.26855l32.056-17.15867a10.52383,10.52383,0,0,0,16.22944-7.69533A.74506.74506,0,0,0,510.02175,317.6892Z" fill="#c2c2c2"/><polygon points="445.669 349.878 447.123 352.203 449.013 351.04 447.341 348.525 445.669 349.878" fill="#c2c2c2"/><polygon points="440.681 340.421 441.968 342.552 447.703 338.487 443.193 338.487 440.681 340.421" fill="#c2c2c2"/><path d="M508.58384,315.405l-6.93813,3.71315-4.687-2.91014.17713-5.51563,6.93944-3.71446a.74311.74311,0,0,0,.0077-1.30776,10.51313,10.51313,0,0,0-9.856.04464,10.647,10.647,0,0,0-5.52828,9.17526l-32.1071,17.18673a10.65113,10.65113,0,0,0-10.70232-.48948,10.51788,10.51788,0,0,0-5.50283,8.17711.74322.74322,0,0,0,1.09239.72026l6.93944-3.71577,4.68833,2.91145-.17725,5.5155-6.93813,3.71328a.7452.7452,0,0,0-.00248,1.31286,10.52413,10.52413,0,0,0,15.40331-9.23766l32.05606-17.15867a10.52381,10.52381,0,0,0,16.22943-7.69532A.74528.74528,0,0,0,508.58384,315.405Z" fill="#cecece"/><path d="M489.53224,322.89247l-26.51745,14.19371a2.3884,2.3884,0,0,1-3.23386-.979h0a2.39066,2.39066,0,0,1,.979-3.23385l26.51746-14.19371a2.38964,2.38964,0,0,1,3.23385.979h0A2.39,2.39,0,0,1,489.53224,322.89247Z" fill="#c2c2c2"/><path d="M477.00839,323.24686,458.793,332.997a.59708.59708,0,0,1-.8081-.24474h0a.59831.59831,0,0,1,.24474-.80941L476.445,322.194a.595.595,0,0,1,.8081.24474h0A.59719.59719,0,0,1,477.00839,323.24686Z" fill="#fff" opacity="0.2"/><path d="M491.71457,323.744l-18.21545,9.75012a.5972.5972,0,0,1-.8081-.24475h0a.59889.59889,0,0,1,.24474-.8094l18.21543-9.74894a.59619.59619,0,0,1,.80811.24474h0A.59736.59736,0,0,1,491.71457,323.744Z" fill="#fff" opacity="0.2"/><path d="M483.92616,319.54389l-4.274,2.288a.59826.59826,0,0,1-.80941-.24475h0a.59709.59709,0,0,1,.24475-.8081l4.27534-2.28935a.59708.59708,0,0,1,.8081.24475h0A.59906.59906,0,0,1,483.92616,319.54389Z" fill="#fff" opacity="0.2"/><path d="M447.56161,332.71151l-1.61112.86292a.59723.59723,0,0,1-.80823-.24474h0a.59848.59848,0,0,1,.24474-.80941l1.61125-.86175a.59731.59731,0,0,1,.8081.24474h0A.59724.59724,0,0,1,447.56161,332.71151Z" fill="#fff" opacity="0.2"/><path d="M496.227,306.66186l-1.61.86293a.59916.59916,0,0,1-.8094-.24474h0a.59912.59912,0,0,1,.24476-.80941l1.61123-.86175a.5973.5973,0,0,1,.8081.24474h0A.59511.59511,0,0,1,496.227,306.66186Z" fill="#fff" opacity="0.2"/><path d="M453.56933,347.13716l-4.9866,2.66932a.59522.59522,0,0,1-.80823-.24474h0a.59589.59589,0,0,1,.24344-.80824l4.9879-2.66918a.59735.59735,0,0,1,.80823.24474h0A.595.595,0,0,1,453.56933,347.13716Z" fill="#fff" opacity="0.2"/><path d="M506.94468,318.5674l-4.98792,2.66931a.5952.5952,0,0,1-.80823-.24474h0a.59745.59745,0,0,1,.24476-.80823l4.9867-2.66919a.59851.59851,0,0,1,.80941.24475h0A.59728.59728,0,0,1,506.94468,318.5674Z" fill="#fff" opacity="0.2"/><path d="M172.86915,66.16181h-2.52574V63.636a2.42673,2.42673,0,0,0-4.85346,0v2.52586h-2.52586a2.42666,2.42666,0,1,0,0,4.85332H165.49V73.541a2.42673,2.42673,0,1,0,4.85346,0V71.01513h2.52574a2.42666,2.42666,0,1,0,0-4.85332Z" fill="#44c6cf"/><path d="M227.28335,3.72529h-1.89984v-1.9a1.82506,1.82506,0,1,0-3.65012,0v1.9h-1.9a1.82506,1.82506,0,0,0,0,3.65011h1.9V9.27525a1.82506,1.82506,0,1,0,3.65012,0V7.3754h1.89984a1.82506,1.82506,0,1,0,0-3.65011Z" fill="#f90"/><path d="M474.04474,188.94116h-2.52522V186.4153a2.427,2.427,0,1,0-4.854,0v2.52586h-2.5252a2.42666,2.42666,0,1,0,0,4.85332h2.5252v2.52587a2.427,2.427,0,0,0,4.854,0v-2.52587h2.52522a2.42666,2.42666,0,1,0,0-4.85332Z" fill="#aacf15"/><path d="M260.79572,88.45809A6.46046,6.46046,0,1,1,267.256,81.998,6.46711,6.46711,0,0,1,260.79572,88.45809Zm0-10.31034A3.84989,3.84989,0,1,0,264.6454,81.998,3.85405,3.85405,0,0,0,260.79572,78.14775Z" fill="#f90"/><path d="M445.66868,66.17069a6.46046,6.46046,0,1,1,6.46144-6.46079A6.46717,6.46717,0,0,1,445.66868,66.17069Zm0-10.31035a3.84989,3.84989,0,1,0,3.85086,3.84956A3.85433,3.85433,0,0,0,445.66868,55.86034Z" fill="#fff"/><path d="M90.55635,190.449a6.46046,6.46046,0,1,1,6.46078-6.46079A6.46772,6.46772,0,0,1,90.55635,190.449Zm0-10.31034a3.84988,3.84988,0,1,0,3.8502,3.84955A3.85438,3.85438,0,0,0,90.55635,180.13869Z" fill="#44c6cf"/><path d="M316.58544,5.43848,303.69821,7.86867a1.86533,1.86533,0,0,0-.97389,3.15162L313.1819,21.47735a1.86481,1.86481,0,0,0,3.1511-.97323l2.43085-12.88724A1.86522,1.86522,0,0,0,316.58544,5.43848Z" fill="#aacf15"/><path d="M143.80807,133.63139l2.01654,10.68966a1.54685,1.54685,0,0,0,2.61436.80745l8.67364-8.67364a1.54685,1.54685,0,0,0-.80745-2.61437L145.6155,131.824A1.54744,1.54744,0,0,0,143.80807,133.63139Z" fill="#aacf15"/><path d="M495.98611,134.42043l-6.13263,8.9847a1.54706,1.54706,0,0,0,1.27722,2.41935h12.26775a1.54707,1.54707,0,0,0,1.27723-2.41935l-6.13264-8.9847A1.54836,1.54836,0,0,0,495.98611,134.42043Z" fill="#f90"/><path d="M212.92527,147.70866a7.52919,7.52919,0,0,1-3.83366.66342,5.58678,5.58678,0,0,1-4.38105-1.7005,6.53849,6.53849,0,0,1-1.5281-4.54035,7.24187,7.24187,0,0,1,1.8303-4.92975,6.48,6.48,0,0,1,5.14543-2.08859,4.57736,4.57736,0,0,1,2.49372.7198,2.75147,2.75147,0,0,1,1.13869,2.52256,5.35635,5.35635,0,0,1-1.57136,3.55965,9.86033,9.86033,0,0,1-4.28075,2.6812q0,.34614.70669.56247a4.79425,4.79425,0,0,0,1.39763.215,6.58711,6.58711,0,0,0,3.45935-.77749.11509.11509,0,0,1,.08653-.02884c.038,0,.05769.18224.05769.548A4.122,4.122,0,0,1,212.92527,147.70866Zm-2.50748-9.16592q0-.83583-.89352-.83649a2.55855,2.55855,0,0,0-2.07548,1.21146,4.76329,4.76329,0,0,0-.89351,2.91065c0,.27009.038.40382.11537.40382a4.10432,4.10432,0,0,0,2.39211-1.19572A3.317,3.317,0,0,0,210.41779,138.54274Z" fill="#707070"/><path d="M216.00964,143.81731l-.05768-6.54372a6.31056,6.31056,0,0,1,.11472-1.81588,2.7299,2.7299,0,0,1,1.09542-.56115,4.84887,4.84887,0,0,1,1.456-.24518c.451,0,.67719.0472.67719.14422a16.17615,16.17615,0,0,0-.08653,1.77262,3.25775,3.25775,0,0,0,.05769.99381.155.155,0,0,0,.11537-.07211c.03868-.0472.101-.12455.18749-.23075q.1298-.15734.54739-.56115a4.85506,4.85506,0,0,1,.90859-.69227,4.77566,4.77566,0,0,1,2.65171-.80764,2.2613,2.2613,0,0,1,.23075,1.15377,4.92817,4.92817,0,0,1-.40382,2.33508l-.11538.23075-.37432-.05769a3.75265,3.75265,0,0,0-3.25743,1.70051,2.22137,2.22137,0,0,0-.46151,1.03708v2.537a28.87541,28.87541,0,0,1-.08653,3.54523,4.68524,4.68524,0,0,1-3.17091.77879q-.2301,0-.2301-.08653A32.21525,32.21525,0,0,0,216.00964,143.81731Z" fill="#707070"/><path d="M225.407,143.81731l-.05769-6.54372a6.31056,6.31056,0,0,1,.11472-1.81588,2.73,2.73,0,0,1,1.09543-.56115,4.84882,4.84882,0,0,1,1.456-.24518c.451,0,.67718.0472.67718.14422a16.17864,16.17864,0,0,0-.08653,1.77262,3.25775,3.25775,0,0,0,.05769.99381.155.155,0,0,0,.11538-.07211c.03867-.0472.10095-.12455.18748-.23075q.12981-.15734.54739-.56115a4.85506,4.85506,0,0,1,.90859-.69227,4.77566,4.77566,0,0,1,2.65171-.80764,2.26128,2.26128,0,0,1,.23076,1.15377,4.9283,4.9283,0,0,1-.40382,2.33508l-.11538.23075-.37432-.05769a3.75266,3.75266,0,0,0-3.25744,1.70051,2.22148,2.22148,0,0,0-.46151,1.03708v2.537a28.87541,28.87541,0,0,1-.08653,3.54523,4.68522,4.68522,0,0,1-3.1709.77879q-.2301,0-.2301-.08653A32.21684,32.21684,0,0,0,225.407,143.81731Z" fill="#707070"/><path d="M244.734,146.45525a5.53287,5.53287,0,0,1-4.49708,2.00336,5.7425,5.7425,0,0,1-4.45316-1.75819,6.48786,6.48786,0,0,1-1.61463-4.56919,7.15292,7.15292,0,0,1,2.00337-4.98744,6.98847,6.98847,0,0,1,5.405-2.17512,4.71575,4.71575,0,0,1,1.49859.17175.84971.84971,0,0,1,.11538.548,5.82585,5.82585,0,0,1-.08653.95186,2.06072,2.06072,0,0,1,1.10985.50346,6.47445,6.47445,0,0,1,1.10985,1.024,4.56436,4.56436,0,0,1,.74929,1.45533,6.487,6.487,0,0,1,.31729,2.0899A7.20791,7.20791,0,0,1,244.734,146.45525Zm-2.5514-6.76005a2.37339,2.37339,0,0,0-1.29734-.43267h-.2301a1.30029,1.30029,0,0,1-.05769-.489,2.95977,2.95977,0,0,1,.08654-.72111,3.02815,3.02815,0,0,0-2.20528,1.06724,4.11016,4.11016,0,0,0-1.02332,2.96834,3.32472,3.32472,0,0,0,1.44091,3.11256,2.82145,2.82145,0,0,0,1.51367.34613,2.49806,2.49806,0,0,0,1.81587-.89286,3.7141,3.7141,0,0,0,.85025-2.65236A2.51214,2.51214,0,0,0,242.18255,139.6952Z" fill="#707070"/><path d="M248.75511,143.81731l-.05769-6.54372a6.31056,6.31056,0,0,1,.11472-1.81588,2.73,2.73,0,0,1,1.09543-.56115,4.84882,4.84882,0,0,1,1.456-.24518c.451,0,.67718.0472.67718.14422a16.17864,16.17864,0,0,0-.08653,1.77262,3.25775,3.25775,0,0,0,.05769.99381.155.155,0,0,0,.11538-.07211c.03867-.0472.10095-.12455.18748-.23075q.12981-.15734.54739-.56115a4.85506,4.85506,0,0,1,.90859-.69227,4.77566,4.77566,0,0,1,2.65171-.80764,2.26128,2.26128,0,0,1,.23076,1.15377,4.9283,4.9283,0,0,1-.40382,2.33508l-.11538.23075-.37432-.05769a3.75266,3.75266,0,0,0-3.25744,1.70051,2.22148,2.22148,0,0,0-.46151,1.03708v2.537a28.87541,28.87541,0,0,1-.08653,3.54523,4.68522,4.68522,0,0,1-3.1709.77879q-.2301,0-.2301-.08653A32.21684,32.21684,0,0,0,248.75511,143.81731Z" fill="#707070"/><path d="M269.73932,148.54515a6.42146,6.42146,0,0,1-4.87141-1.67166,5.8718,5.8718,0,0,1-1.58578-4.20864,7.16473,7.16473,0,0,1,2.37835-5.64955,8.45267,8.45267,0,0,1,5.80818-2.10432,5.349,5.349,0,0,1,.77814.02885q.17307.14356.17307,1.38321,0,1.239-.34613,1.49859h-.20126a5.84737,5.84737,0,0,0-3.60356,1.03839,3.51473,3.51473,0,0,0-1.0089,1.35437,5.19219,5.19219,0,0,0-.432,2.2197,3.05762,3.05762,0,0,0,.77814,2.14759,3.255,3.255,0,0,0,2.50749.8496,5.29554,5.29554,0,0,0,2.39276-.51789.47228.47228,0,0,1,.14422-.05769,2.89312,2.89312,0,0,1,.23076,1.55628q0,1.32552-.31729,1.58512A5.79093,5.79093,0,0,1,269.73932,148.54515Z" fill="#707070"/><path d="M284.973,146.45525a5.53288,5.53288,0,0,1-4.49708,2.00336,5.74251,5.74251,0,0,1-4.45317-1.75819,6.48785,6.48785,0,0,1-1.61462-4.56919,7.153,7.153,0,0,1,2.00336-4.98744,6.9885,6.9885,0,0,1,5.405-2.17512,4.71575,4.71575,0,0,1,1.49859.17175.84971.84971,0,0,1,.11538.548,5.82594,5.82594,0,0,1-.08654.95186,2.06066,2.06066,0,0,1,1.10985.50346,6.4737,6.4737,0,0,1,1.10985,1.024,4.56456,4.56456,0,0,1,.7493,1.45533,6.48728,6.48728,0,0,1,.31728,2.0899A7.208,7.208,0,0,1,284.973,146.45525Zm-2.55141-6.76005a2.37334,2.37334,0,0,0-1.29733-.43267h-.2301a1.30029,1.30029,0,0,1-.05769-.489,2.95977,2.95977,0,0,1,.08653-.72111,3.02813,3.02813,0,0,0-2.20527,1.06724,4.11016,4.11016,0,0,0-1.02332,2.96834,3.32471,3.32471,0,0,0,1.4409,3.11256,2.82145,2.82145,0,0,0,1.51367.34613,2.49808,2.49808,0,0,0,1.81588-.89286,3.7141,3.7141,0,0,0,.85025-2.65236A2.51215,2.51215,0,0,0,282.42162,139.6952Z" fill="#707070"/><path d="M296.14232,135.34233l-.05769-4.265a8.53569,8.53569,0,0,1,.08653-1.87487,3.614,3.614,0,0,1,1.1387-.67653,3.91246,3.91246,0,0,1,1.51367-.33171c.47986,0,.7211.038.7211.11538q-.23206,4.78486-.23141,10.17547a62.86336,62.86336,0,0,0,.17373,6.42834,3.87148,3.87148,0,0,0,.95055,2.30492q0,.2891-1.19639.90859a4.62254,4.62254,0,0,1-2.03221.62016c-.05769,0-.14422-.07736-.25894-.23076a3.75973,3.75973,0,0,1-.66342-1.9601c0-.05769-.019-.08653-.05769-.08653l-.08653.05769a4.11143,4.11143,0,0,1-3.60291,1.72934,3.596,3.596,0,0,1-3.05553-1.52743,5.64879,5.64879,0,0,1-1.12427-3.43116,8.10456,8.10456,0,0,1,2.01779-5.54859A7.60853,7.60853,0,0,1,296.14232,135.34233Zm.05769,3.02734c0-.038-.10555-.05769-.31663-.05769H295.768a3.68119,3.68119,0,0,0-2.89688,1.18131,4.34,4.34,0,0,0-1.05216,2.99849,2.84245,2.84245,0,0,0,.50412,1.74377,1.78049,1.78049,0,0,0,1.52809.67784,1.9098,1.9098,0,0,0,1.64281-.89417,2.80107,2.80107,0,0,0,.6195-1.41206Q296.11348,139.4074,296.2,138.36967Z" fill="#707070"/><path d="M312.05387,147.70866a7.52919,7.52919,0,0,1-3.83366.66342,5.58437,5.58437,0,0,1-4.3804-1.7005,6.5388,6.5388,0,0,1-1.52875-4.54035,7.24182,7.24182,0,0,1,1.8303-4.92975,6.48047,6.48047,0,0,1,5.14608-2.08859,4.57894,4.57894,0,0,1,2.49372.7198,2.75252,2.75252,0,0,1,1.138,2.52256,5.35539,5.35539,0,0,1-1.5707,3.55965,9.86429,9.86429,0,0,1-4.28075,2.6812c0,.23076.23468.41824.70668.56247a4.791,4.791,0,0,0,1.39764.215,6.58455,6.58455,0,0,0,3.45869-.77749.11709.11709,0,0,1,.08653-.02884c.038,0,.05769.18224.05769.548A4.11788,4.11788,0,0,1,312.05387,147.70866Zm-2.50683-9.16592q0-.83583-.89417-.83649a2.55943,2.55943,0,0,0-2.07548,1.21146,4.7671,4.7671,0,0,0-.89286,2.91065c0,.27009.038.40382.11538.40382a4.10466,4.10466,0,0,0,2.39145-1.19572A3.31789,3.31789,0,0,0,309.547,138.54274Z" fill="#707070"/><path d="M317.53035,135.89038a1.61473,1.61473,0,0,1,.49035,1.18261,1.826,1.826,0,0,1-1.75819,1.75819,1.53674,1.53674,0,0,1-1.15246-.47593,1.64769,1.64769,0,0,1-.4615-1.197,1.7179,1.7179,0,0,1,.50346-1.239,1.6535,1.6535,0,0,1,2.37834-.02884Zm0,9.05185a1.60974,1.60974,0,0,1,.49035,1.18131,1.826,1.826,0,0,1-1.75819,1.75819,1.53677,1.53677,0,0,1-1.15246-.47593,1.66172,1.66172,0,0,1-.4615-1.21015,1.684,1.684,0,0,1,.50346-1.239,1.63473,1.63473,0,0,1,1.197-.50478A1.60976,1.60976,0,0,1,317.53035,144.94223Z" fill="#707070"/></g></g></svg>