<svg xmlns="http://www.w3.org/2000/svg" viewBox="0 0 600 377.57079"><title>404_1</title><g id="2f1ef451-3f23-4139-812d-9eeb703d28a5" data-name="Layer 2"><g id="58e52de3-8604-4c37-9502-9c3bfabccd37" data-name="pets"><path d="M532.756,77.43023H475.874c-.18366,0-.36079.01906-.54183.02728A236.60551,236.60551,0,0,0,300.00033,0h0a237.7141,237.7141,0,0,0-54.03111,6.1996,11.80516,11.80516,0,0,0-1.62784-.125H172.15984a11.82507,11.82507,0,1,0,0,23.65013H194.2649a8.7718,8.7718,0,0,1,0,17.5436H157.86667a238.6118,238.6118,0,0,0-51.97515,53.55507H76.48312a11.8254,11.8254,0,1,0,0,23.65079h44.38607a8.77123,8.77123,0,0,1,8.77127,8.77114v.00066a8.77081,8.77081,0,0,1-8.77127,8.77114H39.49973a11.82544,11.82544,0,0,0-11.8254,11.82539h0a11.82545,11.82545,0,0,0,11.8254,11.8254H73.75389A236.942,236.942,0,0,0,62.731,237.26868v68.11348H537.26964V237.26868a236.36647,236.36647,0,0,0-19.82028-94.99406h.72914a11.82539,11.82539,0,1,0,0-23.65079H483.97837a8.7719,8.7719,0,0,1-8.77245-8.77114V109.852a8.77149,8.77149,0,0,1,8.77245-8.77114H532.756A11.826,11.826,0,0,0,544.58137,89.2555h0A11.82585,11.82585,0,0,0,532.756,77.43023Z" fill="#cbeeff"/><path d="M579.68891,77.43023H567.56408A11.825,11.825,0,0,0,555.73869,89.2555h0a11.82511,11.82511,0,0,0,11.82539,11.82539h12.12483A11.82512,11.82512,0,0,0,591.51432,89.2555h0A11.825,11.825,0,0,0,579.68891,77.43023Z" fill="#cbeeff"/><path d="M588.01652,304.361H436.52278a11.98384,11.98384,0,0,0-11.98346,11.98477H194.87865a11.92609,11.92609,0,0,0,1.37029-5.55518h0a11.98333,11.98333,0,0,0-11.98332-11.98333H32.77188a11.9836,11.9836,0,0,0-11.98412,11.98333h0a11.9837,11.9837,0,0,0,11.98412,11.98346h74.19938a11.97485,11.97485,0,0,0,10.613,17.53851h364.658A11.98448,11.98448,0,0,0,494.227,328.32913h93.78955a11.98405,11.98405,0,0,0,0-23.9681Z" opacity="0.05"/><path d="M509.80558,224.922h7.01157a2.89182,2.89182,0,0,1,2.89182,2.89182v23.91053a2.892,2.892,0,0,1-2.892,2.892H509.8054a2.89265,2.89265,0,0,1-2.89265-2.89265V227.81479a2.89283,2.89283,0,0,1,2.89283-2.89283Z" transform="translate(61.3442 -101.84967) rotate(12.04637)" fill="#ffd800"/><path d="M513.24163,252.65947l-5.13069-1.095a3.77672,3.77672,0,0,1-2.90375-4.48053l-.4652,2.17839a3.77552,3.77552,0,0,0,2.90374,4.47936l5.13057,1.09488a3.77485,3.77485,0,0,0,4.48066-2.90375l.4639-2.17722A3.77538,3.77538,0,0,1,513.24163,252.65947Z" opacity="0.1"/><path d="M507.84074,249.771h0a1.64245,1.64245,0,0,1-1.26326-1.94906l3.91848-18.35941a1.64507,1.64507,0,0,1,1.95023-1.26456h0a1.64334,1.64334,0,0,1,1.26326,1.95036L509.791,248.50774A1.64321,1.64321,0,0,1,507.84074,249.771Z" opacity="0.2"/><path d="M514.21929,251.13228h0a1.64125,1.64125,0,0,1-1.26325-1.94893l3.91847-18.35953a1.64323,1.64323,0,0,1,1.95023-1.26313h0a1.64125,1.64125,0,0,1,1.26326,1.94893l-3.91834,18.35953A1.64333,1.64333,0,0,1,514.21929,251.13228Z" opacity="0.2"/><path d="M507.08269,254.26609h5.81976a0,0,0,0,1,0,0v1.67015a.42508.42508,0,0,1-.42508.42508H507.5075a.42481.42481,0,0,1-.42481-.42481v-1.67042a0,0,0,0,1,0,0Z" transform="translate(64.56598 -100.87819) rotate(12.05452)" fill="#cecece"/><path d="M507.1881,254.50906c.09306.02794.17974.06749.27528.08785l5.1307,1.09631c.09555.02036.19122.01775.28677.03054l.17595-.82729-5.69158-1.2147Z" opacity="0.1"/><path d="M506.12377,283.02139l5.6074-26.26632-3.9134-.835-5.60737,26.26645a11.81592,11.81592,0,0,1-2.22813,4.78519h0l-1.55644,7.28873,6.22309,1.32813,1.55643-7.28873h0A11.78839,11.78839,0,0,1,506.12377,283.02139Z" fill="#c2c2c2"/><rect x="498.6572" y="292.06541" width="6.36325" height="2.89089" transform="translate(72.32195 -98.28767) rotate(12.04846)" fill="#cecece"/><rect x="507.60156" y="256.3194" width="4.00161" height="1.64818" transform="translate(64.9797 -100.80627) rotate(12.06095)" opacity="0.1"/><path d="M513.21357,227.79646h0a1.19325,1.19325,0,0,1-.91775-1.41493h0a1.19323,1.19323,0,0,1,1.41611-.91775h0a1.19279,1.19279,0,0,1,.91788,1.41624h0A1.19289,1.19289,0,0,1,513.21357,227.79646Z" fill="#fff" opacity="0.2"/><path d="M510.55705,251.29427h0a.74163.74163,0,0,1-.57105-.88081l4.48691-21.02363a.74462.74462,0,0,1,.88212-.57106h0a.74432.74432,0,0,1,.57106.88211L511.438,250.7232A.74138.74138,0,0,1,510.55705,251.29427Z" fill="#fff" opacity="0.2"/><path d="M509.70939,256.01693l-1.46453-.31353a.372.372,0,0,1-.2869-.44236h0a.37258.37258,0,0,1,.44236-.28677l1.46466.31235a.37346.37346,0,0,1,.2881.44223h0A.37572.37572,0,0,1,509.70939,256.01693Z" fill="#fff" opacity="0.2"/><path d="M503.15371,283.93666h0a.71231.71231,0,0,1-.54939-.84648l5.11529-23.963a.71429.71429,0,0,1,.84648-.54939h0a.71568.71568,0,0,1,.5494.84778l-5.11543,23.9617A.713.713,0,0,1,503.15371,283.93666Z" fill="#fff" opacity="0.2"/><path d="M500.15559,293.54528h0a.61147.61147,0,0,1-.46912-.724l1.16251-5.44554a.6103.6103,0,0,1,.724-.469h0a.61019.61019,0,0,1,.46912.72405l-1.16249,5.44409A.61012.61012,0,0,1,500.15559,293.54528Z" fill="#fff" opacity="0.2"/><rect x="568.54622" y="265.25081" width="5.40852" height="11.77193" transform="translate(1045.08072 689.85764) rotate(-163.92393)" fill="#c2c2c2"/><rect x="554.76551" y="262.33295" width="5.40911" height="11.77203" transform="translate(1018.88198 680.30309) rotate(-163.92604)" fill="#c2c2c2"/><path d="M575.4787,266.22977l-5.197-1.49769-1.4225,4.93556a3.792,3.792,0,0,0,5.16124,1.624Z" opacity="0.2"/><path d="M561.69916,263.31206l-5.19818-1.49782-1.40345,4.87316a3.77706,3.77706,0,0,0,5.1307,1.72847Z" opacity="0.2"/><path d="M579.73107,241.51857h0a3.81864,3.81864,0,0,1,2.61058,4.72658l-5.98984,20.78776a3.81887,3.81887,0,0,1-4.72658,2.61189h0a3.81586,3.81586,0,0,1-2.61058-4.72541l5.991-20.78894A3.81628,3.81628,0,0,1,579.73107,241.51857Z" fill="#d22426"/><path d="M566.00126,238.61483h0a3.81824,3.81824,0,0,1,2.61188,4.72658L562.622,264.12917a3.81805,3.81805,0,0,1-4.72658,2.61175h0a3.81771,3.81771,0,0,1-2.61058-4.72527l5.99117-20.78894A3.81731,3.81731,0,0,1,566.00126,238.61483Z" fill="#d22426"/><path d="M581.4162,242.55484c-.01656.0791-.02037.15807-.04334.23717l-5.99114,20.78894a3.81647,3.81647,0,0,1-4.72528,2.61057,3.76579,3.76579,0,0,1-1.68512-1.035,3.80861,3.80861,0,0,0,7.37918,1.87635l5.99115-20.78776A3.79919,3.79919,0,0,0,581.4162,242.55484Z" opacity="0.2"/><path d="M567.68769,239.65109c-.01788.0791-.02036.15807-.04333.23718l-5.991,20.78893a3.81841,3.81841,0,0,1-4.72656,2.61058h0a3.767,3.767,0,0,1-1.68528-1.035,3.80926,3.80926,0,0,0,7.38049,1.87635l5.99114-20.78776A3.80192,3.80192,0,0,0,567.68769,239.65109Z" opacity="0.2"/><path d="M561.624,249.83717h0a1.59242,1.59242,0,0,1-1.08483-1.97438l1.92609-6.631a1.59217,1.59217,0,0,1,1.9732-1.08483h0a1.59375,1.59375,0,0,1,1.08613,1.97451l-1.92608,6.62969A1.59417,1.59417,0,0,1,561.624,249.83717Z" fill="#fff" opacity="0.2"/><path d="M559.84069,256.05648h0a1.59418,1.59418,0,0,1-1.086-1.97451l.53791-1.8509a1.59243,1.59243,0,0,1,1.97451-1.08469h0a1.59111,1.59111,0,0,1,1.0847,1.9732l-.53791,1.85208A1.5916,1.5916,0,0,1,559.84069,256.05648Z" fill="#fff" opacity="0.2"/><path d="M576.83359,247.44719h0a1.59353,1.59353,0,0,1-1.0847-1.97451l.53793-1.8509a1.59189,1.59189,0,0,1,1.97449-1.08469h0a1.59307,1.59307,0,0,1,1.0847,1.9732l-.53791,1.85208A1.59293,1.59293,0,0,1,576.83359,247.44719Z" fill="#fff" opacity="0.2"/><path d="M572.399,262.91434h0a1.59294,1.59294,0,0,1-1.08482-1.97451l3.37156-11.6048a1.59367,1.59367,0,0,1,1.97451-1.086h0a1.59335,1.59335,0,0,1,1.08482,1.97438l-3.37156,11.6061A1.593,1.593,0,0,1,572.399,262.91434Z" fill="#fff" opacity="0.2"/><path d="M507.85092,285.48669l33.03126-60.50351a2.83753,2.83753,0,0,1,3.84954-1.13l4.44738,2.4277-3.32444,1.327,2.12749,3.18412-3.78077,1.833,2.14668,2.98532-3.494,1.47485,1.87766,3.20083-3.85974,1.759,2.19119,3.73235-3.573,1.67494,1.77689,3.38683-3.49517,2.4717,1.70679,3.01587-2.96248,1.22253,1.28245,3.40341-3.47612.83617,1.9719,3.856-4.3607,1.847,1.47106,3.94524-3.40352.92166,2.33527,3.69018-4.4436.83617,3.03639,3.95411-5.32443,1.56413,2.88456,2.90374-4.81442,8.81827Z" fill="#c2c2c2"/><polygon points="495.112 291.663 493.718 293.837 491.875 292.24 495.112 291.663" fill="#c2c2c2"/><path d="M501.05807,283.79386l-1.30268,2.00388-1.08991-1.2442s.79414-2.19249.97518-2.042C499.82041,282.66192,501.05807,283.79386,501.05807,283.79386Z" fill="#c2c2c2"/><path d="M493.56547,292.91809l-5.6865-4.27534.60291-4.95344,4.5915-1.95415,5.68764,4.27795a.67233.67233,0,0,0,1.076-.49209,9.50616,9.50616,0,0,0-3.78847-8.06616,9.627,9.627,0,0,0-9.63028-1.04019l-26.31736-19.78974a9.632,9.632,0,0,0-3.67373-8.96237,9.5085,9.5085,0,0,0-8.80169-1.40083.6722.6722,0,0,0-.17348,1.17019l5.6878,4.27782-.60291,4.95227-4.59018,1.954-5.68649-4.27534a.67268.67268,0,0,0-1.07713.49588,9.51445,9.51445,0,0,0,13.44045,9.11666l26.274,19.75776A9.51463,9.51463,0,0,0,493.387,294.09089.67276.67276,0,0,0,493.56547,292.91809Z" fill="#c2c2c2"/><polygon points="442.669 252.396 441.316 254.473 442.989 255.581 444.414 253.252 442.669 252.396" fill="#c2c2c2"/><polygon points="448.527 244.705 447.268 246.571 452.785 249.728 451.068 246.028 448.527 244.705" fill="#c2c2c2"/><path d="M494.89241,290.8697l-5.68649-4.27665.60293-4.95213,4.59016-1.95415,5.6878,4.27795a.6721.6721,0,0,0,1.07581-.49209,9.51,9.51,0,0,0-3.78846-8.0676,9.63005,9.63005,0,0,0-9.63027-1.04005l-26.31738-19.78974a9.6292,9.6292,0,0,0-3.67373-8.96237,9.50923,9.50923,0,0,0-8.80039-1.39953.67176.67176,0,0,0-.17465,1.17006l5.689,4.27665-.60289,4.95226-4.5915,1.954-5.68649-4.27534a.67348.67348,0,0,0-1.07712.49718,9.51654,9.51654,0,0,0,13.44042,9.11666l26.27533,19.75645A9.51583,9.51583,0,0,0,494.714,292.04237.67357.67357,0,0,0,494.89241,290.8697Z" fill="#cecece"/><path d="M481.49793,278.096l-21.73488-16.34417a2.16072,2.16072,0,0,1-.42826-3.02488h0a2.1595,2.1595,0,0,1,3.02474-.42826l21.73488,16.34286a2.16127,2.16127,0,0,1,.42957,3.026h0A2.16227,2.16227,0,0,1,481.49793,278.096Z" fill="#c2c2c2"/><path d="M476.44111,267.95954,461.5107,256.7321a.53908.53908,0,0,1-.10716-.75589h0a.53919.53919,0,0,1,.75589-.10717L477.09,267.09531a.5419.5419,0,0,1,.107.75719h0A.5404.5404,0,0,1,476.44111,267.95954Z" fill="#fff" opacity="0.2"/><path d="M481.63172,280.20941l-14.93054-11.22626a.54089.54089,0,0,1-.107-.7572h0a.54036.54036,0,0,1,.75591-.107l14.93052,11.22757a.53918.53918,0,0,1,.107.7559h0A.54053.54053,0,0,1,481.63172,280.20941Z" fill="#fff" opacity="0.2"/><path d="M482.111,272.22339l-3.50416-2.63472a.54188.54188,0,0,1-.107-.7572h0a.542.542,0,0,1,.75718-.107l3.50405,2.63472a.54209.54209,0,0,1,.10716.7572h0A.54194.54194,0,0,1,482.111,272.22339Z" fill="#fff" opacity="0.2"/><path d="M457.46862,247.41273l-1.32055-.99293a.53923.53923,0,0,1-.10718-.75589h0a.53919.53919,0,0,1,.75591-.107l1.32054.99293a.54026.54026,0,0,1,.10717.7559h0A.53951.53951,0,0,1,457.46862,247.41273Z" fill="#fff" opacity="0.2"/><path d="M497.35888,277.40761l-1.32056-.99294a.53934.53934,0,0,1-.107-.75589h0a.5392.5392,0,0,1,.75589-.10716l1.32056.99306a.53916.53916,0,0,1,.107.75589h0A.53935.53935,0,0,1,497.35888,277.40761Z" fill="#fff" opacity="0.2"/><path d="M447.92369,257.83207l-4.088-3.07448a.54035.54035,0,0,1-.107-.75589h0a.541.541,0,0,1,.7572-.10717l4.0879,3.0733a.54209.54209,0,0,1,.10716.7572h0A.54179.54179,0,0,1,447.92369,257.83207Z" fill="#fff" opacity="0.2"/><path d="M491.67383,290.72821l-4.088-3.0733a.54052.54052,0,0,1-.107-.7559h0a.54091.54091,0,0,1,.75722-.107l4.08788,3.0733a.54049.54049,0,0,1,.107.75589h0A.53943.53943,0,0,1,491.67383,290.72821Z" fill="#fff" opacity="0.2"/><polygon points="511.796 293.647 513.189 295.822 515.031 294.225 511.796 293.647" fill="#c2c2c2"/><path d="M505.84965,285.77986l1.30268,2.00375,1.08861-1.24407s-.79413-2.1938-.97385-2.042C507.08733,284.64791,505.84965,285.77986,505.84965,285.77986Z" fill="#c2c2c2"/><path d="M513.3411,294.90409l5.68636-4.27535-.60292-4.95344-4.59017-1.95414-5.68767,4.27795a.67215.67215,0,0,1-1.076-.49209,9.51041,9.51041,0,0,1,3.78849-8.06747,9.62976,9.62976,0,0,1,9.63027-1.04018l26.31737-19.78844a9.63138,9.63138,0,0,1,3.67372-8.96368,9.50986,9.50986,0,0,1,8.80051-1.39953.672.672,0,0,1,.17465,1.1702l-5.689,4.27651.60294,4.95344,4.59015,1.95415,5.68769-4.27652a.67343.67343,0,0,1,1.0771.49706,9.51642,9.51642,0,0,1-13.44042,9.11665L526.00892,285.697a9.51573,9.51573,0,0,1-12.48939,10.37992A.6736.6736,0,0,1,513.3411,294.90409Z" fill="#c2c2c2"/><polygon points="564.238 254.382 565.591 256.459 563.918 257.567 562.492 255.238 564.238 254.382" fill="#c2c2c2"/><polygon points="558.381 246.69 559.639 248.556 554.122 251.714 555.839 248.014 558.381 246.69" fill="#c2c2c2"/><path d="M512.01532,292.85439l5.68648-4.27534-.60291-4.95213-4.59018-1.95415-5.689,4.27665a.67078.67078,0,0,1-1.07462-.4921,9.5042,9.5042,0,0,1,3.78845-8.06629,9.6301,9.6301,0,0,1,9.63029-1.04018l26.31735-19.78961a9.62825,9.62825,0,0,1,3.67243-8.96237,9.50915,9.50915,0,0,1,8.80171-1.39967.67159.67159,0,0,1,.17463,1.16889l-5.689,4.278.603,4.95214,4.59019,1.95414,5.68634-4.27534a.6733.6733,0,0,1,1.07712.49719,9.51512,9.51512,0,0,1-13.43911,9.11665l-26.27533,19.75646a9.51579,9.51579,0,0,1-12.48939,10.38109A.67456.67456,0,0,1,512.01532,292.85439Z" fill="#cecece"/><path d="M525.40862,280.08071l21.736-16.34287a2.16088,2.16088,0,0,0,.42827-3.02487h0a2.15968,2.15968,0,0,0-3.02475-.42827L522.812,276.62757a2.161,2.161,0,0,0-.42827,3.02474h0A2.15984,2.15984,0,0,0,525.40862,280.08071Z" fill="#c2c2c2"/><path d="M530.46661,269.94423l14.93056-11.22613a.53938.53938,0,0,0,.107-.7559h0a.53928.53928,0,0,0-.75592-.10716L529.81775,269.0813a.53935.53935,0,0,0-.107.7559h0A.53918.53918,0,0,0,530.46661,269.94423Z" fill="#fff" opacity="0.2"/><path d="M525.276,282.19541l14.93054-11.22757a.54034.54034,0,0,0,.107-.7559h0a.53935.53935,0,0,0-.7559-.107l-14.93054,11.22626a.54089.54089,0,0,0-.107.7572h0A.54034.54034,0,0,0,525.276,282.19541Z" fill="#fff" opacity="0.2"/><path d="M524.79552,274.20808l3.50405-2.63342a.541.541,0,0,0,.10717-.75719h0a.54025.54025,0,0,0-.7559-.107l-3.50417,2.63473a.53965.53965,0,0,0-.10717.75589h0A.53831.53831,0,0,0,524.79552,274.20808Z" fill="#fff" opacity="0.2"/><path d="M549.43911,249.39873l1.32069-.99294a.53931.53931,0,0,0,.107-.75589h0a.53936.53936,0,0,0-.75589-.10716l-1.32056.99176a.54079.54079,0,0,0-.10716.75719h0A.54051.54051,0,0,0,549.43911,249.39873Z" fill="#fff" opacity="0.2"/><path d="M509.54884,279.3936l1.32056-.99293a.53934.53934,0,0,0,.107-.75589h0a.53924.53924,0,0,0-.7559-.10717l-1.32054.99176a.54087.54087,0,0,0-.107.7572h0A.54031.54031,0,0,0,509.54884,279.3936Z" fill="#fff" opacity="0.2"/><path d="M558.98286,259.81806l4.08792-3.07447a.53939.53939,0,0,0,.107-.7559h0a.53911.53911,0,0,0-.75591-.10716l-4.0879,3.0733a.53951.53951,0,0,0-.107.75589h0A.53943.53943,0,0,0,558.98286,259.81806Z" fill="#fff" opacity="0.2"/><path d="M515.23272,292.7142l4.0879-3.0733a.53949.53949,0,0,0,.107-.75589h0a.53939.53939,0,0,0-.7559-.10834l-4.0879,3.07448a.53948.53948,0,0,0-.107.756h0A.53933.53933,0,0,0,515.23272,292.7142Z" fill="#fff" opacity="0.2"/><path d="M484.95864,250.23242l-1.24276-.80315a1.33377,1.33377,0,0,0-1.3041-.08275L469.93765,255.33a1.48767,1.48767,0,0,0-.69846,1.98586l2.61814,5.45833a1.48833,1.48833,0,0,0,1.986.69846l9.65837-4.63221,3.49137-1.67495,7.77312-3.72842a.78526.78526,0,0,0,.36835-1.04789l-1.27344-2.65521a.78516.78516,0,0,0-1.04775-.36836l-2.5124,1.20583A5.47819,5.47819,0,0,1,484.95864,250.23242Z" fill="#929292"/><path d="M489.698,247.95965l-1.2429-.80432a1.33636,1.33636,0,0,0-1.304-.08289L474.677,253.05588a1.49033,1.49033,0,0,0-.69859,1.98718l2.61829,5.45832a1.48924,1.48924,0,0,0,1.98716.69846l9.65717-4.63221,3.49139-1.67494,7.77312-3.72843a.7859.7859,0,0,0,.36968-1.04788l-1.27477-2.65522a.7841.7841,0,0,0-1.04775-.36836l-2.51242,1.20466A5.47829,5.47829,0,0,1,489.698,247.95965Z" fill="#c2c2c2"/><path d="M502.57756,292.28463l-2.96249,1.42a3.06166,3.06166,0,0,1-4.08411-1.4353l-15.2848-31.86744,8.48177-4.06754,15.28492,31.86614A3.06164,3.06164,0,0,1,502.57756,292.28463Z" fill="#8b4b1d"/><path d="M505.749,290.76267l-2.96251,1.42119a3.06019,3.06019,0,0,1-4.08281-1.4366l-15.2861-31.866,8.48176-4.06885,15.28493,31.86731A3.06,3.06,0,0,1,505.749,290.76267Z" fill="#ba6529"/><rect x="480.19047" y="257.47533" width="12.9239" height="2.68047" transform="translate(-64.06817 235.94842) rotate(-25.62763)" opacity="0.2"/><path d="M492.08291,271.44583h94.1746a0,0,0,0,1,0,0v45.09122a2.8438,2.8438,0,0,1-2.8438,2.8438h-91.3308a0,0,0,0,1,0,0v-47.935A0,0,0,0,1,492.08291,271.44583Z" fill="#ffd800"/><path d="M459.41885,271.44583h32.66406a0,0,0,0,1,0,0v47.935a0,0,0,0,1,0,0H462.26265a2.8438,2.8438,0,0,1-2.8438-2.8438V271.44583A0,0,0,0,1,459.41885,271.44583Z" fill="#ffc400"/><path d="M586.25751,271.44583h4.40913a.8936.8936,0,0,1,.8936.8936v11.25681a.8936.8936,0,0,1-.8936.8936h-4.40913a0,0,0,0,1,0,0v-13.044A0,0,0,0,1,586.25751,271.44583Z" fill="#ffd800"/><path d="M455.43289,271.44583H459.842a0,0,0,0,1,0,0v13.044a0,0,0,0,1,0,0h-4.40915a.8936.8936,0,0,1-.8936-.8936V272.33943A.8936.8936,0,0,1,455.43289,271.44583Z" fill="#ffc400"/><rect x="459.41885" y="284.48984" width="126.83866" height="4.98411" opacity="0.1"/><g opacity="0.1"><path d="M480.20283,288.23106H469.44177c-1.91969,0-3.42378-2.12357-3.42378-4.83622V279.3222h-1.08482a1.27279,1.27279,0,0,1,0-2.54557h2.35826a1.27276,1.27276,0,0,1,1.27214,1.27344v5.34477c0,1.47863.66021,2.29065.8782,2.29065h10.76106c.218,0,.87819-.812.87819-2.29065v-5.34477a1.27193,1.27193,0,0,1,1.27214-1.27344h2.30592a1.27279,1.27279,0,0,1,0,2.54557H483.6266v4.07264C483.6266,286.10749,482.12251,288.23106,480.20283,288.23106Z"/></g><path d="M480.20283,286.92956H469.44177c-1.91969,0-3.42378-2.12358-3.42378-4.8361V278.0207h-1.08482a1.27214,1.27214,0,0,1,0-2.54427h2.35826a1.27173,1.27173,0,0,1,1.27214,1.27214v5.34489c0,1.47863.66021,2.29052.8782,2.29052h10.76106c.218,0,.87819-.81189.87819-2.29052v-5.34489a1.2709,1.2709,0,0,1,1.27214-1.27214h2.30592a1.27214,1.27214,0,0,1,0,2.54427H483.6266v4.07276C483.6266,284.806,482.12251,286.92956,480.20283,286.92956Z" fill="#9b9b9b"/><g opacity="0.1"><path d="M466.018,276.70915h-1.08482a1.25053,1.25053,0,0,1-1.06432-.617,1.232,1.232,0,0,0-.20781.65643,1.2708,1.2708,0,0,0,1.27213,1.27213H466.018Z"/><path d="M484.65908,276.70915H483.6266v1.31155h1.03248a1.27072,1.27072,0,0,0,1.27213-1.27213,1.24307,1.24307,0,0,0-.20767-.65643A1.25078,1.25078,0,0,1,484.65908,276.70915Z"/><path d="M480.20283,285.618H469.44177c-1.91969,0-3.42378-2.1237-3.42378-4.83622v1.31168c0,2.71252,1.50409,4.8361,3.42378,4.8361h10.76106c1.91968,0,3.42377-2.12358,3.42377-4.8361v-1.31168C483.6266,283.4943,482.12251,285.618,480.20283,285.618Z"/></g><path d="M467.53226,276.77415h-.59652a.44992.44992,0,0,1-.44993-.45006h0a.45017.45017,0,0,1,.44993-.45124h.59652a.45019.45019,0,0,1,.45006.45124h0A.44994.44994,0,0,1,467.53226,276.77415Z" fill="#fff" opacity="0.2"/><path d="M482.79423,276.77415h-.59651a.44993.44993,0,0,1-.45-.45006h0a.45018.45018,0,0,1,.45-.45124h.59651a.45017.45017,0,0,1,.44992.45124h0A.44992.44992,0,0,1,482.79423,276.77415Z" fill="#fff" opacity="0.2"/><path d="M479.60239,285.44453h-9.22747a.37831.37831,0,0,1-.37736-.37853h0a.37814.37814,0,0,1,.37736-.37736h9.22747a.37814.37814,0,0,1,.37736.37736h0A.37831.37831,0,0,1,479.60239,285.44453Z" fill="#fff" opacity="0.2"/><path d="M489.10269,274.16475H457.4074a.85231.85231,0,0,1-.85144-.85275h0a.85239.85239,0,0,1,.85144-.85274h31.69529a.85351.85351,0,0,1,.85273.85274h0A.85343.85343,0,0,1,489.10269,274.16475Z" fill="#fff" opacity="0.2"/><path d="M527.64314,274.16475H495.94787a.85242.85242,0,0,1-.85157-.85275h0a.8525.8525,0,0,1,.85157-.85274h31.69527a.85248.85248,0,0,1,.85144.85274h0A.8524.8524,0,0,1,527.64314,274.16475Z" fill="#fff" opacity="0.2"/><path d="M588.69213,274.16475h-55.36a.85343.85343,0,0,1-.85274-.85275h0a.85351.85351,0,0,1,.85274-.85274h55.36a.85276.85276,0,0,1,.85275.85274h0A.85267.85267,0,0,1,588.69213,274.16475Z" fill="#fff" opacity="0.2"/><polygon points="435.128 148.12 424.422 124.091 423.147 161.626 435.128 151.182 435.128 148.12" fill="#e9e9e9"/><path d="M332.67586,108.27968h72.39143A22.85261,22.85261,0,0,1,427.9199,131.1323v87.71133a0,0,0,0,1,0,0h-95.244a0,0,0,0,1,0,0V108.27968A0,0,0,0,1,332.67586,108.27968Z" fill="#e9e9e9"/><path d="M51.85911,289.89843H47.72343a27.07386,27.07386,0,0,1-27.04335-27.0427V241.85638a14.33252,14.33252,0,0,0-14.3168-14.31614,6.36329,6.36329,0,0,1,0-12.72657,27.07386,27.07386,0,0,1,27.04336,27.04271v20.99935a14.3326,14.3326,0,0,0,14.31679,14.31614h4.13568a6.36328,6.36328,0,0,1,0,12.72656Z" fill="#e9e9e9"/><path d="M427.61132,201.10436h4.13515a27.0738,27.0738,0,0,0,27.044-27.04336V153.0623a14.33358,14.33358,0,0,1,14.31732-14.31666,6.363,6.363,0,1,0,0-12.72591,27.07344,27.07344,0,0,0-27.04388,27.04257V174.061a14.33288,14.33288,0,0,1-14.31745,14.3168h-4.13515a6.36328,6.36328,0,1,0,0,12.72656Z" fill="#404040"/><path d="M55.88971,278.6492a6.30473,6.30473,0,0,0-4.0306-1.47733H47.72343a14.3326,14.3326,0,0,1-14.31679-14.31614V241.85638a26.89951,26.89951,0,0,0-6.78776-17.856v39.485a19.60237,19.60237,0,0,0,19.6023,19.6023h9.66853Z" fill="#ffcf86"/><path d="M47.31737,289.87794a19.69912,19.69912,0,0,0,10.80817-7.30648,6.348,6.348,0,0,0-6.26643-5.39959H47.72343a14.3326,14.3326,0,0,1-14.31679-14.31614v-9.60614a19.52732,19.52732,0,0,0-10.64815,19.98475A27.07179,27.07179,0,0,0,47.31737,289.87794Z" fill="#707070"/><path d="M51.85911,277.17187H47.72343a14.24389,14.24389,0,0,1-9.19066-3.35381,46.34154,46.34154,0,0,0-1.83876,12.9191c0,.26771.032.52642.0402.79152a26.86324,26.86324,0,0,0,10.58316,2.34926,19.69912,19.69912,0,0,0,10.80817-7.30648A6.348,6.348,0,0,0,51.85911,277.17187Z" opacity="0.1"/><path d="M33.10642,238.05146A26.97,26.97,0,0,0,24.73991,222.073,9.86929,9.86929,0,0,0,32.473,238.08331C32.687,238.08331,32.89614,238.06412,33.10642,238.05146Z" fill="#8d8e8d"/><path d="M147.49316,313.145H66.0707a25.877,25.877,0,0,1-25.87695-25.87761h0a46.33842,46.33842,0,0,1,46.33774-46.33774h87.237v45.93885A26.27556,26.27556,0,0,1,147.49316,313.145Z" fill="#e9e9e9"/><path d="M120.33063,250.35733a24.81669,24.81669,0,0,0-25.56147,14.98145,24.7844,24.7844,0,1,0-4.35431,37.56529,26.92184,26.92184,0,0,1,21.27333-3.79852,24.80785,24.80785,0,1,0,8.64245-48.74822Z" fill="#ffcf86"/><path d="M87.08467,243.4765a24.805,24.805,0,0,0,49.61,0,25.06345,25.06345,0,0,0-.12947-2.54688H87.214A25.29093,25.29093,0,0,0,87.08467,243.4765Z" fill="#ffcf86"/><circle cx="105.81442" cy="271.24955" r="15.25814" transform="matrix(0.21226, -0.97721, 0.97721, 0.21226, -181.71423, 317.07842)" fill="#707070"/><path d="M98.404,297.88693a7.84766,7.84766,0,1,1-7.84765-7.84831A7.84734,7.84734,0,0,1,98.404,297.88693Z" fill="#707070"/><path d="M45.89995,264.98322a25.91093,25.91093,0,1,0,45.24651-24.0536h-4.615A46.322,46.322,0,0,0,45.89995,264.98322Z" fill="#707070"/><path d="M138.86415,299.73143a4.23233,4.23233,0,1,1-4.232-4.23331A4.2325,4.2325,0,0,1,138.86415,299.73143Z" fill="#ffcf86"/><path d="M147.49316,305.00741H66.0707a25.86354,25.86354,0,0,1-25.63351-22.51114,46.84966,46.84966,0,0,0-.24344,4.77109h0A25.877,25.877,0,0,0,66.0707,313.145h81.42246a26.27556,26.27556,0,0,0,26.27533-26.2765v-8.13639A26.27531,26.27531,0,0,1,147.49316,305.00741Z" opacity="0.05"/><path d="M109.11585,249.06353a2.94612,2.94612,0,0,0,1.91407,3.70167l.14332.04594h-.00065v.00118q-.17778.78219-.31614,1.56412v.00379h0a32.55382,32.55382,0,0,0,.09881,11.92733l-10.58183,10.37352a2.57329,2.57329,0,0,0,1.38686,4.37729l19.19309,3.13321a32.57919,32.57919,0,0,0,9.48945,6.08669l-.5417,1.7004a2.9431,2.9431,0,0,0,1.912,3.69658h0c.01214.00392.02428.00392.03576.0077h0l.00509.00131a2.93161,2.93161,0,0,0,2.218-.20911c.01214-.00509.02233-.01527.03446-.02167a2.97868,2.97868,0,0,0,.434-.28168c.03759-.03054.06814-.06879.10442-.10077a2.8726,2.8726,0,0,0,.30087-.29056c.06435-.07518.11408-.16316.17086-.24474.05221-.07649.11213-.14528.15742-.22686a2.93141,2.93141,0,0,0,.23573-.5443l.38-1.19447.00823.00509c.17779.10586.355.2142.53544.31745.74948.43087,1.51242.84517,2.29625,1.2301.095.04582.19318.088.28808.13379.69989.33651,1.41558.65265,2.14158.95221.21472.088.43023.176.6469.26132.82731.32384,1.66477.63359,2.52326.90626,1.11785.35569,2.18479.68071,3.22119.98288.09359.02807.19175.0573.28481.08406,1.01147.29317,1.98091.55332,2.91967.78657.09059.02284.18235.04582.27215.06748q1.41794.34812,2.733.59274c.056.01148.11212.02049.16825.03067.90248.16434,1.77493.29447,2.61188.37853h.00065c6.92469.69977,11.71445-1.47484,16.17579-8.62835.25244-.00522.50228-.02688.75277-.04464a26.37019,26.37019,0,0,0,.29891-3.75779V240.92962H111.70476Z" opacity="0.1"/><path d="M188.04542,135.27462H419.63279a8.28711,8.28711,0,0,1,8.28711,8.28711V290.5345a0,0,0,0,1,0,0H179.75832a0,0,0,0,1,0,0V143.56172A8.2871,8.2871,0,0,1,188.04542,135.27462Z" fill="#cecece"/><path d="M197.15639,151.18217H410.52183a6.581,6.581,0,0,1,6.581,6.581V262.31926a6.581,6.581,0,0,1-6.581,6.581H197.15649a6.5811,6.5811,0,0,1-6.5811-6.5811v-104.556A6.581,6.581,0,0,1,197.15639,151.18217Z" fill="#f3f7fb"/><polygon points="427.92 290.535 303.838 290.535 179.758 290.535 121.642 310.049 303.838 310.049 486.037 310.049 427.92 290.535" fill="#c2c2c2"/><path d="M467.37171,328.71419H140.3065a18.66552,18.66552,0,0,1-18.66484-18.66536H486.03707A18.66562,18.66562,0,0,1,467.37171,328.71419Z" fill="#cecece"/><polygon points="193.121 292.231 182.728 292.231 147.094 305.382 457.191 305.382 422.83 292.231 193.121 292.231" fill="#cecece"/><line x1="166.39569" y1="296.6862" x2="438.94984" y2="296.6862" fill="none" stroke="#c2c2c2" stroke-miterlimit="10" stroke-width="0.97498"/><line x1="153.66913" y1="301.03411" x2="452.25895" y2="301.03411" fill="none" stroke="#c2c2c2" stroke-miterlimit="10" stroke-width="0.97498"/><line x1="194.52048" y1="291.69321" x2="169.84309" y2="301.28655" fill="none" stroke="#c2c2c2" stroke-miterlimit="10" stroke-width="0.97498"/><line x1="212.74035" y1="291.69321" x2="179.75832" y2="307.16923" fill="none" stroke="#c2c2c2" stroke-miterlimit="10" stroke-width="0.97498"/><line x1="204.57407" y1="307.16923" x2="230.96022" y2="291.69321" fill="none" stroke="#c2c2c2" stroke-miterlimit="10" stroke-width="0.97498"/><line x1="237.23553" y1="301.03411" x2="249.18009" y2="291.69321" fill="none" stroke="#c2c2c2" stroke-miterlimit="10" stroke-width="0.97498"/><path d="M264.18729,240.08943q0,13.15455,1.24672,18.82071,0,1.13139-4.875,2.38042a34.66035,34.66035,0,0,1-8.38911,1.24787l-3.062-.34023q-.45325-.6816-.45325-4.649,0-3.96678.45325-17.1196-6.46137.3408-20.237.34022-13.77389,0-14.22828-.45324a7.83919,7.83919,0,0,1-1.7-3.34458,19.11921,19.11921,0,0,1-.79463-4.138l-.113-1.70112q0-3.06028,13.60549-23.69457,13.60434-20.63313,20.85975-28.57072.79233-.79232,4.42176-1.24672a57.80017,57.80017,0,0,1,7.14355-.45325q3.5118,0,3.5141,1.01952a.46507.46507,0,0,1-.113.34023q-7.03226,8.05119-7.02937,8.95653,10.20326.22836,10.20325,1.70112-.56915,17.1196-.56627,34.57942V228.072a47.58381,47.58381,0,0,0,6.97171-.28371c.86843-.18684,1.30438-.05651,1.30438.39673a17.32528,17.32528,0,0,1-1.64461,6.91635,18.29235,18.29235,0,0,1-2.54994,4.6478A29.65191,29.65191,0,0,1,264.18729,240.08943Zm-26.86961-11.67718,12.2446-.113q.79059-19.04676.79347-26.70007,0-7.6533-.34022-7.65215-2.49459,2.49459-11.79135,16.72171-9.29676,14.23057-9.29676,17.17726Q228.92742,228.41342,237.31768,228.41225Z" fill="#707070"/><path d="M334.64821,195.76a50.82675,50.82675,0,0,1,5.83916,13.03807,56.2957,56.2957,0,0,1,2.04019,15.70334,44.1249,44.1249,0,0,1-2.94784,16.212q-2.94957,7.54086-7.82284,11.39461a33.47684,33.47684,0,0,1-21.42718,7.59564q-16.21483,0-25.16964-11.45112a31.15339,31.15339,0,0,1-5.15871-10.54348,54.04254,54.04254,0,0,1-1.98368-15.53265,50.60768,50.60768,0,0,1,3.40109-17.96959,37.39455,37.39455,0,0,1,10.99787-15.475,26.76125,26.76125,0,0,1,17.91307-6.4631A27.40054,27.40054,0,0,1,324.50147,186.01,29.56624,29.56624,0,0,1,334.64821,195.76Zm-37.07286,46.14357q4.47711,6.23647,12.75435,6.2359,8.27436,0,12.75436-6.2359,4.47711-6.233,4.47827-18.81957,0-12.58539-4.93152-20.74788-4.93209-8.1619-12.30111-8.16306-7.37132,0-12.3011,8.16306-4.93209,8.16365-4.93152,20.74788Q293.09708,235.66767,297.57535,241.90357Z" fill="#707070"/><path d="M400.3483,240.08943q0,13.15455,1.24672,18.82071,0,1.13139-4.875,2.38042a34.66042,34.66042,0,0,1-8.38911,1.24787l-3.062-.34023q-.45324-.6816-.45325-4.649,0-3.96678.45325-17.1196-6.46137.3408-20.237.34022-13.77387,0-14.22827-.45324a7.83908,7.83908,0,0,1-1.7-3.34458,19.11853,19.11853,0,0,1-.79462-4.138l-.113-1.70112q0-3.06028,13.60549-23.69457,13.60434-20.63313,20.85976-28.57072.79231-.79232,4.42175-1.24672a57.80029,57.80029,0,0,1,7.14355-.45325q3.5118,0,3.51411,1.01952a.465.465,0,0,1-.113.34023q-7.03224,8.05119-7.02937,8.95653,10.20326.22836,10.20326,1.70112-.56916,17.1196-.56627,34.57942V228.072a47.58373,47.58373,0,0,0,6.9717-.28371c.86844-.18684,1.30438-.05651,1.30438.39673a17.32543,17.32543,0,0,1-1.6446,6.91635,18.29227,18.29227,0,0,1-2.55,4.6478A29.65191,29.65191,0,0,1,400.3483,240.08943Zm-26.8696-11.67718,12.24459-.113q.79059-19.04676.79347-26.70007,0-7.6533-.34022-7.65215-2.49459,2.49459-11.79135,16.72171-9.29676,14.23057-9.29676,17.17726Q365.08843,228.41342,373.4787,228.41225Z" fill="#707070"/><path d="M262.50905,238.78414q0,13.15455,1.24672,18.82071,0,1.13139-4.875,2.38042a34.66035,34.66035,0,0,1-8.38911,1.24787l-3.062-.34022q-.45326-.6816-.45325-4.649,0-3.96678.45325-17.1196-6.46137.3408-20.237.34022-13.77389,0-14.22828-.45324a7.83908,7.83908,0,0,1-1.7-3.34458,19.11921,19.11921,0,0,1-.79463-4.138l-.113-1.70112q0-3.06028,13.60549-23.69457,13.60434-20.63313,20.85975-28.57072.79233-.79232,4.42176-1.24672a57.80014,57.80014,0,0,1,7.14355-.45324q3.5118,0,3.5141,1.01951a.46506.46506,0,0,1-.113.34023q-7.03225,8.05119-7.02937,8.95653,10.20326.22836,10.20325,1.70112-.56914,17.11961-.56627,34.57942v4.30758a47.58381,47.58381,0,0,0,6.97171-.28371c.86843-.18684,1.30438-.05651,1.30438.39674a17.32524,17.32524,0,0,1-1.64461,6.91634,18.29235,18.29235,0,0,1-2.54994,4.6478A29.65191,29.65191,0,0,1,262.50905,238.78414ZM235.63944,227.107l12.2446-.113q.79059-19.04676.79347-26.70007,0-7.6533-.34022-7.65215-2.49459,2.49459-11.79135,16.72171-9.29676,14.23058-9.29676,17.17726Q227.24918,227.10813,235.63944,227.107Z" fill="#fd9702"/><path d="M332.97,194.45471a50.82675,50.82675,0,0,1,5.83916,13.03807,56.2957,56.2957,0,0,1,2.04019,15.70334,44.1249,44.1249,0,0,1-2.94784,16.212q-2.94957,7.54086-7.82284,11.39462a33.47689,33.47689,0,0,1-21.42718,7.59564q-16.21483,0-25.16964-11.45113a31.15339,31.15339,0,0,1-5.15871-10.54348,54.04254,54.04254,0,0,1-1.98368-15.53265,50.60759,50.60759,0,0,1,3.40109-17.96958,37.39452,37.39452,0,0,1,10.99787-15.475,26.76122,26.76122,0,0,1,17.91307-6.46309,27.40054,27.40054,0,0,1,14.17177,3.7413A29.56633,29.56633,0,0,1,332.97,194.45471Zm-37.07286,46.14357q4.47711,6.23648,12.75435,6.2359,8.27436,0,12.75436-6.2359,4.47711-6.233,4.47827-18.81956,0-12.5854-4.93152-20.74789-4.93209-8.16191-12.30111-8.16306-7.37131,0-12.3011,8.16306-4.93209,8.16365-4.93152,20.74789Q291.41884,234.36239,295.89711,240.59828Z" fill="#fd9702"/><path d="M398.67006,238.78414q0,13.15455,1.24672,18.82071,0,1.13139-4.875,2.38042a34.66042,34.66042,0,0,1-8.38912,1.24787l-3.062-.34022q-.45324-.6816-.45325-4.649,0-3.96678.45325-17.1196-6.46137.3408-20.237.34022-13.77387,0-14.22827-.45324a7.83908,7.83908,0,0,1-1.7-3.34458,19.11853,19.11853,0,0,1-.79462-4.138l-.113-1.70112q0-3.06028,13.60549-23.69457,13.60434-20.63313,20.85976-28.57072.79231-.79232,4.42175-1.24672a57.80026,57.80026,0,0,1,7.14355-.45324q3.5118,0,3.51411,1.01951a.46506.46506,0,0,1-.113.34023q-7.03224,8.05119-7.02937,8.95653,10.20325.22836,10.20326,1.70112-.56916,17.11961-.56627,34.57942v4.30758a47.58373,47.58373,0,0,0,6.9717-.28371c.86844-.18684,1.30438-.05651,1.30438.39674a17.32538,17.32538,0,0,1-1.6446,6.91634,18.29227,18.29227,0,0,1-2.54995,4.6478A29.65191,29.65191,0,0,1,398.67006,238.78414ZM371.80046,227.107l12.24459-.113q.79059-19.04676.79347-26.70007,0-7.6533-.34022-7.65215-2.49459,2.49459-11.79135,16.72171-9.29676,14.23058-9.29676,17.17726Q363.41019,227.10813,371.80046,227.107Z" fill="#fd9702"/><line x1="259.43691" y1="301.03411" x2="267.3993" y2="291.69321" fill="none" stroke="#c2c2c2" stroke-miterlimit="10" stroke-width="0.97498"/><line x1="281.63765" y1="301.03411" x2="285.61917" y2="291.69321" fill="none" stroke="#c2c2c2" stroke-miterlimit="10" stroke-width="0.97498"/><line x1="303.83839" y1="301.13997" x2="303.83839" y2="292.23112" fill="none" stroke="#c2c2c2" stroke-miterlimit="10" stroke-width="0.97498"/><line x1="326.03978" y1="301.03411" x2="322.05891" y2="291.69321" fill="none" stroke="#c2c2c2" stroke-miterlimit="10" stroke-width="0.97498"/><line x1="353.31195" y1="307.07877" x2="340.27812" y2="291.69321" fill="none" stroke="#c2c2c2" stroke-miterlimit="10" stroke-width="0.97498"/><line x1="379.24178" y1="308.03346" x2="358.49734" y2="291.69321" fill="none" stroke="#c2c2c2" stroke-miterlimit="10" stroke-width="0.97498"/><line x1="404.05882" y1="307.55677" x2="376.71786" y2="291.69321" fill="none" stroke="#c2c2c2" stroke-miterlimit="10" stroke-width="0.97498"/><line x1="428.74326" y1="307.55677" x2="394.93708" y2="291.69321" fill="none" stroke="#c2c2c2" stroke-miterlimit="10" stroke-width="0.97498"/><line x1="437.04542" y1="301.03411" x2="413.15629" y2="291.69321" fill="none" stroke="#c2c2c2" stroke-miterlimit="10" stroke-width="0.97498"/><line x1="281.48793" y1="280.1418" x2="326.19028" y2="280.1418" fill="none" stroke="#9b9b9b" stroke-linecap="round" stroke-miterlimit="10" stroke-width="3.8999"/><path d="M227.51856,279.22274a6.09327,6.09327,0,0,0,4.91781-7.38428,6.009,6.009,0,0,0-3.26766-4.07641l1.20073-.54822a5.86334,5.86334,0,0,0,3.2486-7.13053,5.6988,5.6988,0,0,0-7.75654-3.33723l-1.42381.64885a6.00487,6.00487,0,0,0-.93889-5.13957,6.091,6.091,0,0,0-8.79856-1.12424c-5.58507,4.59017-11.37154,8.92921-17.949,11.93112l-16.9929,7.75393V290.5345h13.251l13.73672-5.57175C213.3229,281.96215,220.39169,280.43118,227.51856,279.22274Z" opacity="0.2"/><path d="M226.96538,273.62684a6.13476,6.13476,0,0,0,2.55315-6.44486,6.01062,6.01062,0,0,0-3.26766-4.07772l1.20073-.54809a5.86255,5.86255,0,0,0,3.2486-7.12936,5.69838,5.69838,0,0,0-7.75654-3.33841l-1.4238.65a6.011,6.011,0,0,0-.93877-5.14088,6.09476,6.09476,0,0,0-8.79868-1.12425c-5.58508,4.59149-11.37221,8.93053-17.9489,11.93112l-38.167,17.41751,17.43343,16.94839,30.72845-12.46407c6.57617-3.0019,13.645-4.53157,20.77249-5.73987A6.16724,6.16724,0,0,0,226.96538,273.62684Z" fill="#e9e9e9"/><path d="M381.46872,142.33583A14.61223,14.61223,0,0,0,407.65855,139.49c4.05736-.95155,6.95471-2.31806,9.0262-4.21542H346.76123a19.91584,19.91584,0,0,0,8.45514,4.04208,14.61422,14.61422,0,0,0,26.25235,3.01913Z" opacity="0.2"/><path d="M362.93206,68.32572l-16.3276-8.65015a2.573,2.573,0,0,0-3.75009,2.64947l3.07957,20.90054Z" fill="#404040"/><path d="M359.88044,71.0013l-11.76419-6.413a.97742.97742,0,0,0-1.4353.99359l2.12358,15.12868Z" fill="#ff6462"/><path d="M400.00525,68.32572l16.32891-8.65015a2.57324,2.57324,0,0,1,3.7501,2.64947l-3.07959,20.90054Z" fill="#404040"/><path d="M403.05819,71.0013l11.76417-6.413a.97632.97632,0,0,1,1.434.99359l-2.12227,15.12868Z" fill="#ff6462"/><circle cx="369.06078" cy="128.13886" r="14.63509" fill="#e9e9e9"/><path d="M408.5126,128.13886a14.63541,14.63541,0,1,1-14.63607-14.63541A14.63521,14.63521,0,0,1,408.5126,128.13886Z" fill="#e9e9e9"/><path d="M421.7695,107.53528c0,22.25686-2.54557,27.39069-40.30078,27.39069-36.37473,0-40.29959-5.13383-40.29959-27.39069a40.30019,40.30019,0,0,1,80.60037,0Z" fill="#e9e9e9"/><path d="M398.4808,71.0013a27.27767,27.27767,0,0,0-17.01208,15.21849A27.27567,27.27567,0,0,0,364.45781,71.0013a40.29732,40.29732,0,0,0-23.28868,36.53332,62.8952,62.8952,0,0,0,.919,12.52268,27.13849,27.13849,0,0,0,37.28739-8.34353,2.47213,2.47213,0,0,1,4.18749,0,27.13852,27.13852,0,0,0,37.28741,8.34353,62.8967,62.8967,0,0,0,.919-12.52268A40.29734,40.29734,0,0,0,398.4808,71.0013Z" fill="#404040"/><path d="M372.13656,107.53528A7.84766,7.84766,0,1,1,364.2884,99.687,7.84758,7.84758,0,0,1,372.13656,107.53528Z" fill="#ffc400"/><path d="M369.40237,107.53528a5.1134,5.1134,0,1,1-5.114-5.11412A5.11352,5.11352,0,0,1,369.40237,107.53528Z" fill="#404040"/><path d="M362.61461,103.92916a1.93176,1.93176,0,1,1-1.93117-1.93235A1.9318,1.9318,0,0,1,362.61461,103.92916Z" fill="#fff"/><path d="M406.49736,107.53528a7.84766,7.84766,0,1,1-7.8483-7.84831A7.84761,7.84761,0,0,1,406.49736,107.53528Z" fill="#ffc400"/><path d="M403.76305,107.53528a5.11341,5.11341,0,1,1-5.114-5.11412A5.11354,5.11354,0,0,1,403.76305,107.53528Z" fill="#404040"/><path d="M396.97528,103.92916a1.93175,1.93175,0,1,1-1.931-1.93235A1.93177,1.93177,0,0,1,396.97528,103.92916Z" fill="#fff"/><path d="M380.81607,123.82019l-3.62021-3.62009a.92349.92349,0,0,1,.65264-1.57627h7.24031a.92359.92359,0,0,1,.65395,1.57627l-3.62021,3.62009A.92381.92381,0,0,1,380.81607,123.82019Z" fill="#ff6462"/><path d="M387.51078,62.5985H375.42667A32.7963,32.7963,0,0,0,342.6313,95.39505h77.676A32.79655,32.79655,0,0,0,387.51078,62.5985Z" fill="#ffc400"/><path d="M421.95433,98.33835H340.98428a2.94267,2.94267,0,0,1-2.94316-2.9433h0a2.9422,2.9422,0,0,1,2.94316-2.94264h80.97005a2.943,2.943,0,0,1,2.94316,2.94264h0A2.94351,2.94351,0,0,1,421.95433,98.33835Z" fill="#ffd800"/><path d="M341.69058,101.08089H421.248c-.14907-.92611-.3352-1.83876-.54548-2.74254h-78.4665C342.02577,99.24213,341.83964,100.15478,341.69058,101.08089Z" opacity="0.1"/><path d="M424.89371,95.43212h-86.8488a2.94038,2.94038,0,0,0,2.93937,2.90623h80.97005A2.94121,2.94121,0,0,0,424.89371,95.43212Z" opacity="0.1"/><path d="M374.88267,59.6291h13.1721a2.2578,2.2578,0,0,1,2.2578,2.2578V92.45241a0,0,0,0,1,0,0h-17.6877a0,0,0,0,1,0,0V61.8869A2.2578,2.2578,0,0,1,374.88267,59.6291Z" fill="#ffd800"/><path d="M419.98869,90.86165H391.90333V62.89989q-.78965-.10514-1.59076-.174V90.86165h-17.6877V62.7259c-.53413.04529-1.06316.1039-1.59089.174V90.86165H342.94992q-.10907.78965-.18105,1.59076h77.40087Q420.09887,91.65141,419.98869,90.86165Z" opacity="0.1"/><path d="M380.9919,68.00762h-3.7501a2.70473,2.70473,0,0,1-2.70495-2.7043h0a2.70484,2.70484,0,0,1,2.70495-2.70482h3.7501a2.70364,2.70364,0,0,1,2.70364,2.70482h0A2.70353,2.70353,0,0,1,380.9919,68.00762Z" fill="#fff" opacity="0.2"/><path d="M364.2884,76.04075a4.9312,4.9312,0,1,1-4.93061-4.93111A4.9317,4.9317,0,0,1,364.2884,76.04075Z" fill="#fff" opacity="0.2"/><path d="M403.39092,73.56723a3.863,3.863,0,1,1-3.86234-3.863A3.86317,3.86317,0,0,1,403.39092,73.56723Z" fill="#fff" opacity="0.2"/><path d="M354.31,82.14206a1.43144,1.43144,0,1,1-1.43151-1.43151A1.43182,1.43182,0,0,1,354.31,82.14206Z" fill="#fff" opacity="0.2"/><path d="M217.57461,218.48036a6.13272,6.13272,0,0,0,.19893-6.92926,6.01187,6.01187,0,0,0-4.46394-2.71578l.94188-.92532a5.86319,5.86319,0,0,0,.61832-7.81071,5.69879,5.69879,0,0,0-8.43021-.48883l-1.116,1.09683a6.0107,6.0107,0,0,0-2.638-4.51055,6.093,6.093,0,0,0-8.65393,1.94775c-3.68131,6.22244-7.63855,12.27663-12.79535,17.3435l-29.92413,29.40475,16.87255,17.17133,29.92465-29.40462c5.15615-5.06687,11.2773-8.91839,17.56344-12.48887A6.15074,6.15074,0,0,0,217.57461,218.48036Z" opacity="0.2"/><path d="M214.72634,214.35539a6.13382,6.13382,0,0,0,.19828-6.92926,6.00808,6.00808,0,0,0-4.46344-2.71565l.94139-.92545a5.86248,5.86248,0,0,0,.6183-7.81072,5.69832,5.69832,0,0,0-8.42968-.48883l-1.11654,1.09684a6.00855,6.00855,0,0,0-2.638-4.51043,6.09355,6.09355,0,0,0-8.65393,1.94775c-3.6813,6.22179-7.63855,12.2765-12.7947,17.3435l-29.92478,29.40463,16.87308,17.17015,29.92412-29.40345c5.15681-5.06686,11.278-8.91838,17.56409-12.48873A6.16009,6.16009,0,0,0,214.72634,214.35539Z" fill="#e9e9e9"/><path d="M427.9199,159.56577l-11.90437,11.19638c-5.25053,4.96871-11.44294,8.70418-17.79485,12.15549a6.09183,6.09183,0,0,0-2.26261,8.57745,6.00658,6.00658,0,0,0,4.41175,2.80049l-.95848.90757a5.86228,5.86228,0,0,0-.7662,7.79727,5.69964,5.69964,0,0,0,8.42068.64755l1.13573-1.07581a6.00977,6.00977,0,0,0,2.55327,4.55963,6.091,6.091,0,0,0,8.68826-1.78459,105.1263,105.1263,0,0,1,8.47682-12.10394Z" opacity="0.2"/><path d="M396.287,179.90556a6.1313,6.1313,0,0,0-.32894,6.92351,6.01039,6.01039,0,0,0,4.41175,2.8005l-.95848.90691a5.8632,5.8632,0,0,0-.7662,7.79793,5.69959,5.69959,0,0,0,8.42068.6469l1.13573-1.07517a6.00981,6.00981,0,0,0,2.55327,4.55964,6.09006,6.09006,0,0,0,8.68826-1.78525c3.79867-6.15169,7.8688-12.13,13.1192-17.09941l1.57679-1.48254a23.99986,23.99986,0,0,0,.98914-33.97888h0l-19.11268,17.97578c-5.25053,4.96871-11.44294,8.70484-17.79485,12.15615A6.15033,6.15033,0,0,0,396.287,179.90556Z" fill="#e9e9e9"/><path d="M320.70141,144.51867l2.85532,5.24413c2.9878,6.58309,4.5022,13.65514,5.69654,20.78515a6.09,6.09,0,0,0,7.37292,4.93242,6.00545,6.00545,0,0,0,4.08411-3.25878l.54548,1.202a5.86257,5.86257,0,0,0,7.12309,3.26387,5.69842,5.69842,0,0,0,3.355-7.7495l-.64756-1.42511a6.01078,6.01078,0,0,0,5.14336-.92793,6.09241,6.09241,0,0,0,1.14213-8.79608c-4.57869-5.59459-8.90494-11.3906-11.89157-17.97382l-2.14028-4.54044h-24.7826A23.99842,23.99842,0,0,0,320.70141,144.51867Z" opacity="0.2"/><path d="M330.18643,168.54485a6.13451,6.13451,0,0,0,6.43976,2.56711,6.00781,6.00781,0,0,0,4.08411-3.2593l.54548,1.202a5.86283,5.86283,0,0,0,7.12309,3.26387,5.69826,5.69826,0,0,0,3.355-7.7495l-.64756-1.42511a6.00867,6.00867,0,0,0,5.14336-.92806,6.09241,6.09241,0,0,0,1.14213-8.79608c-4.57869-5.5946-8.90494-11.3906-11.89157-17.97317l-12.80436-27.167h0a24.074,24.074,0,0,0-11.97445,31.86993l2.85532,5.24412c2.9878,6.58323,4.5022,13.65515,5.69654,20.78529A6.16449,6.16449,0,0,0,330.18643,168.54485Z" fill="#e9e9e9"/><path d="M227.34014,262.6072l.11146-.051a5.86255,5.86255,0,0,0,3.2486-7.12936,5.67426,5.67426,0,0,0-1.60929-2.37993,5.95608,5.95608,0,0,1-3.50548,5.8815l-1.20073.54809A6.02154,6.02154,0,0,1,227.34014,262.6072Z" opacity="0.05"/><path d="M221.07749,248.46062l.01475-.00509a6.1316,6.1316,0,0,0-.51115-.858,5.91986,5.91986,0,0,0-.76869-.85013,6.20169,6.20169,0,0,1-.15807,2.36191Z" opacity="0.05"/><path d="M227.73968,264.12525a6.0697,6.0697,0,0,1-5.005,6.812c-7.12687,1.20844-14.19566,2.738-20.77249,5.73988l-18.69278,7.5832a14.5716,14.5716,0,0,0-.97074-17.68888,14.64084,14.64084,0,0,0,9.167-7.086l-35.79923,16.33647,15.59023,15.1574h0l1.8432,1.791,30.72845-12.46407c6.57617-3.0019,13.645-4.53157,20.77249-5.73987a6.09349,6.09349,0,0,0,4.91768-7.38441A5.94576,5.94576,0,0,0,227.73968,264.12525Z" opacity="0.05"/><path d="M214.92462,207.42613a5.948,5.948,0,0,0-2.30854-2.07319,6.05975,6.05975,0,0,1-2.70038,7.37031c-6.28627,3.57036-12.40729,7.42187-17.56344,12.48874l-2.13388,2.0963c-1.63474-6.30337-6.76153-9.25946-15.54938-12.29125l-26.20575,25.74942,16.87308,17.17146,29.92412-29.40345c5.15681-5.06686,11.278-8.91838,17.56409-12.48873a6.09367,6.09367,0,0,0,2.10008-8.61961Z" opacity="0.05"/><path d="M112.31029,259.81428,99.1159,272.75a2.57309,2.57309,0,0,0,1.38687,4.37728l20.85016,3.40472Z" fill="#ffcf86"/><path d="M113.93419,263.53513l-9.67871,9.26442a.977.977,0,0,0,.51115,1.66868l15.05989,2.56593Z" fill="#ff6462"/><path d="M123.5556,224.488l-3.28933-18.1828a2.57293,2.57293,0,0,1,3.6616-2.76995L142.91,212.80993Z" fill="#8d8e8d"/><path d="M127.03106,222.39113l-2.54231-13.15548a.97677.97677,0,0,1,1.38178-1.06563l13.77184,6.6118Z" fill="#ff6462"/><path d="M175.604,258.17118a14.63529,14.63529,0,1,1-18.38486,9.50668A14.63583,14.63583,0,0,1,175.604,258.17118Z" fill="#e9e9e9"/><path d="M183.131,234.52431a14.63529,14.63529,0,1,1-18.3842,9.50668A14.63478,14.63478,0,0,1,183.131,234.52431Z" fill="#e9e9e9"/><path d="M167.51928,215.64292c21.20833,6.75135,25.32886,10.73352,13.87692,46.70923-11.03374,34.66285-17.116,36.84385-38.32432,30.093a40.2997,40.2997,0,1,1,24.4474-76.80226Z" fill="#e9e9e9"/><path d="M163.1993,220.57156a15.16564,15.16564,0,1,1-19.05095,9.85075A15.16562,15.16562,0,0,1,163.1993,220.57156Z" fill="#8d8e8d"/><path d="M115.323,259.17312a40.29512,40.29512,0,0,0,27.74886,33.27206,62.82033,62.82033,0,0,0,12.211,2.92294,27.19075,27.19075,0,1,0-39.95984-36.195Z" fill="#ffcf86"/><path d="M152.46448,262.93731a7.84776,7.84776,0,1,1-9.85845,5.09754A7.84825,7.84825,0,0,1,152.46448,262.93731Z" fill="#ffc400"/><path d="M151.63523,265.5428a5.11339,5.11339,0,1,1-6.42372,3.32182A5.11343,5.11343,0,0,1,151.63523,265.5428Z" fill="#404040"/><path d="M146.14076,270.91693a1.93171,1.93171,0,1,1-2.42707,1.25425A1.93128,1.93128,0,0,1,146.14076,270.91693Z" fill="#fff"/><path d="M162.88707,230.19545a7.84776,7.84776,0,1,1-9.85858,5.09755A7.84732,7.84732,0,0,1,162.88707,230.19545Z" fill="#ffc400"/><path d="M162.05783,232.80094a5.11349,5.11349,0,1,1-6.4245,3.32052A5.11336,5.11336,0,0,1,162.05783,232.80094Z" fill="#404040"/><path d="M156.56269,238.17377a1.93223,1.93223,0,1,1-2.427,1.25556A1.93331,1.93331,0,0,1,156.56269,238.17377Z" fill="#fff"/><path d="M170.61556,259.60647l-4.5475,2.35057a.923.923,0,0,1-1.304-1.1001l2.19628-6.89858a.92319.92319,0,0,1,1.69974-.1441l2.35122,4.54684A.924.924,0,0,1,170.61556,259.60647Z" fill="#ff6462"/><path d="M114.30907,234.65693l-3.66538,11.51434a32.7963,32.7963,0,0,0,21.30336,41.19934h0l23.56136-74.01768h0A32.79636,32.79636,0,0,0,114.30907,234.65693Z" fill="#ffc400"/><path d="M158.81183,212.67666l-24.56017,77.15677a2.94288,2.94288,0,0,1-3.69671,1.91068h0a2.94232,2.94232,0,0,1-1.91133-3.69657l24.55952-77.15613a2.94385,2.94385,0,0,1,3.69723-1.912h0A2.943,2.943,0,0,1,158.81183,212.67666Z" fill="#ffd800"/><path d="M137.07956,289.99137,161.21082,214.182c-.9274-.13888-1.854-.239-2.77883-.31222L134.63215,288.639C135.42877,289.11448,136.24275,289.5682,137.07956,289.99137Z" opacity="0.1"/><path d="M156.93419,208.9947l-26.34282,82.75711a2.93965,2.93965,0,0,0,3.66029-1.91838l24.56017-77.15677A2.94025,2.94025,0,0,0,156.93419,208.9947Z" opacity="0.1"/><path d="M111.43522,233.89464l-3.57741,11.23775a2.94635,2.94635,0,0,0,1.9146,3.70167l28.46834,9.06314,5.36526-16.85532L115.13688,231.98A2.947,2.947,0,0,0,111.43522,233.89464Z" fill="#ffd800"/><path d="M151.09105,212.2822l-8.51883,26.7622-26.64367-8.4819q-.34128.72092-.64887,1.46336l26.8101,8.53411-5.3646,16.854-26.8101-8.534q-.17877.78375-.31667,1.56908l26.64434,8.48059-8.51884,26.7622q.719.34225,1.46075.65526l8.57365-26.93437.48244-1.51557,5.36526-16.85532.48243-1.5157,8.57366-26.93424Q151.87717,212.41691,151.09105,212.2822Z" opacity="0.1"/><path d="M117.48562,242.509l-1.13769,3.57427a2.70588,2.70588,0,0,1-3.3978,1.75653h0a2.70423,2.70423,0,0,1-1.75652-3.39714l1.13769-3.57414a2.70507,2.70507,0,0,1,3.39714-1.75653h0A2.70547,2.70547,0,0,1,117.48562,242.509Z" fill="#fff" opacity="0.2"/><path d="M120.07388,260.862a4.93151,4.93151,0,1,1-6.195,3.20331A4.93174,4.93174,0,0,1,120.07388,260.862Z" fill="#fff" opacity="0.2"/><path d="M129.57729,222.8519a3.86273,3.86273,0,1,1-4.85267,2.50994A3.863,3.863,0,0,1,129.57729,222.8519Z" fill="#fff" opacity="0.2"/><path d="M122.86094,272.22091a1.432,1.432,0,1,1-1.79857.93054A1.43241,1.43241,0,0,1,122.86094,272.22091Z" fill="#fff" opacity="0.2"/><path d="M341.11953,160.6117a10.56073,10.56073,0,0,0,5.03631-14.06109l-17.10907-36.20335a24.06217,24.06217,0,0,0-8.34536,29.80235l2.85532,5.24412a62.39941,62.39941,0,0,1,3.53341,10.23908A10.55885,10.55885,0,0,0,341.11953,160.6117Z" fill="#404040"/><path d="M423.18432,194.89784a68.51461,68.51461,0,0,1,9.378-11.31672l1.57679-1.48254a23.99274,23.99274,0,0,0,3.67112-30.54676L411.61266,177.699a10.56,10.56,0,0,0-.014,14.93563h0A10.55885,10.55885,0,0,0,423.18432,194.89784Z" fill="#404040"/><g opacity="0.05"><path d="M434.13907,177.80352l-1.57679,1.48255c-5.2504,4.96936-9.32053,10.94772-13.1192,17.09941a6.0915,6.0915,0,0,1-8.68826,1.78511,6.00953,6.00953,0,0,1-2.55327-4.5595l-1.13573,1.07517a5.69959,5.69959,0,0,1-8.42068-.64691,5.342,5.342,0,0,1-.71-1.26769,5.63751,5.63751,0,0,0,9.13063,6.20965l1.13573-1.07517a6.01086,6.01086,0,0,0,2.55327,4.55964,6.09006,6.09006,0,0,0,8.68826-1.78525c3.79867-6.15169,7.8688-12.13,13.1192-17.09941l1.57679-1.48254a23.93365,23.93365,0,0,0,7.43792-19.6647A23.87712,23.87712,0,0,1,434.13907,177.80352Z"/></g><g opacity="0.05"><path d="M350.90017,168.92469a5.86312,5.86312,0,0,1-7.123-3.26387l-.54561-1.20139a6.00763,6.00763,0,0,1-4.08412,3.25878,6.09266,6.09266,0,0,1-7.37279-4.93307c-1.19447-7.13-2.70873-14.20206-5.69536-20.78529l-2.85661-5.24347a24.04949,24.04949,0,0,1,1.37928-22.49573,24.06161,24.06161,0,0,0-3.90059,25.889l2.85532,5.24412c2.9878,6.58323,4.5022,13.65515,5.69654,20.78529a6.09057,6.09057,0,0,0,7.37292,4.93294,6.00781,6.00781,0,0,0,4.08411-3.2593l.54548,1.202a5.86283,5.86283,0,0,0,7.12309,3.26387,5.666,5.666,0,0,0,3.64306-3.91782A5.79636,5.79636,0,0,1,350.90017,168.92469Z"/></g><rect x="427.9199" y="188.3778" width="5.09113" height="12.72656" opacity="0.2"/><polygon points="509.481 339.418 511.014 341.828 508.553 342.933 509.481 339.418" fill="#c2c2c2"/><path d="M504.35693,329.7887l1.40344,2.23962-1.7552.51376s-1.83042-1.81775-1.59469-1.9287C502.64506,330.50257,504.35693,329.7887,504.35693,329.7887Z" fill="#c2c2c2"/><path d="M510.02175,341.55288l-6.93811,3.71446-4.68718-2.91145.17726-5.51563,6.93943-3.71446a.74227.74227,0,0,0,.00757-1.30776,10.51285,10.51285,0,0,0-9.85584.04464,10.64734,10.64734,0,0,0-5.5284,9.17526l-32.107,17.18673a10.65121,10.65121,0,0,0-10.70245-.48948,10.52164,10.52164,0,0,0-5.50284,8.17711.74327.74327,0,0,0,1.0924.72026l6.93943-3.71446,4.68834,2.91014-.17713,5.5155-6.93813,3.71328a.74525.74525,0,0,0-.00261,1.31286A10.5242,10.5242,0,0,0,462.83,367.13222l32.056-17.15867a10.52382,10.52382,0,0,0,16.22944-7.69532A.74506.74506,0,0,0,510.02175,341.55288Z" fill="#c2c2c2"/><polygon points="445.669 373.742 447.123 376.067 449.013 374.904 447.341 372.389 445.669 373.742" fill="#c2c2c2"/><polygon points="440.681 364.284 441.968 366.416 447.703 362.351 443.193 362.351 440.681 364.284" fill="#c2c2c2"/><path d="M508.58384,339.26862l-6.93813,3.71316-4.687-2.91014.17713-5.51563,6.93944-3.71446a.74312.74312,0,0,0,.0077-1.30777,10.51316,10.51316,0,0,0-9.856.04464,10.64705,10.64705,0,0,0-5.52828,9.17527l-32.1071,17.18673a10.65111,10.65111,0,0,0-10.70232-.48948,10.51787,10.51787,0,0,0-5.50283,8.17711.74321.74321,0,0,0,1.09239.72025l6.93944-3.71576,4.68833,2.91145-.17725,5.51549-6.93813,3.71329a.7452.7452,0,0,0-.00248,1.31286,10.52413,10.52413,0,0,0,15.40331-9.23766l32.05606-17.15867a10.52382,10.52382,0,0,0,16.22943-7.69533A.74528.74528,0,0,0,508.58384,339.26862Z" fill="#cecece"/><path d="M489.53224,346.75615l-26.51745,14.19371a2.38842,2.38842,0,0,1-3.23386-.979h0a2.39066,2.39066,0,0,1,.979-3.23385l26.51746-14.19371a2.38963,2.38963,0,0,1,3.23385.979h0A2.39,2.39,0,0,1,489.53224,346.75615Z" fill="#c2c2c2"/><path d="M477.00839,347.11053,458.793,356.86065a.59709.59709,0,0,1-.8081-.24474h0a.59831.59831,0,0,1,.24474-.80941l18.21543-9.74881a.59494.59494,0,0,1,.8081.24474h0A.59718.59718,0,0,1,477.00839,347.11053Z" fill="#fff" opacity="0.2"/><path d="M491.71457,347.60772l-18.21545,9.75011a.5972.5972,0,0,1-.8081-.24474h0a.59891.59891,0,0,1,.24474-.80941l18.21543-9.74894a.59619.59619,0,0,1,.80811.24474h0A.59737.59737,0,0,1,491.71457,347.60772Z" fill="#fff" opacity="0.2"/><path d="M483.92616,343.40756l-4.274,2.288a.59825.59825,0,0,1-.80941-.24474h0a.59708.59708,0,0,1,.24475-.8081l4.27534-2.28935a.59708.59708,0,0,1,.8081.24474h0A.599.599,0,0,1,483.92616,343.40756Z" fill="#fff" opacity="0.2"/><path d="M447.56161,356.57518l-1.61112.86293a.59724.59724,0,0,1-.80823-.24474h0a.59848.59848,0,0,1,.24474-.80941l1.61125-.86176a.59731.59731,0,0,1,.8081.24475h0A.59723.59723,0,0,1,447.56161,356.57518Z" fill="#fff" opacity="0.2"/><path d="M496.227,330.52554l-1.61.86292a.59916.59916,0,0,1-.8094-.24474h0a.59912.59912,0,0,1,.24476-.80941l1.61123-.86175a.59731.59731,0,0,1,.8081.24474h0A.59512.59512,0,0,1,496.227,330.52554Z" fill="#fff" opacity="0.2"/><path d="M453.56933,371.00084l-4.9866,2.66931a.59521.59521,0,0,1-.80823-.24474h0a.59588.59588,0,0,1,.24344-.80823l4.9879-2.66919a.59735.59735,0,0,1,.80823.24474h0A.595.595,0,0,1,453.56933,371.00084Z" fill="#fff" opacity="0.2"/><path d="M506.94468,342.43107l-4.98792,2.66932a.59522.59522,0,0,1-.80823-.24474h0a.59746.59746,0,0,1,.24476-.80824l4.9867-2.66918a.59851.59851,0,0,1,.80941.24474h0A.59728.59728,0,0,1,506.94468,342.43107Z" fill="#fff" opacity="0.2"/><path d="M172.86915,90.02548h-2.52574V87.49962a2.42673,2.42673,0,0,0-4.85346,0v2.52586h-2.52586a2.42667,2.42667,0,1,0,0,4.85333H165.49v2.52586a2.42673,2.42673,0,1,0,4.85346,0V94.87881h2.52574a2.42667,2.42667,0,1,0,0-4.85333Z" fill="#fff"/><path d="M227.28335,27.589h-1.89984v-1.9a1.82506,1.82506,0,1,0-3.65012,0v1.9h-1.9a1.82506,1.82506,0,0,0,0,3.65011h1.9v1.89984a1.82506,1.82506,0,1,0,3.65012,0V31.23908h1.89984a1.82506,1.82506,0,1,0,0-3.65011Z" fill="#fff"/><path d="M474.04474,212.80483h-2.52522V210.279a2.427,2.427,0,1,0-4.854,0v2.52586h-2.5252a2.42667,2.42667,0,1,0,0,4.85333h2.5252V220.184a2.427,2.427,0,0,0,4.854,0v-2.52586h2.52522a2.42667,2.42667,0,1,0,0-4.85333Z" fill="#fff"/><path d="M260.79572,112.32177a6.46046,6.46046,0,1,1,6.46026-6.46013A6.46711,6.46711,0,0,1,260.79572,112.32177Zm0-10.31034a3.84988,3.84988,0,1,0,3.84968,3.85021A3.854,3.854,0,0,0,260.79572,102.01143Z" fill="#fff"/><path d="M445.66868,90.03436a6.46046,6.46046,0,1,1,6.46144-6.46079A6.46717,6.46717,0,0,1,445.66868,90.03436Zm0-10.31034a3.84988,3.84988,0,1,0,3.85086,3.84955A3.85433,3.85433,0,0,0,445.66868,79.724Z" fill="#fff"/><path d="M90.55635,214.3127a6.46046,6.46046,0,1,1,6.46078-6.46078A6.46772,6.46772,0,0,1,90.55635,214.3127Zm0-10.31034a3.84989,3.84989,0,1,0,3.8502,3.84956A3.85439,3.85439,0,0,0,90.55635,204.00236Z" fill="#fff"/><path d="M316.58544,29.30216l-12.88723,2.43019a1.86532,1.86532,0,0,0-.97389,3.15161L313.1819,45.341a1.8648,1.8648,0,0,0,3.1511-.97322l2.43085-12.88724A1.86521,1.86521,0,0,0,316.58544,29.30216Z" fill="#44c4cd"/><path d="M143.80807,157.49506l2.01654,10.68966a1.54685,1.54685,0,0,0,2.61436.80745l8.67364-8.67364a1.54684,1.54684,0,0,0-.80745-2.61436l-10.68966-2.01654A1.54743,1.54743,0,0,0,143.80807,157.49506Z" fill="#44c4cd"/><path d="M495.98611,158.28411l-6.13263,8.98469a1.54706,1.54706,0,0,0,1.27722,2.41935h12.26775a1.54707,1.54707,0,0,0,1.27723-2.41935l-6.13264-8.98469A1.54835,1.54835,0,0,0,495.98611,158.28411Z" fill="#44c4cd"/><path d="M212.92527,171.57234a7.52919,7.52919,0,0,1-3.83366.66342,5.58675,5.58675,0,0,1-4.38105-1.70051,6.53846,6.53846,0,0,1-1.5281-4.54035,7.24189,7.24189,0,0,1,1.8303-4.92975,6.48,6.48,0,0,1,5.14543-2.08858,4.57743,4.57743,0,0,1,2.49372.71979,2.75149,2.75149,0,0,1,1.13869,2.52257,5.35633,5.35633,0,0,1-1.57136,3.55964,9.86026,9.86026,0,0,1-4.28075,2.68121q0,.34613.70669.56246a4.79425,4.79425,0,0,0,1.39763.215,6.58721,6.58721,0,0,0,3.45935-.77748.11505.11505,0,0,1,.08653-.02885c.038,0,.05769.18225.05769.548A4.122,4.122,0,0,1,212.92527,171.57234Zm-2.50748-9.16593q0-.83583-.89352-.83648a2.55855,2.55855,0,0,0-2.07548,1.21146,4.76327,4.76327,0,0,0-.89351,2.91065c0,.27009.038.40382.11537.40382a4.10435,4.10435,0,0,0,2.39211-1.19573A3.317,3.317,0,0,0,210.41779,162.40641Z" fill="#707070"/><path d="M216.00964,167.681l-.05768-6.54372a6.31041,6.31041,0,0,1,.11472-1.81587,2.72989,2.72989,0,0,1,1.09542-.56116,4.84916,4.84916,0,0,1,1.456-.24517c.451,0,.67719.0472.67719.14422a16.176,16.176,0,0,0-.08653,1.77261,3.25779,3.25779,0,0,0,.05769.99382.155.155,0,0,0,.11537-.07211c.03868-.0472.101-.12456.18749-.23076q.1298-.15733.54739-.56115a4.855,4.855,0,0,1,.90859-.69226,4.77566,4.77566,0,0,1,2.65171-.80764,2.26127,2.26127,0,0,1,.23075,1.15377,4.92812,4.92812,0,0,1-.40382,2.33507l-.11538.23076-.37432-.05769a3.75267,3.75267,0,0,0-3.25743,1.7005,2.22145,2.22145,0,0,0-.46151,1.03708v2.537a28.87516,28.87516,0,0,1-.08653,3.54522,4.68517,4.68517,0,0,1-3.17091.7788q-.2301,0-.2301-.08653A32.21543,32.21543,0,0,0,216.00964,167.681Z" fill="#707070"/><path d="M225.407,167.681l-.05769-6.54372a6.31041,6.31041,0,0,1,.11472-1.81587,2.73,2.73,0,0,1,1.09543-.56116,4.84911,4.84911,0,0,1,1.456-.24517c.451,0,.67718.0472.67718.14422a16.17845,16.17845,0,0,0-.08653,1.77261,3.25779,3.25779,0,0,0,.05769.99382.155.155,0,0,0,.11538-.07211c.03867-.0472.10095-.12456.18748-.23076q.12981-.15733.54739-.56115a4.855,4.855,0,0,1,.90859-.69226,4.77566,4.77566,0,0,1,2.65171-.80764,2.26126,2.26126,0,0,1,.23076,1.15377,4.92825,4.92825,0,0,1-.40382,2.33507l-.11538.23076-.37432-.05769a3.75267,3.75267,0,0,0-3.25744,1.7005,2.22156,2.22156,0,0,0-.46151,1.03708v2.537a28.87516,28.87516,0,0,1-.08653,3.54522,4.68516,4.68516,0,0,1-3.1709.7788q-.2301,0-.2301-.08653A32.217,32.217,0,0,0,225.407,167.681Z" fill="#707070"/><path d="M244.734,170.31892a5.53285,5.53285,0,0,1-4.49708,2.00337,5.7425,5.7425,0,0,1-4.45316-1.75819,6.48788,6.48788,0,0,1-1.61463-4.5692,7.15291,7.15291,0,0,1,2.00337-4.98743,6.98847,6.98847,0,0,1,5.405-2.17512,4.71575,4.71575,0,0,1,1.49859.17175.84968.84968,0,0,1,.11538.548,5.82585,5.82585,0,0,1-.08653.95186,2.06067,2.06067,0,0,1,1.10985.50347,6.47445,6.47445,0,0,1,1.10985,1.024,4.56441,4.56441,0,0,1,.74929,1.45532,6.487,6.487,0,0,1,.31729,2.0899A7.20787,7.20787,0,0,1,244.734,170.31892Zm-2.5514-6.76a2.37346,2.37346,0,0,0-1.29734-.43266h-.2301a1.30033,1.30033,0,0,1-.05769-.489,2.95971,2.95971,0,0,1,.08654-.72111,3.02815,3.02815,0,0,0-2.20528,1.06724,4.11016,4.11016,0,0,0-1.02332,2.96834,3.32473,3.32473,0,0,0,1.44091,3.11256,2.82155,2.82155,0,0,0,1.51367.34613,2.49806,2.49806,0,0,0,1.81587-.89286,3.71411,3.71411,0,0,0,.85025-2.65237A2.51215,2.51215,0,0,0,242.18255,163.55887Z" fill="#707070"/><path d="M248.75511,167.681l-.05769-6.54372a6.31041,6.31041,0,0,1,.11472-1.81587,2.73,2.73,0,0,1,1.09543-.56116,4.84911,4.84911,0,0,1,1.456-.24517c.451,0,.67718.0472.67718.14422a16.17845,16.17845,0,0,0-.08653,1.77261,3.25779,3.25779,0,0,0,.05769.99382.155.155,0,0,0,.11538-.07211c.03867-.0472.10095-.12456.18748-.23076q.12981-.15733.54739-.56115a4.855,4.855,0,0,1,.90859-.69226,4.77566,4.77566,0,0,1,2.65171-.80764,2.26126,2.26126,0,0,1,.23076,1.15377,4.92825,4.92825,0,0,1-.40382,2.33507l-.11538.23076-.37432-.05769a3.75267,3.75267,0,0,0-3.25744,1.7005,2.22156,2.22156,0,0,0-.46151,1.03708v2.537a28.87516,28.87516,0,0,1-.08653,3.54522,4.68516,4.68516,0,0,1-3.1709.7788q-.2301,0-.2301-.08653A32.217,32.217,0,0,0,248.75511,167.681Z" fill="#707070"/><path d="M269.73932,172.40882a6.42146,6.42146,0,0,1-4.87141-1.67166,5.87176,5.87176,0,0,1-1.58578-4.20864,7.16471,7.16471,0,0,1,2.37835-5.64954,8.45267,8.45267,0,0,1,5.80818-2.10432,5.34977,5.34977,0,0,1,.77814.02884q.17307.14356.17307,1.38321,0,1.239-.34613,1.4986h-.20126a5.84737,5.84737,0,0,0-3.60356,1.03839,3.51458,3.51458,0,0,0-1.0089,1.35437,5.19219,5.19219,0,0,0-.432,2.2197,3.05762,3.05762,0,0,0,.77814,2.14759,3.25508,3.25508,0,0,0,2.50749.84959,5.29554,5.29554,0,0,0,2.39276-.51789.47213.47213,0,0,1,.14422-.05768,2.89309,2.89309,0,0,1,.23076,1.55628q0,1.32552-.31729,1.58512A5.79094,5.79094,0,0,1,269.73932,172.40882Z" fill="#707070"/><path d="M284.973,170.31892a5.53286,5.53286,0,0,1-4.49708,2.00337,5.74251,5.74251,0,0,1-4.45317-1.75819,6.48788,6.48788,0,0,1-1.61462-4.5692,7.15294,7.15294,0,0,1,2.00336-4.98743,6.9885,6.9885,0,0,1,5.405-2.17512,4.71575,4.71575,0,0,1,1.49859.17175.84968.84968,0,0,1,.11538.548,5.82594,5.82594,0,0,1-.08654.95186,2.06061,2.06061,0,0,1,1.10985.50347,6.4737,6.4737,0,0,1,1.10985,1.024,4.56461,4.56461,0,0,1,.7493,1.45532,6.48732,6.48732,0,0,1,.31728,2.0899A7.20792,7.20792,0,0,1,284.973,170.31892Zm-2.55141-6.76a2.3734,2.3734,0,0,0-1.29733-.43266h-.2301a1.30033,1.30033,0,0,1-.05769-.489,2.95971,2.95971,0,0,1,.08653-.72111,3.02813,3.02813,0,0,0-2.20527,1.06724,4.11016,4.11016,0,0,0-1.02332,2.96834,3.32472,3.32472,0,0,0,1.4409,3.11256,2.82155,2.82155,0,0,0,1.51367.34613,2.49808,2.49808,0,0,0,1.81588-.89286,3.71411,3.71411,0,0,0,.85025-2.65237A2.51216,2.51216,0,0,0,282.42162,163.55887Z" fill="#707070"/><path d="M296.14232,159.206l-.05769-4.265a8.53583,8.53583,0,0,1,.08653-1.87488,3.61434,3.61434,0,0,1,1.1387-.67653,3.91264,3.91264,0,0,1,1.51367-.33171c.47986,0,.7211.038.7211.11538q-.23206,4.78488-.23141,10.17547a62.86321,62.86321,0,0,0,.17373,6.42834,3.87143,3.87143,0,0,0,.95055,2.30492q0,.28911-1.19639.9086a4.62251,4.62251,0,0,1-2.03221.62015c-.05769,0-.14422-.07735-.25894-.23075a3.7598,3.7598,0,0,1-.66342-1.9601c0-.05769-.019-.08654-.05769-.08654l-.08653.05769a4.11143,4.11143,0,0,1-3.60291,1.72935,3.596,3.596,0,0,1-3.05553-1.52744,5.64877,5.64877,0,0,1-1.12427-3.43115,8.10454,8.10454,0,0,1,2.01779-5.54859A7.60849,7.60849,0,0,1,296.14232,159.206Zm.05769,3.02734c0-.038-.10555-.05769-.31663-.05769H295.768a3.68118,3.68118,0,0,0-2.89688,1.1813,4.34,4.34,0,0,0-1.05216,2.9985,2.84244,2.84244,0,0,0,.50412,1.74376,1.78049,1.78049,0,0,0,1.52809.67784,1.9098,1.9098,0,0,0,1.64281-.89417,2.80107,2.80107,0,0,0,.6195-1.41206Q296.11348,163.27109,296.2,162.23335Z" fill="#707070"/><path d="M312.05387,171.57234a7.52919,7.52919,0,0,1-3.83366.66342,5.58434,5.58434,0,0,1-4.3804-1.70051,6.53877,6.53877,0,0,1-1.52875-4.54035,7.24184,7.24184,0,0,1,1.8303-4.92975,6.48047,6.48047,0,0,1,5.14608-2.08858,4.579,4.579,0,0,1,2.49372.71979,2.75254,2.75254,0,0,1,1.138,2.52257,5.35537,5.35537,0,0,1-1.5707,3.55964,9.86421,9.86421,0,0,1-4.28075,2.68121c0,.23075.23468.41824.70668.56246a4.791,4.791,0,0,0,1.39764.215,6.58465,6.58465,0,0,0,3.45869-.77748.117.117,0,0,1,.08653-.02885c.038,0,.05769.18225.05769.548A4.11791,4.11791,0,0,1,312.05387,171.57234Zm-2.50683-9.16593q0-.83583-.89417-.83648a2.55943,2.55943,0,0,0-2.07548,1.21146,4.76707,4.76707,0,0,0-.89286,2.91065c0,.27009.038.40382.11538.40382a4.10468,4.10468,0,0,0,2.39145-1.19573A3.31786,3.31786,0,0,0,309.547,162.40641Z" fill="#707070"/><path d="M317.53035,159.75405a1.61477,1.61477,0,0,1,.49035,1.18262,1.826,1.826,0,0,1-1.75819,1.75819,1.53677,1.53677,0,0,1-1.15246-.47593,1.64771,1.64771,0,0,1-.4615-1.197,1.71788,1.71788,0,0,1,.50346-1.239,1.65351,1.65351,0,0,1,2.37834-.02885Zm0,9.05186a1.6097,1.6097,0,0,1,.49035,1.1813,1.826,1.826,0,0,1-1.75819,1.75819,1.53674,1.53674,0,0,1-1.15246-.47593,1.66168,1.66168,0,0,1-.4615-1.21015,1.684,1.684,0,0,1,.50346-1.239,1.63475,1.63475,0,0,1,1.197-.50477A1.60972,1.60972,0,0,1,317.53035,168.80591Z" fill="#707070"/></g></g></svg>