<svg xmlns="http://www.w3.org/2000/svg" xmlns:xlink="http://www.w3.org/1999/xlink" viewBox="0 0 447.56757 211.8803"><defs><linearGradient id="2e054d2a-0601-4c78-a3fb-91112eb43633" x1="213.85248" y1="51.08311" x2="314.66227" y2="51.08311" gradientUnits="userSpaceOnUse"><stop offset="0" stop-color="#fff7ee"/><stop offset="0.43539" stop-color="#fdf4ed"/><stop offset="0.72127" stop-color="#f5ece9"/><stop offset="0.9639" stop-color="#e8dde2"/><stop offset="0.99617" stop-color="#e6dae1"/></linearGradient><linearGradient id="67938d7a-7bf1-40ea-b396-3b42025378e3" x1="3816.00586" y1="195.42724" x2="3827.15175" y2="195.42724" gradientTransform="matrix(-1, 0, 0, 1, 4131.84675, 0)" gradientUnits="userSpaceOnUse"><stop offset="0" stop-color="#fff7ee"/><stop offset="0.43907" stop-color="#ebdede"/><stop offset="1" stop-color="#d5c1cc"/></linearGradient><linearGradient id="8812d599-2a60-48e5-82fb-9986a3491d30" x1="3826.02407" y1="180.5566" x2="3826.08597" y2="180.5566" xlink:href="#67938d7a-7bf1-40ea-b396-3b42025378e3"/><linearGradient id="1c45eb4a-57c6-42e7-957b-a6809a21b019" x1="373.43538" y1="165.73393" x2="447.56757" y2="165.73393" gradientTransform="translate(394.59908 -276.6757) rotate(65.95572)" gradientUnits="userSpaceOnUse"><stop offset="0" stop-color="#fff7ee"/><stop offset="0.99617" stop-color="#e6dae1"/></linearGradient><linearGradient id="99d29eae-e124-4d37-829a-b1a9b6867912" x1="594.22648" y1="165.73379" x2="664.06919" y2="165.73379" gradientTransform="matrix(-1, 0, 0, 1, 1039.64906, 0)" xlink:href="#1c45eb4a-57c6-42e7-957b-a6809a21b019"/><linearGradient id="f357fb56-a92c-41dc-80b9-2eaf0dc0d3ce" x1="602.53718" y1="184.1302" x2="609.72637" y2="184.1302" gradientTransform="matrix(-1, 0, 0, 1, 1039.64906, 0)" xlink:href="#67938d7a-7bf1-40ea-b396-3b42025378e3"/><linearGradient id="029884af-df19-4bd4-b393-ae440f0961b2" x1="621.13039" y1="198.14626" x2="626.58438" y2="198.14626" gradientTransform="matrix(-1, 0, 0, 1, 1039.64906, 0)" xlink:href="#67938d7a-7bf1-40ea-b396-3b42025378e3"/><linearGradient id="09f8e613-de86-4ba2-a3de-4ad5a239661a" x1="647.06212" y1="190.84335" x2="653.69964" y2="190.84335" gradientTransform="matrix(-1, 0, 0, 1, 1039.64906, 0)" xlink:href="#67938d7a-7bf1-40ea-b396-3b42025378e3"/><linearGradient id="195b6e26-bdc6-4c75-9f71-009dcf82c1cc" x1="592.38276" y1="172.23112" x2="666.21367" y2="172.23112" gradientTransform="matrix(-1, 0, 0, 1, 1039.64906, 0)" gradientUnits="userSpaceOnUse"><stop offset="0.00383" stop-color="#e6dae1"/><stop offset="0.0361" stop-color="#e8dde2"/><stop offset="0.27873" stop-color="#f5ece9"/><stop offset="0.56461" stop-color="#fdf4ed"/><stop offset="1" stop-color="#fff7ee"/></linearGradient></defs><title>banner_part1</title><g style="isolation:isolate"><g id="4e10ab04-cd1c-453e-863e-6551cb2c4c56" data-name="Layer 2"><g id="9d4c22b0-8302-42d7-afa5-a2beeb2fb11d" data-name="Layer 1"><path d="M254.39352,145.65371a13.38626,13.38626,0,0,1-2.65936.40451c-1.09228,0-4.56779-1.89365-5.75916-7.65331-1.19187-5.75941,3.07814-12.71044,2.28364-13.50494-.79424-.7945-6.74419,3.68312-7.54683,12.64446a16.44315,16.44315,0,0,0,4.86582,13.67026,16.63185,16.63185,0,0,0,4.27,2.88S253.18025,152.20711,254.39352,145.65371Z" fill="#f8e9cc"/><path d="M314.66227,42.01549A54.3921,54.3921,0,0,0,300.69424,5.55c6.63363,11.04732,10.96962,21.76858,10.96962,34.84723,0,10.51188-7.70044,43.94206-53.35389,44.8-23.79749.447-37.13125-6.93694-44.45749-14.10971a54.5953,54.5953,0,0,0,100.80979-29.072Z" fill="url(#2e054d2a-0601-4c78-a3fb-91112eb43633)"/><path d="M246.51375,203.65028c-3.14564,3.14564,15.8864,6.06941,21.3735,6.06941,5.48736,0,18.50831-.70075,24.52194-.70075s14.64867,2.86136,23.70452,2.86136c9.0556,0,18.018-3.651,18.018-6.0363,0-2.385-33.50214-4.89078-41.39821-4.89078s-20.56855-1.24206-24.84621-1.24206C263.60985,199.71116,248.9082,201.25583,246.51375,203.65028Z" fill="#d4d3d3"/><path d="M193.86852,174.81782c0,4.92976,10.652,6.17717,20.76877,6.17717s114.68434-2.75744,114.68434-5.04923c0-2.29154-60.08686-2.93574-79.77992-4.2369S193.86852,172.01046,193.86852,174.81782Z" fill="#d4d3d3"/><path d="M8.48711,197.5368c.96771,3.77431,38.23117,11.53206,48.97409,12.80876,10.74291,1.277,74.37891-4.21321,83.52978-4.21321s28.97026-11.03279,32.85844-11.03279c3.88792,0,30.71591-1.10425,30.71591-4.39025s-27.67446-7.08068-36.16685-7.08068c-8.49213,0-106.69911-.42591-117.669-.42591H39.75935S6.50838,189.81929,8.48711,197.5368Z" fill="#d4d3d3"/><rect x="195.36429" y="104.89844" width="123.90933" height="13.90792" fill="#69250e"/><path d="M207.118,175.49184h0a4.51217,4.51217,0,0,1-3.68057-5.21277l9.33452-54.18124a4.51234,4.51234,0,0,1,5.21276-3.68083h0a4.5126,4.5126,0,0,1,3.68083,5.213L212.331,171.81126A4.51228,4.51228,0,0,1,207.118,175.49184Z" fill="#69250e"/><path d="M312.36666,175.49184h0a4.51235,4.51235,0,0,0,3.68082-5.21277L306.713,116.09783a4.51247,4.51247,0,0,0-5.213-3.68083h0a4.51242,4.51242,0,0,0-3.68057,5.213l9.33452,54.18124A4.51218,4.51218,0,0,0,312.36666,175.49184Z" fill="#69250e"/><path d="M53.03249,168.35689s-22.88-.25091-35.998-7.4829C-1.095,150.87947-3.02407,122.72688,3.23,103.81253c5.3921-16.308,21.88882-31.04067,36.634-35.15922,7.75877-2.16682,13.01611-.30506,13.93033,3.05083.79424,2.91427-2.43342,5.19284-8.08355,6.86407-10.83,3.20318-26.44234,17.09123-30.507,30.25177-4.06419,13.16055-3.3614,31.68618,7.24015,37.00542,10.60179,5.31975,34.55442-.65389,34.55442-.65389Z" fill="#cc6825"/><path d="M15.41063,159.82222c.54053.35127,1.051.73591,1.62389,1.05177,13.118,7.232,35.998,7.4829,35.998,7.4829l3.96587-23.18538s-23.95263,5.97364-34.55442.65389C11.84239,140.50616,11.13985,121.98053,15.204,108.82S34.8808,81.77139,45.71083,78.568c5.65013-1.671,8.87779-3.94979,8.08355-6.86406-.55938-2.05255-2.75845-3.53327-6.14634-3.88772.55964.47329,2.57123,2.61479-1.12794,4.82063-4.551,2.71411-14.38324,5.04057-24.325,14.98214-9.94155,9.94179-18.0605,22.96173-14.57251,39.74756,3.48749,16.78584,10.68382,23.48979,11.3,27.434C19.07719,155.79012,17.64332,157.62671,15.41063,159.82222Z" fill="#ba5109"/><path d="M157.33257,145.643s14.43469.31306,17.29784-.49341c5.616-1.58237,13.604,4.81284,10.49176,4.81284-3.20347,0-4.07489,10.43062-1.9013,12.60422,2.17335,2.17385,14.24773-6.3649,13.27034-10.76431-1.83048-8.2397-5.0798-18.66166-10.1815-19.35121-7.8841-1.066-21.62186-9.26651-21.62186-8.12253S157.33257,145.643,157.33257,145.643Z" fill="#ae4501"/><path d="M186.30971,132.45114c-7.8841-1.0663-21.62186-9.26651-21.62186-8.12253s-7.35528,21.3144-7.35528,21.3144,14.43469.31332,17.29759-.49366c5.61625-1.58237,13.60428,4.81309,10.492,4.81309-3.20347,0-4.07489,10.43062-1.90155,12.604.65007.65032,2.19219.32936,3.99949-.53926.00255-3.13113,4.41674-7.84615,4.41674-10.2248,0-2.37942-2.7447-5.64453-5.32714-10.50042A9.06726,9.06726,0,0,1,186.30971,132.45114Z" fill="#ba5109"/><path d="M117.55469,62.55188s6.10125-6.2537,11.13494-8.69442c5.03369-2.44048,12.35535-5.79637,18.76177-4.27083,6.40642,1.52529,14.18583,12.81271,15.10081,16.6262a45.30262,45.30262,0,0,1,.76291,10.52477c0,2.44073,8.38923,9.9149,10.82978,24.86338,2.44081,14.94823-4.27078,36.30313-21.35465,47.43807-15.21926,9.91964-46.67567,41.642-70.47113,41.03191s-35.2353-16.32121-30.8122-37.21837c4.42361-20.89741,64.98-46.82825,68.79323-52.62434C124.11369,94.43165,109.31779,70.789,117.55469,62.55188Z" fill="#cc6825"/><path d="M153.47649,113.23392c6.761.2183,10.64816,16.22492,6.63542,24.82277-4.013,8.5976-16.93154,23.109-21.05,32.48959-4.11845,9.38114-5.94867,17.84679-3.88945,17.84679s7.55041,1.144,8.46564,3.88944c.91524,2.746.91524,4.80495-.68649,4.80495-1.60148,0-13.63688.86938-15.879-1.37274-2.24212-2.24237-2.425-11.21136-2.425-17.389,0-6.17742,6.17768-23.09546,7.001-30.88811C132.38676,140.45369,121.67314,112.20685,153.47649,113.23392Z" fill="#cc6825"/><path d="M138.757,49.81112s8.99955-18.3,9.60963-18.3,2.97446,6.86407,3.27937,8.54189c.30517,1.6781,2.13565,3.661,2.74572,6.78782.61007,3.1271.22875,7.0166-.91524,7.0166S138.757,50.41921,138.757,49.81112Z" fill="#ffce9f"/><path d="M148.37224,84.92136c-2.74215,1.9716-10.90059,3.8059-12.95931-.19385-1.85849-3.6109,1.102-6.35995,3.34408-8.602s-.79348-4.58322-3.14615-6.93577c-2.35267-2.35229-5.20232-.95571-6.59034-3.07719-4.94937-7.56539,4.45724-14.32079,4.51074-14.43911-.04407.018-.08967.035-.13348.053l-5.3386,2.461c-4.89868,2.62543-10.50449,8.36453-10.50449,8.36453-8.2369,8.23684,6.559,31.87977,2.74572,37.67611-3.81354,5.79635-64.36988,31.72719-68.79349,52.6246-4.4231,20.8969,7.01675,36.608,30.8122,37.21837,13.62441.34923,29.75661-9.9018,43.9185-20.59021a42.46275,42.46275,0,0,0-1.59,8.84494c0,6.17767.1829,15.14666,2.425,17.389,2.24237,2.24212,14.27752,1.37274,15.879,1.37274,1.42291,0,1.57728-1.62925.9532-3.917-2.99816-2.99459-10.12138-3.09088-12.25626-3.09088-2.13514,0-3.1431-12.2504-1.87633-17.57193s14.28721-34.584,14.28721-34.584c5.28485-10.76839,13.672-11.47806,18.43979-17.07495,8.65694-10.16239,1.819-35.14947-.76444-37.73292C159.15159,80.53259,152.03142,82.29078,148.37224,84.92136Z" fill="#ba5109"/><path d="M138.757,49.81112s8.99955-18.3,9.60963-18.3,2.97446,6.86407,3.27937,8.54189c.30517,1.6781,2.13565,3.661,2.74572,6.78782.61007,3.1271.22875,7.0166-.91524,7.0166S138.757,50.41921,138.757,49.81112Z" fill="#ffaf83"/><path d="M148.36664,31.51115a15.17884,15.17884,0,0,1-1.144,6.02517c-1.29656,3.05058-4.34719,9.91464-4.34719,9.91464l4.95727-4.53533s-4.95753,7.20486-4.49978,6.74727c.45775-.45785,4.72852-3.50843,4.72852-3.1271s-3.12679,3.73722-3.12679,3.73722l3.43756,1.22023-3.74272.99145-6.4054-2.43668S146.53616,31.51115,148.36664,31.51115Z" fill="#cc6825"/><path d="M133.44949,122.04064s-9.06884,30.0493-12.11973,38.28594c-3.05062,8.2369-2.63083,25.39693-2.63083,28.44781,0,3.05063,4.42336,2.05923,5.3386,6.94033s-4.49978,4.576-8.08432,4.576c-3.14462,0-5.94893-3.50812-5.94893-7.77941,0-4.27078-1.67789-17.84627-1.67789-23.33771,0-5.49118,5.49143-16.321,3.661-22.88s-8.84722-10.52487-8.84722-19.98217C103.14012,116.85437,135.41574,104.60652,133.44949,122.04064Z" fill="#e8ceab"/><path d="M133.44949,122.04064s-9.06884,30.0493-12.11973,38.28594c-3.05062,8.2369-2.63083,25.39693-2.63083,28.44781,0,3.05063,4.42336,2.05923,5.3386,6.94033s-4.49978,4.576-8.08432,4.576c-3.14462,0-5.94893-3.50812-5.94893-7.77941,0-4.27078-1.67789-17.84627-1.67789-23.33771,0-5.49118,5.49143-16.321,3.661-22.88s-8.84722-10.52487-8.84722-19.98217C103.14012,116.85437,135.41574,104.60652,133.44949,122.04064Z" fill="#f4dcb3"/><path d="M106.48368,199.88387c0-1.22041-.76266-5.18628-5.79634-6.559-5.03369-1.373-19.82959-2.28822-19.82959-2.28822l-25.26753,2.85015s-.81564,6.30224,3.91262,7.52239C64.23162,202.62958,106.48368,199.88387,106.48368,199.88387Z" fill="#e8b586"/><path d="M89.83845,50.51777s-7.60313-3.836-10.4082-5.96511-5.75432-3.34881-6.38528-2.6842c-.631.66484-.56957,9.25334.87015,12.38476,1.43947,3.13141,7.65892,7.39032,8.81488,7.56134C83.88545,61.98559,89.88583,51.36479,89.83845,50.51777Z" fill="#e8ceab"/><path d="M120.07141,46.5358s-8.46565-.2288-11.89761-2.05915S93.30149,40.8157,86.89507,49.0528c-6.40642,8.23682-9.38089,17.61763-6.40642,27.6848,2.97446,10.06748,6.63516,20.82109,1.83047,25.626-4.80494,4.80494-33.86257,8.92313-39.8115,36.60829-5.94893,27.6849-2.05923,54.22582,13.72808,60.861,15.7873,6.63542,35.00682-4.57569,51.02287-27.9134,16.016-23.33821,28.593-48.419,28.14265-62.00548-.6865-20.70662-17.84653-36.60835-17.84653-37.75231s4.57594-9.72413,4.57594-13.27056-1.144-5.03371-1.144-5.03371S121.044,47.50823,120.07141,46.5358Z" fill="#f8e9cc"/><path d="M55.473,167.03816c4.46845-8.1485,16.01605-20.1345,28.67656-13.118,12.66052,7.01675,11.0891,26.89091,1.99758,35.98192-9.09125,9.09125-14.50551,10.54117-26.09794,10.54117C48.45655,200.44325,47.69389,181.224,55.473,167.03816Z" fill="#f8e9cc"/><path d="M104.74185,203.799c0-1.22015-.76266-5.18627-5.79635-6.559s-19.82959-2.288-19.82959-2.288L53.84813,197.802s-.81564,6.30224,3.91288,7.52238S104.74185,203.799,104.74185,203.799Z" fill="#f8e9cc"/><path d="M131.57087,127.63932s-11.27072,27.80615-14.32135,36.043c-3.05062,8.23715-4.11845,25.39719-4.11845,28.44782s4.42362,2.05922,5.33886,6.94033-4.49978,4.57594-8.08432,4.57594c-3.14462,0-5.94893-3.50838-5.94893-7.77915,0-4.271-1.67789-17.84679-1.67789-23.33771,0-5.49144,5.49118-16.32147,3.6607-22.88047-1.83022-6.55875-8.84672-10.52487-8.84672-19.98192C97.57277,120.20991,133.53686,110.20545,131.57087,127.63932Z" fill="#f8e9cc"/><path d="M40.90359,175.59118c-2.37585,1.5783-10.141,6.853-16.7-7.4852-6.559-14.3384,1.98841-42.26887,7.47424-58.42069,5.49093-16.16863,1.85162-33.94572-1.55868-40.70766-3.93275-7.79851-12.03872-9.14949-14.68637-6.502-2.28823,2.2882-2.75642,7.59582,1.51462,15.07s4.968,16.12365,1.61217,27.86841c-3.35579,11.74527-16.016,44.23512-8.69439,66.81042,7.32166,22.57506,32.65007,28.66918,39.05292,22.26658C55.32071,188.08841,43.281,174.01212,40.90359,175.59118Z" fill="#f8e9cc"/><path d="M98.49107,135.2557c-2.07935,0,.45443,5.41272-5.8799,10.0577-6.33433,4.64522-14.1466.21116-21.53652,3.16729-7.39018,2.95587-6.96784,5.27848-6.96784,5.27848s4.0354-4.65949,16.90327,1.4708,12.296,15.59677,12.296,20.89257c0,5.24919-8.57034,18.96785-8.72241,19.21111,6.32414-4.11666,12.6088-10.15424,18.55646-17.81214,0,0,.88314-23.41464,0-31.15227C102.799,143.377,100.57042,135.2557,98.49107,135.2557Z" fill="#f4dcb3"/><path d="M119.09911,148.26952c-3.26231,11.19047-7.90754,21.53652-7.90754,30.61555s-2.53251,15.24219-2.53251,16.06674c0,.82481,4.57136,1.90588,4.57136,4.42693,0,2.52079-6.07043,2.42145-8.48857-2.49074a2.01109,2.01109,0,0,0-.25524-.40629c.257,3.98319,2.90925,7.16475,5.899,7.16475,3.58454,0,8.99956.30516,8.08432-4.57594-.91524-4.88136-5.33886-3.88971-5.33886-6.94033s1.06808-20.21092,4.11871-28.44782c2.1764-5.87658,8.53442-21.708,12.001-30.302.7652-1.76731,1.44838-3.47985,2.0847-5.15978l.23537-.58129c.00254-.02242.00076-.04127.003-.06368,2.55646-6.88761,3.98268-12.97027,3.8273-17.6616-.68624-20.70687-17.84653-36.60835-17.84653-37.75256,0,.7302,8.417,19.73307,9.26141,31.5568C127.66078,115.54227,122.36141,137.07879,119.09911,148.26952Z" fill="#f4dcb3"/><path d="M66.21825,201.722c-2.32236-.81131-1.90027-2.77833,4.22289-4.834,6.12316-2.0554,3.37821-5.85136,3.37821-5.85136s-13.0905,4.52856-20.025,2.41737c-6.934-2.11144-10.16825-9.924-10.16825-9.924s-2.95612,7.39018-16.469,4.22314c-9.78667-2.29383-15.11941-10.54194-17.13329-15.12145,7.49946,22.22659,32.53187,28.22162,38.89422,21.85927.00663-.00662.00968-.01452.01631-.02089a20.82127,20.82127,0,0,0,4.86582,4.09145c-.04611,1.70694.24021,5.80246,3.961,6.76278,4.72827,1.22015,46.98058-1.52556,46.98058-1.52556C104.74185,203.15381,68.31925,202.4556,66.21825,201.722Z" fill="#f4dcb3"/><path d="M17.59543,61.39676c1.80705.562,7.51195,2.91478,9.98383,10.76472a65.00009,65.00009,0,0,1,.91982,34.72409c-3.24218,12.45724-11.0547,36.28734-9.57651,47.91493,1.20945,9.51691,3.45845,14.35318,7.39884,17.18551a30.303,30.303,0,0,1-2.11781-3.88c-6.559-14.3384,1.98866-42.26912,7.47424-58.42069,5.49118-16.16863,1.85162-33.946-1.55868-40.70766C26.9702,62.733,21.15119,60.63056,17.59543,61.39676Z" fill="#f4dcb3"/><path d="M110.24144,49.203c-1.25862-1.90333-10.76814-5.449-18.84456-.79458-5.56225,3.20566-11.2432,13.07521-8.70942,24.56405,2.53353,11.48907,7.48469,18.343,4.9509,28.05558-2.53353,9.71254-21.72731,10.29282-32.725,21.29072-10.9979,10.99764-10.50449,25.73954-3.74782,28.69541,6.75668,2.95612,14.40974-21.50545,27.65969-23.64772,17.95581-2.90314,25.524-13.82971,24.70738-22.48666s-3.29032-29.82513-.39686-32.71836C106.02874,69.26848,115.51992,57.186,110.24144,49.203Z" fill="#fff" opacity="0.1"/><path d="M86.59219,53.02944s-8.46233-.95849-11.83188-1.98135c-3.3698-1.02312-6.559-1.14348-6.91995-.301s2.678,8.87558,5.11469,11.31277c2.43724,2.43691,9.7482,4.27208,10.89143,4.03164C84.9897,65.85076,86.93047,53.80754,86.59219,53.02944Z" fill="#ffce9f"/><path d="M86.59219,53.02944s-8.46233-.95849-11.83188-1.98135c-3.3698-1.02312-6.559-1.14348-6.91995-.301s2.678,8.87558,5.11469,11.31277c2.43724,2.43691,9.7482,4.27208,10.89143,4.03164C84.9897,65.85076,86.93047,53.80754,86.59219,53.02944Z" fill="#c69c6d"/><path d="M67.84036,50.74707c-.13577.37145,5.02146.82244,8.53009,2.80533a21.63565,21.63565,0,0,0,7.0165,2.44072l-6.71159.45759,6.71159.76264s-3.27963,1.83035-3.05089,1.83035,3.17647-1.14852,3.43221-.89287c.25575.2559,0,1.65553,0,1.65553l1.6779-1.185.76266,3.85427.915-9.83838a89.71691,89.71691,0,0,1-10.2197-1.449C74.23481,50.42555,68.61524,48.62839,67.84036,50.74707Z" fill="#f8e9cc"/><polygon points="219.52 5.445 224.413 0 296.728 0 300.694 5.55 219.52 5.445" fill="#ededed"/><path d="M300.6033,5.44457H219.51967a54.60079,54.60079,0,1,0,81.08363,0Z" fill="#dae7c5"/><path d="M300.6033,5.44457H219.51967a54.60079,54.60079,0,1,0,81.08363,0Z" fill="#d9f9ee"/><path d="M219.89412,78.99536a54.59193,54.59193,0,0,0,80.33473,0Z" fill="#f8e9cc"/><rect x="233.34047" y="90.44719" width="53.44177" height="6.16901" fill="#695554"/><path d="M233.34047,90.44719s-1.34038,6.93472-2.36591,11.52009c-.48271,2.15806-.00586,2.93116.54843,2.93116.86888,0,1.53142-.58282,2.36158-2.32185,1.17558-2.463,2.68255-5.96039,2.68255-5.96039Z" fill="#695554"/><path d="M286.87293,90.44719s1.34038,6.93472,2.36591,11.52009c.48271,2.15806.00586,2.93116-.54817,2.93116-.86914,0-1.53168-.58282-2.36184-2.32185-1.17558-2.463-2.68255-5.96039-2.68255-5.96039Z" fill="#695554"/><path d="M263.64042,38.58873a8.44589,8.44589,0,0,0,2.58906-1.71488c1.16-1.16008,5.19493-7.969,9.58288-11.85264,4.38821-3.88359,12.60931-7.36395,13.31542-6.65758.70611.70585-3.02617,5.0938-3.02617,6.15322,0,1.05916-2.62269,4.03489-2.62269,4.36273s.05044,2.29482.05044,3.40442-1.816,3.581-1.816,3.581a1.489,1.489,0,0,1,.35331,1.46262c-.20174,1.0088-4.64039,6.002-4.943,7.96913-.30236,1.967,2.16876,5.24545,2.52207,6.20378.353.95817-.05044,4.47206.20149,5.21179.25244.73973,2.87512,7.64958,2.5725,9.667S281.20929,69.91,281.411,70.76748c.20174.85736.30236,6.10281-.30262,6.10281-.60523,0-4.18646-4.43842-8.67528-12.60931-4.48883-8.17072-6.7554-14.317-10.43878-16.4389S259.58871,38.58873,263.64042,38.58873Z" fill="#ff7c36"/><path d="M263.64042,38.58873a8.44589,8.44589,0,0,0,2.58906-1.71488c1.16-1.16008,5.19493-7.969,9.58288-11.85264,4.38821-3.88359,12.60931-7.36395,13.31542-6.65758.70611.70585-3.02617,5.0938-3.02617,6.15322,0,1.05916-2.62269,4.03489-2.62269,4.36273s.05044,2.29482.05044,3.40442-1.816,3.581-1.816,3.581a1.489,1.489,0,0,1,.35331,1.46262c-.20174,1.0088-4.64039,6.002-4.943,7.96913-.30236,1.967,2.16876,5.24545,2.52207,6.20378.353.95817-.05044,4.47206.20149,5.21179.25244.73973,2.87512,7.64958,2.5725,9.667S281.20929,69.91,281.411,70.76748c.20174.85736.30236,6.10281-.30262,6.10281-.60523,0-4.18646-4.43842-8.67528-12.60931-4.48883-8.17072-6.7554-14.317-10.43878-16.4389S259.58871,38.58873,263.64042,38.58873Z" fill="#f15a24"/><path d="M264.49325,39.98989s1.372-.89486,3.28141-2.42731c.96415-.75254,2.05541-1.675,3.16118-2.72768a28.31044,28.31044,0,0,0,3.164-3.57272,26.62885,26.62885,0,0,1,3.13928-3.6565,13.41928,13.41928,0,0,1,3.557-2.24619,13.05933,13.05933,0,0,1,2.79769-.99854,4.01848,4.01848,0,0,1,.82634-.10062,1.02007,1.02007,0,0,1,.29166.03312,1.01185,1.01185,0,0,0-.29115-.016,3.98494,3.98494,0,0,0-.81157.147,16.4173,16.4173,0,0,0-2.72483,1.11647,13.16776,13.16776,0,0,0-3.45182,2.27473,31.1121,31.1121,0,0,0-3.05471,3.6632,29.1451,29.1451,0,0,1-3.26358,3.54556c-1.13176,1.04128-2.24314,1.949-3.2241,2.6882A39.50224,39.50224,0,0,1,264.49325,39.98989Z" fill="#fc9c2e"/><path d="M264.63564,41.8947a5.57948,5.57948,0,0,0,.71936-.12344c.45494-.09466,1.09278-.27959,1.85722-.4995a40.58973,40.58973,0,0,0,5.47386-1.97195c1.9339-.86269,3.80361-1.87366,5.2064-2.62872,1.39667-.77107,2.32745-1.28521,2.32745-1.28521a49.82263,49.82263,0,0,1-7.383,4.2478,31.02919,31.02919,0,0,1-5.57193,1.83667,18.95238,18.95238,0,0,1-1.89951.36138A5.61418,5.61418,0,0,1,264.63564,41.8947Z" fill="#fc9c2e"/><path d="M264.25737,44.00311s.73515.01068,1.82972.102c1.09507.08928,2.5483.26291,3.99974.44032a31.36049,31.36049,0,0,1,3.97377.6811c1.06756.27189,1.75915.51847,1.75915.51847l-1.8022-.31237c-1.07929-.19528-2.51825-.35453-3.97759-.52648-1.44966-.19993-2.89651-.41385-3.9786-.59963-.54053-.095-.99115-.17426-1.3065-.22974C264.44027,44.0211,264.25737,44.00311,264.25737,44.00311Z" fill="#fc9c2e"/><path d="M263.25374,45.745a5.77385,5.77385,0,0,1,.78788.2141c.49417.1616,1.19977.3972,2.02585.73092.82812.32855,1.79176.72139,2.79794,1.20372a22.14519,22.14519,0,0,1,3.0761,1.68289,52.95931,52.95931,0,0,1,4.96211,4.259c1.27058,1.24689,2.11781,2.07809,2.11781,2.07809s-.89792-.77506-2.24467-1.93764c-.6763-.57629-1.4657-1.24856-2.31115-1.969-.8541-.7099-1.75355-1.477-2.722-2.14221a49.1349,49.1349,0,0,0-5.76247-2.97044c-.81258-.36021-1.48965-.66026-1.96345-.87036A5.7476,5.7476,0,0,0,263.25374,45.745Z" fill="#fc9c2e"/><path d="M262.80211,46.44873s.351.27425.97561.7419c.618.47566,1.51207,1.14608,2.51213,2.03793a36.22509,36.22509,0,0,1,6.48284,7.36669c.9211,1.54777,1.72324,3.12486,2.5511,4.581.81615,1.45763,1.57805,2.81831,2.23117,3.98456.65134,1.16709,1.19417,2.13972,1.57422,2.82066.38108.68091.63249,1.04844.63249,1.04844s-.27052-.35538-.68547-1.01663c-.41368-.66127-1.01815-1.59893-1.69242-2.75366-.6735-1.15527-1.45908-2.50294-2.301-3.94692-.848-1.43549-1.69573-3.02141-2.62014-4.52421a35.95626,35.95626,0,0,0-6.30478-7.41384c-.985-.89934-1.81774-1.63907-2.41839-2.13605C263.13937,46.74045,262.80211,46.44873,262.80211,46.44873Z" fill="#fc9c2e"/><path d="M236.212,34.99518s6.51391-7.85565,8.32962-9.67161c1.8157-1.8157,7.71674-4.89206,8.06979-4.89206s-.9835,2.799-.65567,3.12705c.32784.32783,2.4212.65541,3.42967,1.66439a14.156,14.156,0,0,1,1.86614,2.49023,20.75233,20.75233,0,0,1,2.72381,2.09947c.95829.95821,3.27835,6.20366,3.27835,6.40543s-1.71508,1.10959-1.71508,1.10959Z" fill="#ff7c36"/><path d="M236.212,34.99518s6.51391-7.85565,8.32962-9.67161c1.8157-1.8157,7.71674-4.89206,8.06979-4.89206s-.9835,2.799-.65567,3.12705c.32784.32783,2.4212.65541,3.42967,1.66439a14.156,14.156,0,0,1,1.86614,2.49023,20.75233,20.75233,0,0,1,2.72381,2.09947c.95829.95821,3.27835,6.20366,3.27835,6.40543s-1.71508,1.10959-1.71508,1.10959Z" fill="#f15a24"/><path d="M240.12109,33.12s.61109-.72656,1.56836-1.77668c.95243-1.05481,2.25384-2.43039,3.58327-3.77841.66509-.67121,1.32484-1.362,2.01057-1.93314.67477-.58078,1.31465-1.10858,1.87047-1.5518l1.88372-1.43667s-.70866.6279-1.77189,1.57014c-.53035.471-1.15061,1.01917-1.79584,1.62492-.64879.60167-1.30217,1.27619-1.94969,1.9693-1.30829,1.36866-2.64459,2.71011-3.67013,3.69311C240.82873,32.48809,240.12109,33.12,240.12109,33.12Z" fill="#fc9c2e"/><path d="M243.73416,33.12s.50538-.60027,1.30319-1.462c.79552-.8642,1.88957-1.98347,3.02566-3.0625a19.02711,19.02711,0,0,1,1.75-1.51462c.6088-.42565,1.19849-.77615,1.70948-1.06833,1.03292-.564,1.74056-.89919,1.74056-.89919s-.67478.39891-1.64758,1.052c-.48985.31892-1.0612.69694-1.63205,1.14271-.55836.44756-1.116,1.00185-1.67611,1.54315-1.12514,1.08259-2.249,2.16964-3.11584,2.96119C244.32844,32.60789,243.73416,33.12,243.73416,33.12Z" fill="#fc9c2e"/><path d="M247.58438,33.12s.34719-.49165.93383-1.17308a17.11756,17.11756,0,0,1,2.34911-2.32839,16.87356,16.87356,0,0,1,1.51945-.9132c.49061-.27129.94861-.52449,1.34089-.74152.79705-.4147,1.32816-.69108,1.32816-.69108s-.49418.33752-1.23518.84315c-.37674.24327-.8159.52729-1.28638.83118-.45291.31612-1.01891.592-1.45679.94352-.89817.74831-1.73725,1.60766-2.39445,2.21313C248.03474,32.72167,247.58438,33.12,247.58438,33.12Z" fill="#fc9c2e"/><path d="M251.84726,33.36909s.23537-.28173.60854-.68157c.37293-.40018.903-.89734,1.43616-1.39067.55-.47484,1.103-.94565,1.54264-1.27125.43915-.32605.74584-.52805.74584-.52805s-.23511.28224-.60829.68191c-.37292.40031-.903.89731-1.43641,1.39046-.55022.47433-1.10349.94517-1.54289,1.27087C252.15344,33.16684,251.84726,33.36909,251.84726,33.36909Z" fill="#fc9c2e"/><path d="M252.43313,57.48809a4.70048,4.70048,0,0,1,2.59925-.23775,9.08735,9.08735,0,0,1,2.28644.84053,11.18481,11.18481,0,0,0-.67248-3.766,7.33983,7.33983,0,0,0-2.371-2.6284Z" fill="#ff7c36"/><path d="M252.43313,57.48809a4.70048,4.70048,0,0,1,2.59925-.23775,9.08735,9.08735,0,0,1,2.28644.84053,11.18481,11.18481,0,0,0-.67248-3.766,7.33983,7.33983,0,0,0-2.371-2.6284Z" fill="#f15a24"/><path d="M224.83738,51.90392c-.15462-.83635,3.63269-9.84877,6.58652-13.07595,3.63548-3.97172,10.29306-7.435,16.9509-7.03147,6.65758.40352,14.49226,6.01883,15.26562,6.79223a6.00364,6.00364,0,0,1,1.21047,5.04368c-.67248,2.75718-2.62268,4.23664-3.02617,4.23664a8.78608,8.78608,0,0,0-4.3714.73973,21.94991,21.94991,0,0,0-3.16067,2.21919s.40349,7.66641-6.65758,10.62536c-7.06133,2.95893-12.71019.40352-15.80361-1.21039C228.738,58.62885,225.17388,53.71978,224.83738,51.90392Z" fill="#fc9c2e"/><path d="M231.83146,60.24294a23.90883,23.90883,0,0,0,4.87016,1.97045c.851-1.86183,4.87652-11.17249,2.86136-16.56A10.8574,10.8574,0,0,0,231.4239,38.828l-2.5776,19.04765A12.7706,12.7706,0,0,0,231.83146,60.24294Z" fill="#f15a24"/><path d="M232.6899,60.67812a3.20446,3.20446,0,0,0,3.02515-1.46082c.75655-1.1096,4.89232-7.36369,3.27861-13.11362-1.61421-5.74976-7.46481-7.21241-8.01961-7.21241s-6.9602,7.91867-7.41438,11.04572c-.45367,3.127,1.2744,3.78279,1.2744,3.78279a1.50218,1.50218,0,0,0,.08559,1.0188C225.23756,55.29621,229.16013,59.91954,232.6899,60.67812Z" fill="#fc9c2e"/><path d="M239.14472,58.86427s13.7189,18.006,14.2737,18.006-.25218-9.58306-.60523-10.49089.20174-2.1389-.25218-3.56607a8.29641,8.29641,0,0,0-4.64014-5.05867,14.8705,14.8705,0,0,0-7.11176-.95832Z" fill="#ff7c36"/><path d="M224.65678,51.34248c0,.24723.0349.69973-.10087.69973s-.39075-.4525-.39075-.69973.11-.44751.24581-.44751S224.65678,51.09524,224.65678,51.34248Z" fill="#251100"/><path d="M226.77969,54.27275a4.71443,4.71443,0,0,1-2.04776-.35871.21994.21994,0,0,1,.20276-.39036,5.14853,5.14853,0,0,0,2.54041.27857,2.42784,2.42784,0,0,0,2.09055-1.0363.2198.2198,0,0,1,.39611.19061,2.82076,2.82076,0,0,1-2.44947,1.284C227.24941,54.26275,227.00512,54.27275,226.77969,54.27275Z" fill="#251100"/><path d="M230.03,52.719a.48234.48234,0,1,1-.48245-.47866A.48054.48054,0,0,1,230.03,52.719Z" fill="#251100"/><path d="M232.09,48.18043a2.21181,2.21181,0,1,1-2.2118-2.21171A2.21176,2.21176,0,0,1,232.09,48.18043Z" fill="#e2c9a2"/><path d="M229.87821,49.55912a1.37876,1.37876,0,1,1,1.3791-1.37884A1.38,1.38,0,0,1,229.87821,49.55912Z" fill="#251100"/><path d="M229.32544,49.35086a1.37876,1.37876,0,1,1,1.3791-1.37885A1.3801,1.3801,0,0,1,229.32544,49.35086Z" fill="#fff" opacity="0.3"/><path d="M239.14472,58.86427s13.7189,18.006,14.2737,18.006-.25218-9.58306-.60523-10.49089.20174-2.1389-.25218-3.56607a8.29641,8.29641,0,0,0-4.64014-5.05867,14.8705,14.8705,0,0,0-7.11176-.95832Z" fill="#f15a24"/><path d="M240.12109,58.48756s.76419.83553,1.91046,2.08908c1.13737,1.26121,2.61657,2.97428,4.09222,4.69064,1.45628,1.73271,2.90874,3.46859,3.96968,4.79445l1.75381,2.22253s-.76444-.83554-1.911-2.0889c-1.13737-1.26088-2.61632-2.97426-4.09171-4.69083-1.456-1.73286-2.90823-3.46891-3.96968-4.79477C240.82261,59.37641,240.12109,58.48756,240.12109,58.48756Z" fill="#fff" opacity="0.1"/><path d="M240.58673,57.99857s.69694.61594,1.74235,1.53994c1.0375.93234,2.38655,2.21072,3.73253,3.49259,1.32816,1.3,2.653,2.60355,3.62071,3.60787.95982,1.013,1.59944,1.68806,1.59944,1.68806s-.69694-.61578-1.7426-1.53963c-1.0375-.93216-2.38655-2.21069-3.732-3.49289-1.32816-1.30021-2.65274-2.60391-3.62071-3.6082Z" fill="#fff" opacity="0.1"/><path d="M240.89215,57.48809s.65771.41268,1.64453,1.03179c.97969.62877,2.25817,1.507,3.53359,2.38915,1.26091.90283,2.51927,1.80985,3.44138,2.52026l1.52583,1.20041-1.64478-1.03163c-.98-.62844-2.25792-1.507-3.53334-2.38948-1.26091-.90319-2.51876-1.81035-3.44113-2.52059C241.50274,57.96808,240.89215,57.48809,240.89215,57.48809Z" fill="#fff" opacity="0.1"/><path d="M241.07556,56.95978s.56167.18627,1.39234.49316c.83067.30655,1.91862.76022,3.00452,1.2184,1.076.48131,2.15017.96716,2.94084,1.3655.79119.39768,1.31007.68193,1.31007.68193s-.56167-.18562-1.39234-.49267c-.83067-.30638-1.91862-.76039-3.00452-1.2189-1.07572-.48149-2.14966-.96764-2.94059-1.36583C241.595,57.24351,241.07556,56.95978,241.07556,56.95978Z" fill="#fff" opacity="0.1"/><path d="M238.36321,58.91474a2.05643,2.05643,0,0,0,2.52156-3.00108,4.5251,4.5251,0,0,0-1.6644,1.22322A4.61247,4.61247,0,0,0,238.36321,58.91474Z" fill="#fca643"/><path d="M236.40027,36.66925a1.65575,1.65575,0,0,1,.60906-.2869,1.3713,1.3713,0,0,1,1.43514.46549,1.71587,1.71587,0,0,1,.21321.36271,1.64954,1.64954,0,0,1,.12863.4,1.496,1.496,0,0,1-.06444.7194,1.32961,1.32961,0,0,1-.37471.56129,1.63346,1.63346,0,0,0,.17908-.6091,1.46733,1.46733,0,0,0-.04738-.605,1.34294,1.34294,0,0,0-.12-.30921,1.38074,1.38074,0,0,0-.19843-.29505,1.30853,1.30853,0,0,0-1.12259-.48233A2.70789,2.70789,0,0,0,236.40027,36.66925Z" fill="#fbb03b"/><path d="M238.6508,38.97959a1.65233,1.65233,0,0,1,.609-.2869,1.37051,1.37051,0,0,1,1.43489.46549,1.70466,1.70466,0,0,1,.21346.36255,1.65136,1.65136,0,0,1,.12864.4,1.49577,1.49577,0,0,1-.06445.7194,1.32818,1.32818,0,0,1-.3747.5613,1.63349,1.63349,0,0,0,.17907-.609,1.463,1.463,0,0,0-.04763-.605,1.32446,1.32446,0,0,0-.11973-.30922,1.38159,1.38159,0,0,0-.19843-.29523,1.30793,1.30793,0,0,0-1.12259-.48215A2.69654,2.69654,0,0,0,238.6508,38.97959Z" fill="#fbb03b"/><path d="M239.364,36.55628a1.65556,1.65556,0,0,1,.60905-.28688,1.3713,1.3713,0,0,1,1.43514.4655,1.71464,1.71464,0,0,1,.21321.3627,1.64928,1.64928,0,0,1,.12864.4,1.495,1.495,0,0,1-.06445.71922,1.32947,1.32947,0,0,1-.3747.56148,1.63367,1.63367,0,0,0,.17907-.60911,1.46706,1.46706,0,0,0-.04738-.605,1.34151,1.34151,0,0,0-.12-.30922,1.38047,1.38047,0,0,0-.19843-.29508,1.30854,1.30854,0,0,0-1.12259-.48232A2.70775,2.70775,0,0,0,239.364,36.55628Z" fill="#fbb03b"/><path d="M242.97736,45.9739a1.65393,1.65393,0,0,1,.66739.08981,1.37053,1.37053,0,0,1,.95217,1.17007,1.71842,1.71842,0,0,1-.01757.42035,1.64925,1.64925,0,0,1-.10928.40569,1.4948,1.4948,0,0,1-.44476.56914,1.32751,1.32751,0,0,1-.61924.26789,1.63585,1.63585,0,0,0,.48092-.41419,1.45749,1.45749,0,0,0,.28861-.5338,1.33331,1.33331,0,0,0,.06725-.32473,1.38339,1.38339,0,0,0-.00637-.3557,1.30868,1.30868,0,0,0-.68089-1.01446A2.70618,2.70618,0,0,0,242.97736,45.9739Z" fill="#fbb03b"/><path d="M243.61291,49.13594a1.65411,1.65411,0,0,1,.66739.08979,1.3707,1.3707,0,0,1,.95217,1.17007,1.72877,1.72877,0,0,1-.01758.4202,1.65935,1.65935,0,0,1-.10927.40584,1.49324,1.49324,0,0,1-.445.569,1.32888,1.32888,0,0,1-.61925.26807,1.63885,1.63885,0,0,0,.48093-.41419,1.45991,1.45991,0,0,0,.2886-.5338,1.3208,1.3208,0,0,0,.06725-.32471,1.38428,1.38428,0,0,0-.00611-.3557,1.30876,1.30876,0,0,0-.68114-1.01448A2.692,2.692,0,0,0,243.61291,49.13594Z" fill="#fbb03b"/><path d="M245.5277,47.48818a1.655,1.655,0,0,1,.66713.09,1.37,1.37,0,0,1,.95218,1.17009,1.70393,1.70393,0,0,1-.01758.42018,1.648,1.648,0,0,1-.10928.40586,1.49262,1.49262,0,0,1-.44475.569,1.32937,1.32937,0,0,1-.61925.26808,1.63929,1.63929,0,0,0,.48093-.41419,1.46052,1.46052,0,0,0,.28861-.53381,1.33342,1.33342,0,0,0,.06725-.32488,1.38267,1.38267,0,0,0-.00637-.35555,1.30844,1.30844,0,0,0-.68089-1.01446A2.69835,2.69835,0,0,0,245.5277,47.48818Z" fill="#fbb03b"/><path d="M244.25253,34.63716a1.65241,1.65241,0,0,1,.66739.09,1.37042,1.37042,0,0,1,.95217,1.16989,1.71765,1.71765,0,0,1-.01757.42035,1.67221,1.67221,0,0,1-.10928.40571,1.4971,1.4971,0,0,1-.44476.56911,1.33027,1.33027,0,0,1-.6195.26808,1.63839,1.63839,0,0,0,.48093-.41437,1.4576,1.4576,0,0,0,.28861-.53381,1.32108,1.32108,0,0,0,.06725-.3247,1.38267,1.38267,0,0,0-.00612-.35555,1.30846,1.30846,0,0,0-.68114-1.01464A2.70859,2.70859,0,0,0,244.25253,34.63716Z" fill="#fbb03b"/><path d="M244.88782,37.79918a1.655,1.655,0,0,1,.66765.08979,1.37035,1.37035,0,0,1,.95192,1.17009,1.70573,1.70573,0,0,1-.01758.42036,1.64885,1.64885,0,0,1-.10928.40568,1.49453,1.49453,0,0,1-.44475.56911,1.32745,1.32745,0,0,1-.61925.26792,1.636,1.636,0,0,0,.48093-.41418,1.45776,1.45776,0,0,0,.28861-.53381,1.33321,1.33321,0,0,0,.06724-.32473,1.38386,1.38386,0,0,0-.00636-.3557,1.30872,1.30872,0,0,0-.68089-1.01446A2.69981,2.69981,0,0,0,244.88782,37.79918Z" fill="#fbb03b"/><path d="M246.80262,36.15159a1.654,1.654,0,0,1,.66738.08982,1.37032,1.37032,0,0,1,.95218,1.17007,1.718,1.718,0,0,1-.01758.42035,1.63784,1.63784,0,0,1-.10953.40568,1.4918,1.4918,0,0,1-.4445.56914,1.32782,1.32782,0,0,1-.6195.2679,1.63842,1.63842,0,0,0,.48118-.41419,1.46621,1.46621,0,0,0,.28861-.53381,1.33318,1.33318,0,0,0,.06725-.3247,1.39559,1.39559,0,0,0-.00637-.3557,1.30815,1.30815,0,0,0-.68114-1.01448A2.702,2.702,0,0,0,246.80262,36.15159Z" fill="#fbb03b"/><path d="M252.19547,34.96787a1.6558,1.6558,0,0,1,.65109.17158,1.37048,1.37048,0,0,1,.80061,1.27856,1.72069,1.72069,0,0,1-.06929.415,1.65843,1.65843,0,0,1-.15869.389,1.49246,1.49246,0,0,1-.51175.51,1.32858,1.32858,0,0,1-.64752.18944,1.638,1.638,0,0,0,.52856-.3517,1.45819,1.45819,0,0,0,.352-.494,1.33427,1.33427,0,0,0,.107-.31405,1.39046,1.39046,0,0,0,.03745-.35372,1.308,1.308,0,0,0-.55047-1.09077A2.70147,2.70147,0,0,0,252.19547,34.96787Z" fill="#fbb03b"/><path d="M255.86,37.41449a1.65163,1.65163,0,0,1,.65108.17161,1.37023,1.37023,0,0,1,.80061,1.27853,1.70576,1.70576,0,0,1-.06954.41485,1.64951,1.64951,0,0,1-.15844.3892,1.4928,1.4928,0,0,1-.51175.50981,1.328,1.328,0,0,1-.64752.1896,1.63819,1.63819,0,0,0,.52856-.35171,1.45881,1.45881,0,0,0,.352-.49417,1.333,1.333,0,0,0,.107-.31388,1.38953,1.38953,0,0,0,.03745-.35371,1.30839,1.30839,0,0,0-.55047-1.09077A2.70126,2.70126,0,0,0,255.86,37.41449Z" fill="#fbb03b"/><path d="M269.42046,195.03664l.1671,3.25848a13.21357,13.21357,0,0,1,3.76311,1.30829,3.69363,3.69363,0,0,1,.741,3.05572,41.05189,41.05189,0,0,1-7.39145-.54461c-.902-.3719-2.29077-7.17188-2.29077-7.17188Z" fill="#e8b586"/><path d="M269.42046,195.03664l.1671,3.25848a13.21357,13.21357,0,0,1,3.76311,1.30829,3.69363,3.69363,0,0,1,.741,3.05572,41.05189,41.05189,0,0,1-7.39145-.54461c-.902-.3719-2.29077-7.17188-2.29077-7.17188Z" fill="#e2a26d"/><path d="M323.41372,199.18565a44.36267,44.36267,0,0,0,.61186,4.39891c.17372.174,2.33356-.44679,2.979.19869s1.88652,2.8797.64549,3.12806c-1.2413.24811-6.40489.69516-7.10005,0s-2.07935-7.29185-2.07935-7.29185Z" fill="#e8b586"/><path d="M323.41372,199.18565s.06444.62027.15334,1.39388c-1.11036.57925-2.56511,1.31618-2.56511,2.1094,0,1.282-.80341,3.44113,1.03751,3.44113,1.36178,0,4.23231-.44909,5.97414-.68344.25346.68879.27231,1.33758-.36375,1.46469-1.241.24811-6.40463.69516-7.1,0-.6949-.69515-2.0791-7.29185-2.0791-7.29185Z" fill="#e2a26d"/><path d="M286.48268,172.47916a61.30031,61.30031,0,0,0-5.39617,7.571c-1.64732,3.05929-9.764,13.55563-10.74113,14.533-.97739.97739-4.90963,1.38547-5.93593.35942-1.0258-1.0263-1.36076-3.44545-1.91684-7.70247a28.99961,28.99961,0,0,0-1.52327-5.89875l20.675-19.2646Z" fill="#157a75"/><path d="M255.458,195.19381c0,.19843-.42183,3.69891.298,4.41877,0,0,2.78036,1.66669,3.27682,2.64561a2.91617,2.91617,0,0,1,0,2.17054,29.53206,29.53206,0,0,1-6.05718,0c-1.68809-.39712-2.68128-1.56047-2.68128-2.17054v-7.44138Z" fill="#efd7ac"/><path d="M257.99029,143.072s-2.87971.86073-6.35522,5.99121a25.97855,25.97855,0,0,0-3.81711,11.688l5.70363,2.41788,7.44775-7.78348Z" fill="#f2debb"/><path d="M283.77543,141.318s-10.09565-1.92014-16.55022-1.32408c-6.45456.59581-9.23492,3.07814-9.23492,3.07814a25.457,25.457,0,0,1-3.37617,8.73871c-2.48258,3.57486-6.85169,7.38636-6.85169,9.37223,0,1.98611,3.57486,11.48774,3.17749,15.3265-.39713,3.83875-1.68809,16.05273-1.68809,17.443,0,1.39006,2.87971,2.97905,4.26976,2.97905a4.88084,4.88084,0,0,0,3.47577-1.09227c.79424-.7945,3.972-6.65325,7.05037-10.82392,3.07814-4.17067,18.43342-13.14934,18.43342-13.14934Z" fill="#4d9999"/><path d="M261.68207,182.99843a7.12461,7.12461,0,0,1,1.36687-6.489c.63784-.6381-2.0796-3.17494-2.0796-4.89436,0-1.71916.71273-4.44908.71273-5.64809s-1.43947-4.147-1.43947-6.61428,1.5811-2.94262,2.05642-3.41769c.47507-.47532-1.32968-2.54525-1.32968-5.08438s2.97574-4.65592,4.00509-5.68554c.78151-.78125.48017-3.19378.55939-4.94326.54231-.08559,1.08488-.17219,1.69139-.228,6.45457-.59581,16.55022,1.32408,16.55022,1.32408l-1.29428,30.548s-15.35528,8.97867-18.43342,13.14934c-.10724.14545-.21474.297-.32223.446A3.655,3.655,0,0,1,261.68207,182.99843Z" fill="#388987"/><path d="M329.32163,175.94576a66.72989,66.72989,0,0,0-2.25078,7.48087c-.86072,3.77329-1.589,13.50493-2.44946,14.76278-.86073,1.25785-2.64816,1.52251-3.97224,1.52251-1.32382,0-2.8797.03312-3.57486-.662-.6949-.69489-2.317-8.47354-2.317-10.39342s1.589-6.15679,4.56805-9.13584S329.32163,175.94576,329.32163,175.94576Z" fill="#e26600"/><path d="M319.32533,179.52062c2.979-2.97905,9.9963-3.57486,9.9963-3.57486a66.72989,66.72989,0,0,0-2.25078,7.48087c-.25472,1.11571-.49748,2.75667-.73565,4.54129a10.47944,10.47944,0,0,0-6.4161,4.9,21.72408,21.72408,0,0,0-2.29536,6.50933,1.71468,1.71468,0,0,1-.54919-.32733c-.69516-.69515-2.31727-8.47379-2.31727-10.39342C314.75728,186.73657,316.34628,182.49967,319.32533,179.52062Z" fill="#ce5800"/><path d="M312.96781,201.347a35.84192,35.84192,0,0,0-1.15646,4.61593c.174.17372,2.33382-.44705,2.9793.19843.64523.64548,1.88677,2.87971.64523,3.12807-1.24129.24836-6.40489.69515-7.09979,0-.69516-.69516-.31128-8.33624-.31128-8.33624Z" fill="#f8e9cc"/><path d="M331.5449,123.138a41.48427,41.48427,0,0,0-7.571-5.92829c-4.64268-2.857-11.03535-4.53544-12.1424-3.42839s2.57123,6.71387,3.49972,9.35668c.92874,2.64281,2.35725,8.07133,5.99987,8.99981s5.92829-1.07164,6.28542-2.14277C327.97361,128.9234,331.5449,123.138,331.5449,123.138Z" fill="#efd8b5"/><path d="M309.83567,143.525c3.539.13169,6.4133-1.45934,8.19029-9.93263.65847-3.14,4.17067-8.39661,10.22811-10.206s13.80271-1.86486,14.99433,0,1.19162,4.54589,1.78743,5.1417,8.093.149,8.63912.69515c.54639.54614,2.1848,3.6742,1.19161,6.05719a6.6125,6.6125,0,0,1-2.383,3.17773s.74457.54614-.19869,1.4894c-.94326.94351-11.98879,7.12323-13.67688,10.00293s-3.92409,13.01994-3.92409,13.01994a23.96173,23.96173,0,0,1-15.46634-2.71923C311.77008,155.88182,309.83567,143.525,309.83567,143.525Z" fill="#f8e9cc"/><path d="M334.68392,162.97041a29.80225,29.80225,0,0,1-2.91307,10.59237c-2.58167,4.96491-10.52563,8.67223-12.71044,11.98217-2.18455,3.31019-4.30313,12.90912-4.83271,14.5641-.52958,1.65522-2.11832,1.85365-3.972,1.85365a3.41331,3.41331,0,0,1-3.4424-2.78036A98.28518,98.28518,0,0,1,304.695,186.207c0-2.11858,1.29071-5.52786,1.05916-5.75941-.2318-.23181-22.24365-8.40757-22.97166-8.40757-.72827,0-5.82564-5.83073-4.96517-15.03254a30.95406,30.95406,0,0,1,5.9581-15.68949c.33115-.33115,19.728,1.08412,21.84627,1.08412a64.51187,64.51187,0,0,1,7.46889.564s1.402,9.346,7.2939,13.914C326.27636,161.44789,334.68392,162.97041,334.68392,162.97041Z" fill="#f90"/><path d="M355.04691,132.34492a.77281.77281,0,0,1-.87524-.10954c-.28148-.28147-.72827-1.62185-.96008-1.3903-.23154.2318.72827,1.25784.46336,1.25784a7.38226,7.38226,0,0,1-1.98587-1.28459c-.45774-.42591.34465-2.02484,1.953-2.09158C355.03112,128.66893,355.426,131.66021,355.04691,132.34492Z" fill="#251100"/><path d="M341.801,130.2834c-.30032.57645-1.35591-.22722-2.52818-.5334-1.791-.46768-3.934.95548-3.934.95548a4.69318,4.69318,0,0,1,3.69585-2.03145C340.31928,128.674,342.28909,129.34625,341.801,130.2834Z" fill="#251100"/><path d="M347.34622,139.74376c.20887,0,.42259-.00561.63937-.01529a12.472,12.472,0,0,0,4.56677-.9509.24682.24682,0,0,0-.21678-.44348,12.22828,12.22828,0,0,1-4.37266.90123c-2.95384.13424-4.69694-.71961-4.93155-1.187a.24595.24595,0,1,0-.43991.22008C342.97049,139.028,344.81778,139.74376,347.34622,139.74376Z" fill="#251100"/><path d="M342.47989,138.00294a.58269.58269,0,1,0,.58281-.58256A.58264.58264,0,0,0,342.47989,138.00294Z" fill="#251100"/><path d="M335.65393,160.63582l-.97,4.26364s-9.47666-1.96319-15.89-7.30917-7.69942-14.85959-7.69942-14.85959l3.66274-1.74412a18.973,18.973,0,0,0,6.828,13.10807A27.52107,27.52107,0,0,0,335.65393,160.63582Z" fill="#44c6cf"/><path d="M277.92763,156.66333c.02573-.24581.05731-.487.08839-.72827a31.36856,31.36856,0,0,0,2.1713,5.19952c1.16513,1.98764,9.52685,5.483,16.44935,6.1,6.92224.6167,9.42393-1.268,10.69171,0,1.268,1.268-1.5057,13.213-1.5057,13.213-.23155-.23181-22.24365-8.40757-22.97166-8.40757-.66077,0-4.90352-4.81029-5.04464-12.57314C277.85274,158.31448,277.89681,157.32715,277.92763,156.66333Z" fill="#e26600"/><path d="M286.48268,173.263a35.05425,35.05425,0,0,0-1.4494,6.78724c-.39712,3.70732-.662,8.73871-.662,8.73871a3.93132,3.93132,0,0,1-3.4424,0,8.90237,8.90237,0,0,1-2.44947-1.91988,61.92337,61.92337,0,0,1,2.5157-8.40757,37.51026,37.51026,0,0,1,3.09164-6.03044Z" fill="#ce5520"/><path d="M285.49663,172.83451s-.03694.067-.10342.18977a62.17615,62.17615,0,0,0-3.40521,7.22461c-.99293,2.84659-2.49277,7.58021-2.49277,7.58021s-.35382-2.88-2.00879-3.608a5.41691,5.41691,0,0,0-3.30994-.26491s2.25078-4.89894,3.90575-7.74553a40.7072,40.7072,0,0,1,3.65408-5.20232s.715,1.03165,1.04617,1.03165S285.49663,172.83451,285.49663,172.83451Z" fill="#f90"/><path d="M282.48115,171.866l-8.30465,12.09018s-2.44947-.7945-3.3102-2.05235a7.45964,7.45964,0,0,1-1.05916-2.91282,34.59936,34.59936,0,0,1,4.70025-6.02433,17.75774,17.75774,0,0,1,6.021-3.904Z" fill="#ce5520"/><path d="M281.08651,169.86387a30.23536,30.23536,0,0,0-6.3142,4.29446c-2.21792,2.21767-4.96517,4.83271-4.96517,4.83271a7.91381,7.91381,0,0,0,0-4.10444,4.355,4.355,0,0,0-1.91989-2.18455,22.96948,22.96948,0,0,1,5.69318-4.634,26.15254,26.15254,0,0,1,5.57906-2.101Z" fill="#f90"/><path d="M279.83656,167.33645l-12.87626,6.2923a5.03818,5.03818,0,0,1-1.91964-2.62039,9.33918,9.33918,0,0,1-.23537-3.639s2.70038-.63758,6.4077-1.69675a62.96983,62.96983,0,0,1,7.35426-1.58262Z" fill="#ce5520"/><polygon points="278.943 165.287 265.769 168.134 264.974 164.361 278.037 161.665 278.943 165.287" fill="#f90"/><path d="M278.29622,162.70192l-13.32179,1.65879s-1.19162.26492-1.78743-2.25078a6.67844,6.67844,0,0,1,.927-4.77157l13.60581,1.32408Z" fill="#ce5520"/><path d="M277.90063,160.32276l-14.29282-1.56123a4.29589,4.29589,0,0,0,1.764-2.4161,3.10305,3.10305,0,0,0-.648-2.71439l13.17685,2.59416Z" fill="#f90"/><path d="M277.81733,157.00747,264.31265,153.896s-.59607-.72827,0-2.38324a4.85675,4.85675,0,0,1,2.31675-2.44947l11.82144,3.97224Z" fill="#ce5520"/><path d="M278.29622,153.7579l-11.66682-3.96638a4.31989,4.31989,0,0,0,1.52277-1.78743,3.336,3.336,0,0,0-.06623-2.18455l11.08069,4.57569Z" fill="#f90"/><path d="M279.16663,150.85068s-11.08069-4.70025-11.08069-5.03114a9.25662,9.25662,0,0,1,1.05916-4.89894,6.21971,6.21971,0,0,1,3.75292-3.37617l8.74635,7.03993Z" fill="#ce5520"/><path d="M283.77543,141.318l-6.289-9.33452a6.47152,6.47152,0,0,0-4.30313,1.3903,10.50525,10.50525,0,0,0-3.17774,4.96492l11.056,7.71954Z" fill="#f90"/><g style="mix-blend-mode:multiply"><path d="M306.202,187.66149c.71528,4.07158,1.94893,12.71145,4.21066,12.71145h3.69993a2.2681,2.2681,0,0,1-1.21378,1.20665c-.0866.2937-.24785.84672-.41953,1.456l-.53646.62714a2.30159,2.30159,0,0,0-2.55824,1.95326c-.514,2.26173-.51659,3.39247.71833,3.39247h5.738a.58754.58754,0,0,1-.405.281c-1.241.24836-6.40489.69515-7.09979,0-.62434-.62434-.379-6.83284-.32249-8.09629a4.26114,4.26114,0,0,1-1.20028-2.01083A98.292,98.292,0,0,1,304.695,186.207a25.25,25.25,0,0,1,.97994-5.01382A24.60056,24.60056,0,0,0,306.202,187.66149Z" fill="url(#67938d7a-7bf1-40ea-b396-3b42025378e3)"/><path d="M305.77428,180.66562a.3466.3466,0,0,0-.0135-.14443l.0619-.07361S305.80332,180.52782,305.77428,180.66562Z" fill="url(#8812d599-2a60-48e5-82fb-9986a3491d30)"/></g><path d="M329.24012,125.80578a41.48459,41.48459,0,0,0-7.571-5.92829c-4.64268-2.857-11.03534-4.53544-12.14239-3.42839s2.57123,6.71388,3.5,9.35668c.92848,2.64281,2.357,8.07107,5.99987,8.99981,3.64262.92849,5.9283-1.07164,6.28542-2.14277C325.66908,131.59117,329.24012,125.80578,329.24012,125.80578Z" fill="#ffce9f"/><path d="M329.24012,125.80578a41.48459,41.48459,0,0,0-7.571-5.92829c-4.64268-2.857-11.03534-4.53544-12.14239-3.42839s2.57123,6.71388,3.5,9.35668c.92848,2.64281,2.357,8.07107,5.99987,8.99981,3.64262.92849,5.9283-1.07164,6.28542-2.14277C325.66908,131.59117,329.24012,125.80578,329.24012,125.80578Z" fill="#ffaf83"/><path d="M325.81173,132.377l.92849-4.35687-3.85685.99981a31.65026,31.65026,0,0,0,2.78571-2.2141c-.21448,0-5.07138.57135-5.07138.57135l4.14264-1.57142s.07158-1.28561-2.42832-3.21416-6.61046-4.73566-9.42827-5.57117c-2.8178-.83576-3.35706-.57135-3.35706-.57135s2.9225-2.93269,13.62262,3.837c5.39413,3.41285,7.16245,5.73419,7.16245,5.73419Z" fill="#f8e9cc"/><ellipse cx="398.29196" cy="200.65528" rx="37.46622" ry="4.77769" fill="#d4d3d3"/><circle cx="410.50147" cy="165.73399" r="37.06612" transform="translate(91.89231 473.08951) rotate(-65.95572)" fill="url(#1c45eb4a-57c6-42e7-957b-a6809a21b019)"/><circle cx="410.50116" cy="165.73379" r="34.92145" fill="#dae7c5"/><circle cx="410.50116" cy="165.73379" r="34.92145" fill="url(#99d29eae-e124-4d37-829a-b1a9b6867912)"/><g opacity="0.2"><path d="M392.047,145.93707a.607.607,0,0,0,.40527-.74279.63449.63449,0,0,0-.73107-.42973.59679.59679,0,0,0-.459.75654A.61921.61921,0,0,0,392.047,145.93707Z" fill="#fff"/><path d="M393.74964,149.15632a.65387.65387,0,0,0,.17118-.84977.62614.62614,0,0,0-.84366-.16685.60266.60266,0,0,0-.18009.8564A.58063.58063,0,0,0,393.74964,149.15632Z" fill="#fff"/><path d="M396.28164,151.78487a.60951.60951,0,0,0-.90709-.81335.61017.61017,0,1,0,.90709.81335Z" fill="#fff"/><path d="M399.29381,153.84969a.60685.60685,0,0,0-.2127-.82888.63.63,0,0,0-.83551.20684.59922.59922,0,0,0,.19945.85079A.61978.61978,0,0,0,399.29381,153.84969Z" fill="#fff"/><path d="M402.60629,155.39157a.60707.60707,0,0,0-.33777-.78762.63039.63039,0,0,0-.79449.33624.59885.59885,0,0,0,.32987.80723A.61986.61986,0,0,0,402.60629,155.39157Z" fill="#fff"/><path d="M406.10346,156.454a.60117.60117,0,0,0-.44195-.73107.61.61,0,0,0-.73973.43151.617.617,0,0,0,.43354.76393A.62567.62567,0,0,0,406.10346,156.454Z" fill="#fff"/><path d="M409.70685,157.07175a.62864.62864,0,0,0-.52678-.68445.60644.60644,0,0,0-.6814.52092.62043.62043,0,0,0,.52449.7033A.60027.60027,0,0,0,409.70685,157.07175Z" fill="#fff"/><path d="M413.3594,157.25083a.62849.62849,0,0,0-.60371-.62689.62039.62039,0,0,0-.61593.60855.60749.60749,0,0,0,.60371.62561A.60029.60029,0,0,0,413.3594,157.25083Z" fill="#fff"/><path d="M417.00584,156.98846a.61682.61682,0,0,0-.67376-.54.63324.63324,0,0,0-.537.68777.59559.59559,0,0,0,.67376.53875A.61069.61069,0,0,0,417.00584,156.98846Z" fill="#fff"/><path d="M420.58987,156.27293a.60958.60958,0,0,0-.73642-.44119.63374.63374,0,0,0-.445.74177.59553.59553,0,0,0,.74.45672A.61736.61736,0,0,0,420.58987,156.27293Z" fill="#fff"/><path d="M424.03736,155.0622a.60825.60825,0,0,0-.7922-.3258.62953.62953,0,0,0-.33319.79425.59947.59947,0,0,0,.80112.348A.619.619,0,0,0,424.03736,155.0622Z" fill="#fff"/><path d="M427.237,153.30177a.61565.61565,0,0,0-.83882-.18416.64469.64469,0,0,0-.18518.84569.587.587,0,0,0,.8462.19665A.6121.6121,0,0,0,427.237,153.30177Z" fill="#fff"/><path d="M430.01405,150.93356a.6421.6421,0,0,0-.8704-.00356.63354.63354,0,0,0,.00764.86582.59642.59642,0,0,0,.86939.0028A.58953.58953,0,0,0,430.01405,150.93356Z" fill="#fff"/><path d="M432.0231,147.89618a.60934.60934,0,0,0-.56525,1.07776.61028.61028,0,1,0,.56525-1.07776Z" fill="#fff"/><path d="M432.91235,144.37023a.66037.66037,0,0,0-.68929.53519.64184.64184,0,0,0,.53824.675.59026.59026,0,0,0,.688-.53519A.57646.57646,0,0,0,432.91235,144.37023Z" fill="#fff"/><path d="M432.37207,140.77423a.60758.60758,0,0,0-.40527.743.63431.63431,0,0,0,.73107.42947.59693.59693,0,0,0,.45928-.75654A.61958.61958,0,0,0,432.37207,140.77423Z" fill="#fff"/><path d="M430.66947,137.555a.65388.65388,0,0,0-.17118.84978.62591.62591,0,0,0,.84392.16684.60283.60283,0,0,0,.18009-.85614A.58082.58082,0,0,0,430.66947,137.555Z" fill="#fff"/><path d="M428.13747,134.92643a.6096.6096,0,0,0,.90709.8136.61026.61026,0,1,0-.90709-.8136Z" fill="#fff"/><path d="M425.12531,132.86186a.607.607,0,0,0,.21295.82888.63.63,0,0,0,.83525-.20709.59913.59913,0,0,0-.19945-.8508A.61992.61992,0,0,0,425.12531,132.86186Z" fill="#fff"/><path d="M421.81282,131.31973a.6072.6072,0,0,0,.338.78762.62963.62963,0,0,0,.79424-.33624.59866.59866,0,0,0-.32961-.807A.61993.61993,0,0,0,421.81282,131.31973Z" fill="#fff"/><path d="M418.31591,130.25726a.60123.60123,0,0,0,.442.73132.61.61,0,0,0,.73948-.43151.61707.61707,0,0,0-.43355-.76418A.62546.62546,0,0,0,418.31591,130.25726Z" fill="#fff"/><path d="M414.71252,129.63954a.62905.62905,0,0,0,.52652.68471.60682.60682,0,0,0,.6814-.52117.62057.62057,0,0,0-.52449-.70331A.5999.5999,0,0,0,414.71252,129.63954Z" fill="#fff"/><path d="M411.06,129.46047a.628.628,0,0,0,.6037.62688.62.62,0,0,0,.61568-.60854.6075.6075,0,0,0-.60371-.62562A.60008.60008,0,0,0,411.06,129.46047Z" fill="#fff"/><path d="M407.41327,129.72309a.61716.61716,0,0,0,.67376.54.6335.6335,0,0,0,.537-.688.59553.59553,0,0,0-.6735-.53875A.611.611,0,0,0,407.41327,129.72309Z" fill="#fff"/><path d="M403.82925,130.43837a.60973.60973,0,0,0,.73642.44144.6342.6342,0,0,0,.44526-.742.59579.59579,0,0,0-.74024-.45673A.618.618,0,0,0,403.82925,130.43837Z" fill="#fff"/><path d="M400.382,131.64935a.608.608,0,0,0,.792.32554.62923.62923,0,0,0,.33318-.794.5994.5994,0,0,0-.80087-.34821A.61893.61893,0,0,0,400.382,131.64935Z" fill="#fff"/><path d="M397.18211,133.40952a.61577.61577,0,0,0,.83882.18443.64449.64449,0,0,0,.18519-.8457.58674.58674,0,0,0-.84621-.19665A.6118.6118,0,0,0,397.18211,133.40952Z" fill="#fff"/><path d="M394.40506,135.77773a.64184.64184,0,0,0,.8704.00382.63386.63386,0,0,0-.00764-.86607.59642.59642,0,0,0-.86939-.00255A.58945.58945,0,0,0,394.40506,135.77773Z" fill="#fff"/><path d="M392.39627,138.81511a.60927.60927,0,0,0,.565-1.07775.61021.61021,0,1,0-.565,1.07775Z" fill="#fff"/><path d="M391.507,142.34106a.66016.66016,0,0,0,.6893-.53518.64205.64205,0,0,0-.53824-.675.59079.59079,0,0,0-.68828.53544A.57654.57654,0,0,0,391.507,142.34106Z" fill="#fff"/></g><path d="M393.84491,142.00049c-.27078,6.95969,7.72515,12.9211,17.85952,13.31517,10.13411.39406,18.56868-4.92823,18.83946-11.88792s-7.72515-12.9211-17.85952-13.31517C402.55025,129.71851,394.11543,135.0408,393.84491,142.00049Z" fill="#fff" opacity="0.2"/><path d="M428.421,143.03214c.00815,1.37019-31.284.32351-31.63294-1.37018-.191-.92849,8.15437-4.25957,15.42152-4.25957C419.477,137.40239,428.41436,141.93681,428.421,143.03214Z" fill="#fff" opacity="0.2"/><path d="M388.02105,167.59459s-3.32726.96618-4.72266.75144-2.03936-.36018-2.03936-.36018l-.53671,1.70184s4.48118,4.052,4.61542,4.18621S388.02105,167.59459,388.02105,167.59459Z" fill="#ae4501"/><path d="M381.259,167.98585a23.132,23.132,0,0,0-2.33484-1.16946c-.483-.13424-2.8443,1.85162-2.8443,2.44208,0,.59021.42922,4.88391.83169,5.52786.40273.644.93944.13425.93944-.77819s-.16124-3.27377.134-3.75674c.29523-.48322,2.37916-.69337,2.62982-.56371C380.86573,169.81735,381.259,167.98585,381.259,167.98585Z" fill="#eca982"/><path d="M430.15543,181.82372s2.00879,2.28771,3.53843,2.69018c1.52939.40247,3.11049.44654,3.30816.644.19741.19766.23384.92568-.81259,1.08692a10.03429,10.03429,0,0,1-4.54843,0c-1.85162-.52347-5.52939-2.17385-5.63535-2.49557C425.89968,183.42723,429.15333,181.30738,430.15543,181.82372Z" fill="#ae4501"/><path d="M437.82632,167.91656c-.216-.648-5.0449-1.07342-5.90359-1.07342s-3.00554-1.50265-5.90358-.644c-2.8983.85869-9.98255,4.11132-15.51806,4.11132-6.22556,0-13.0342-8.6195-19.367-6.58014-6.33306,2.03961-8.15768,6.54779-8.15768,10.19728s3.32752,10.84125,9.87506,13.84653c6.54754,3.00554,17.18754,6.18557,24.37929,4.46794,7.19175-1.71713,15.71165-13.32332,16.73133-14.343s3.00554-3.32751,3.00554-4.29344v-1.39541A5.02624,5.02624,0,0,0,437.82632,167.91656Z" fill="#cc6825"/><path d="M424.476,167.56784a6.45872,6.45872,0,0,1-3.26027-.56371c-1.04668-.72445-1.20766-1.93212-2.53582-1.93212-1.32841,0-2.09336,2.8983-1.56989,4.42794.52321,1.52965,2.36974,1.77113,3.59982,1.97237C421.94018,171.67355,424.637,168.81575,424.476,167.56784Z" fill="#ffbd9f"/><path d="M426.00565,183.74921c-.106-.322,3.14768-2.44208,4.14978-1.92549a15.57643,15.57643,0,0,0,1.97032,1.82691,1.64,1.64,0,0,0,.58741,1.738c.59963.3798,2.114-.051,3.24116-.46055a3.09314,3.09314,0,0,1,1.0477.22977c.19741.19766.23384.92568-.81259,1.08692a10.0344,10.0344,0,0,1-4.54843,0C429.78938,185.72131,426.11161,184.07093,426.00565,183.74921Z" fill="url(#f357fb56-a92c-41dc-80b9-2eaf0dc0d3ce)" style="mix-blend-mode:multiply"/><path d="M415.18529,196.7159a1.837,1.837,0,0,0,0,1.12132,2.30955,2.30955,0,0,0,1.50188,1.20741c.30211,0,1.22779-.201,1.46928-.201s.36222.38235.36222.56346a6.15232,6.15232,0,0,1-2.76966.8564,2.296,2.296,0,0,1-2.18124-.52092,2.79592,2.79592,0,0,1-.50309-1.44915c0-.3421.52321-2.30784.52321-2.30784Z" fill="#ffbd9f"/><path d="M413.06468,198.29344c0-.25626.37572-1.73776.52321-2.30784l.98325.95345s-.58995,1.58542-.36655,2.0768c.2234.49162,2.41279.581,2.77017.581a8.72482,8.72482,0,0,0,1.49755-.419.81284.81284,0,0,1,.04636.22926,6.15232,6.15232,0,0,1-2.76966.8564,2.296,2.296,0,0,1-2.18124-.52092A2.79592,2.79592,0,0,1,413.06468,198.29344Z" fill="url(#029884af-df19-4bd4-b393-ae440f0961b2)" style="mix-blend-mode:multiply"/><path d="M434.08283,177.63012s-4.34618,9.88932-10.18251,10.57352c-5.8366.6842-11.09725-4.73616-10.896-7.31249.20123-2.57606,4.61262-4.30924,7.7091-5.28739C423.22987,174.80875,434.47027,175.97541,434.08283,177.63012Z" fill="#cc6825"/><path d="M424.71749,185.03711s-6.92327,6.35981-7.48673,7.205a13.51461,13.51461,0,0,0-1.85162,3.985c-.24148,1.28816-1.4089.52321-1.69063.24148s-.44272-2.21384,0-3.82373a21.12928,21.12928,0,0,1,2.0931-5.15239C416.50606,186.48626,424.71749,185.03711,424.71749,185.03711Z" fill="#cc6825"/><path d="M400.31145,180.207c.37139,2.7098-.33726,6.69274-3.38127,7.35274-3.04375.65975-3.864,0-5.20588,0a18.127,18.127,0,0,0-3.22.644.97.97,0,0,1-.85869-.85869,4.52592,4.52592,0,0,1,1.87837-3.918c1.98586-1.4489,1.71738-5.52939,4.079-6.19933C395.96425,176.55746,400.08346,178.54307,400.31145,180.207Z" fill="#cc6825"/><path d="M437.87981,167.56784c-.471-.10622-1.06655.12074-1.147.42259s.61109,1.4275.72445,1.31389c.11361-.11335.04025-.50894.12074-.50894.08075,0,.31,1.00388.44807.86556C438.16434,169.52263,438.685,167.749,437.87981,167.56784Z" fill="#251100"/><path d="M431.56,169.98878c-.03082.3747-.65949.32681-1.3116.17347-.903-.21219-1.83557.97866-1.83557.97866a2.65045,2.65045,0,0,1,1.59409-1.66566C430.64221,169.29337,431.61247,169.352,431.56,169.98878Z" fill="#251100"/><path d="M432.839,174.969a3.76764,3.76764,0,0,0,.514-.03693c1.81367-.24734,3.662-2.52436,3.74069-2.62116a.16094.16094,0,0,0-.25142-.201c-.01783.02242-1.84627,2.274-3.53333,2.50373a1.99076,1.99076,0,0,1-1.604-.31536.96038.96038,0,0,1-.34567-.65236.16124.16124,0,0,0-.32248,0,1.28268,1.28268,0,0,0,.45647.89486A1.97283,1.97283,0,0,0,432.839,174.969Z" fill="#251100"/><path d="M431.05131,173.68387a.35344.35344,0,1,0,.35356-.35331A.35358.35358,0,0,0,431.05131,173.68387Z" fill="#251100"/><path d="M382.97641,173.92764a9.93921,9.93921,0,0,1,4.14443-8.204,8.9283,8.9283,0,0,0-1.7831,8.15029c.76725,3.62784,4.98555,6.086,4.98555,6.086l-1.76476,5.965.71451.5925s9.74056-3.36267,10.45533-4.77437c.71477-1.41145-.44679-4.64905-.44679-4.64905s2.05515,1.9502,2.05515,3.71674a6.37311,6.37311,0,0,1-1.78692,3.91721c-.48118.48119,7.77405,3.43094,11.706,3.07356,3.93174-.35764,5.19417-1.83277,5.36153-3.67115a18.56989,18.56989,0,0,1,1.7403-4.9076,13.8862,13.8862,0,0,0,.161,3.20245c.29319,2.13,2.656,4.39305,6.68738,3.89454,4.03159-.499,7.8757-9.60963,8.87678-10.13513,1.00108-.52525,2.8848-3.217,2.8848-3.217v.6381c0,.96593-1.98586,3.27377-3.00554,4.29344l-.00713.00765c-.70254,1.49831-4.51838,9.129-9.54773,10.18786a18.8582,18.8582,0,0,1-7.17647,4.14749s-1.77495.96542-2.17716,2.17181a3.88362,3.88362,0,0,0,.13067,2.28008c-.416.56422-1.26065.00968-1.49576-.22544-.27893-.27893-.43737-2.17436-.01095-3.77456-6.83055.27689-15.28855-2.37789-20.82609-4.91983-.08992-.041-.1722-.09094-.26084-.13373a5.41744,5.41744,0,0,0-.86633-.08075,18.127,18.127,0,0,0-3.22.644.97.97,0,0,1-.85869-.85869,4.73294,4.73294,0,0,1,.70713-2.68331C384.787,181.21874,382.97641,176.615,382.97641,173.92764Z" fill="#bf5004"/><path d="M389.34208,187.99757s-.9318.89027-1.106,1.06476a4.56267,4.56267,0,0,0,.644,2.44208c.36222.36223,3.059,2.28084,3.32752,2.54933.26822.26823.51073.901.322,1.20741s-4.19843-2.46373-4.7-2.965c-.50131-.50131-1.98179-2.858-1.87455-3.23378a28.78915,28.78915,0,0,1,1.7454-2.66064Z" fill="#ffbd9f"/><path d="M430.55739,176.36336c.04152.57925-4.01529,5.62949-7.01166,5.85289-2.99662.22365-3.93479-2.81475-3.488-4.46793S430.334,173.2358,430.55739,176.36336Z" fill="#fff" opacity="0.1"/><path d="M424.476,167.56784a6.45872,6.45872,0,0,1-3.26027-.56371c-1.04668-.72445-1.20766-1.93212-2.53582-1.93212-1.32841,0-2.09336,2.8983-1.56989,4.42794.52321,1.52965,2.36974,1.77113,3.59982,1.97237C421.94018,171.67355,424.637,168.81575,424.476,167.56784Z" fill="#ffaf83"/><path d="M425.20071,167.12512a4.55613,4.55613,0,0,1-2.9788-.282c-1.04642-.72445-1.93211-2.13335-2.73706-2.13335a1.52367,1.52367,0,0,0-1.12717.36222.96589.96589,0,0,1,1.24792.7247c.36222,1.04643.50308,2.75718,1.95223,3.20016a3.34763,3.34763,0,0,0,2.87793-.02038C425.32145,168.574,425.20071,167.12512,425.20071,167.12512Z" fill="#cc6825"/><path d="M385.955,189.06233a28.78107,28.78107,0,0,1,1.7454-2.66038l.80443.78176c-.136-.13169-1.64427,1.7347-1.64427,2.00268a15.798,15.798,0,0,0,1.47462,2.94873c.20532.20557,3.24423,2.09209,4.23818,2.707a.644.644,0,0,1-.04382.419c-.18875.30644-4.19843-2.46373-4.69974-2.96529C387.32819,191.7948,385.84771,189.43806,385.955,189.06233Z" fill="url(#09f8e613-de86-4ba2-a3de-4ad5a239661a)" style="mix-blend-mode:multiply"/><path d="M387.91916,163.76143a1.8,1.8,0,1,0,2.30249-.32019A1.65555,1.65555,0,0,0,387.91916,163.76143Z" fill="#cc6825"/><path d="M382.35,141.662a35.52172,35.52172,0,1,0,64.91626,28.74457A37.06067,37.06067,0,1,1,382.35,141.662Z" opacity="0.2" fill="url(#195b6e26-bdc6-4c75-9f71-009dcf82c1cc)"/><path d="M120.07141,46.07821c-.5627-.26907-3.08884,1.67782-3.08884,2.36446,0,.68637,1.79227,2.593,2.1736,2.21168s-.86735-1.59218-.62918-1.83035c.23842-.23843,1.672,2.36268,2.15449,1.88025C121.16419,50.22159,121.82572,46.91713,120.07141,46.07821Z" fill="#251100"/><path d="M104.41656,51.041c.36706.84753-1.46494,1.29244-2.85219,2.31126-2.11985,1.55645-2.46883,5.19487-2.46883,5.19487a6.66782,6.66782,0,0,1,1.06884-5.89569C101.31473,51.23457,103.81973,49.66341,104.41656,51.041Z" fill="#251100"/><path d="M115.26544,60.22063a5.22033,5.22033,0,0,1-2.48156-.621.38014.38014,0,0,1,.38693-.65445,4.45317,4.45317,0,0,0,4.62842-.29189,7.47948,7.47948,0,0,0,2.80965-4.83862.36359.36359,0,0,1,.42056-.33394.37977.37977,0,0,1,.3342.42059,8.11407,8.11407,0,0,1-3.13876,5.38033A5.20565,5.20565,0,0,1,115.26544,60.22063Z" fill="#251100"/><path d="M114.16094,58.84784a.9304.9304,0,1,1-.93052-.93037A.93054.93054,0,0,1,114.16094,58.84784Z" fill="#251100"/><path d="M140.55284,73.14254s-3.2865,1.62107-2.92886,2.2707c.35738.64938,2.87282,1.89724,3.37387,1.62158.50106-.27593-1.7324-1.96111-1.23135-2.237s2.15041,2.4833,2.85194,2.0969c.70152-.38612-.74738-3.25556-.24633-3.53122.50106-.27592.73031,2.51269,1.23136,2.23677.50131-.27592.792-3.06859.43431-3.71822C143.6804,71.23261,140.55284,73.14254,140.55284,73.14254Z" fill="#251100"/><path d="M132.72912,70.68434c.08074.92-1.79788.76339-3.436,1.29193-2.503.80749-3.98344,4.14919-3.98344,4.14919a6.66817,6.66817,0,0,1,2.87639-5.25617C129.72485,69.88823,132.59818,69.18893,132.72912,70.68434Z" fill="#251100"/><path d="M142.48267,64.97715c.819.42717,1.39413-1.3682,2.50984-2.67891,1.70464-2.00237,5.35872-2.08979,5.35872-2.08979a6.66815,6.66815,0,0,0-5.95734.64332C142.89838,61.89743,141.15146,64.28342,142.48267,64.97715Z" fill="#251100"/><path d="M138.51425,85.31645a3.32626,3.32626,0,0,1-2.76125-1.76171.38012.38012,0,0,1,.66688-.365,2.40573,2.40573,0,0,0,3.16347,1.09864c3.26969-1.57982,2.66344-7.29308,2.65732-7.34983l-.07794-.69169.62357.30682c.04815.02484,4.7889,2.326,7.95874.86855,1.68248-.772.50716-3.59659.49468-3.625A.38055.38055,0,0,1,151.94,73.499c.06062.14492,1.47462,3.53477-.8783,4.61336-2.827,1.30539-6.57811-.00988-8.02064-.61111.07056,1.65779-.05553,5.988-3.12628,7.4723A3.20277,3.20277,0,0,1,138.51425,85.31645Z" fill="#251100"/><path d="M137.47165,83.11585a.9304.9304,0,1,1-.93052-.93027A.93052.93052,0,0,1,137.47165,83.11585Z" fill="#251100"/><path d="M152.03142,73.90291a.9304.9304,0,1,1-.93027-.9304A.93031.93031,0,0,1,152.03142,73.90291Z" fill="#251100"/><path d="M248.3748,31.7965c-6.65784-.40351-13.31542,3.05975-16.9509,7.03147-.03286.036-.067.082-.10011.11929a2.16649,2.16649,0,0,0-.34974-.056c-.5548,0-6.9602,7.91849-7.41438,11.04572-.026.17976-.02216.3237-.03465.48747,1.34726,1.47681,5.90843,1.37085,7.89888-.61945,1.99732-1.9971,3.47857-8.79781,7.94014-11.88354a22.45788,22.45788,0,0,1,14.64968-3.28431c3.37974.65709,9.6267,3.95139,9.6267,3.95139C262.86706,37.81517,255.03238,32.2,248.3748,31.7965Z" fill="#fff" opacity="0.1"/><circle cx="247.65333" cy="36.55618" r="33" fill="#fff" opacity="0.3"/></g></g></g></svg>