<svg xmlns="http://www.w3.org/2000/svg" xmlns:xlink="http://www.w3.org/1999/xlink" viewBox="0 0 597.84307 255.23312"><defs><linearGradient id="83b2cc1d-39b0-4d7d-b4c3-3bf2b79414df" x1="316.14782" y1="138.50357" x2="386.06364" y2="138.50357" gradientUnits="userSpaceOnUse"><stop offset="0" stop-color="#fff7ee"/><stop offset="0.43907" stop-color="#ebdede"/><stop offset="1" stop-color="#d5c1cc"/></linearGradient></defs><title>banner_part2</title><g style="isolation:isolate"><g id="e094bb95-9dcb-440e-8da9-d10b8876cd7b" data-name="Layer 2"><g id="97d87c61-ff19-4ec4-a632-39cd4a224925" data-name="Layer 1"><path d="M384.19521,139.30418H317.21564V52.158a33.48979,33.48979,0,0,1,66.97957,0Zm-65.37809-1.60174h63.77661V52.158a31.88831,31.88831,0,0,0-63.77661,0Z" fill="#8c7d7c"/><path d="M356.97111,22.05625H343.80139a1.807,1.807,0,0,1-1.80169-1.80169h0a1.807,1.807,0,0,1,1.80169-1.8017h13.16972a1.80688,1.80688,0,0,1,1.80169,1.8017h0A1.80688,1.80688,0,0,1,356.97111,22.05625Z" fill="#251100"/><path d="M350.393,19.754a.6003.6003,0,0,1-.6004-.60039v-1.417a1.98569,1.98569,0,0,0-1.07393-1.73674,5.8849,5.8849,0,0,1-3.41591-5.25454,5.36807,5.36807,0,0,1,5.40381-5.40356A5.15218,5.15218,0,0,1,355.5268,10.162a.60053.60053,0,1,1-1.201,0,3.99048,3.99048,0,0,0-3.61918-3.61918,4.13339,4.13339,0,0,0-4.20251,4.20251,4.73715,4.73715,0,0,0,2.7824,4.19563,3.18652,3.18652,0,0,1,1.70719,2.79565v1.417A.60052.60052,0,0,1,350.393,19.754Z" fill="#251100"/><polygon points="357.201 133.845 359.528 137.065 364.183 137.065 360.544 131.564 357.201 133.845" fill="#604b4a"/><path d="M350.32473,60.31111a13.603,13.603,0,0,1-.58052-5.09737,3.93682,3.93682,0,0,1,1.72094-3.10514l3.126,6.0284Z" fill="#ffd372"/><path d="M351.46515,52.1086V55.337a13.37345,13.37345,0,0,1-.75985,3.917l2.90161-3.7738Z" fill="#ffba31"/><path d="M374.69715,56.76733a4.34081,4.34081,0,0,0,3.65-4.32325c0-3.77-11.29262-12.46336-11.9083-18.38732-.61542-5.924,3.07738-7.001,4.46233-7.001a7.77115,7.77115,0,0,1,2.92327.76928s.308-3.38508-4.07744-3.84665c-4.38515-.46157-7.82169,3.23123-8.514,7.15481A18.48923,18.48923,0,0,0,363.9,43.75045C365.54909,46.24169,374.69715,56.76733,374.69715,56.76733Z" fill="#ffd372"/><path d="M369.27169,50.42968s-7.4745-9.50009-9.01306-12.57747c-1.53881-3.07737-3.43654-10.71948-5.59052-10.00165-2.15424.71833,1.02553,10.30937,1.94892,12.00178.92314,1.69267,6.46246,11.12985,6.46246,11.12985Z" fill="#ffd372"/><path d="M358.57768,52.1086s-9.4489-16.97485-8.37191-18.05184,5.263,3.77711,6.41126,5.79558c1.14806,2.01847,7.12909,12.25626,7.12909,12.25626Z" fill="#ffd372"/><path d="M355.95015,54.162s-5.38546-9.53958-6.15449-11.38611c-.76953-1.84627-.71833-4.15437,0-4.46208.71783-.30771,2.41636,1.61065,3.08018,2.94823s6.5106,12.48984,6.5106,12.48984Z" fill="#ffd372"/><path d="M349.5389,46.22157a1.55975,1.55975,0,0,1,2.36031.63351c.58358,1.07164,4.66637,8.48679,4.66637,8.48679l-2.63211,1.58976s-3.625-7.07789-3.98421-7.796C349.59035,48.41784,348.97009,46.79038,349.5389,46.22157Z" fill="#ffd372"/><path d="M362.10923,76.51092c2.96224,2.96208,6.94008,6.7704,8.46336,15.65684,1.52353,8.88624-13.87965,36.56086-16.67249,41.21551-2.11883,3.53155-6.69452,40.67045-9.73266,42.316-3.04681,1.65039-8.93078-1.35515-11.84819-1.35413-2.70827.001-9.35337,3.34178-12.01808.67707-2.45406-2.45431,12.52576-38.0842,13.54136-43.66988,1.0156-5.58594-4.57008-38.423-1.86181-44.34717,2.708-5.92417,10.66344-13.71035,10.66344-13.71035Z" fill="#f8e9cc"/><path d="M360.828,120.47287v7.66325c0,1.6081.94275,3.38534,2.46628,3.38534a1.80353,1.80353,0,0,0,1.86181-1.0156s-1.0156,2.45431-2.70827,2.45431-2.79259-.59225-3.38509,0a15.90211,15.90211,0,0,1-2.11577,1.52327l-3.04681-3.13112Z" fill="#f8e9cc"/><path d="M336.24793,137.92559s-10.19831,25.2851-6.47265,25.91658c7.08833,1.201,14.98466-25.02452,14.98466-25.02452Z" fill="#ffe7b2"/><path d="M341.91615,137.68563s-9.1878,25.576-3.18182,26.77705c6.00574,1.2013,11.65867-25.91632,11.65867-25.91632Z" fill="#ffe7b2"/><path d="M342.64416,73.2948a39.47405,39.47405,0,0,0,4.54512-7.17283c2.318-4.49926,4.70916-11.75469,12.32554-14.3705s10.963-1.34624,12.69414.38464a12.15808,12.15808,0,0,1,2.69273,5.53932c0,.46157-1.53881,8.69363-1.53881,8.92441s-4.485,3.89274-6.4082,6.97c-1.92346,3.07729,1.22779,10.87619,1.22779,10.87619Z" fill="#f8e9cc"/><path d="M336.802,152.76454c5.048,5.04795,8.27155,18.24594,8.742,20.26543,2.91231-8.86532,6.53811-36.61671,8.35611-39.6467.19054-.31739.444-.75043.74228-1.26829l2.30453,2.36846a15.90211,15.90211,0,0,0,2.11577-1.52327c.5925-.59225,1.69242,0,3.38509,0,1.55078,0,2.52308-2.03834,2.67694-2.38375a1.853,1.853,0,0,1-1.83048.945c-1.52328,0-2.46628-1.77724-2.46628-3.38534v-7.54353c5.05458-10.01852,10.69528-22.87958,9.74464-28.425a28.41178,28.41178,0,0,0-2.39878-7.72542l.0084.0039s-3.151-7.79872-1.22753-10.87619c1.92345-3.0773,6.4082-6.73925,6.4082-6.97,0-.06215.1131-.71222.27587-1.62542l-1.00669-2.79564s-10.60561,5.03623-13.40839,9.841c-2.80252,4.80456.95625,17.884.95625,23.089s-15.40827,24.8365-13.58747,25.36407c1.8208.5278,4.84545,3.677,4.84545,5.57218,0,1.89544-2.58524,6.4482-9.7077,7.10056-4.10648.376-6.81959.23129-8.67911,1.02222-1.11418,3.44266-3.19,8.99828-5.36917,14.93957A12.01837,12.01837,0,0,1,336.802,152.76454Z" fill="#ffe1b0"/><path d="M365.12471,130.57642c.0191-.04076.03133-.07056.03133-.07056Z" fill="#f8e9cc"/><path d="M344.75994,132.36792a23.928,23.928,0,0,0,.59428,2.79259c.14723.14749.16735.38107.67528,1.14271.50768.76164,5.92422.76164,5.92422.76164s-1.12947-2.11578-2.02484-2.3486c-.89511-.23282-2.07985-1.96752-2.07985-1.96752Z" fill="#604b4a"/><path d="M372.63206,66.40752a1.95009,1.95009,0,0,0,1.9232.5385c.96186-.26925,3.79189-2.99586,3.79189-2.99586l-.79144-2.409-4.92365.63759S371.97818,64.9841,372.63206,66.40752Z" fill="#604b4a"/><path d="M371.094,58.488c-.28886.41011-1.01331-.31281-1.87785-.66714a4.51693,4.51693,0,0,0-3.10514.32657,3.61891,3.61891,0,0,1,3.03356-1.17328C370.12656,57.10612,371.56322,57.8219,371.094,58.488Z" fill="#251100"/><path d="M340.18985,121.53483s2.70828,2.53888,2.36974,5.50112-2.0312,7.61689-.50793,7.61689c1.52353,0,2.45431-3.04681,3.63931-1.86207a3.38261,3.38261,0,0,0,3.50149,1.1608c1.18475-.33854,3.111-4.161,2.59187-6.91562C349.81655,116.59631,340.18985,121.53483,340.18985,121.53483Z" fill="#f8e9cc"/><path d="M372.63206,66.40752a1.95009,1.95009,0,0,0,1.9232.5385c.96186-.26925,3.79189-2.99586,3.79189-2.99586l-.79144-2.409-4.92365.63759S371.97818,64.9841,372.63206,66.40752Z" fill="#634140"/><path d="M371.97818,61.599a7.28837,7.28837,0,0,0,2.23091,1.53881c.84621.19207,2.65427-.53875,3.462-.30771.808.23078.92339,3.00019,1.11546,3.00019.19257,0,1.885-1.73088,1.19264-4.76979s-5.07751-3.80819-5.07751-3.80819a11.42967,11.42967,0,0,0-1.50035,1.42317A9.31986,9.31986,0,0,0,371.97818,61.599Z" fill="#695554"/><path d="M358.16909,37.72c5.105,9.34216,11.1026,12.70967,11.1026,12.70967-2.17411-2.89218-8.18621-10.92377-9.01306-12.57747-1.52073-3.0412-3.39247-10.52614-5.51538-10.009A41.02082,41.02082,0,0,0,358.16909,37.72Z" fill="#ffba31"/><path d="M350.393,33.95028s3.61027,5.82564,4.523,7.46737a28.3382,28.3382,0,0,0,8.12915,9.31924l-3.00758-4.98555c-1.46189-2.50958-2.91308-5.00694-3.4205-5.899C355.52552,37.934,351.69492,33.4635,350.393,33.95028Z" fill="#ffba31"/><path d="M352.87584,41.26175c-.65924-1.32815-2.33714-3.2246-3.06337-2.949,0,0,2.89652,5.73241,3.919,7.61333a24.02259,24.02259,0,0,0,4.84621,6.18251C357.10433,49.28876,353.19145,41.89756,352.87584,41.26175Z" fill="#ffba31"/><path d="M349.83107,46.06237a35.73893,35.73893,0,0,0,3.70018,5.73775c.29905.38184,2.16036,1.90308,2.16036,1.90308-1.16793-2.12265-3.475-6.2653-3.7924-6.84812A1.593,1.593,0,0,0,349.83107,46.06237Z" fill="#ffba31"/><path d="M374.69715,56.76707a4.34038,4.34038,0,0,0,3.64975-4.32325c0-3.76972-11.29237-12.4631-11.90805-18.38706-.61542-5.92422,3.07738-7.00121,4.46233-7.00121a7.76924,7.76924,0,0,1,2.92327.76953s-2.99306-2.81729-5.94613-1.31592c-4.48347,2.27982-4.45418,7.00681-3.40317,10.5888,1.44584,4.92772,6.10584,8.12941,8.20811,10.23117,2.10177,2.10227,3.4531,3.65306,3.65357,5.55563A4.56006,4.56006,0,0,1,374.69715,56.76707Z" fill="#ffba31"/><path d="M336.55055,79.09206c4.73922-2.59981,9.52124,2.15808,10.79055,13.5834,1.26956,11.42532-5.07776,28.05545-8.75935,35.41837S328.93391,144.978,327.53724,144.978c-1.39642,0,1.0156-9.99071,1.0156-17.49985,0-7.50893-1.39642-32.00978.38107-37.21465C330.7109,85.05864,335.08,79.89891,336.55055,79.09206Z" fill="#f8e9cc"/><path d="M349.30862,89.50329c-1.21938-5.87223-6.92148-10.80219-8.65924-10.80219l.00255.00678c3.14539,1.17883,5.79329,5.904,6.68917,13.96758,1.26956,11.42532-5.07776,28.05545-8.75935,35.41837-2.83691,5.67382-7.02286,12.6111-9.43667,15.50379-.63121,1.36509-.94,2.0763-.77157,1.90792.89359-.89359,11.6253-17.74667,15.28956-25.03267C349.23755,109.3893,350.52852,95.37572,349.30862,89.50329Z" fill="#ffe1b0"/><path d="M340.99862,173.66959c-1.60148,0-6.00574-2.6693-8.14113-2.6693s-5.33859,2.02968-8.942,2.02968a8.59689,8.59689,0,0,1-3.70044-.81106c-.24989,1.45832-.25549,2.46144.08635,2.80329,2.66446,2.66446,9.30956-.67605,12.01783-.67707,2.91741-.001,8.80138,3.00452,11.84819,1.35413.43431-.23511.90046-1.214,1.386-2.69757A33.25341,33.25341,0,0,1,340.99862,173.66959Z" fill="#ffd372"/><rect x="316.14782" y="135.71072" width="69.91582" height="5.58568" fill="#69250e"/><polygon points="316.148 138.818 383.394 138.818 386.064 135.711 386.064 141.296 316.148 141.296 316.148 138.818" fill="url(#83b2cc1d-39b0-4d7d-b4c3-3bf2b79414df)" style="mix-blend-mode:multiply"/><path d="M382.45567,138.044H318.01421a.94152.94152,0,0,1-.93867-.93868h0a.94152.94152,0,0,1,.93867-.93867h64.44146a.94135.94135,0,0,1,.93867.93867h0A.94135.94135,0,0,1,382.45567,138.044Z" fill="#d4ccc9" style="mix-blend-mode:soft-light"/><path d="M348.103,141.29641s.8592,1.4387,1.82589,1.69267,1.60148-1.69267,1.60148-1.69267Z" fill="#695554"/><path d="M359.52832,141.29641h3.04656a1.06278,1.06278,0,0,1-.97332,1.10017C360.54367,142.60826,359.52832,141.29641,359.52832,141.29641Z" fill="#695554"/><path d="M363.81006,134.62915a5.29439,5.29439,0,0,0,1.11876,1.8343,11.75372,11.75372,0,0,1,.38159,3.179c-.00561.4231-.69516,1.38725-.70127,1.85289-.00612.46539.75094.8136,1.38852.61058a3.36832,3.36832,0,0,0,1.426-2.26657,20.0497,20.0497,0,0,0-.1643-3.59931c-.205-.51073-.52525-1.91123-1.15672-2.17334C365.47139,133.80434,363.82381,133.57126,363.81006,134.62915Z" fill="#695554"/><path d="M361.09363,134.65284a5.29738,5.29738,0,0,0,1.14271,1.81952,11.73963,11.73963,0,0,1,.42311,3.17392c0,.42285-.67707,1.39616-.67707,1.86181,0,.46539.76164.80392,1.39667.59224a3.36847,3.36847,0,0,0,1.39617-2.28491,20.066,20.066,0,0,0-.21142-3.59677c-.21168-.50793-.55022-1.90435-1.18475-2.15831C362.744,133.80637,361.09363,133.595,361.09363,134.65284Z" fill="#695554"/><path d="M352.64505,135.12765a5.29448,5.29448,0,0,0,1.11877,1.8343,11.74432,11.74432,0,0,1,.38158,3.179c-.0056.4231-.69515,1.38751-.70126,1.85289s.75119.81386,1.38852.61059a3.36816,3.36816,0,0,0,1.42623-2.26658,20.07455,20.07455,0,0,0-.16456-3.59931c-.20506-.51047-.52525-1.91123-1.15647-2.17334C354.30639,134.30309,352.65906,134.06976,352.64505,135.12765Z" fill="#695554"/><path d="M349.92888,135.15134a5.29776,5.29776,0,0,0,1.14246,1.81978,11.7376,11.7376,0,0,1,.42336,3.17366c0,.4231-.67707,1.39642-.67707,1.86181,0,.46564.76164.80418,1.39642.5925a3.36839,3.36839,0,0,0,1.39642-2.28517,20.04459,20.04459,0,0,0-.21168-3.59677c-.21142-.50767-.55-1.90434-1.18474-2.15805C351.57927,134.30513,349.92888,134.09371,349.92888,135.15134Z" fill="#695554"/><rect x="349.45433" width="2.5022" height="9.16623" fill="#8c7d7c"/><ellipse cx="496.6529" cy="241.13187" rx="101.19029" ry="6.68662" fill="#d4d3d3"/><path d="M33.03374,236.74493c0,6.26148,19.179,8.74814,27.55422,8.74814s19.20118,7.14259,29.0719,5.84857c9.87073-1.29428,24.31154-1.14985,43.40522-.00026,19.09342,1.14959,47.42635-.12838,57.04719,2.63287s29.1068.57162,36.44731-2.63287c7.34025-3.20448,26.12647-10.69019,37.58925-10.69019s57.98052-1.07087,59.891-5.7082c1.91046-4.63708-88.72981-8.32962-100.57927-8.32962s-41.3521,1.6486-56.02242,1.6486c-14.67057,0-102.01491,1.61065-108.20532,1.61065C53.04265,229.87262,33.03374,231.08436,33.03374,236.74493Z" fill="#d4d3d3"/><path d="M233.94033,102.00239s19.20755-13.18984,17.60709-31.70322c-1.60021-18.51331-26.09795-39.69041-26.09795-39.69041a15.956,15.956,0,0,1,14.40311,2.32873c5.15163,3.85811,6.49456,7.76081,6.49456,7.76081l.03617-9.86054s5.30192,2.10533,10.2844,8.53315c3.53283,4.55785,6.17386,12.46233,6.17386,12.46233l2.00216-8.18468s7.5983,6.74088,9.65115,15.661c1.4438,6.27223-1.71508,12.58483-1.71508,12.58483l8.58256-3.116s3.61383,7.29486-1.2041,18.01012c-3.31835,7.37961-16.37191,16.28094-30.06687,17.84441C236.39668,106.19636,233.94033,102.00239,233.94033,102.00239Z" fill="#f8e9cc"/><path d="M233.94033,102.00239s19.20755-13.18984,17.60709-31.70322c-1.60021-18.51331-26.09795-39.69041-26.09795-39.69041a15.956,15.956,0,0,1,14.40311,2.32873c5.15163,3.85811,6.49456,7.76081,6.49456,7.76081l.03617-9.86054s5.30192,2.10533,10.2844,8.53315c3.53283,4.55785,6.17386,12.46233,6.17386,12.46233l2.00216-8.18468s7.5983,6.74088,9.65115,15.661c1.4438,6.27223-1.71508,12.58483-1.71508,12.58483l8.58256-3.116s3.61383,7.29486-1.2041,18.01012c-3.31835,7.37961-16.37191,16.28094-30.06687,17.84441C236.39668,106.19636,233.94033,102.00239,233.94033,102.00239Z" fill="#f4d49d"/><path d="M97.35266,156.67564C90.13442,184.223,58.437,225.96839,55.33139,226.24605c-9.33351.83423-18.789,7.0789-18.211,9.6537.66867,2.97879,17.71254,2.694,21.59206,1.43819,3.87951-1.25606,67.03484-66.155,67.03484-66.155S99.37317,148.96425,97.35266,156.67564Z" fill="#e8b586"/><path d="M71.39151,206.717c2.62344,2.16111,6.36311,5.7589,4.61185,7.5099-2.59644,2.597-17.42368,20.7433-22.61071,20.7433-2.89219,0-9.926-.46055-15.58658-.86837a2.34477,2.34477,0,0,0-.68573,1.79788c.66867,2.97879,17.7128,2.694,21.59206,1.43819,3.87951-1.25606,67.03484-66.155,67.03484-66.155s-17.59333-14.81882-25.14042-16.0456l-3.85634,3.65357C92.22854,173.95234,81.04164,192.79868,71.39151,206.717Z" fill="#e2b069"/><path d="M183.082,129.86547c1.72324,6.9118,11.42508,24.29855,20.3528,31.88589,10.23932,8.702,26.735,12.77667,30.97523,17.01688,13.22932,13.22932-8.98911,43.419-8.98911,44.4366,0,1.0179-9.49806,3.39222-10.85474,7.12348-1.35694,3.73127,18.65656,1.35694,21.03114-1.01738,2.37433-2.37483,21.54009-49.86436,19.16526-54.61326-2.37432-4.74891-7.29287-14.92531-8.64956-22.38809-1.35694-7.46277-3.90244-18.67108-6.85423-24.93663-2.95154-6.26556-22.65758-14.412-37.24359-12.716S180.88117,121.0376,183.082,129.86547Z" fill="#e8b586"/><path d="M235.5976,229.31094c2.37407-2.37483,21.53983-49.86436,19.165-54.61326-2.37432-4.74916-7.29262-14.92556-8.64981-22.38809-1.35669-7.46277-3.90219-18.67108-6.85373-24.93663-2.73272-5.80043-19.81863-13.19705-33.91377-12.91993L195.9672,153.528a52.5338,52.5338,0,0,0,7.46762,8.2234c10.23907,8.702,26.735,12.77667,30.97523,17.01662a13.605,13.605,0,0,1,3.18513,5.06375c4.0754,1.0319,7.2376,1.63459,7.83646,2.23346,1.23467,1.23466-9.83328,37.19824-11.907,39.27224-2.074,2.07349-15.152,4.822-18.54168,6.11578h0C217.93677,233.46632,233.51978,231.3885,235.5976,229.31094Z" fill="#e2b069"/><path d="M80.68094,74.23082s7.16118-4.795,9.19519-7.54174c3.28345-4.43312,4.591-12.34447,4.591-12.34447a25.70189,25.70189,0,0,1,5.12641,10.81062c1.73877,8.915-3.51449,17.84324-3.51449,17.84324Z" fill="#451100"/><path d="M27.5125,72.80962s-4.46692,7.43921-1.993,15.98751c1.66491,5.75124,5.49271,7.49819,5.49271,7.49819s-2.79,7.60726-.28428,9.46327c2.50577,1.85574,21.15138,6.2898,25.23544,15.28411,4.08355,8.9942,7.11915,27.06184,13.75151,37.04821,6.63237,9.98612,35.08681,35.6737,66.17717,35.58072,31.70911-.09552,69.53373-36.255,98.16622-37.43489,16.73133-.68955,43.47247-14.36617,37.93238-26.22989-5.5406-11.864-17.81978-27.52489-33.90334-29.58691-16.08329-2.06172-86.41763,20.76541-101.17991,22.96524-14.76253,2.19984-30.25995,1.76552-35.80055-10.09817-5.5406-11.86408,4.75247-23.34342-7.49819-34.20746s-32.95854-.233-35.30714.11677C55.95292,79.54637,27.5125,72.80962,27.5125,72.80962Z" fill="#f8e9cc"/><path d="M112.99044,145.54273S100.09,172.51822,92.21326,178.498c-7.877,5.98-27.35044,2.64968-31.88665,4.85232-4.53671,2.20213-15.16933,20.42642-14.61606,25.48456.553,5.05789,4.69948,11.77075,7.0598,11.51245,2.36031-.258,7.23938-5.56887,6.90747-8.60371-.33166-3.03509-1.82029-8.84391.43227-11.64949a11.93266,11.93266,0,0,1,8.36172-4.6679c3.37209-.36885,28.19309,8.17755,33.92549,7.55066s19.05191-13.00287,22.424-13.37146C128.1934,189.23655,112.99044,145.54273,112.99044,145.54273Z" fill="#f8e9cc"/><path d="M208.46036,135.96978c1.72349,6.91155,3.90117,27.476,14.75565,31.88589,10.85475,4.4096,39.51832,10.68535,43.75853,14.92556,13.22906,13.22906,11.36369,43.419,11.36369,44.43661s-9.49806,3.39221-10.855,7.12348c-1.35669,3.73126,16.28224,3.73126,18.65656,1.35693,2.37458-2.37457,3.56187-52.23894,1.18755-56.98784-2.37458-4.7489-7.29313-14.9253-8.65007-22.38808s-3.90244-18.67083-6.85372-24.93664c-2.9518-6.26555-22.65759-14.41177-37.24385-12.71579S206.25925,127.14192,208.46036,135.96978Z" fill="#f8e9cc"/><path d="M88.6328,75.93539s8.58766-2.53832,12.29778-5.83481c3.70986-3.29649,8.53136-11.217,8.53136-11.217s4.19028,6.927,2.061,19.58419c-1.86436,11.081-11.65739,17.47658-11.65739,17.47658s-7.634-5.96522-10.857-13.50223C88.36788,80.94417,88.6328,75.93539,88.6328,75.93539Z" fill="#ffce9f"/><path d="M62.97044,81.75866c-1.2953,3.96576,1.32535,16.9505,7.35783,22.91068s16.523,7.31236,20.80545,1.5297c4.28275-5.78264-1.62542-18.96331-8.17907-23.81706C76.40125,77.52823,64.64324,76.63755,62.97044,81.75866Z" fill="#69250e"/><path d="M69.16594,87.2381c.36019,1.39335,3.03764.18643,5.7184.11055C78.97986,87.23305,82.892,91.371,82.892,91.371s-1.78055-5.02685-6.9579-6.22369C73.16391,84.50682,68.58083,84.97394,69.16594,87.2381Z" fill="#251100"/><path d="M26.66833,72.03514c-.50335.075-3.07661,4.95987-2.86442,6.38581.21244,1.426.30491,4.6288.97662,4.52862.67147-.09988.98351-5.76369,2.23626-4.836,1.253.928-1.69827,3.94946-1.13073,4.36974.568.42058,4.79831-2.77277,5.09533-4.23163S28.346,71.78528,26.66833,72.03514Z" fill="#251100"/><path d="M50.50709,101.51453q-.93613,0-1.964-.03319a43.66445,43.66445,0,0,1-17.6565-4.964l.25193-.44282a43.09121,43.09121,0,0,0,17.42164,4.89733c9.11342.29253,11.94854-1.5368,12.17449-2.67584l.49774.0984C60.92548,99.95017,57.91535,101.51453,50.50709,101.51453Z" fill="#251100"/><path d="M61.25713,97.91927a1.01767,1.01767,0,1,1-1.15646-.85658A1.01779,1.01779,0,0,1,61.25713,97.91927Z" fill="#251100"/><path d="M103.58408,117.15962l-.00229-.00051c-.52347.70713-1.46392,8.66662,1.19162,11.52875,2.6558,2.86264,7.78527,6.21359,7.15354,8.88009-.63122,2.66624-7.00223,8.24531-6.30224,12.94275.69974,4.69694,4.70891,13.18806,19.79622,13.16895,15.08731-.01885,16.74992-10.72712,15.2185-14.09973-1.53169-3.37285-8.54156-13.59129-7.31275-18.00293s6.25562-8.68292,6.25562-8.68292l-.002-.00026c-1.02248.21219-1.923.37955-2.67287.49137C123.96032,125.31449,110.44952,125.21591,103.58408,117.15962Z" fill="#69250e"/><path d="M92.213,178.49822c4.91651-2.30911,9.46621-12.13475,9.46621-12.13475a161.61208,161.61208,0,0,1-20.99828-17.71814C69.87256,137.83669,70.395,114.213,63.63222,110.92624c-6.76023-3.28524-33.91963-8.29786-33.94358-8.302l-.00051.00978.38693,2.281a2.16761,2.16761,0,0,0,.65287.84354c2.506,1.85574,21.15138,6.2898,25.23518,15.28411s7.11941,27.06158,13.75177,37.04821c3.15991,4.75756,11.30816,13.06884,22.29969,20.4687C92.077,178.53771,92.16053,178.52293,92.213,178.49822Z" fill="#f4d49d"/><path d="M153.0554,172.95737c-5.928,0-2.964-13.14093-8.89206-13.14093-5.92779,0-1.48176,5.13074-6.29816,13.64326-4.72267,8.34745-16.658,17.89925-17.12259,18.26886a62.48091,62.48091,0,0,0,15.14921,1.94256c25.32026-.07565,54.53532-23.13189,79.86016-33.02707l.00841-.00917s-7.17978-17.49831-9.72452-20.04305C203.49086,138.04684,158.98318,172.95737,153.0554,172.95737Z" fill="#f4d49d"/><path d="M265.6851,131.23209c4.446,15.93123-2.964,30.75107,0,33.71509,2.964,2.96377,18.52462,14.44922,18.52462,20.377s1.11163,43.71828,0,44.82966c-1.011,1.011-2.74623,4.09756-14.02153,6.49073,4.783,1.22524,14.2546.75069,15.9516-.94657,2.37458-2.37432,3.56187-52.23869,1.18755-56.98759-2.37458-4.74915-7.29313-14.9253-8.65007-22.38808-1.21658-6.69121-3.392-16.36477-5.95555-22.81577a7.65847,7.65847,0,0,0-.73107-3.5c-3.52392-7.54582-9.78234-16.61494-18.00344-22.75682l-5.563-1.64914S261.23933,115.301,265.6851,131.23209Z" fill="#f4d49d"/><path d="M102.3973,202.97686c4.311-.47125,12.91168-7.58607,18.34682-11.2432l-.00153-.0051s-13.63052,7.42712-19.06337,6.19245c-5.43284-1.23518-31.86117-6.422-36.80138-5.43412-4.93994.98809-9.99172,4.44577-9.99172,8.1508s3.32293,11.11482-2.358,14.81959a19.97042,19.97042,0,0,1-3.52671,1.76247c1.29376,1.91632,2.70827,3.24345,3.769,3.1273,2.36031-.2583,7.23938-5.56888,6.90747-8.60371-.33217-3.03484-1.82029-8.84366.43227-11.64924a11.93176,11.93176,0,0,1,8.36172-4.6679C71.8439,195.05735,96.6649,203.604,102.3973,202.97686Z" fill="#f4d49d"/><path d="M88.6328,75.93539s8.58766-2.53832,12.29778-5.83481c3.70986-3.29649,8.53136-11.217,8.53136-11.217s4.19028,6.927,2.061,19.58419c-1.86436,11.081-11.65739,17.47658-11.65739,17.47658s-7.634-5.96522-10.857-13.50223C88.36788,80.94417,88.6328,75.93539,88.6328,75.93539Z" fill="#c69c6d"/><rect x="32.79541" y="69.90424" width="8.64987" height="59.53165" transform="translate(-68.64369 110.89548) rotate(-75.63154)" fill="#4d9999"/><circle cx="8.20663" cy="92.59142" r="8.2046" transform="translate(-82.96834 74.49044) rotate(-73.70602)" fill="#4d9999"/><path d="M57.92809,105.32883a8.20481,8.20481,0,1,0,9.98408-5.91219A8.2046,8.2046,0,0,0,57.92809,105.32883Z" fill="#4d9999"/><path d="M64.56122,111.00953a7.68487,7.68487,0,0,1-5.7831-4.94091L14.249,95.02764a9.97583,9.97583,0,0,1-8.21346,1.47012C2.86625,95.712.69469,93.60554.159,91.21275a8.15105,8.15105,0,0,0,13.94893,7.02692l43.878,11.24017a8.17887,8.17887,0,0,0,15.83851-.07915,8.08715,8.08715,0,0,0,.14952-.98816C72.00566,110.76678,68.22472,111.91766,64.56122,111.00953Z" fill="#1f8c89"/><path d="M25.05972,87.56889s-.53493,6.76757,5.54467,9.59131c6.07935,2.82374,26.62269,3.196,26.62269,3.196S48.09761,89.40889,41.36463,85.65387C34.63216,81.89856,26.00247,83.26375,25.05972,87.56889Z" fill="#f8e9cc"/><path d="M29.68635,102.62364c.74355-1.0036,5.308-1.89456,9.39336-.3708s12.90429,5.68958,14.66752,6.14129,1.84194,1.94582-2.39445,1.1349c-4.23613-.81093-13.43743-5.48449-16.38617-5.04523C32.01813,104.92305,29.05,103.48289,29.68635,102.62364Z" fill="#f8e9cc"/><path d="M86.38253,76.04092s10.80558-4.0111,14.56206-7.5717a112.58982,112.58982,0,0,0,8.51735-9.58561s-3.99338,10.02606-6.77705,13.78494c-2.78367,3.75857-7.5932,5.59592-8.07234,6.24293-.4794.64735,6.79513.37761,6.79513.37761l-7.01725,2.16043,4.55428,3.52086-5.21429-1.62186-.08406,6.4199s-3.68388-3.25559-5.14194-6.67776A29.30283,29.30283,0,0,1,86.38253,76.04092Z" fill="#69250e"/><circle cx="211.24378" cy="223.1397" r="22.94537" transform="translate(-42.85205 395.91287) rotate(-80.78255)" fill="#44c6cf"/><path d="M228.41222,207.95349a22.93135,22.93135,0,0,1-38.29995,24.13934,22.94064,22.94064,0,1,0,38.29995-24.13934Z" fill="#1f8c89"/><path d="M434.8882,137.65278s13.17634-11.45463,14.97319-11.08018c1.7966.37419-.05094,11.05266-1.04821,13.7752a15.988,15.988,0,0,1-3.59345,5.54009C444.99506,145.88789,434.8882,137.65278,434.8882,137.65278Z" fill="#b28669"/><path d="M466.23253,168.68456s-14.746-25.49628-18.4892-27.892-17.96753-6.5883-20.81259-5.68987c-2.84481.89843-7.63625,6.28873-9.13354,6.28873s-5.09075-.29956-5.8394.44909c-.7489.74865-1.198,4.94122-1.198,6.28874a12.29312,12.29312,0,0,0,.59913,3.14436,16.3619,16.3619,0,0,0-1.37936,2.84481A10.684,10.684,0,0,0,412.411,163.091c2.58346,2.58346,7.782,4.80265,7.782,9.74388s-.29956,12.12813.29956,19.01573c.59886,6.8876,11.37923,21.11189,11.37923,21.11189Z" fill="#b89075"/><path d="M438.984,139.29526s13.17634-11.45437,14.97294-11.08017c1.7971.37445-.0507,11.05266-1.048,13.7752a15.98423,15.98423,0,0,1-3.59345,5.54009C449.09084,147.53038,438.984,139.29526,438.984,139.29526Z" fill="#ffce9f"/><path d="M455.29042,150.75091c6.76355,5.31287,16.56168,2.35013,23.21213,0,6.65045-2.35038,29.74973-12.6842,54.46985-1.13456s31.20423,35.45922,29.98841,47.00886-7.29466,23.30179-18.844,26.544c-11.54964,3.24193-109.43821-6.27829-112.24506-10.20671C429.06511,209.03405,455.29042,150.75091,455.29042,150.75091Z" fill="#b89075"/><path d="M445.21718,180.82058c-3.37184,4.15029-3.08552,10.80431,0,15.86474,1.91454,3.13979,5.684,7.93225,5.684,7.93225s-14.15143-2.5911-17.88677-3.275c-3.73508-.68394-11.53-.68394-14.291,4.78686-1.911,3.78628-.24378,8.68446,1.78641,10.39419,2.52283,2.12469,55.703,3.55576,60.89971,1.50417,5.197-2.05132-1.29912-31.72948-4.87194-37.06324S453.66194,170.42639,445.21718,180.82058Z" fill="#b89075"/><path d="M549.58757,170.08149c-7.69968-7.69968-24.72012-9.92855-37.68809-1.41833-12.968,8.51-10.53633,25.73317-7.2944,32.01452s9.52327,10.7391,9.52327,10.7391-20.02216-1.73394-23.30179,1.54569-2.22887,9.1934,0,10.004,60.98988-.20251,64.0293-1.8236S566.96209,187.456,549.58757,170.08149Z" fill="#b89075"/><path d="M438.984,139.29526s13.17634-11.45437,14.97294-11.08017c1.7971.37445-.0507,11.05266-1.048,13.7752a15.98423,15.98423,0,0,1-3.59345,5.54009C449.09084,147.53038,438.984,139.29526,438.984,139.29526Z" fill="#ffaf83"/><path d="M412.411,163.091c2.58346,2.58346,7.782,4.80265,7.782,9.74388s-.29956,12.12813.29956,19.01573c.2239,2.57556,1.87225,6.17716,3.84767,9.67713,3.86627-1.2958,11.625-1.9907,22.5078-1.06425,2.11247.17983,7.76158-4.13017,9.45985-7.22894,1.69828-3.09852.38592-14.11731-1.08081-12.65033-1.46672,1.46673-.91931,7.38662-3.55117,10.4994-4.01452,4.74788-9.68885,7.06387-13.81468,5.84373-2.193-.64829-6.88353-7.71649-7.33848-12.887-.8108-9.20792,6.73375-19.76336,5.67434-20.82278-1.05968-1.05967-11.812,5.05305-23.41311-2.55136-3.163-2.07348-2.80431-6.54779-2.80431-6.54779A10.68428,10.68428,0,0,0,412.411,163.091Z" fill="#9e6d4c"/><path d="M524.17866,174.09957c.08-.06011.14112-.10775.16278-.12914C524.37684,173.935,524.31291,173.98265,524.17866,174.09957Z" fill="#9e6d4c"/><path d="M418.73256,206.11511l-.00917.014c-1.911,3.78654-.24378,8.68472,1.78641,10.3942,1.80424,1.51945,29.50952,2.68356,47.0514,2.47367,6.92122.77233,14.3249,1.5141,21.71356,2.17538a3.03228,3.03228,0,0,0,1.5518,1.794c.92951.338,11.69866.35789,24.15157.14978,14.26.84544,25.64707,1.03292,29.13864.05273a21.74486,21.74486,0,0,0,3.04859-1.13329c4.19741-.2667,7.07992-.56728,7.6905-.89282,1.03471-.55174,2.7661-4.635,3.917-10.46119a38.76841,38.76841,0,0,0,4.188-14.05642c1.17838-11.19379-4.87652-33.99682-27.75572-45.90639A128.80982,128.80982,0,0,1,546.672,163.21757c5.44278,7.10616,8.56957,19.99135,8.56957,25.55,0,5.55843-1.85289,11.60212-5.67433,12.76011s-16.444,7.31223-19.339,7.77533-15.0542.42463-15.0542-.61746c0-1.04235,7.64288-3.93734,7.64288-3.93734s-9.07139-5.48124-6.96071-17.4736c1.07062-6.08241,7.34535-12.32529,8.32248-13.17507,1.456-4.16914-6.573-10.882-16.39228-5.12743-1.48354.86939-10.40566,17.3251-23.879,10.06789-2.45125-1.32-4.63223,3.58989-5.90587,6.60078-1.2739,3.01089-7.99033,19.74272-10.42222,21.19187-2.43189,1.4489-11.11711,2.77935-22.69732.4631C442.00022,206.71933,426.04479,202.6638,418.73256,206.11511Z" fill="#9e6d4c"/><path d="M544.11677,223.16893a21.74486,21.74486,0,0,0,3.04859-1.13329c4.19741-.2667,7.07992-.56728,7.6905-.89282,1.03471-.55174,2.7661-4.635,3.917-10.46119a34.644,34.644,0,0,0,1.51971-3.2618l-.35229-.124s-6.35853-2.93371-9.29249-2.00726c-2.93345.92645-20.22646,6.45278-21.1529,6.45278s-13.74184-1.04872-14.35955-1.04872-3.86016-3.70553-5.65676-9.88168c-1.79685-6.17614-.33318-14.413-.0107-15.1273.32274-.71451-6.98771-7.96663-13.63281-5.874-13.4331,4.23078-9.41629,33.38139-10.63185,33.1529a118.55812,118.55812,0,0,0-16.23435-2.57862c-4.25117-.405-23.31479,1.8529-25.16768,1.8529-1.85264,0-7.54429-2.07553-12.77259-3.81736a34.61715,34.61715,0,0,0-12.59-1.53907c-1.3712,3.6607.17144,8.043,2.0712,9.643,1.80424,1.51945,29.50952,2.68356,47.0514,2.47367,6.92122.77233,14.3249,1.5141,21.71356,2.17538a3.03228,3.03228,0,0,0,1.5518,1.794c.92951.338,11.69866.35789,24.15157.14978C529.23808,223.96164,540.6252,224.14912,544.11677,223.16893Z" fill="#774c2f"/><path d="M478.0015,151.27361l15.63319-9.66745-6.25333,5.92422s11.29058-5.48914,11.00121-5.19952c-.28962.28937-4.11437,3.49437-4.11437,3.49437l12.68369-3.37847-3.02719,1.97542Z" fill="#b89075"/><path d="M453.95692,128.21509s-7.33644,6.66293-8.53443,7.86092a9.67816,9.67816,0,0,0-1.87174,3.36878l4.56677-1.27262-4.26721,2.69528,4.56677-.44934-4.26721,1.87174,2.69808,1.94638h-1.7589l-7.22791-4.71655S449.6897,128.21509,453.95692,128.21509Z" fill="#b89075"/><path d="M423.75733,142.77689c.05986.72674,1.27925.63377,2.54423.3365,1.752-.4119,3.5611,1.89849,3.5611,1.89849a5.14192,5.14192,0,0,0-3.09291-3.23174C425.53763,141.4276,423.65544,141.5412,423.75733,142.77689Z" fill="#251100"/><path d="M412.17942,141.48644a7.46489,7.46489,0,0,1,2.5674,1.66847c.35637.57034-1.68783,2.94772-2.13946,3.06642-.45163.119-.725-.55862-.42794-.85563.297-.29727.45163-1.04617.11895-1.04617-.33293,0-.6735,2.47214-.9509,2.51977a.54789.54789,0,0,1-.45163-.119,8.14731,8.14731,0,0,1,0-2.75718C411.15719,142.46536,411.7018,141.32545,412.17942,141.48644Z" fill="#251100"/><path d="M417.141,156.34016a5.15431,5.15431,0,0,1-1.85825-.3719c-2.09259-.81309-4.0838-4.40859-4.16684-4.5604a.27773.27773,0,1,1,.48653-.268c.01987.03617,1.97771,3.57,3.88129,4.311a3.68721,3.68721,0,0,0,2.89219.07234,1.88366,1.88366,0,0,0,1.00694-1.18423.284.284,0,0,1,.34567-.18825.27875.27875,0,0,1,.18824.34567,2.43411,2.43411,0,0,1-1.2958,1.52608A3.35471,3.35471,0,0,1,417.141,156.34016Z" fill="#251100"/><path d="M419.95577,154.34538a.8685.8685,0,1,1-.86863-.86862A.8685.8685,0,0,1,419.95577,154.34538Z" fill="#251100"/><path d="M415.50439,207.78639c11.49538,0,22.65452,6.96809,29.73725,6.96809,5.46953,0,21.574-2.54193,28.86837-.96414,7.2944,1.57753,11.03942,3.63064,14.68153,3.63064,3.64236,0,16.26415-4.45851,24.04254-4.45851,7.77813,0,15.37668,1.30446,17.80832,1.30446,2.43138,0,17.03878-8.22187,28.579-6.144,11.54047,2.07833,16.0996,13.32383,16.0996,19.09878,0,5.77469-6.44667,15.19659-15.38076,15.19659H417.882c-7.5988,0-19.756-6.40133-19.756-16.10852C398.12605,215.36787,407.54794,207.78639,415.50439,207.78639Z" fill="#aacf15"/><path d="M567.33806,211.7413c-3.48341,5.884-9.76475,15.34535-14.52079,16.07719-6.94033,1.06782-19.69407-10.518-19.69407-10.518s4.40043,14.3137,0,16.39815c-3.71471,1.75966-14.69325-15.32905-18.02484-20.69822-.75068-.02241-1.5057-.03795-2.26428-.03795-6.32669,0-15.85634,2.94925-21.15341,4.05018,2.56613,4.62714,8.29064,15.29644,6.49455,15.29644-2.29153,0-9.45883-5.32688-9.45883-5.32688a33.318,33.318,0,0,1-23.91645,10.42222c-15.05419,0-25.24486-13.57372-25.24486-13.57372s-2.77909,11.95237-19.905,11.95237c-16.98682,0-21.11062-12.75629-21.17659-12.96364a18.43657,18.43657,0,0,0-.34745,3.49029c0,9.70719,12.15717,16.10852,19.756,16.10852H559.94024c8.93409,0,15.38076-9.4219,15.38076-15.19685A21.34522,21.34522,0,0,0,567.33806,211.7413Z" fill="#98b200"/><path d="M429.86266,217.503c0,4.7596-9.69674,8.61772-15.07432,8.61772S402.73,223.5714,402.73,218.8118c0-4.75986,6.68076-9.927,12.05833-9.927S429.86266,212.74315,429.86266,217.503Z" fill="#fff" opacity="0.2"/><path d="M483.34952,219.33934c0,2.56766-7.664,8.80087-19.14921,7.74043-5.3549-.49417-16.17245-5.48965-16.17245-8.05757,0-2.56766,13.08132-4.33242,18.45889-4.33242C471.86458,214.68978,483.34952,216.77142,483.34952,219.33934Z" fill="#fff" opacity="0.2"/><path d="M442.27787,214.48345c-.484,0-6.53633,2.98975-7.60186,6.788a9.54175,9.54175,0,0,0,0,6.13488s2.59135-6.82214,4.02981-8.26059A40.266,40.266,0,0,0,442.27787,214.48345Z" fill="#98b200"/><path d="M442.79752,215.17046a34.85771,34.85771,0,0,0-1.08081,5.77443c0,1.71407,1.46672,5.17583,1.46672,5.17583s1.54417-2.8443,1.54417-4.46539C444.7276,220.034,442.79752,215.17046,442.79752,215.17046Z" fill="#98b200"/><path d="M562.81281,197.84867c3.80743-1.21939,10.07069,14.38655-1.06782,29.5755-11.14411,15.19684-50.25078,19.154-65.65039-3.59346C480.69525,201.083,492.85293,180.01,501.40824,172.761c7.57969-6.42222,16.16481-5.71891,17.98815-2.2406,1.46393,2.79157-6.88913,8.88187-9.92855,15.16322a26.55088,26.55088,0,0,0,2.06254,25.54824c6.14074,9.50825,25.49449,14.57123,38.2597,4.23741C559.46008,207.64145,559.62565,198.86962,562.81281,197.84867Z" fill="#c29579"/><path d="M561.958,206.83268c4.65618,8.14826-8.11158,23.62683-22.813,26.866-13.66465,3.01089-32.30874-1.0421-42.04981-14.87945-4.43227-6.29638-6.61555-12.78279-8.37394-17.57372.00561,6.98746,2.02509,14.68459,7.37337,22.58524,15.39961,22.74751,54.506,18.7903,65.65039,3.59346,11.13877-15.189,4.87525-30.79489,1.06782-29.5755C562.81281,197.84867,558.71551,201.15835,561.958,206.83268Z" fill="#9e6d4c"/><ellipse cx="355.81063" cy="227.87554" rx="24.91836" ry="2.77323" fill="#d4d3d3"/><path d="M173.41457,119.81389c-1.08413,2.5967,6.45915,6.52,7.11456,10.92072.65593,4.40094,2.30581,15.47271,6.35369,18.47061s18.88506,1.30115,22.85373-.83347c3.96892-2.13463,13.09151-8.81,12.54155-12.50029-.5497-3.69076-4.91778-10.53862-3.675-14.00522,1.24307-3.46635,15.36165-4.23385,14.36413-10.92668-.99726-6.69286-17.03139-9.08211-20.12711-7.08886-3.096,1.99327-4.24148,6.96526-6.422,7.29012-2.181.32513-6.82494-2.06941-10.39037-.68081-3.56569,1.3886-4.82532,6.70318-6.33815,6.92861S175.94224,113.76065,173.41457,119.81389Z" fill="#69250e"/><path d="M42.24293,78.175c0,3.76479,19.75954,14.47886,22.47647,17.1956,2.71694,2.71706,12.62129,39.31336,22.66345,51.12791,30.44055,35.81457,128.566-17.38521,126.27473-19.26562C199.2099,115.37718,140.60529,141.502,123.31535,139.279c-17.28944-2.223-33.574-6.36948-31.35223-20.038,4.229-26.01839-11.381-39.0221-25.6025-35.11326C54.46837,87.39639,42.24293,76.6334,42.24293,78.175Z" fill="#fff" opacity="0.1"/><path d="M63.632,147.76549a91.29872,91.29872,0,0,0,21.98765-11.25033,51.89536,51.89536,0,0,0,17.35566-21.62051l4.39178,4.38584s-3.52825,10.9011-17.43693,21.99376c-10.67872,8.51659-24.08381,12.72012-24.08381,12.72012Z" fill="#251100"/><path d="M250.46762,104.5837c5.15927-4.95245,13.5108-15.68668,12.47253-17.78307-1.28-2.58338-5.07521-1.83914-4.61517-3.20255.46-1.36371,2.6693-4.16346,1.54594-7.95937-.84162-2.84389-5.63994-4.80306-8.36477-5.73226.0135.131.03006.262.04127.39272,1.47437,17.05274-14.70522,29.58816-17.26728,31.46049-.47838,1.07174-.75552,1.69565-.75552,1.69565,1.27975,2.58368,10.329,5.293,14.01949,3.46486a13.74646,13.74646,0,0,0,2.77322-2.19451c-.0759-.02993-.15029-.06342-.22619-.09277h.00025C250.21723,104.61868,250.3423,104.59939,250.46762,104.5837Z" fill="#69250e"/></g></g></g></svg>