<svg xmlns="http://www.w3.org/2000/svg" xmlns:xlink="http://www.w3.org/1999/xlink" viewBox="0 0 253.69905 211.8803"><defs><linearGradient id="2fbb7c5d-41b3-4106-8b30-3accbedd89c2" x1="19.98395" y1="51.08311" x2="120.79375" y2="51.08311" gradientUnits="userSpaceOnUse"><stop offset="0" stop-color="#fff7ee"/><stop offset="0.43539" stop-color="#fdf4ed"/><stop offset="0.72127" stop-color="#f5ece9"/><stop offset="0.9639" stop-color="#e8dde2"/><stop offset="0.99617" stop-color="#e6dae1"/></linearGradient><linearGradient id="24b30713-ae8c-4a3d-90fb-c13e22fe0030" x1="3622.13734" y1="195.42724" x2="3633.28323" y2="195.42724" gradientTransform="matrix(-1, 0, 0, 1, 3744.10971, 0)" gradientUnits="userSpaceOnUse"><stop offset="0" stop-color="#fff7ee"/><stop offset="0.43907" stop-color="#ebdede"/><stop offset="1" stop-color="#d5c1cc"/></linearGradient><linearGradient id="92ccf7cd-5c56-434e-a074-b8b5a79361f6" x1="3632.15555" y1="180.5566" x2="3632.21745" y2="180.5566" xlink:href="#24b30713-ae8c-4a3d-90fb-c13e22fe0030"/><linearGradient id="a4b5b360-3841-4d56-9901-433a849c8daf" x1="179.56686" y1="165.73393" x2="253.69905" y2="165.73393" gradientTransform="translate(279.72085 -99.62899) rotate(65.95572)" gradientUnits="userSpaceOnUse"><stop offset="0" stop-color="#fff7ee"/><stop offset="0.99617" stop-color="#e6dae1"/></linearGradient><linearGradient id="691ce7a5-09a6-4402-9410-0f28206b41d1" x1="400.35796" y1="165.73379" x2="470.20067" y2="165.73379" gradientTransform="matrix(-1, 0, 0, 1, 651.91201, 0)" xlink:href="#a4b5b360-3841-4d56-9901-433a849c8daf"/><linearGradient id="f1b7fe9e-6d88-4e2a-a655-20f657052ce7" x1="408.66866" y1="184.1302" x2="415.85785" y2="184.1302" gradientTransform="matrix(-1, 0, 0, 1, 651.91201, 0)" xlink:href="#24b30713-ae8c-4a3d-90fb-c13e22fe0030"/><linearGradient id="ccd0afc7-93ff-42b4-8949-b0ff017e89ad" x1="427.26186" y1="198.14626" x2="432.71585" y2="198.14626" gradientTransform="matrix(-1, 0, 0, 1, 651.91201, 0)" xlink:href="#24b30713-ae8c-4a3d-90fb-c13e22fe0030"/><linearGradient id="76132225-c52d-4212-ad62-c8a9fe6f701d" x1="453.19359" y1="190.84335" x2="459.83112" y2="190.84335" gradientTransform="matrix(-1, 0, 0, 1, 651.91201, 0)" xlink:href="#24b30713-ae8c-4a3d-90fb-c13e22fe0030"/><linearGradient id="cc77eb97-1631-4077-b7ae-e16d67191185" x1="398.51423" y1="172.23112" x2="472.34515" y2="172.23112" gradientTransform="matrix(-1, 0, 0, 1, 651.91201, 0)" gradientUnits="userSpaceOnUse"><stop offset="0.00383" stop-color="#e6dae1"/><stop offset="0.0361" stop-color="#e8dde2"/><stop offset="0.27873" stop-color="#f5ece9"/><stop offset="0.56461" stop-color="#fdf4ed"/><stop offset="1" stop-color="#fff7ee"/></linearGradient></defs><title>banner_part1a</title><g style="isolation:isolate"><g id="57db9766-b372-4094-b16a-12ad886e91d0" data-name="Layer 2"><g id="66f0d857-c191-4a25-9dea-d11c9387ca3d" data-name="Layer 1"><path d="M60.525,145.65371a13.38626,13.38626,0,0,1-2.65936.40451c-1.09228,0-4.56779-1.89365-5.75916-7.65331-1.19187-5.75941,3.07814-12.71044,2.28364-13.50494-.79424-.7945-6.74419,3.68312-7.54684,12.64446a16.44313,16.44313,0,0,0,4.86583,13.67026,16.63185,16.63185,0,0,0,4.27,2.88S59.31173,152.20711,60.525,145.65371Z" fill="#f8e9cc"/><path d="M120.79375,42.01549A54.39206,54.39206,0,0,0,106.82571,5.55c6.63364,11.04732,10.96963,21.76858,10.96963,34.84723,0,10.51188-7.70044,43.94206-53.35389,44.8-23.79749.447-37.13125-6.93694-44.4575-14.10971a54.59531,54.59531,0,0,0,100.8098-29.072Z" fill="url(#2fbb7c5d-41b3-4106-8b30-3accbedd89c2)"/><path d="M52.64523,203.65028c-3.14564,3.14564,15.8864,6.06941,21.3735,6.06941,5.48736,0,18.50831-.70075,24.52194-.70075s14.64867,2.86136,23.70452,2.86136c9.05559,0,18.018-3.651,18.018-6.0363,0-2.385-33.50214-4.89078-41.39821-4.89078s-20.56856-1.24206-24.84621-1.24206C69.74133,199.71116,55.03968,201.25583,52.64523,203.65028Z" fill="#d4d3d3"/><path d="M0,174.81782c0,4.92976,10.652,6.17717,20.76877,6.17717s114.68434-2.75744,114.68434-5.04923c0-2.29154-60.08687-2.93574-79.77992-4.2369S0,172.01046,0,174.81782Z" fill="#d4d3d3"/><rect x="1.49577" y="104.89844" width="123.90933" height="13.90792" fill="#69250e"/><path d="M13.24944,175.49184h0a4.51218,4.51218,0,0,1-3.68057-5.21277l9.33453-54.18124a4.51234,4.51234,0,0,1,5.21276-3.68083h0A4.51259,4.51259,0,0,1,27.797,117.63l-9.33452,54.18124A4.51229,4.51229,0,0,1,13.24944,175.49184Z" fill="#69250e"/><path d="M118.49813,175.49184h0a4.51235,4.51235,0,0,0,3.68083-5.21277l-9.33452-54.18124a4.51247,4.51247,0,0,0-5.213-3.68083h0a4.51241,4.51241,0,0,0-3.68057,5.213l9.33452,54.18124A4.51218,4.51218,0,0,0,118.49813,175.49184Z" fill="#69250e"/><polygon points="25.651 5.445 30.544 0 102.86 0 106.826 5.55 25.651 5.445" fill="#ededed"/><path d="M106.73478,5.44457H25.65115a54.60079,54.60079,0,1,0,81.08363,0Z" fill="#dae7c5"/><path d="M106.73478,5.44457H25.65115a54.60079,54.60079,0,1,0,81.08363,0Z" fill="#d9f9ee"/><path d="M26.0256,78.99536a54.59192,54.59192,0,0,0,80.33472,0Z" fill="#f8e9cc"/><rect x="39.47195" y="90.44719" width="53.44177" height="6.16901" fill="#695554"/><path d="M39.472,90.44719s-1.34038,6.93472-2.36592,11.52009c-.48271,2.15806-.00585,2.93116.54843,2.93116.86888,0,1.53143-.58282,2.36159-2.32185,1.17557-2.463,2.68255-5.96039,2.68255-5.96039Z" fill="#695554"/><path d="M93.0044,90.44719s1.34038,6.93472,2.36592,11.52009c.48271,2.15806.00586,2.93116-.54817,2.93116-.86914,0-1.53169-.58282-2.36185-2.32185-1.17557-2.463-2.68254-5.96039-2.68254-5.96039Z" fill="#695554"/><path d="M69.7719,38.58873A8.446,8.446,0,0,0,72.361,36.87385c1.16-1.16008,5.19493-7.969,9.58288-11.85264,4.38821-3.88359,12.60931-7.36395,13.31542-6.65758.70611.70585-3.02617,5.0938-3.02617,6.15322,0,1.05916-2.62269,4.03489-2.62269,4.36273s.05044,2.29482.05044,3.40442-1.816,3.581-1.816,3.581a1.489,1.489,0,0,1,.35331,1.46262c-.20175,1.0088-4.64039,6.002-4.943,7.96913-.30236,1.967,2.16876,5.24545,2.52207,6.20378.35305.95817-.05044,4.47206.20149,5.21179.25244.73973,2.87512,7.64958,2.5725,9.667S87.34077,69.91,87.54252,70.76748c.20174.85736.30236,6.10281-.30262,6.10281-.60523,0-4.18646-4.43842-8.67529-12.60931-4.48882-8.17072-6.75539-14.317-10.43877-16.4389S65.72019,38.58873,69.7719,38.58873Z" fill="#ff7c36"/><path d="M69.7719,38.58873A8.446,8.446,0,0,0,72.361,36.87385c1.16-1.16008,5.19493-7.969,9.58288-11.85264,4.38821-3.88359,12.60931-7.36395,13.31542-6.65758.70611.70585-3.02617,5.0938-3.02617,6.15322,0,1.05916-2.62269,4.03489-2.62269,4.36273s.05044,2.29482.05044,3.40442-1.816,3.581-1.816,3.581a1.489,1.489,0,0,1,.35331,1.46262c-.20175,1.0088-4.64039,6.002-4.943,7.96913-.30236,1.967,2.16876,5.24545,2.52207,6.20378.35305.95817-.05044,4.47206.20149,5.21179.25244.73973,2.87512,7.64958,2.5725,9.667S87.34077,69.91,87.54252,70.76748c.20174.85736.30236,6.10281-.30262,6.10281-.60523,0-4.18646-4.43842-8.67529-12.60931-4.48882-8.17072-6.75539-14.317-10.43877-16.4389S65.72019,38.58873,69.7719,38.58873Z" fill="#f15a24"/><path d="M70.62473,39.98989s1.372-.89486,3.28141-2.42731c.96415-.75254,2.0554-1.675,3.16118-2.72768a28.31044,28.31044,0,0,0,3.164-3.57272,26.62948,26.62948,0,0,1,3.13927-3.6565,13.41948,13.41948,0,0,1,3.557-2.24619,13.05947,13.05947,0,0,1,2.79768-.99854,4.01848,4.01848,0,0,1,.82634-.10062,1.02011,1.02011,0,0,1,.29167.03312,1.0119,1.0119,0,0,0-.29116-.016,3.985,3.985,0,0,0-.81156.147,16.4173,16.4173,0,0,0-2.72483,1.11647,13.1678,13.1678,0,0,0-3.45183,2.27473,31.112,31.112,0,0,0-3.0547,3.6632,29.14591,29.14591,0,0,1-3.26358,3.54556c-1.13176,1.04128-2.24314,1.949-3.2241,2.6882A39.50224,39.50224,0,0,1,70.62473,39.98989Z" fill="#fc9c2e"/><path d="M70.76712,41.8947a5.57948,5.57948,0,0,0,.71936-.12344c.45494-.09466,1.09278-.27959,1.85722-.4995a40.58973,40.58973,0,0,0,5.47386-1.97195c1.9339-.86269,3.8036-1.87366,5.20639-2.62872,1.39668-.77107,2.32746-1.28521,2.32746-1.28521a49.82263,49.82263,0,0,1-7.383,4.2478,31.02919,31.02919,0,0,1-5.57193,1.83667,18.95238,18.95238,0,0,1-1.89951.36138A5.61418,5.61418,0,0,1,70.76712,41.8947Z" fill="#fc9c2e"/><path d="M70.38885,44.00311s.73515.01068,1.82971.102c1.09508.08928,2.54831.26291,3.99975.44032a31.36,31.36,0,0,1,3.97376.6811c1.06757.27189,1.75916.51847,1.75916.51847L80.149,45.4326c-1.07928-.19528-2.51824-.35453-3.97758-.52648-1.44966-.19993-2.89652-.41385-3.9786-.59963-.54054-.095-.99115-.17426-1.30651-.22974C70.57175,44.0211,70.38885,44.00311,70.38885,44.00311Z" fill="#fc9c2e"/><path d="M69.38522,45.745a5.77385,5.77385,0,0,1,.78788.2141c.49417.1616,1.19977.3972,2.02585.73092.82812.32855,1.79176.72139,2.79794,1.20372A22.14519,22.14519,0,0,1,78.073,49.5766a52.9606,52.9606,0,0,1,4.96211,4.259c1.27058,1.24689,2.11781,2.07809,2.11781,2.07809S84.255,55.1386,82.90824,53.976c-.6763-.57629-1.4657-1.24856-2.31115-1.969-.8541-.7099-1.75355-1.477-2.722-2.14221a49.134,49.134,0,0,0-5.76246-2.97044c-.81259-.36021-1.48965-.66026-1.96345-.87036A5.7476,5.7476,0,0,0,69.38522,45.745Z" fill="#fc9c2e"/><path d="M68.93359,46.44873s.351.27425.97561.7419c.618.47566,1.51206,1.14608,2.51213,2.03793a36.22509,36.22509,0,0,1,6.48284,7.36669c.92109,1.54777,1.72323,3.12486,2.5511,4.581.81615,1.45763,1.578,2.81831,2.23117,3.98456.65134,1.16709,1.19417,2.13972,1.57422,2.82066.38107.68091.63249,1.04844.63249,1.04844s-.27052-.35538-.68547-1.01663c-.41368-.66127-1.01815-1.59893-1.69242-2.75366-.6735-1.15527-1.45908-2.50294-2.301-3.94692-.848-1.43549-1.69573-3.02141-2.62014-4.52421a35.95626,35.95626,0,0,0-6.30478-7.41384c-.985-.89934-1.81774-1.63907-2.41839-2.13605C69.27085,46.74045,68.93359,46.44873,68.93359,46.44873Z" fill="#fc9c2e"/><path d="M42.34351,34.99518s6.51391-7.85565,8.32962-9.67161c1.8157-1.8157,7.71674-4.89206,8.06979-4.89206s-.9835,2.799-.65567,3.12705c.32784.32783,2.42119.65541,3.42966,1.66439a14.15546,14.15546,0,0,1,1.86614,2.49023,20.75216,20.75216,0,0,1,2.72382,2.09947c.95828.95821,3.27835,6.20366,3.27835,6.40543s-1.71509,1.10959-1.71509,1.10959Z" fill="#ff7c36"/><path d="M42.34351,34.99518s6.51391-7.85565,8.32962-9.67161c1.8157-1.8157,7.71674-4.89206,8.06979-4.89206s-.9835,2.799-.65567,3.12705c.32784.32783,2.42119.65541,3.42966,1.66439a14.15546,14.15546,0,0,1,1.86614,2.49023,20.75216,20.75216,0,0,1,2.72382,2.09947c.95828.95821,3.27835,6.20366,3.27835,6.40543s-1.71509,1.10959-1.71509,1.10959Z" fill="#f15a24"/><path d="M46.25257,33.12s.61109-.72656,1.56836-1.77668c.95243-1.05481,2.25384-2.43039,3.58327-3.77841.66509-.67121,1.32484-1.362,2.01057-1.93314.67477-.58078,1.31465-1.10858,1.87047-1.5518L57.169,22.64332s-.70865.6279-1.77189,1.57014c-.53034.471-1.1506,1.01917-1.79583,1.62492-.64879.60167-1.30217,1.27619-1.94969,1.9693-1.30829,1.36866-2.64459,2.71011-3.67013,3.69311C46.9602,32.48809,46.25257,33.12,46.25257,33.12Z" fill="#fc9c2e"/><path d="M49.86564,33.12s.50538-.60027,1.30319-1.462c.79551-.8642,1.88957-1.98347,3.02566-3.0625a19.02711,19.02711,0,0,1,1.75-1.51462c.6088-.42565,1.19849-.77615,1.70948-1.06833,1.03292-.564,1.74056-.89919,1.74056-.89919s-.67478.39891-1.64759,1.052c-.48984.31892-1.0612.69694-1.632,1.14271-.55837.44756-1.116,1.00185-1.67611,1.54315-1.12514,1.08259-2.249,2.16964-3.11584,2.96119C50.45992,32.60789,49.86564,33.12,49.86564,33.12Z" fill="#fc9c2e"/><path d="M53.71586,33.12s.34719-.49165.93383-1.17308a17.11643,17.11643,0,0,1,2.34911-2.32839,16.87356,16.87356,0,0,1,1.51945-.9132c.49061-.27129.94861-.52449,1.34089-.74152.79705-.4147,1.32816-.69108,1.32816-.69108s-.49418.33752-1.23518.84315c-.37675.24327-.8159.52729-1.28638.83118-.45291.31612-1.01891.592-1.45679.94352-.89818.74831-1.73725,1.60766-2.39445,2.21313C54.16622,32.72167,53.71586,33.12,53.71586,33.12Z" fill="#fc9c2e"/><path d="M57.97874,33.36909s.23537-.28173.60854-.68157c.37292-.40018.903-.89734,1.43616-1.39067.55-.47484,1.103-.94565,1.54264-1.27125.43915-.32605.74584-.52805.74584-.52805s-.23511.28224-.60829.68191c-.37292.40031-.903.89731-1.43641,1.39046-.55022.47433-1.10349.94517-1.54289,1.27087C58.28492,33.16684,57.97874,33.36909,57.97874,33.36909Z" fill="#fc9c2e"/><path d="M58.56461,57.48809a4.70046,4.70046,0,0,1,2.59925-.23775,9.08735,9.08735,0,0,1,2.28644.84053,11.18481,11.18481,0,0,0-.67248-3.766,7.33983,7.33983,0,0,0-2.371-2.6284Z" fill="#ff7c36"/><path d="M58.56461,57.48809a4.70046,4.70046,0,0,1,2.59925-.23775,9.08735,9.08735,0,0,1,2.28644.84053,11.18481,11.18481,0,0,0-.67248-3.766,7.33983,7.33983,0,0,0-2.371-2.6284Z" fill="#f15a24"/><path d="M30.96886,51.90392c-.15462-.83635,3.63268-9.84877,6.58652-13.07595,3.63548-3.97172,10.29306-7.435,16.9509-7.03147,6.65758.40352,14.49226,6.01883,15.26562,6.79223a6.00368,6.00368,0,0,1,1.21047,5.04368c-.67249,2.75718-2.62269,4.23664-3.02618,4.23664a8.786,8.786,0,0,0-4.37139.73973A21.94991,21.94991,0,0,0,60.42413,50.828s.40349,7.66641-6.65758,10.62536c-7.06133,2.95893-12.71019.40352-15.80361-1.21039C34.86952,58.62885,31.30536,53.71978,30.96886,51.90392Z" fill="#fc9c2e"/><path d="M37.96294,60.24294a23.909,23.909,0,0,0,4.87015,1.97045c.85105-1.86183,4.87652-11.17249,2.86137-16.56A10.8574,10.8574,0,0,0,37.55538,38.828l-2.5776,19.04765A12.77039,12.77039,0,0,0,37.96294,60.24294Z" fill="#f15a24"/><path d="M38.82138,60.67812a3.20446,3.20446,0,0,0,3.02515-1.46082c.75654-1.1096,4.89231-7.36369,3.27861-13.11362-1.61421-5.74976-7.46482-7.21241-8.01961-7.21241s-6.9602,7.91867-7.41439,11.04572c-.45367,3.127,1.27441,3.78279,1.27441,3.78279a1.50218,1.50218,0,0,0,.08559,1.0188C31.369,55.29621,35.2916,59.91954,38.82138,60.67812Z" fill="#fc9c2e"/><path d="M45.27619,58.86427s13.71891,18.006,14.27371,18.006-.25218-9.58306-.60523-10.49089.20174-2.1389-.25218-3.56607a8.29641,8.29641,0,0,0-4.64014-5.05867,14.8705,14.8705,0,0,0-7.11176-.95832Z" fill="#ff7c36"/><path d="M30.78826,51.34248c0,.24723.0349.69973-.10087.69973s-.39076-.4525-.39076-.69973.11005-.44751.24582-.44751S30.78826,51.09524,30.78826,51.34248Z" fill="#251100"/><path d="M32.91117,54.27275a4.71438,4.71438,0,0,1-2.04776-.35871.21994.21994,0,0,1,.20276-.39036,5.14853,5.14853,0,0,0,2.54041.27857,2.42784,2.42784,0,0,0,2.09055-1.0363.21979.21979,0,0,1,.3961.19061,2.82071,2.82071,0,0,1-2.44946,1.284C33.38089,54.26275,33.1366,54.27275,32.91117,54.27275Z" fill="#251100"/><path d="M36.1615,52.719a.48234.48234,0,1,1-.48245-.47866A.48054.48054,0,0,1,36.1615,52.719Z" fill="#251100"/><path d="M38.22149,48.18043a2.21181,2.21181,0,1,1-2.21181-2.21171A2.21176,2.21176,0,0,1,38.22149,48.18043Z" fill="#e2c9a2"/><path d="M36.00968,49.55912a1.37876,1.37876,0,1,1,1.3791-1.37884A1.38,1.38,0,0,1,36.00968,49.55912Z" fill="#251100"/><path d="M35.45692,49.35086A1.37876,1.37876,0,1,1,36.836,47.972,1.3801,1.3801,0,0,1,35.45692,49.35086Z" fill="#fff" opacity="0.3"/><path d="M45.27619,58.86427s13.71891,18.006,14.27371,18.006-.25218-9.58306-.60523-10.49089.20174-2.1389-.25218-3.56607a8.29641,8.29641,0,0,0-4.64014-5.05867,14.8705,14.8705,0,0,0-7.11176-.95832Z" fill="#f15a24"/><path d="M46.25257,58.48756s.76418.83553,1.91046,2.08908c1.13736,1.26121,2.61657,2.97428,4.09221,4.69064C53.71153,67,55.164,68.73587,56.22493,70.06173l1.75381,2.22253s-.76444-.83554-1.911-2.0889c-1.13736-1.26088-2.61631-2.97426-4.0917-4.69083-1.456-1.73286-2.90823-3.46891-3.96969-4.79477C46.95409,59.37641,46.25257,58.48756,46.25257,58.48756Z" fill="#fff" opacity="0.1"/><path d="M46.71821,57.99857s.69694.61594,1.74234,1.53994c1.03751.93234,2.38655,2.21072,3.73254,3.49259,1.32815,1.3,2.653,2.60355,3.62071,3.60787.95982,1.013,1.59944,1.68806,1.59944,1.68806s-.69694-.61578-1.7426-1.53963c-1.03751-.93216-2.38655-2.21069-3.732-3.49289-1.32816-1.30021-2.65275-2.60391-3.62071-3.6082Z" fill="#fff" opacity="0.1"/><path d="M47.02363,57.48809s.65771.41268,1.64453,1.03179c.97968.62877,2.25817,1.507,3.53359,2.38915,1.26091.90283,2.51926,1.80985,3.44138,2.52026L57.169,64.6297l-1.64478-1.03163c-.97994-.62844-2.25791-1.507-3.53333-2.38948-1.26091-.90319-2.51876-1.81035-3.44113-2.52059C47.63422,57.96808,47.02363,57.48809,47.02363,57.48809Z" fill="#fff" opacity="0.1"/><path d="M47.207,56.95978s.56167.18627,1.39234.49316c.83067.30655,1.91862.76022,3.00452,1.2184,1.076.48131,2.15017.96716,2.94084,1.3655.79119.39768,1.31007.68193,1.31007.68193s-.56168-.18562-1.39234-.49267c-.83067-.30638-1.91862-.76039-3.00453-1.2189-1.07571-.48149-2.14965-.96764-2.94058-1.36583C47.72643,57.24351,47.207,56.95978,47.207,56.95978Z" fill="#fff" opacity="0.1"/><path d="M44.49469,58.91474a2.05643,2.05643,0,0,0,2.52155-3.00108,4.52511,4.52511,0,0,0-1.66439,1.22322A4.6123,4.6123,0,0,0,44.49469,58.91474Z" fill="#fca643"/><path d="M42.53175,36.66925a1.65575,1.65575,0,0,1,.60906-.2869,1.3713,1.3713,0,0,1,1.43514.46549,1.71538,1.71538,0,0,1,.2132.36271,1.64914,1.64914,0,0,1,.12864.4,1.49585,1.49585,0,0,1-.06445.7194,1.32955,1.32955,0,0,1-.3747.56129,1.63357,1.63357,0,0,0,.17907-.6091,1.46716,1.46716,0,0,0-.04738-.605,1.34246,1.34246,0,0,0-.12-.30921,1.3804,1.3804,0,0,0-.19844-.29505,1.30851,1.30851,0,0,0-1.12258-.48233A2.70789,2.70789,0,0,0,42.53175,36.66925Z" fill="#fbb03b"/><path d="M44.78228,38.97959a1.65233,1.65233,0,0,1,.60905-.2869,1.37051,1.37051,0,0,1,1.43489.46549,1.70466,1.70466,0,0,1,.21346.36255,1.65136,1.65136,0,0,1,.12864.4,1.49577,1.49577,0,0,1-.06445.7194,1.32818,1.32818,0,0,1-.3747.5613,1.63349,1.63349,0,0,0,.17907-.609,1.46284,1.46284,0,0,0-.04764-.605,1.324,1.324,0,0,0-.11972-.30922,1.38233,1.38233,0,0,0-.19843-.29523,1.30794,1.30794,0,0,0-1.12259-.48215A2.69654,2.69654,0,0,0,44.78228,38.97959Z" fill="#fbb03b"/><path d="M45.49552,36.55628a1.65545,1.65545,0,0,1,.60905-.28688,1.3713,1.3713,0,0,1,1.43514.4655,1.71464,1.71464,0,0,1,.21321.3627,1.64928,1.64928,0,0,1,.12864.4,1.495,1.495,0,0,1-.06445.71922,1.32942,1.32942,0,0,1-.37471.56148,1.63356,1.63356,0,0,0,.17908-.60911,1.46706,1.46706,0,0,0-.04738-.605,1.34151,1.34151,0,0,0-.12-.30922,1.38121,1.38121,0,0,0-.19843-.29508,1.30855,1.30855,0,0,0-1.12259-.48232A2.70775,2.70775,0,0,0,45.49552,36.55628Z" fill="#fbb03b"/><path d="M49.10884,45.9739a1.65394,1.65394,0,0,1,.66739.08981,1.37053,1.37053,0,0,1,.95217,1.17007,1.71791,1.71791,0,0,1-.01758.42035,1.6488,1.6488,0,0,1-.10927.40569,1.49489,1.49489,0,0,1-.44476.56914,1.32751,1.32751,0,0,1-.61924.26789,1.63585,1.63585,0,0,0,.48092-.41419,1.45763,1.45763,0,0,0,.28861-.5338,1.33331,1.33331,0,0,0,.06725-.32473,1.38384,1.38384,0,0,0-.00637-.3557,1.3087,1.3087,0,0,0-.68089-1.01446A2.70618,2.70618,0,0,0,49.10884,45.9739Z" fill="#fbb03b"/><path d="M49.74439,49.13594a1.65406,1.65406,0,0,1,.66738.08979A1.3707,1.3707,0,0,1,51.364,50.3958a1.72927,1.72927,0,0,1-.01758.4202,1.65891,1.65891,0,0,1-.10928.40584,1.493,1.493,0,0,1-.445.569,1.32882,1.32882,0,0,1-.61924.26807,1.63885,1.63885,0,0,0,.48093-.41419,1.46006,1.46006,0,0,0,.2886-.5338,1.3208,1.3208,0,0,0,.06725-.32471,1.38428,1.38428,0,0,0-.00611-.3557,1.30877,1.30877,0,0,0-.68115-1.01448A2.69177,2.69177,0,0,0,49.74439,49.13594Z" fill="#fbb03b"/><path d="M51.65918,47.48818a1.655,1.655,0,0,1,.66713.09,1.37,1.37,0,0,1,.95218,1.17009,1.70393,1.70393,0,0,1-.01758.42018,1.648,1.648,0,0,1-.10928.40586,1.49262,1.49262,0,0,1-.44475.569,1.32937,1.32937,0,0,1-.61925.26808,1.63943,1.63943,0,0,0,.48093-.41419,1.46052,1.46052,0,0,0,.28861-.53381,1.33293,1.33293,0,0,0,.06724-.32488,1.38269,1.38269,0,0,0-.00636-.35555,1.30844,1.30844,0,0,0-.68089-1.01446A2.69835,2.69835,0,0,0,51.65918,47.48818Z" fill="#fbb03b"/><path d="M50.384,34.63716a1.65241,1.65241,0,0,1,.66739.09,1.37042,1.37042,0,0,1,.95217,1.16989,1.71765,1.71765,0,0,1-.01757.42035,1.67221,1.67221,0,0,1-.10928.40571,1.4971,1.4971,0,0,1-.44476.56911,1.33027,1.33027,0,0,1-.6195.26808,1.63853,1.63853,0,0,0,.48093-.41437,1.4576,1.4576,0,0,0,.28861-.53381,1.32107,1.32107,0,0,0,.06724-.3247,1.38313,1.38313,0,0,0-.00611-.35555A1.30846,1.30846,0,0,0,50.962,34.9172,2.70859,2.70859,0,0,0,50.384,34.63716Z" fill="#fbb03b"/><path d="M51.0193,37.79918a1.655,1.655,0,0,1,.66764.08979,1.37034,1.37034,0,0,1,.95192,1.17009,1.70575,1.70575,0,0,1-.01757.42036,1.64885,1.64885,0,0,1-.10928.40568,1.49445,1.49445,0,0,1-.44476.56911,1.32739,1.32739,0,0,1-.61924.26792,1.636,1.636,0,0,0,.48093-.41418,1.4576,1.4576,0,0,0,.2886-.53381,1.33276,1.33276,0,0,0,.06725-.32473,1.38339,1.38339,0,0,0-.00637-.3557,1.30868,1.30868,0,0,0-.68089-1.01446A2.69963,2.69963,0,0,0,51.0193,37.79918Z" fill="#fbb03b"/><path d="M52.93409,36.15159a1.65407,1.65407,0,0,1,.66739.08982,1.37032,1.37032,0,0,1,.95218,1.17007,1.718,1.718,0,0,1-.01758.42035,1.63784,1.63784,0,0,1-.10953.40568,1.4918,1.4918,0,0,1-.4445.56914,1.32782,1.32782,0,0,1-.6195.2679,1.63842,1.63842,0,0,0,.48118-.41419,1.46636,1.46636,0,0,0,.28861-.53381,1.33318,1.33318,0,0,0,.06725-.3247,1.39559,1.39559,0,0,0-.00637-.3557,1.30813,1.30813,0,0,0-.68115-1.01448A2.70176,2.70176,0,0,0,52.93409,36.15159Z" fill="#fbb03b"/><path d="M58.327,34.96787a1.6558,1.6558,0,0,1,.65109.17158,1.37048,1.37048,0,0,1,.80061,1.27856,1.72069,1.72069,0,0,1-.06929.415,1.65885,1.65885,0,0,1-.15869.389,1.49255,1.49255,0,0,1-.51175.51,1.32858,1.32858,0,0,1-.64752.18944,1.638,1.638,0,0,0,.52856-.3517,1.45833,1.45833,0,0,0,.352-.494,1.33427,1.33427,0,0,0,.107-.31405,1.39,1.39,0,0,0,.03744-.35372,1.308,1.308,0,0,0-.55046-1.09077A2.70147,2.70147,0,0,0,58.327,34.96787Z" fill="#fbb03b"/><path d="M61.99147,37.41449a1.65165,1.65165,0,0,1,.65109.17161,1.37024,1.37024,0,0,1,.80061,1.27853,1.70576,1.70576,0,0,1-.06954.41485,1.64951,1.64951,0,0,1-.15844.3892,1.49288,1.49288,0,0,1-.51175.50981,1.328,1.328,0,0,1-.64752.1896,1.63819,1.63819,0,0,0,.52856-.35171,1.45881,1.45881,0,0,0,.352-.49417,1.333,1.333,0,0,0,.107-.31388,1.39,1.39,0,0,0,.03745-.35371,1.30842,1.30842,0,0,0-.55047-1.09077A2.70147,2.70147,0,0,0,61.99147,37.41449Z" fill="#fbb03b"/><path d="M75.55194,195.03664l.1671,3.25848a13.21367,13.21367,0,0,1,3.76311,1.30829,3.69363,3.69363,0,0,1,.741,3.05572,41.05183,41.05183,0,0,1-7.39145-.54461c-.902-.3719-2.29078-7.17188-2.29078-7.17188Z" fill="#e8b586"/><path d="M75.55194,195.03664l.1671,3.25848a13.21367,13.21367,0,0,1,3.76311,1.30829,3.69363,3.69363,0,0,1,.741,3.05572,41.05183,41.05183,0,0,1-7.39145-.54461c-.902-.3719-2.29078-7.17188-2.29078-7.17188Z" fill="#e2a26d"/><path d="M129.5452,199.18565a44.36548,44.36548,0,0,0,.61185,4.39891c.17373.174,2.33357-.44679,2.97905.19869s1.88652,2.8797.64548,3.12806c-1.24129.24811-6.40489.69516-7.1,0s-2.07935-7.29185-2.07935-7.29185Z" fill="#e8b586"/><path d="M129.5452,199.18565s.06444.62027.15334,1.39388c-1.11036.57925-2.56511,1.31618-2.56511,2.1094,0,1.282-.80342,3.44113,1.03751,3.44113,1.36177,0,4.23231-.44909,5.97414-.68344.25346.68879.27231,1.33758-.36375,1.46469-1.241.24811-6.40464.69516-7.1,0-.69489-.69515-2.07909-7.29185-2.07909-7.29185Z" fill="#e2a26d"/><path d="M92.61416,172.47916a61.30031,61.30031,0,0,0-5.39617,7.571c-1.64733,3.05929-9.764,13.55563-10.74113,14.533-.97739.97739-4.90964,1.38547-5.93594.35942-1.02579-1.0263-1.36076-3.44545-1.91683-7.70247a28.99961,28.99961,0,0,0-1.52327-5.89875l20.675-19.2646Z" fill="#157a75"/><path d="M61.58951,195.19381c0,.19843-.42183,3.69891.298,4.41877,0,0,2.78036,1.66669,3.27683,2.64561a2.91617,2.91617,0,0,1,0,2.17054,29.53215,29.53215,0,0,1-6.05719,0c-1.68808-.39712-2.68127-1.56047-2.68127-2.17054v-7.44138Z" fill="#efd7ac"/><path d="M64.12177,143.072s-2.87971.86073-6.35522,5.99121a25.97855,25.97855,0,0,0-3.81711,11.688l5.70363,2.41788,7.44775-7.78348Z" fill="#f2debb"/><path d="M89.90691,141.318s-10.09566-1.92014-16.55022-1.32408c-6.45456.59581-9.23492,3.07814-9.23492,3.07814a25.45728,25.45728,0,0,1-3.37617,8.73871c-2.48259,3.57486-6.85169,7.38636-6.85169,9.37223,0,1.98611,3.57486,11.48774,3.17748,15.3265-.39712,3.83875-1.68808,16.05273-1.68808,17.443,0,1.39006,2.8797,2.97905,4.26976,2.97905a4.88086,4.88086,0,0,0,3.47577-1.09227c.79424-.7945,3.972-6.65325,7.05037-10.82392C73.25735,180.8447,88.61263,171.866,88.61263,171.866Z" fill="#4d9999"/><path d="M67.81355,182.99843a7.12458,7.12458,0,0,1,1.36687-6.489c.63784-.6381-2.0796-3.17494-2.0796-4.89436,0-1.71916.71273-4.44908.71273-5.64809s-1.43947-4.147-1.43947-6.61428,1.5811-2.94262,2.05642-3.41769c.47507-.47532-1.32968-2.54525-1.32968-5.08438s2.97573-4.65592,4.00509-5.68554c.78151-.78125.48016-3.19378.55938-4.94326.54232-.08559,1.08489-.17219,1.6914-.228,6.45456-.59581,16.55022,1.32408,16.55022,1.32408l-1.29428,30.548s-15.35528,8.97867-18.43342,13.14934c-.10724.14545-.21474.297-.32223.446A3.655,3.655,0,0,1,67.81355,182.99843Z" fill="#388987"/><path d="M135.45311,175.94576a66.72749,66.72749,0,0,0-2.25078,7.48087c-.86073,3.77329-1.589,13.50493-2.44947,14.76278-.86072,1.25785-2.64815,1.52251-3.97223,1.52251-1.32382,0-2.87971.03312-3.57486-.662-.6949-.69489-2.317-8.47354-2.317-10.39342s1.589-6.15679,4.568-9.13584S135.45311,175.94576,135.45311,175.94576Z" fill="#e26600"/><path d="M125.45681,179.52062c2.979-2.97905,9.9963-3.57486,9.9963-3.57486a66.72749,66.72749,0,0,0-2.25078,7.48087c-.25473,1.11571-.49748,2.75667-.73565,4.54129a10.47944,10.47944,0,0,0-6.4161,4.9,21.72381,21.72381,0,0,0-2.29536,6.50933,1.71473,1.71473,0,0,1-.5492-.32733c-.69515-.69515-2.31726-8.47379-2.31726-10.39342C120.88876,186.73657,122.47776,182.49967,125.45681,179.52062Z" fill="#ce5800"/><path d="M119.09929,201.347a35.84192,35.84192,0,0,0-1.15646,4.61593c.174.17372,2.33382-.44705,2.9793.19843.64523.64548,1.88677,2.87971.64523,3.12807-1.24129.24836-6.40489.69515-7.09979,0-.69516-.69516-.31128-8.33624-.31128-8.33624Z" fill="#f8e9cc"/><path d="M137.67638,123.138a41.48459,41.48459,0,0,0-7.571-5.92829c-4.64268-2.857-11.03534-4.53544-12.14239-3.42839s2.57123,6.71387,3.49971,9.35668c.92874,2.64281,2.35726,8.07133,5.99988,8.99981s5.92829-1.07164,6.28542-2.14277C134.10509,128.9234,137.67638,123.138,137.67638,123.138Z" fill="#efd8b5"/><path d="M115.96715,143.525c3.53894.13169,6.4133-1.45934,8.19029-9.93263.65847-3.14,4.17066-8.39661,10.22811-10.206s13.80271-1.86486,14.99433,0,1.19162,4.54589,1.78743,5.1417,8.093.149,8.63911.69515c.5464.54614,2.18481,3.6742,1.19162,6.05719a6.6125,6.6125,0,0,1-2.383,3.17773s.74457.54614-.19869,1.4894c-.94326.94351-11.98879,7.12323-13.67688,10.00293s-3.92409,13.01994-3.92409,13.01994a23.96176,23.96176,0,0,1-15.46635-2.71923C117.90156,155.88182,115.96715,143.525,115.96715,143.525Z" fill="#f8e9cc"/><path d="M140.8154,162.97041a29.8025,29.8025,0,0,1-2.91307,10.59237c-2.58168,4.96491-10.52564,8.67223-12.71044,11.98217-2.18455,3.31019-4.30313,12.90912-4.83271,14.5641-.52958,1.65522-2.11832,1.85365-3.972,1.85365a3.41331,3.41331,0,0,1-3.4424-2.78036,98.28518,98.28518,0,0,1-2.11832-12.97535c0-2.11858,1.29071-5.52786,1.05916-5.75941C111.65384,180.21577,89.642,172.04,88.914,172.04c-.72826,0-5.82563-5.83073-4.96516-15.03254a30.954,30.954,0,0,1,5.9581-15.68949c.33114-.33115,19.728,1.08412,21.84627,1.08412a64.51187,64.51187,0,0,1,7.46889.564s1.402,9.346,7.2939,13.914C132.40783,161.44789,140.8154,162.97041,140.8154,162.97041Z" fill="#f90"/><path d="M161.17839,132.34492a.77283.77283,0,0,1-.87525-.10954c-.28147-.28147-.72826-1.62185-.96007-1.3903-.23155.2318.72827,1.25784.46335,1.25784a7.38239,7.38239,0,0,1-1.98586-1.28459c-.45775-.42591.34465-2.02484,1.953-2.09158C161.1626,128.66893,161.55743,131.66021,161.17839,132.34492Z" fill="#251100"/><path d="M147.93251,130.2834c-.30032.57645-1.35592-.22722-2.52818-.5334-1.791-.46768-3.934.95548-3.934.95548a4.69318,4.69318,0,0,1,3.69585-2.03145C146.45076,128.674,148.42057,129.34625,147.93251,130.2834Z" fill="#251100"/><path d="M153.4777,139.74376c.20887,0,.42259-.00561.63936-.01529a12.4721,12.4721,0,0,0,4.56678-.9509.24682.24682,0,0,0-.21678-.44348,12.22838,12.22838,0,0,1-4.37267.90123c-2.95383.13424-4.69693-.71961-4.93154-1.187a.246.246,0,1,0-.43992.22008C149.102,139.028,150.94926,139.74376,153.4777,139.74376Z" fill="#251100"/><path d="M148.61136,138.00294a.5827.5827,0,1,0,.58282-.58256A.58265.58265,0,0,0,148.61136,138.00294Z" fill="#251100"/><path d="M141.78541,160.63582l-.97,4.26364s-9.47666-1.96319-15.89-7.30917S117.226,142.7307,117.226,142.7307l3.66274-1.74412a18.973,18.973,0,0,0,6.828,13.10807A27.52107,27.52107,0,0,0,141.78541,160.63582Z" fill="#44c6cf"/><path d="M84.05911,156.66333c.02572-.24581.05731-.487.08839-.72827a31.36856,31.36856,0,0,0,2.1713,5.19952c1.16513,1.98764,9.52684,5.483,16.44934,6.1,6.92225.6167,9.42394-1.268,10.69172,0,1.268,1.268-1.5057,13.213-1.5057,13.213-.23155-.23181-22.24365-8.40757-22.97166-8.40757-.66077,0-4.90353-4.81029-5.04464-12.57314C83.98422,158.31448,84.02828,157.32715,84.05911,156.66333Z" fill="#e26600"/><path d="M92.61416,173.263a35.05425,35.05425,0,0,0-1.4494,6.78724c-.39713,3.70732-.662,8.73871-.662,8.73871a3.93132,3.93132,0,0,1-3.4424,0,8.90237,8.90237,0,0,1-2.44947-1.91988,61.92176,61.92176,0,0,1,2.5157-8.40757,37.51076,37.51076,0,0,1,3.09163-6.03044Z" fill="#ce5520"/><path d="M91.62811,172.83451s-.03694.067-.10342.18977a62.17615,62.17615,0,0,0-3.40521,7.22461c-.99293,2.84659-2.49278,7.58021-2.49278,7.58021s-.35381-2.88-2.00878-3.608a5.41691,5.41691,0,0,0-3.30994-.26491s2.25078-4.89894,3.90575-7.74553a40.7072,40.7072,0,0,1,3.65408-5.20232s.715,1.03165,1.04616,1.03165S91.62811,172.83451,91.62811,172.83451Z" fill="#f90"/><path d="M88.61263,171.866,80.308,183.95621s-2.44947-.7945-3.3102-2.05235a7.45964,7.45964,0,0,1-1.05916-2.91282,34.59936,34.59936,0,0,1,4.70025-6.02433,17.75774,17.75774,0,0,1,6.021-3.904Z" fill="#ce5520"/><path d="M87.218,169.86387a30.23559,30.23559,0,0,0-6.31421,4.29446c-2.21792,2.21767-4.96516,4.83271-4.96516,4.83271a7.91381,7.91381,0,0,0,0-4.10444,4.355,4.355,0,0,0-1.91989-2.18455,22.96948,22.96948,0,0,1,5.69318-4.634,26.15254,26.15254,0,0,1,5.57906-2.101Z" fill="#f90"/><path d="M85.968,167.33645l-12.87627,6.2923a5.03819,5.03819,0,0,1-1.91963-2.62039,9.33918,9.33918,0,0,1-.23537-3.639s2.70038-.63758,6.40769-1.69675a62.97022,62.97022,0,0,1,7.35427-1.58262Z" fill="#ce5520"/><polygon points="85.074 165.287 71.9 168.134 71.106 164.361 84.169 161.665 85.074 165.287" fill="#f90"/><path d="M84.4277,162.70192l-13.32179,1.65879s-1.19162.26492-1.78743-2.25078a6.67844,6.67844,0,0,1,.927-4.77157l13.60581,1.32408Z" fill="#ce5520"/><path d="M84.0321,160.32276l-14.29281-1.56123a4.29589,4.29589,0,0,0,1.764-2.4161,3.10305,3.10305,0,0,0-.648-2.71439L84.0321,156.2252Z" fill="#f90"/><path d="M83.94881,157.00747,70.44413,153.896s-.59607-.72827,0-2.38324a4.85675,4.85675,0,0,1,2.31675-2.44947l11.82144,3.97224Z" fill="#ce5520"/><path d="M84.4277,153.7579l-11.66682-3.96638a4.31989,4.31989,0,0,0,1.52277-1.78743,3.336,3.336,0,0,0-.06623-2.18455l11.08068,4.57569Z" fill="#f90"/><path d="M85.2981,150.85068s-11.08068-4.70025-11.08068-5.03114a9.25662,9.25662,0,0,1,1.05916-4.89894,6.21971,6.21971,0,0,1,3.75291-3.37617l8.74636,7.03993Z" fill="#ce5520"/><path d="M89.90691,141.318l-6.289-9.33452a6.47152,6.47152,0,0,0-4.30313,1.3903,10.50525,10.50525,0,0,0-3.17774,4.96492l11.056,7.71954Z" fill="#f90"/><g style="mix-blend-mode:multiply"><path d="M112.33345,187.66149c.71528,4.07158,1.94893,12.71145,4.21066,12.71145H120.244a2.2681,2.2681,0,0,1-1.21378,1.20665c-.08661.2937-.24785.84672-.41954,1.456l-.53645.62714A2.30159,2.30159,0,0,0,115.516,205.616c-.514,2.26173-.51659,3.39247.71833,3.39247h5.738a.58754.58754,0,0,1-.405.281c-1.241.24836-6.40489.69515-7.09979,0-.62434-.62434-.379-6.83284-.32249-8.09629a4.26114,4.26114,0,0,1-1.20028-2.01083,98.292,98.292,0,0,1-2.11832-12.97535,25.25,25.25,0,0,1,.97994-5.01382A24.60056,24.60056,0,0,0,112.33345,187.66149Z" fill="url(#24b30713-ae8c-4a3d-90fb-c13e22fe0030)"/><path d="M111.90576,180.66562a.3466.3466,0,0,0-.0135-.14443l.0619-.07361S111.9348,180.52782,111.90576,180.66562Z" fill="url(#92ccf7cd-5c56-434e-a074-b8b5a79361f6)"/></g><path d="M135.3716,125.80578a41.48459,41.48459,0,0,0-7.571-5.92829c-4.64268-2.857-11.03534-4.53544-12.14239-3.42839s2.57123,6.71388,3.5,9.35668c.92848,2.64281,2.357,8.07107,5.99987,8.99981,3.64262.92849,5.92829-1.07164,6.28542-2.14277C131.80056,131.59117,135.3716,125.80578,135.3716,125.80578Z" fill="#ffce9f"/><path d="M135.3716,125.80578a41.48459,41.48459,0,0,0-7.571-5.92829c-4.64268-2.857-11.03534-4.53544-12.14239-3.42839s2.57123,6.71388,3.5,9.35668c.92848,2.64281,2.357,8.07107,5.99987,8.99981,3.64262.92849,5.92829-1.07164,6.28542-2.14277C131.80056,131.59117,135.3716,125.80578,135.3716,125.80578Z" fill="#ffaf83"/><path d="M131.94321,132.377l.92848-4.35687-3.85684.99981a31.65026,31.65026,0,0,0,2.78571-2.2141c-.21448,0-5.07139.57135-5.07139.57135l4.14265-1.57142s.07158-1.28561-2.42832-3.21416-6.61046-4.73566-9.42827-5.57117c-2.8178-.83576-3.35706-.57135-3.35706-.57135s2.9225-2.93269,13.62262,3.837c5.39413,3.41285,7.16245,5.73419,7.16245,5.73419Z" fill="#f8e9cc"/><ellipse cx="204.42344" cy="200.65528" rx="37.46622" ry="4.77769" fill="#d4d3d3"/><circle cx="216.63295" cy="165.73399" r="37.06612" transform="translate(-22.98592 296.0428) rotate(-65.95572)" fill="url(#a4b5b360-3841-4d56-9901-433a849c8daf)"/><circle cx="216.63263" cy="165.73379" r="34.92145" fill="#dae7c5"/><circle cx="216.63263" cy="165.73379" r="34.92145" fill="url(#691ce7a5-09a6-4402-9410-0f28206b41d1)"/><g opacity="0.2"><path d="M198.17851,145.93707a.607.607,0,0,0,.40528-.74279.63449.63449,0,0,0-.73107-.42973.59678.59678,0,0,0-.459.75654A.61921.61921,0,0,0,198.17851,145.93707Z" fill="#fff"/><path d="M199.88112,149.15632a.65387.65387,0,0,0,.17118-.84977.62614.62614,0,0,0-.84366-.16685.60267.60267,0,0,0-.1801.8564A.58064.58064,0,0,0,199.88112,149.15632Z" fill="#fff"/><path d="M202.41312,151.78487a.60951.60951,0,0,0-.90709-.81335.61017.61017,0,1,0,.90709.81335Z" fill="#fff"/><path d="M205.42528,153.84969a.60684.60684,0,0,0-.21269-.82888.63.63,0,0,0-.83551.20684.59922.59922,0,0,0,.19945.85079A.61977.61977,0,0,0,205.42528,153.84969Z" fill="#fff"/><path d="M208.73777,155.39157A.60708.60708,0,0,0,208.4,154.604a.6304.6304,0,0,0-.7945.33624.59886.59886,0,0,0,.32988.80723A.61986.61986,0,0,0,208.73777,155.39157Z" fill="#fff"/><path d="M212.23494,156.454a.60117.60117,0,0,0-.442-.73107.61.61,0,0,0-.73973.43151.617.617,0,0,0,.43355.76393A.62567.62567,0,0,0,212.23494,156.454Z" fill="#fff"/><path d="M215.83833,157.07175a.62864.62864,0,0,0-.52678-.68445.60644.60644,0,0,0-.6814.52092.62043.62043,0,0,0,.52449.7033A.60027.60027,0,0,0,215.83833,157.07175Z" fill="#fff"/><path d="M219.49088,157.25083a.62849.62849,0,0,0-.60371-.62689.62039.62039,0,0,0-.61593.60855.60749.60749,0,0,0,.6037.62561A.60029.60029,0,0,0,219.49088,157.25083Z" fill="#fff"/><path d="M223.13732,156.98846a.61682.61682,0,0,0-.67376-.54.63324.63324,0,0,0-.537.68777.59559.59559,0,0,0,.67376.53875A.61069.61069,0,0,0,223.13732,156.98846Z" fill="#fff"/><path d="M226.72134,156.27293a.60957.60957,0,0,0-.73642-.44119.63375.63375,0,0,0-.445.74177.59555.59555,0,0,0,.74.45672A.61735.61735,0,0,0,226.72134,156.27293Z" fill="#fff"/><path d="M230.16884,155.0622a.60826.60826,0,0,0-.79221-.3258.62954.62954,0,0,0-.33318.79425.59947.59947,0,0,0,.80112.348A.619.619,0,0,0,230.16884,155.0622Z" fill="#fff"/><path d="M233.36848,153.30177a.61565.61565,0,0,0-.83882-.18416.64468.64468,0,0,0-.18519.84569.587.587,0,0,0,.84621.19665A.6121.6121,0,0,0,233.36848,153.30177Z" fill="#fff"/><path d="M236.14553,150.93356a.64212.64212,0,0,0-.87041-.00356.63355.63355,0,0,0,.00765.86582.59641.59641,0,0,0,.86938.0028A.58953.58953,0,0,0,236.14553,150.93356Z" fill="#fff"/><path d="M238.15457,147.89618a.60934.60934,0,0,0-.56524,1.07776.61028.61028,0,1,0,.56524-1.07776Z" fill="#fff"/><path d="M239.04383,144.37023a.66037.66037,0,0,0-.68929.53519.64183.64183,0,0,0,.53824.675.59026.59026,0,0,0,.688-.53519A.57646.57646,0,0,0,239.04383,144.37023Z" fill="#fff"/><path d="M238.50355,140.77423a.60758.60758,0,0,0-.40527.743.63431.63431,0,0,0,.73107.42947.59694.59694,0,0,0,.45928-.75654A.61958.61958,0,0,0,238.50355,140.77423Z" fill="#fff"/><path d="M236.801,137.555a.65388.65388,0,0,0-.17118.84978.62591.62591,0,0,0,.84392.16684.60284.60284,0,0,0,.18009-.85614A.58082.58082,0,0,0,236.801,137.555Z" fill="#fff"/><path d="M234.269,134.92643a.6096.6096,0,0,0,.90709.8136.61026.61026,0,1,0-.90709-.8136Z" fill="#fff"/><path d="M231.25678,132.86186a.607.607,0,0,0,.213.82888.63.63,0,0,0,.83525-.20709.59914.59914,0,0,0-.19945-.8508A.61993.61993,0,0,0,231.25678,132.86186Z" fill="#fff"/><path d="M227.9443,131.31973a.6072.6072,0,0,0,.338.78762.62963.62963,0,0,0,.79424-.33624.59867.59867,0,0,0-.32962-.807A.61992.61992,0,0,0,227.9443,131.31973Z" fill="#fff"/><path d="M224.44738,130.25726a.60124.60124,0,0,0,.442.73132.61.61,0,0,0,.73947-.43151.61707.61707,0,0,0-.43354-.76418A.62548.62548,0,0,0,224.44738,130.25726Z" fill="#fff"/><path d="M220.844,129.63954a.629.629,0,0,0,.52652.68471.60682.60682,0,0,0,.6814-.52117.62057.62057,0,0,0-.52449-.70331A.5999.5999,0,0,0,220.844,129.63954Z" fill="#fff"/><path d="M217.19144,129.46047a.628.628,0,0,0,.60371.62688.62.62,0,0,0,.61568-.60854.6075.6075,0,0,0-.60371-.62562A.60009.60009,0,0,0,217.19144,129.46047Z" fill="#fff"/><path d="M213.54475,129.72309a.61716.61716,0,0,0,.67376.54.6335.6335,0,0,0,.537-.688.59553.59553,0,0,0-.67351-.53875A.611.611,0,0,0,213.54475,129.72309Z" fill="#fff"/><path d="M209.96072,130.43837a.60974.60974,0,0,0,.73642.44144.6342.6342,0,0,0,.44527-.742.59579.59579,0,0,0-.74024-.45673A.618.618,0,0,0,209.96072,130.43837Z" fill="#fff"/><path d="M206.51348,131.64935a.608.608,0,0,0,.792.32554.62924.62924,0,0,0,.33319-.794.5994.5994,0,0,0-.80087-.34821A.61894.61894,0,0,0,206.51348,131.64935Z" fill="#fff"/><path d="M203.31359,133.40952a.61577.61577,0,0,0,.83882.18443.64449.64449,0,0,0,.18518-.8457.58673.58673,0,0,0-.8462-.19665A.6118.6118,0,0,0,203.31359,133.40952Z" fill="#fff"/><path d="M200.53654,135.77773a.64184.64184,0,0,0,.8704.00382.63386.63386,0,0,0-.00764-.86607.59642.59642,0,0,0-.86939-.00255A.58944.58944,0,0,0,200.53654,135.77773Z" fill="#fff"/><path d="M198.52775,138.81511a.60927.60927,0,0,0,.565-1.07775.61021.61021,0,1,0-.565,1.07775Z" fill="#fff"/><path d="M197.63849,142.34106a.66016.66016,0,0,0,.6893-.53518.64205.64205,0,0,0-.53825-.675.59079.59079,0,0,0-.68827.53544A.57654.57654,0,0,0,197.63849,142.34106Z" fill="#fff"/></g><path d="M199.97639,142.00049c-.27078,6.95969,7.72515,12.9211,17.85952,13.31517,10.13411.39406,18.56868-4.92823,18.83946-11.88792s-7.72515-12.9211-17.85952-13.31517C208.68173,129.71851,200.24691,135.0408,199.97639,142.00049Z" fill="#fff" opacity="0.2"/><path d="M234.55246,143.03214c.00815,1.37019-31.284.32351-31.63294-1.37018-.19105-.92849,8.15437-4.25957,15.42151-4.25957C225.60844,137.40239,234.54584,141.93681,234.55246,143.03214Z" fill="#fff" opacity="0.2"/><path d="M194.15253,167.59459s-3.32726.96618-4.72266.75144-2.03936-.36018-2.03936-.36018l-.53671,1.70184s4.48118,4.052,4.61542,4.18621S194.15253,167.59459,194.15253,167.59459Z" fill="#ae4501"/><path d="M187.39051,167.98585a23.132,23.132,0,0,0-2.33484-1.16946c-.483-.13424-2.8443,1.85162-2.8443,2.44208,0,.59021.42922,4.88391.83169,5.52786.40273.644.93944.13425.93944-.77819s-.16124-3.27377.134-3.75674c.29523-.48322,2.37916-.69337,2.62981-.56371C186.99721,169.81735,187.39051,167.98585,187.39051,167.98585Z" fill="#eca982"/><path d="M236.28691,181.82372s2.00878,2.28771,3.53843,2.69018c1.52939.40247,3.11049.44654,3.30816.644.19741.19766.23384.92568-.81259,1.08692a10.0343,10.0343,0,0,1-4.54843,0c-1.85162-.52347-5.52939-2.17385-5.63535-2.49557C232.03116,183.42723,235.2848,181.30738,236.28691,181.82372Z" fill="#ae4501"/><path d="M243.9578,167.91656c-.216-.648-5.0449-1.07342-5.90359-1.07342s-3.00554-1.50265-5.90358-.644c-2.8983.85869-9.98256,4.11132-15.51806,4.11132-6.22556,0-13.0342-8.6195-19.367-6.58014-6.33306,2.03961-8.15768,6.54779-8.15768,10.19728s3.32752,10.84125,9.87506,13.84653c6.54754,3.00554,17.18754,6.18557,24.37929,4.46794,7.19175-1.71713,15.71165-13.32332,16.73133-14.343s3.00554-3.32751,3.00554-4.29344v-1.39541A5.02624,5.02624,0,0,0,243.9578,167.91656Z" fill="#cc6825"/><path d="M230.60748,167.56784a6.45872,6.45872,0,0,1-3.26027-.56371c-1.04668-.72445-1.20767-1.93212-2.53582-1.93212-1.32841,0-2.09336,2.8983-1.56989,4.42794.52321,1.52965,2.36974,1.77113,3.59982,1.97237C228.07166,171.67355,230.76847,168.81575,230.60748,167.56784Z" fill="#ffbd9f"/><path d="M232.13713,183.74921c-.106-.322,3.14767-2.44208,4.14978-1.92549a15.57562,15.57562,0,0,0,1.97032,1.82691,1.63994,1.63994,0,0,0,.5874,1.738c.59963.3798,2.114-.051,3.24117-.46055a3.09314,3.09314,0,0,1,1.0477.22977c.19741.19766.23384.92568-.81259,1.08692a10.03441,10.03441,0,0,1-4.54843,0C235.92086,185.72131,232.24309,184.07093,232.13713,183.74921Z" fill="url(#f1b7fe9e-6d88-4e2a-a655-20f657052ce7)" style="mix-blend-mode:multiply"/><path d="M221.31677,196.7159a1.837,1.837,0,0,0,0,1.12132,2.30955,2.30955,0,0,0,1.50188,1.20741c.30211,0,1.22779-.201,1.46927-.201s.36223.38235.36223.56346a6.15232,6.15232,0,0,1-2.76966.8564,2.296,2.296,0,0,1-2.18124-.52092,2.79592,2.79592,0,0,1-.50309-1.44915c0-.3421.52321-2.30784.52321-2.30784Z" fill="#ffbd9f"/><path d="M219.19616,198.29344c0-.25626.37572-1.73776.52321-2.30784l.98325.95345s-.58995,1.58542-.36655,2.0768c.22339.49162,2.41278.581,2.77017.581a8.72507,8.72507,0,0,0,1.49755-.419.81284.81284,0,0,1,.04636.22926,6.15232,6.15232,0,0,1-2.76966.8564,2.296,2.296,0,0,1-2.18124-.52092A2.79592,2.79592,0,0,1,219.19616,198.29344Z" fill="url(#ccd0afc7-93ff-42b4-8949-b0ff017e89ad)" style="mix-blend-mode:multiply"/><path d="M240.21431,177.63012s-4.34618,9.88932-10.18252,10.57352c-5.83659.6842-11.09724-4.73616-10.896-7.31249.20123-2.57606,4.61262-4.30924,7.7091-5.28739C229.36135,174.80875,240.60175,175.97541,240.21431,177.63012Z" fill="#cc6825"/><path d="M230.849,185.03711s-6.92326,6.35981-7.48672,7.205a13.51461,13.51461,0,0,0-1.85162,3.985c-.24148,1.28816-1.4089.52321-1.69063.24148s-.44272-2.21384,0-3.82373a21.12888,21.12888,0,0,1,2.0931-5.15239C222.63754,186.48626,230.849,185.03711,230.849,185.03711Z" fill="#cc6825"/><path d="M206.44292,180.207c.3714,2.7098-.33726,6.69274-3.38126,7.35274-3.04375.65975-3.864,0-5.20589,0a18.12705,18.12705,0,0,0-3.22.644.97.97,0,0,1-.85869-.85869,4.52592,4.52592,0,0,1,1.87837-3.918c1.98586-1.4489,1.71738-5.52939,4.079-6.19933C202.09573,176.55746,206.21494,178.54307,206.44292,180.207Z" fill="#cc6825"/><path d="M244.01129,167.56784c-.471-.10622-1.06655.12074-1.147.42259s.61109,1.4275.72445,1.31389c.1136-.11335.04024-.50894.12074-.50894.08075,0,.31,1.00388.44806.86556C244.29582,169.52263,244.81649,167.749,244.01129,167.56784Z" fill="#251100"/><path d="M237.69148,169.98878c-.03082.3747-.65949.32681-1.3116.17347-.903-.21219-1.83557.97866-1.83557.97866a2.65042,2.65042,0,0,1,1.59409-1.66566C236.77369,169.29337,237.744,169.352,237.69148,169.98878Z" fill="#251100"/><path d="M238.97047,174.969a3.76775,3.76775,0,0,0,.514-.03693c1.81367-.24734,3.662-2.52436,3.74069-2.62116a.16094.16094,0,0,0-.25142-.201c-.01783.02242-1.84627,2.274-3.53334,2.50373a1.99074,1.99074,0,0,1-1.604-.31536.96038.96038,0,0,1-.34567-.65236.16124.16124,0,0,0-.32248,0,1.28264,1.28264,0,0,0,.45647.89486A1.97283,1.97283,0,0,0,238.97047,174.969Z" fill="#251100"/><path d="M237.18279,173.68387a.35344.35344,0,1,0,.35356-.35331A.35358.35358,0,0,0,237.18279,173.68387Z" fill="#251100"/><path d="M189.10789,173.92764a9.93921,9.93921,0,0,1,4.14443-8.204,8.92827,8.92827,0,0,0-1.7831,8.15029c.76724,3.62784,4.98555,6.086,4.98555,6.086l-1.76476,5.965.71451.5925s9.74056-3.36267,10.45533-4.77437c.71477-1.41145-.44679-4.64905-.44679-4.64905s2.05515,1.9502,2.05515,3.71674a6.37311,6.37311,0,0,1-1.78692,3.91721c-.48119.48119,7.77405,3.43094,11.706,3.07356,3.93173-.35764,5.19417-1.83277,5.36152-3.67115a18.57016,18.57016,0,0,1,1.74031-4.9076,13.8862,13.8862,0,0,0,.161,3.20245c.29319,2.13,2.656,4.39305,6.68738,3.89454,4.03159-.499,7.8757-9.60963,8.87678-10.13513,1.00108-.52525,2.8848-3.217,2.8848-3.217v.6381c0,.96593-1.98586,3.27377-3.00554,4.29344l-.00714.00765c-.70254,1.49831-4.51837,9.129-9.54773,10.18786a18.8581,18.8581,0,0,1-7.17646,4.14749s-1.775.96542-2.17716,2.17181a3.88362,3.88362,0,0,0,.13067,2.28008c-.416.56422-1.26065.00968-1.49576-.22544-.27893-.27893-.43737-2.17436-.011-3.77456-6.83054.27689-15.28854-2.37789-20.82608-4.91983-.08992-.041-.1722-.09094-.26084-.13373a5.41757,5.41757,0,0,0-.86634-.08075,18.12705,18.12705,0,0,0-3.22.644.97.97,0,0,1-.85869-.85869,4.73294,4.73294,0,0,1,.70713-2.68331C190.9185,181.21874,189.10789,176.615,189.10789,173.92764Z" fill="#bf5004"/><path d="M195.47355,187.99757s-.93179.89027-1.106,1.06476a4.56258,4.56258,0,0,0,.644,2.44208c.36222.36223,3.059,2.28084,3.32751,2.54933.26823.26823.51073.901.322,1.20741s-4.19843-2.46373-4.7-2.965c-.50131-.50131-1.98179-2.858-1.87455-3.23378a28.78915,28.78915,0,0,1,1.7454-2.66064Z" fill="#ffbd9f"/><path d="M236.68887,176.36336c.04152.57925-4.01529,5.62949-7.01166,5.85289-2.99662.22365-3.93479-2.81475-3.488-4.46793S236.46547,173.2358,236.68887,176.36336Z" fill="#fff" opacity="0.1"/><path d="M230.60748,167.56784a6.45872,6.45872,0,0,1-3.26027-.56371c-1.04668-.72445-1.20767-1.93212-2.53582-1.93212-1.32841,0-2.09336,2.8983-1.56989,4.42794.52321,1.52965,2.36974,1.77113,3.59982,1.97237C228.07166,171.67355,230.76847,168.81575,230.60748,167.56784Z" fill="#ffaf83"/><path d="M231.33218,167.12512a4.5561,4.5561,0,0,1-2.97879-.282c-1.04643-.72445-1.93212-2.13335-2.73706-2.13335a1.52367,1.52367,0,0,0-1.12717.36222.96588.96588,0,0,1,1.24791.7247c.36223,1.04643.50309,2.75718,1.95224,3.20016a3.3476,3.3476,0,0,0,2.87792-.02038C231.45292,168.574,231.33218,167.12512,231.33218,167.12512Z" fill="#cc6825"/><path d="M192.08643,189.06233a28.78107,28.78107,0,0,1,1.7454-2.66038l.80443.78176c-.136-.13169-1.64427,1.7347-1.64427,2.00268a15.798,15.798,0,0,0,1.47462,2.94873c.20531.20557,3.24422,2.09209,4.23817,2.707a.64408.64408,0,0,1-.04381.419c-.18875.30644-4.19843-2.46373-4.69974-2.96529C193.45967,191.7948,191.97919,189.43806,192.08643,189.06233Z" fill="url(#76132225-c52d-4212-ad62-c8a9fe6f701d)" style="mix-blend-mode:multiply"/><path d="M194.05064,163.76143a1.8,1.8,0,1,0,2.30249-.32019A1.65554,1.65554,0,0,0,194.05064,163.76143Z" fill="#cc6825"/><path d="M188.48151,141.662a35.52173,35.52173,0,1,0,64.91627,28.74457A37.06067,37.06067,0,1,1,188.48151,141.662Z" opacity="0.2" fill="url(#cc77eb97-1631-4077-b7ae-e16d67191185)"/><path d="M54.50628,31.7965c-6.65784-.40351-13.31542,3.05975-16.9509,7.03147-.03286.036-.067.082-.10011.11929a2.16665,2.16665,0,0,0-.34974-.056c-.5548,0-6.9602,7.91849-7.41439,11.04572-.026.17976-.02216.3237-.03464.48747,1.34726,1.47681,5.90843,1.37085,7.89888-.61945,1.99732-1.9971,3.47857-8.79781,7.94014-11.88354A22.45788,22.45788,0,0,1,60.1452,34.63716c3.37974.65709,9.6267,3.95139,9.6267,3.95139C68.99854,37.81517,61.16386,32.2,54.50628,31.7965Z" fill="#fff" opacity="0.1"/><circle cx="53.78481" cy="36.55618" r="33" fill="#fff" opacity="0.3"/></g></g></g></svg>