<svg xmlns="http://www.w3.org/2000/svg" viewBox="0 0 363.6803 261.02415"><title>cat-dog-banner</title><g style="isolation:isolate"><g id="b2e75bda-f203-402a-bc91-f64738fa603f" data-name="Layer 2"><g id="993edaaa-c0dd-4136-a380-10426856857e" data-name="Layer 1"><path d="M137.40071,35.45677s22.6823-11.84187,33.77567-16.668c11.09384-4.82651,41.39626,22.03221,34.11122,31.30488-7.28661,9.27315-18.547,55.19583-22.741,54.09127C178.351,103.08193,130.67168,39.9409,137.40071,35.45677Z" fill="#56312a"/><path d="M88.66022,34.63391S73.97491,20.88693,63.433,14.78929C52.89187,8.69245,23.41491,30.548,25.73227,42.19146c2.45625,12.34114,5.25559,60.70238,9.57781,60.07908C39.632,101.64733,94.87685,39.8891,88.66022,34.63391Z" fill="#56312a"/><path d="M72.85046,22.325c1.62529-1.92389-19.34527-14.59052-32.834-20.00456C26.52786-3.09331,18.02727,1.11761,16.59306,13.36734c-1.433,12.24981-4.62616,33.00823-1.065,36.77623C19.08814,53.91127,43.687,56.81805,72.85046,22.325Z" fill="#69250e"/><path d="M43.21158,45.03072a49.4407,49.4407,0,0,1-27.883-18.34052c-.10139-.13354-.20192-.27015-.30245-.40526-1.1878,10.45443-1.96846,21.24463.502,23.85863,2.38024,2.51921,14.16867,4.65077,30.43675-4.52335C45.04531,45.44754,44.12688,45.258,43.21158,45.03072Z" fill="#643a31" opacity="0.07" style="mix-blend-mode:multiply"/><path d="M1.3805,261.02415S-5.73689,206.8715,12.34992,132.157C30.43633,57.441,62.02221,19.94781,116.0083,25.97022c53.986,6.0232,73.28295,22.97824,67.29355,86.757-5.98862,63.77966-6.90894,148.2969-6.90894,148.2969Z" fill="#b89075"/><path d="M27.586,133.98305c8.2783-2.03024,22.80893-6.00779,22.80783-16.79847-.00079-9.64611-11.49989-14.5671-15.28173-22.6658-2.33654-5.00305.43521-9.35136,3.05723-13.5163,3.70858-5.89036,3.562-11.59114,1.146-17.45085-11.26378,17.30969-20.09056,40.33391-26.96538,68.73358-.16538.68154-.32391,1.3586-.48473,2.03716A32.62953,32.62953,0,0,0,27.586,133.98305Z" fill="#7f4a3e" opacity="0.5"/><path d="M160.8529,198.28768c-5.81443.25482-11.76775,1.52594-16.78809,4.5878-6.09921,3.71967-9.96507,9.518-13.06764,15.8129-3.06415,6.21813-5.68467,12.784-10.1071,18.20691-5.122,6.28187-11.99994,9.6792-19.50184,12.37879-7.34918,2.64277-14.31762,5.40446-20.33775,10.51424-.41831.35465-.91341.77068-1.45308,1.23583h96.79551s.28476-26.17058,1.56736-60.36849A48.95955,48.95955,0,0,0,160.8529,198.28768Z" fill="#7f4a3e" opacity="0.5"/><path d="M9.69528,144.4183,6.36476,160.97421s12.96209,21.3847,65.71966,31.68327c52.75711,10.29786,103.95612,1.62112,106.242,0,2.28584-1.62262,3.7335-12.05323.77523-14.39433-2.95975-2.34118-57.632,14.39433-104.2831,2.5545C22.5276,167.54619,12.36414,145.29485,9.69528,144.4183Z" fill="#744334" opacity="0.2" style="mix-blend-mode:multiply"/><path d="M135.47406,98.06505c-2.61934,11.85673,23.958,16.96652,26.19322,4.86259C163.90242,90.82521,138.8372,82.84314,135.47406,98.06505Z" fill="#56162a" opacity="0.5"/><path d="M78.60728,82.46782C83.6288,71.41163,58.68744,60.902,53.99141,72.2782,49.29577,83.656,72.16035,96.66031,78.60728,82.46782Z" fill="#56162a" opacity="0.5"/><path d="M143.70325,52.543c8.72507.34387,17.173-3.66481,23.37776-9.83766-9.71638-8.261-23.73162-12.83-42.53879-15.57647-1.92814,5.10176.56607,11.79542,3.30363,16.04241A20.03792,20.03792,0,0,0,143.70325,52.543Z" fill="#7f4a3e" opacity="0.5"/><path d="M161.03054,25.16041c-1.387-2.08164,20.74073-12.21287,34.66465-16.03126,13.92461-3.81791,21.83837,1.29918,21.869,13.55088.02995,12.25091.83513,33.09909-3.10635,36.41546C210.51938,62.41178,185.91317,62.49926,161.03054,25.16041Z" fill="#643a31"/><path d="M217.60415,40.621c.119-6.21168-.02767-12.82548-.03994-17.941-.02916-12.00034-7.62742-17.15037-21.02392-13.76766C195.91235,23.04536,205.30293,34.12725,217.60415,40.621Z" fill="#744334" opacity="0.6"/><path d="M80.299,100.06684c-3.67628,19.26855,32.87382,26.66489,38.7865,8.51859C125.94342,87.5354,84.17255,79.76516,80.299,100.06684Z" fill="#212121"/><path d="M97.52693,114.05748A22.0824,22.0824,0,0,1,86.166,99.77822a20.89276,20.89276,0,0,1-.46287-8.12017,13.03447,13.03447,0,0,0-5.40414,8.40879c-2.83424,14.85571,18.2396,22.65047,30.75186,17.12772A28.42551,28.42551,0,0,1,97.52693,114.05748Z" fill="#242424" opacity="0.15" style="mix-blend-mode:multiply"/><path d="M107.43289,97.83012c-4.19442,3.15476,2.71995,15.83436,7.63968,11.17825C119.99238,104.35305,113.72277,93.09958,107.43289,97.83012Z" fill="#2d2d2d" opacity="0.6"/><path d="M98.54818,93.729c-1.89552,3.24838,6.16137,5.85122,7.97475,2.12692C108.33482,92.134,100.78183,89.89953,98.54818,93.729Z" fill="#363636" opacity="0.6"/><path d="M143.93354,94.8496a1.57405,1.57405,0,0,1-1.48373-2.09162,7.04947,7.04947,0,0,0-13.30792-4.65611,1.5721,1.5721,0,0,1-2.96746-1.03933,10.19342,10.19342,0,0,1,19.24285,6.7332A1.57384,1.57384,0,0,1,143.93354,94.8496Z" fill="#111"/><path d="M89.40055,80.958a1.57488,1.57488,0,0,1-1.50983-2.01256,7.04934,7.04934,0,0,0-13.53585-3.94383,1.57184,1.57184,0,1,1-3.01809-.87969,10.19305,10.19305,0,1,1,19.57211,5.70314A1.57336,1.57336,0,0,1,89.40055,80.958Z" fill="#111"/><path d="M97.38222,137.39343c-1.06613,2.65809-3.77649,17.6681,8.755,18.73352,12.53183,1.06228,31.909-2.1446,32.01221-12.5668.10289-10.423-4.957-11.9259-11.60466-11.27494C119.8968,132.93382,98.36315,134.94794,97.38222,137.39343Z" fill="#3d2121"/><path d="M108.77,138.77969c1.16634-.03458,2.88918.15351,3.34742,1.48444.54265,1.57507-.38884,4.30846,2.56518,4.27081,2.201-.02916,4.33495-1.13215,4.20369-3.6828-.2053-4.02063,3.119-4.8956,6.63612-3.95688,3.4863.9318,6.54667,2.82009,10.24983,2.96668.72493.02837,1.43885.01839,2.14767-.013-1.05-7.07015-5.61519-8.12708-11.37515-7.56368-6.648.64861-28.18164,2.66273-29.16257,5.10822a20.788,20.788,0,0,0-1.00167,6.69483C100.124,141.69182,104.51651,138.90247,108.77,138.77969Z" fill="#331919" opacity="0.3" style="mix-blend-mode:multiply"/><path d="M125.5784,147.49321s2.87385.94336,6.12412,4.6822a29.43014,29.43014,0,0,1-9.87908,3.05267S123.05849,148.67756,125.5784,147.49321Z" fill="#d85a56" opacity="0.5"/><path d="M126.54479,147.92921s-6.70513-3.831-11.49486.95868c0,0-4.27348-4.61083-8.24954.95719-3.97567,5.56873-2.09972,23.3321,7.132,18.83869,0,0,3.3324,4.47038,7.34414,2.47543C128.66447,167.48709,120.63753,152.55922,126.54479,147.92921Z" fill="#d85a56"/><path d="M126.54479,147.92921s-6.676-3.81258-11.463.92952a37.20809,37.20809,0,0,0-1.14944,19.825c.99169.97095,3.83175,4.204,7.34414,2.47543C128.67949,167.517,120.63753,152.55922,126.54479,147.92921Z" fill="#d85a56" opacity="0.15" style="mix-blend-mode:multiply"/><path d="M115.25185,169.93642c1.39547,1.18592,3.53968,2.44548,6.02469,1.22278,4.1346-2.0326,3.4518-7.59826,3.07186-12.92145C123.05809,163.39509,120.00621,168.23316,115.25185,169.93642Z" fill="#d85a56" opacity="0.15" style="mix-blend-mode:multiply"/><path d="M108.50444,153.118c-3.10643,0-3.09606,9.89873.12969,9.898C111.11034,163.01514,111.298,153.118,108.50444,153.118Z" fill="#e56a6a" opacity="0.5"/><path d="M109.22292,164.21489c-1.5966.4782.39913,4.54945,1.91548,3.431C112.65546,166.52911,110.81944,163.73519,109.22292,164.21489Z" fill="#e56a6a" opacity="0.5"/><path d="M9.69528,140.58577s-8.24577,9.25931-3.33052,16.55591c0,0,12.96209,21.3847,65.71966,31.68334,52.75711,10.29935,103.95612,1.62262,106.242,0,2.28584-1.62112,3.7335-12.05252.77523-14.39292-2.95975-2.3411-57.632,14.39292-104.2831,2.5545C21.352,163.41663,13.52585,141.84612,9.69528,140.58577Z" fill="#aacf15"/><path d="M153.26769,186.83008c-19.83,2.46238-39.9901,3.49243-59.91332,1.51438-17.66543-1.75239-34.9513-5.72766-50.77529-13.99143a124.93011,124.93011,0,0,1-21.65681-14.26771c-5.23916-4.31836-10.66091-8.67516-14.61937-14.20553-1.51556,3.26143-2.45963,7.51919.06186,11.26189,0,0,12.96209,21.3847,65.71966,31.68334,52.75711,10.29935,103.95612,1.62262,106.242,0,1.08075-.76682,1.97349-3.50328,2.302-6.42233A267.38135,267.38135,0,0,1,153.26769,186.83008Z" fill="#f8de5a" opacity="0.5" style="mix-blend-mode:multiply"/><path d="M71.44957,188.70068c-.83513-.06068-2.24474-.62024-3.08143-2.83086-1.4185-3.74506.0154-9.921.97794-10.45286a1.18037,1.18037,0,0,1,.93911-.10367.68177.68177,0,0,1,.42255.588l2.15647.57951c-.02263-.17425-.40219-2.13847-1.63338-2.83392a2.863,2.863,0,0,0-2.64772.013c-2.29049.99476-3.52977,8.2438-2.14005,12.51.77484,2.37875,2.32963,3.66748,4.35444,3.66748a5.096,5.096,0,0,0,.64059-.04449l-1.08648,12.76252a.95719.95719,0,0,0,.87348,1.03469c.02759.00228.05525.00385.08213.00385a.95794.95794,0,0,0,.95334-.87584l1.2903-13.6114" fill="#e24334"/><path d="M59.07777,203.0866l24.29691,3.39882s5.16387-6.95351,9.559-2.22517c3.81029,4.09656-1.93584,6.476-1.79994,7.75248.13583,1.278,3.09605,5.763-1.79994,7.75412-5.73387,2.33034-6.77658-7.00876-6.77658-7.00876l-24.18451-3.17088s-6.0059,9.04977-10.51118,2.57981c-4.50606-6.46988,4.70217-7.13767,4.70217-7.13767s-6.0397-5.80217.97409-8.98374C58.90352,193.61,59.07777,203.0866,59.07777,203.0866Z" fill="#744334" opacity="0.25" style="mix-blend-mode:multiply"/><path d="M58.65137,199.09364l24.2973,3.39882s5.16355-6.95193,9.5587-2.22516c3.80982,4.098-1.93513,6.476-1.79962,7.754.13511,1.278,3.09566,5.76295-1.79963,7.75256-5.73418,2.33112-6.77689-7.00877-6.77689-7.00877L57.94633,205.595s-6.00552,9.049-10.51039,2.579c-4.50607-6.47066,4.70177-7.13766,4.70177-7.13766s-6.03971-5.80061.97369-8.98453C58.4779,189.61865,58.65137,199.09364,58.65137,199.09364Z" fill="#fff7df"/><path d="M90.94072,207.43955a84.88793,84.88793,0,0,1-14.54179-.80825c-9.91366-1.40545-19.29425-4.8258-26.46375-11.64954-1.05159,2.92447,2.20253,6.05464,2.20253,6.05464s-9.20784.667-4.70177,7.13766c4.50487,6.47,10.51039-2.579,10.51039-2.579l24.1849,3.17009s1.04271,9.33989,6.77689,7.00877c4.89529-1.98961,1.93474-6.47452,1.79963-7.75256A.89253.89253,0,0,1,90.94072,207.43955Z" fill="#fff7df" style="mix-blend-mode:multiply"/><path d="M175.92944,261.02415c-.88811-7.86,3.038-88.5609,3.745-120.9158.70622-32.35577,11.05855-80.64753,13.23537-82.00307,2.87613-1.78885,20.34082,14.97126,22.061,14.13071,1.71937-.84047,43.74577-25.12009,99.211-18.0791,2.305.29279,9.49881-21.66915,13.09641-20.84362,15.56421,3.57151,51.77547,90.16088,25.72389,227.71088Z" fill="#f0d9a7"/><path d="M258.332,139.13426q-1.27686,0-2.63208-.11743a1.17883,1.17883,0,0,1,.20421-2.3488c5.69385.49431,10.19033-.70465,13.36663-3.56616,4.84954-4.36828,5.02686-11.179,5.02757-11.24727a1.17911,1.17911,0,0,1,2.34731-.13747c.60019,4.42125,2.43935,7.71192,5.46671,9.77972,6.32557,4.31915,15.89032,2.07174,15.9863,2.04793a1.17909,1.17909,0,0,1,.55806,2.29119c-.43136.106-10.6617,2.52463-17.86461-2.38481a14.21341,14.21341,0,0,1-5.11363-6.2865,17.47731,17.47731,0,0,1-4.83037,7.68959C267.6895,137.69965,263.48708,139.13426,258.332,139.13426Z" fill="#cd7963" opacity="0.6"/><path d="M225.05522,67.28592S239.326,82.817,241.21805,81.91519c1.88978-.90422,5.13053-16.66029,7.959-18.111,3.77728-1.93742,13.22382,8.071,15.66475,7.43862,2.06632-.53581,8.20466-13.54011,11.16214-13.54011,3.23683,0,10.39839,11.334,13.339,11.96426,2.13382.45667,8.57077-8.55388,13.4802-16.564C302.82315,53.10294,264.12641,48.55546,225.05522,67.28592Z" fill="#e29052"/><path d="M179.93544,133.326s-4.105,101.88832-4.04287,115.52353c0,0,39.91787-10.26634,39.70832-12.36716-.211-2.10168-32.56523-16.80766-32.77557-18.699-.20876-1.89048,55.0446-4.43885,55.57036-9.993s-49.68762-26.30184-49.68762-29.68919,51.68335-16.1207,52.10323-20.04913C241.23268,154.12509,179.93544,133.326,179.93544,133.326Z" fill="#e29052"/><path d="M263.8877,114.92947c-.93872.9395,9.86721,11.014,11.7386,10.86967,1.87209-.14352,11.23194-11.21661,9.792-12.6098C284.28613,112.09405,265.18413,113.63383,263.8877,114.92947Z" fill="#de6162"/><path d="M285.41828,113.18934c-.28634-.27628-1.72086-.38451-3.7243-.37146A18.37735,18.37735,0,0,1,271.47064,123.194c1.87209,1.53592,3.52316,2.65346,4.15566,2.60512C277.49839,125.65562,286.85824,114.58253,285.41828,113.18934Z" fill="#de6162" opacity="0.15" style="mix-blend-mode:multiply"/><path d="M360.37691,129.0821s7.33188,65.38074-7.37489,131.56053c0,0-36.97658-10.505-37.18684-16.598-.20954-6.0915,33.61526-13.86559,34.24548-18.06731s-29.99392-18.69745-30.01845-24.2654,32.95981-19.22477,33.80028-23.0059c.84055-3.78184-35.9257-13.025-36.136-20.79984C317.49612,150.13213,360.37691,129.0821,360.37691,129.0821Z" fill="#e29052"/><path d="M281.225,192.54618c-.931-2.39863-1.55124-9.66764-7.404-8.88777-5.85428.78065-4.67992,6.18362-5.14735,10.44672-.2134,1.95809-1.77008,4.48885-2.10012,5.27862-.1965.4683,2.50459,1.51368,6.4408,1.615a2.4635,2.4635,0,0,0,4.90865.12285,2.505,2.505,0,0,0,.00307-.4966,22.86127,22.86127,0,0,0,6.56585-2.23365C285.26321,197.98758,282.14153,194.90725,281.225,192.54618Z" fill="#d3946a" opacity="0.3" style="mix-blend-mode:multiply"/><path d="M179.04121,159.0875s-4.37677,1.72244-.19116,6.15367c0,0,31.70865,13.8402,94.52648,13.33661,62.81782-.50194,88.828-13.33661,88.828-13.33661s3.32053-4.06818,0-7.75483c0,0-41.75318,16.64873-89.66774,14.91631A449.26349,449.26349,0,0,1,179.04121,159.0875Z" fill="#d3946a" opacity="0.4" style="mix-blend-mode:multiply"/><path d="M212.64341,116.93825c-.03371,9.95547,27.38031,7.87839,27.53845,0C240.33922,109.05907,212.68027,105.90815,212.64341,116.93825Z" fill="#ff8a90" opacity="0.3"/><path d="M329.90022,104.54491c-2.24213-9.69916-28.45642-1.41464-26.81077,6.29107C304.736,118.54169,332.38336,115.29173,329.90022,104.54491Z" fill="#ff8a90" opacity="0.3"/><path d="M312.1154,106.76859a1.57208,1.57208,0,0,1-1.572-1.572,7.01835,7.01835,0,1,0-14.0367,0,1.572,1.572,0,1,1-3.144,0,10.16235,10.16235,0,1,1,20.3247,0A1.57207,1.57207,0,0,1,312.1154,106.76859Z" fill="#75593d"/><path d="M232.37712,115.16975a1.57229,1.57229,0,0,1-1.5628-1.41465A10.16345,10.16345,0,1,1,251.0392,111.721a1.57219,1.57219,0,0,1-3.1286.31471,7.019,7.019,0,0,0-13.96761,1.40466,1.57233,1.57233,0,0,1-1.407,1.72165C232.48229,115.16739,232.42931,115.16975,232.37712,115.16975Z" fill="#75593d"/><path d="M179.04121,155.93579s-4.37677,1.72245-.19116,6.15368c0,0,31.70865,13.8402,94.52648,13.33747s88.828-13.33747,88.828-13.33747,3.32053-4.0674,0-7.75484c0,0-41.75318,16.64953-89.66774,14.91711A449.287,449.287,0,0,1,179.04121,155.93579Z" fill="#44c6cf"/><path d="M345.73993,159.71842a263.3839,263.3839,0,0,1-86.06157,13.77268c-14.93636-.07372-30.04076-.88047-44.73983-3.669-12.68965-2.40791-25.5865-6.23424-36.23892-13.71743-.94257.52811-3.29365,2.33882.15044,5.98484,0,0,31.70865,13.8402,94.52648,13.33747s88.828-13.33747,88.828-13.33747,3.32053-4.0674,0-7.75484C362.20451,154.33463,356.04007,156.79167,345.73993,159.71842Z" fill="#44c6cf" opacity="0.2" style="mix-blend-mode:multiply"/><path d="M322.68883,54.07357s4.94394-12.16036,5.41759-12.386c.472-.22605,6.61725,12.18992,6.61725,12.18992A70.09506,70.09506,0,0,1,322.68883,54.07357Z" fill="#de6162" opacity="0.5"/><path d="M193.49543,84.93021l13.43879-7.06937s-10.4-11.648-11.03009-11.34559S193.49543,84.93021,193.49543,84.93021Z" fill="#de6162" opacity="0.5"/><path d="M270.48814,115.94034c-.182,2.30353,6.48064,2.4693,6.60192.26253C277.21134,113.99688,270.64549,113.9439,270.48814,115.94034Z" fill="#ea7177" opacity="0.7"/><path d="M266.91655,116.46618c.07066.91341,2.31045,1.25956,2.20528,0C269.01745,115.205,266.81069,115.09909,266.91655,116.46618Z" fill="#ea7177" opacity="0.7"/><path d="M269.70214,175.41311c-.56262-.59492-.61175-4.11958.09825-5.3562.221-.38451.41752-.8205.66165-.85737l2.74023.07523a1.02547,1.02547,0,0,0-.22951-.72226,3.624,3.624,0,0,0-2.73489-1.0071,2.85054,2.85054,0,0,0-2.077,1.5628,9.76235,9.76235,0,0,0-.25026,6.95351,1.89511,1.89511,0,0,0,1.43154,1.18128,3.19154,3.19154,0,0,0,1.255-.06375l-.26331,6.536a1.00943,1.00943,0,0,0,.9065,1.06691h.03914a1.02172,1.02172,0,0,0,.94414-.9902l.33924-8.25835-1.70782-.04378A6.788,6.788,0,0,1,269.70214,175.41311Z" fill="#f90"/><path d="M278.70427,191.91605c-.9318-2.39793-1.552-9.66765-7.40482-8.88778-5.85429.77979-4.67993,6.18283-5.14658,10.44594-.215,1.95808-1.77007,4.49034-2.10089,5.2809-.19572.46751,2.50537,1.51219,6.4415,1.6135a2.46276,2.46276,0,0,0,4.90716.12277,2.38822,2.38822,0,0,0,.00456-.49659,22.86769,22.86769,0,0,0,6.56514-2.23287C282.7425,197.35815,279.62075,194.2779,278.70427,191.91605Z" fill="#ef8782"/><path d="M278.70427,191.91605c-.43213-1.113-.79826-3.27527-1.65028-5.19421a19.53506,19.53506,0,0,1-2.42552,4.89332c-2.33269,3.36888-5.38685,6.60578-9.18488,7.99583a18.72365,18.72365,0,0,0,5.04989.75762,2.46276,2.46276,0,0,0,4.90716.12277,2.38822,2.38822,0,0,0,.00456-.49659,22.86769,22.86769,0,0,0,6.56514-2.23287C282.7425,197.35815,279.62075,194.2779,278.70427,191.91605Z" fill="#ef8782" opacity="0.15" style="mix-blend-mode:multiply"/><path d="M273.78722,184.94179c-.9311-1.311-6.589.72-4.97091,2.92219S275.47586,187.3236,273.78722,184.94179Z" fill="#ffa1a1" opacity="0.5"/><path d="M268.57,189.42136c-1.27961-.14659-1.66026,3.6806-.02232,3.58306C270.18568,192.90617,269.84951,189.56873,268.57,189.42136Z" fill="#ffa1a1" opacity="0.5"/></g></g></g></svg>