<svg xmlns="http://www.w3.org/2000/svg" viewBox="0 0 660.18719 491.51033"><title>main-banner-bg</title><g id="f6325f9a-3136-4531-bdf4-5e6e48632ee8" data-name="Layer 2"><g id="9f8d924d-b6b6-4caf-ad0f-7a2185ad8d80" data-name="Layer 1"><g id="cca402a9-7622-432b-9ba6-51e14202ee75" data-name="huellas"><path d="M234.9717,243.84075a14.19516,14.19516,0,0,1,1.95154-5.40514c5.4261-8.71235,16.83427-8.50329,22.77362-.63553a14.61517,14.61517,0,0,1,2.96079,7.26712,9.84692,9.84692,0,0,1-2.13769,7.48807,4.57207,4.57207,0,0,1-6.25729.71966,8.50522,8.50522,0,0,1-1.99556-2.41865,4.54821,4.54821,0,0,0-2.05817-2.35722,3.31664,3.31664,0,0,0-1.42715-.22257,3.96207,3.96207,0,0,0-3.48506,2.18093c-.57482,1.11609-1.177,2.3801-2.39495,2.90759a4.0295,4.0295,0,0,1-2.61455.115C235.76085,252.32242,234.36786,248.05255,234.9717,243.84075Z" fill="#44c6cf"/><path d="M241.26663,221.5499c-3.82251,1.41846-4.62138,7.01911-.54388,8.6729a4.61268,4.61268,0,0,0,5.84842-6.35918A4.54589,4.54589,0,0,0,241.26663,221.5499Z" fill="#44c6cf"/><path d="M253.4221,221.5499c-3.8225,1.41846-4.62138,7.01911-.54388,8.6729a4.6127,4.6127,0,0,0,5.84846-6.35918A4.546,4.546,0,0,0,253.4221,221.5499Z" fill="#44c6cf"/><path d="M263.49456,229.42715c-3.19918.70726-4.14893,4.9817-1.78142,7.18491a4.54332,4.54332,0,0,0,6.39811-.49706C270.79038,232.70723,267.36761,228.57094,263.49456,229.42715Z" fill="#44c6cf"/><path d="M231.58885,229.42715c-3.19921.70726-4.149,4.9817-1.78142,7.18491a4.54328,4.54328,0,0,0,6.39808-.49706C238.88468,232.70723,235.46187,228.57094,231.58885,229.42715Z" fill="#44c6cf"/><path d="M15.45472,205.2042a14.19642,14.19642,0,0,1,.42521-5.73094c2.88169-9.851,13.9254-12.71934,21.76269-6.73986a14.61451,14.61451,0,0,1,4.807,6.20241,9.84692,9.84692,0,0,1-.044,7.78709,4.57212,4.57212,0,0,1-5.83287,2.37683A8.5061,8.5061,0,0,1,34,207.3072a4.54848,4.54848,0,0,0-2.61653-1.7165,3.3176,3.3176,0,0,0-1.43445.16965,3.962,3.962,0,0,0-2.76963,3.03827c-.25336,1.2296-.49321,2.609-1.5243,3.44474a4.02953,4.02953,0,0,1-2.48719.81431C18.497,213.1607,16.00647,209.42309,15.45472,205.2042Z" fill="#44c6cf"/><path d="M15.51961,182.04163c-3.29989,2.39471-2.56227,8.00371,1.80985,8.49939a4.61269,4.61269,0,0,0,3.92163-7.69831A4.54585,4.54585,0,0,0,15.51961,182.04163Z" fill="#44c6cf"/><path d="M27.22676,178.77088c-3.29985,2.3947-2.56227,8.00375,1.80985,8.49939a4.61269,4.61269,0,0,0,3.92164-7.69831A4.54586,4.54586,0,0,0,27.22676,178.77088Z" fill="#44c6cf"/><path d="M39.04734,183.64738c-2.8909,1.542-2.6555,5.91437.21753,7.39925a4.54335,4.54335,0,0,0,6.02842-2.20034C46.95664,184.84336,42.54712,181.7806,39.04734,183.64738Z" fill="#44c6cf"/><path d="M8.31832,192.23241c-2.8909,1.542-2.65546,5.91436.21756,7.39928a4.54335,4.54335,0,0,0,6.02839-2.20033C16.22766,193.42838,11.81813,190.36566,8.31832,192.23241Z" fill="#44c6cf"/><path d="M100.77327,303.28992a14.19579,14.19579,0,0,1,3.334-4.68067c7.57027-6.931,18.50142-3.6599,22.10463,5.51589a14.61489,14.61489,0,0,1,.89616,7.79576,9.847,9.847,0,0,1-4.07376,6.63666,4.5721,4.5721,0,0,1-6.22017-.99057,8.50537,8.50537,0,0,1-1.27109-2.86646,4.54855,4.54855,0,0,0-1.348-2.82408,3.31819,3.31819,0,0,0-1.31464-.59841,3.962,3.962,0,0,0-3.94333,1.16275c-.854.92026-1.77406,1.9756-3.089,2.15592a4.02937,4.02937,0,0,1-2.54908-.59277C99.25106,311.67109,99.05842,307.18384,100.77327,303.28992Z" fill="#44c6cf"/><path d="M112.83409,283.515c-4.06321.33757-6.33965,5.51668-2.85755,8.20667a4.6127,4.6127,0,0,0,7.34389-4.5509A4.54594,4.54594,0,0,0,112.83409,283.515Z" fill="#44c6cf"/><path d="M124.54124,286.78588c-4.06321.33756-6.33965,5.51667-2.85755,8.20666a4.61271,4.61271,0,0,0,7.34389-4.55094A4.54586,4.54586,0,0,0,124.54124,286.78588Z" fill="#44c6cf"/><path d="M132.12258,297.08291c-3.2715-.17969-5.3364,3.68156-3.64907,6.44056a4.54337,4.54337,0,0,0,6.29591,1.24287C138.26672,302.20517,136.08316,297.30044,132.12258,297.08291Z" fill="#44c6cf"/><path d="M101.39364,288.49765c-3.27154-.17965-5.33644,3.68155-3.64907,6.44056a4.54336,4.54336,0,0,0,6.29591,1.24287C107.53773,293.61991,105.35421,288.71518,101.39364,288.49765Z" fill="#44c6cf"/><path d="M514.5065,215.49356a14.19516,14.19516,0,0,1,1.95154-5.40514c5.42609-8.71235,16.83426-8.50329,22.77363-.63553a14.61516,14.61516,0,0,1,2.96078,7.26712,9.847,9.847,0,0,1-2.13769,7.48807,4.57207,4.57207,0,0,1-6.25729.71966,8.50522,8.50522,0,0,1-1.99556-2.41865,4.54821,4.54821,0,0,0-2.05817-2.35722,3.31666,3.31666,0,0,0-1.42716-.22257,3.96207,3.96207,0,0,0-3.48505,2.18093c-.57482,1.11609-1.177,2.3801-2.39495,2.90759a4.0295,4.0295,0,0,1-2.61455.115C515.29565,223.97523,513.90266,219.70536,514.5065,215.49356Z" fill="#44c6cf"/><path d="M520.80142,193.20271c-3.8225,1.41846-4.62138,7.01911-.54387,8.6729a4.61268,4.61268,0,0,0,5.84842-6.35918A4.54589,4.54589,0,0,0,520.80142,193.20271Z" fill="#44c6cf"/><path d="M532.9569,193.20271c-3.8225,1.41846-4.62138,7.01911-.54388,8.6729a4.6127,4.6127,0,0,0,5.84846-6.35918A4.546,4.546,0,0,0,532.9569,193.20271Z" fill="#44c6cf"/><path d="M543.02936,201.08c-3.19918.70726-4.14892,4.9817-1.78142,7.18491a4.54333,4.54333,0,0,0,6.39812-.49706C550.32518,204.36,546.90241,200.22375,543.02936,201.08Z" fill="#44c6cf"/><path d="M511.12365,201.08c-3.19921.70726-4.149,4.9817-1.78142,7.18491a4.54328,4.54328,0,0,0,6.39808-.49706C518.41947,204.36,514.99667,200.22375,511.12365,201.08Z" fill="#44c6cf"/><path d="M342.36429,195.98593a14.19559,14.19559,0,0,1,3.86671-4.25122c8.34041-5.982,18.80529-1.43491,21.29236,8.10407a14.6146,14.6146,0,0,1-.03681,7.847,9.84678,9.84678,0,0,1-4.83367,6.10543,4.57206,4.57206,0,0,1-6.0583-1.72284,8.50541,8.50541,0,0,1-.92144-2.9972,4.5485,4.5485,0,0,0-1.00275-2.96433,3.31744,3.31744,0,0,0-1.2342-.75038,3.962,3.962,0,0,0-4.05361.68581c-.95727.81219-1.99627,1.75071-3.32335,1.77347a4.02956,4.02956,0,0,1-2.46054-.89156C339.85669,204.12677,340.19875,199.64846,342.36429,195.98593Z" fill="#44c6cf"/><path d="M356.69,177.78475c-4.07455-.14776-6.95041,4.72406-3.8127,7.80886a4.61272,4.61272,0,0,0,7.83273-3.6458A4.54594,4.54594,0,0,0,356.69,177.78475Z" fill="#44c6cf"/><path d="M367.92542,182.42384c-4.07455-.14776-6.95042,4.7241-3.8127,7.80887a4.6127,4.6127,0,0,0,7.83273-3.64577A4.546,4.546,0,0,0,367.92542,182.42384Z" fill="#44c6cf"/><path d="M374.22913,193.549c-3.227-.56725-5.73617,3.02118-4.3887,5.96118a4.54337,4.54337,0,0,0,6.10354,1.98238C379.72088,199.36523,378.13576,194.23572,374.22913,193.549Z" fill="#44c6cf"/><path d="M344.73844,181.37224c-3.227-.56722-5.73618,3.02122-4.3887,5.96122a4.54328,4.54328,0,0,0,6.10351,1.98233C350.23016,187.18849,348.64508,182.059,344.73844,181.37224Z" fill="#44c6cf"/><path d="M435.59477,312.04913a14.1958,14.1958,0,0,1-.2656-5.74054c1.67867-10.12566,12.29835-14.29856,20.7966-9.3028a14.61454,14.61454,0,0,1,5.51656,5.58073,9.8468,9.8468,0,0,1,.89081,7.73607,4.57208,4.57208,0,0,1-5.50545,3.05964,8.50612,8.50612,0,0,1-2.76929-1.47082,4.54832,4.54832,0,0,0-2.80361-1.39008,3.31739,3.31739,0,0,0-1.40374.34056,3.962,3.962,0,0,0-2.385,3.34867c-.10394,1.2511-.1765,2.64932-1.09987,3.60277a4.02944,4.02944,0,0,1-2.37148,1.10692C439.56991,319.58306,436.64881,316.17136,435.59477,312.04913Z" fill="#44c6cf"/><path d="M432.8795,289.04617c-2.98862,2.77338-1.58323,8.2534,2.81677,8.22076a4.61267,4.61267,0,0,0,2.96945-8.11328A4.54592,4.54592,0,0,0,432.8795,289.04617Z" fill="#44c6cf"/><path d="M444.1096,284.39416c-2.98866,2.77338-1.58327,8.25336,2.81672,8.22076a4.61272,4.61272,0,0,0,2.96949-8.11332A4.5459,4.5459,0,0,0,444.1096,284.39416Z" fill="#44c6cf"/><path d="M456.42992,287.81685c-2.685,1.8778-1.92651,6.19031,1.104,7.31971a4.54329,4.54329,0,0,0,5.72074-2.90791C464.42563,288.055,459.68043,285.5436,456.42992,287.81685Z" fill="#44c6cf"/><path d="M426.95325,300.02752c-2.685,1.87776-1.92655,6.19028,1.10392,7.31968a4.54334,4.54334,0,0,0,5.72078-2.90788C434.94893,300.26567,430.20373,297.75423,426.95325,300.02752Z" fill="#44c6cf"/><path d="M228.67673,118.11438a14.19572,14.19572,0,0,1,.06744-5.74625c2.26254-10.0114,13.10617-13.562,21.30067-8.08221a14.61462,14.61462,0,0,1,5.184,5.891,9.847,9.847,0,0,1,.44107,7.77472,4.57205,4.57205,0,0,1-5.67349,2.73547,8.50531,8.50531,0,0,1-2.6794-1.62878,4.54845,4.54845,0,0,0-2.71837-1.5502,3.31755,3.31755,0,0,0-1.42111.25867,3.962,3.962,0,0,0-2.575,3.20484c-.17626,1.243-.32973,2.63464-1.30676,3.533a4.0297,4.0297,0,0,1-2.43168.96762C232.20863,125.866,229.49014,122.29075,228.67673,118.11438Z" fill="#44c6cf"/><path d="M227.29886,94.99276c-3.14433,2.59558-2.05883,8.14777,2.33569,8.37018a4.61273,4.61273,0,0,0,3.43458-7.92765A4.54593,4.54593,0,0,0,227.29886,94.99276Z" fill="#44c6cf"/><path d="M238.77959,90.99923c-3.14429,2.59558-2.05879,8.14777,2.33569,8.37018a4.61269,4.61269,0,0,0,3.43458-7.92761A4.54593,4.54593,0,0,0,238.77959,90.99923Z" fill="#44c6cf"/><path d="M250.88093,95.13005c-2.78925,1.71906-2.282,6.06827.678,7.37137a4.54329,4.54329,0,0,0,5.87964-2.57152C258.8494,95.83109,254.25767,93.04893,250.88093,95.13005Z" fill="#44c6cf"/><path d="M220.74625,105.61225c-2.78924,1.71906-2.28195,6.06827.678,7.37137a4.54329,4.54329,0,0,0,5.87964-2.57152C228.71473,106.31333,224.123,103.53117,220.74625,105.61225Z" fill="#44c6cf"/><path d="M12.09645,30.915a14.19566,14.19566,0,0,1,4.31605-3.7942c8.95468-5.01611,18.84813.668,20.25753,10.42464a14.61453,14.61453,0,0,1-.91033,7.7941,9.84708,9.84708,0,0,1-5.48349,5.52924A4.57211,4.57211,0,0,1,24.4474,48.482a8.50614,8.50614,0,0,1-.58195-3.08118,4.54843,4.54843,0,0,0-.66643-3.05752,3.31752,3.31752,0,0,0-1.143-.88317,3.962,3.962,0,0,0-4.10472.23016c-1.0418.70057-2.17883,1.51756-3.50017,1.3924a4.02963,4.02963,0,0,1-2.346-1.16C8.698,38.726,9.53658,34.31363,12.09645,30.915Z" fill="#44c6cf"/><path d="M28.35982,14.42221c-4.03274-.60052-7.43322,3.92077-4.65851,7.33578a4.61272,4.61272,0,0,0,8.19-2.75093A4.546,4.546,0,0,0,28.35982,14.42221Z" fill="#44c6cf"/><path d="M39.0088,20.28359c-4.03275-.60057-7.43323,3.92077-4.65855,7.33574a4.6127,4.6127,0,0,0,8.19-2.75094A4.54588,4.54588,0,0,0,39.0088,20.28359Z" fill="#44c6cf"/><path d="M44.03448,32.04148c-3.14375-.923-6.03689,2.36367-5.02517,5.43542a4.5433,4.5433,0,0,0,5.84483,2.64968C48.84444,38.433,47.84037,33.159,44.03448,32.04148Z" fill="#44c6cf"/><path d="M16.08309,16.6566c-3.14375-.92305-6.03689,2.36368-5.02517,5.43542a4.54329,4.54329,0,0,0,5.84483,2.64967C20.89305,23.04818,19.889,17.77407,16.08309,16.6566Z" fill="#44c6cf"/><path d="M100.7476,139.7116a14.19583,14.19583,0,0,1,3.39272-4.63831c7.657-6.835,18.54608-3.42647,22.03341,5.794a14.61489,14.61489,0,0,1,.79785,7.80646,9.847,9.847,0,0,1-4.15707,6.58481,4.5721,4.5721,0,0,1-6.20717-1.06888,8.5059,8.5059,0,0,1-1.23491-2.88224,4.54831,4.54831,0,0,0-1.31228-2.84086,3.31757,3.31757,0,0,0-1.307-.6149,3.962,3.962,0,0,0-3.95765,1.113c-.8655.9094-1.79883,1.95308-3.11595,2.11679a4.02934,4.02934,0,0,1-2.54141-.62482C99.11992,148.073,98.98382,143.58363,100.7476,139.7116Z" fill="#44c6cf"/><path d="M113.05662,120.09026c-4.06716.28635-6.40863,5.43636-2.96071,8.17a4.61271,4.61271,0,0,0,7.40062-4.458A4.54585,4.54585,0,0,0,113.05662,120.09026Z" fill="#44c6cf"/><path d="M124.72164,123.5083c-4.06715.28639-6.40867,5.4364-2.9607,8.17006a4.61271,4.61271,0,0,0,7.40062-4.458A4.546,4.546,0,0,0,124.72164,123.5083Z" fill="#44c6cf"/><path d="M132.17262,133.90007c-3.269-.22087-5.38238,3.614-3.7299,6.39406a4.54329,4.54329,0,0,0,6.27973,1.32208C138.25172,139.09934,136.13013,134.16748,132.17262,133.90007Z" fill="#44c6cf"/><path d="M101.55427,124.92834c-3.269-.22087-5.38238,3.614-3.7299,6.39406a4.54332,4.54332,0,0,0,6.27973,1.32208C107.63337,130.12761,105.51181,125.19575,101.55427,124.92834Z" fill="#44c6cf"/><path d="M172.7967,19.62975a14.196,14.196,0,0,1,3.39273-4.63831c7.657-6.835,18.54608-3.42647,22.0334,5.794a14.615,14.615,0,0,1,.79786,7.80646,9.847,9.847,0,0,1-4.15708,6.5848,4.57208,4.57208,0,0,1-6.20717-1.06887,8.50585,8.50585,0,0,1-1.2349-2.88223,4.54832,4.54832,0,0,0-1.31229-2.84087,3.31747,3.31747,0,0,0-1.307-.6149,3.962,3.962,0,0,0-3.95765,1.113c-.86551.9094-1.79884,1.95307-3.116,2.1168a4.02939,4.02939,0,0,1-2.5414-.62482C171.169,27.99111,171.03292,23.50178,172.7967,19.62975Z" fill="#44c6cf"/><path d="M185.10573.00841c-4.06716.28635-6.40864,5.43637-2.96071,8.17a4.73354,4.73354,0,0,0,5.24584.33666,4.73366,4.73366,0,0,0,2.15478-4.79469A4.54586,4.54586,0,0,0,185.10573.00841Z" fill="#44c6cf"/><path d="M196.77075,3.42646c-4.06715.28638-6.40867,5.4364-2.96071,8.17005a4.73362,4.73362,0,0,0,5.24585.33666,4.73367,4.73367,0,0,0,2.15478-4.79469A4.546,4.546,0,0,0,196.77075,3.42646Z" fill="#44c6cf"/><path d="M204.22173,13.81822c-3.269-.22087-5.38238,3.614-3.7299,6.39406a4.5433,4.5433,0,0,0,6.27973,1.32209C210.30082,19.01749,208.17923,14.08563,204.22173,13.81822Z" fill="#44c6cf"/><path d="M173.60338,4.84649c-3.269-.22087-5.38238,3.614-3.7299,6.39407a4.54333,4.54333,0,0,0,6.27973,1.32208C179.68247,10.04576,177.56092,5.1139,173.60338,4.84649Z" fill="#44c6cf"/><path d="M520.20279,43.47273a14.19542,14.19542,0,0,1-.44919-5.72909c1.35378-10.17424,11.83448-14.68479,20.48825-9.96356a14.6147,14.6147,0,0,1,5.69231,5.40134,9.84671,9.84671,0,0,1,1.1379,7.70364,4.572,4.572,0,0,1-5.4047,3.23422,8.5055,8.5055,0,0,1-2.815-1.38145,4.54823,4.54823,0,0,0-2.84665-1.29964,3.31724,3.31724,0,0,0-1.39208.38532,3.962,3.962,0,0,0-2.27667,3.42324c-.06386,1.25381-.09166,2.65365-.984,3.63616a4.02936,4.02936,0,0,1-2.33487,1.18219C524.417,50.8756,521.38817,47.55909,520.20279,43.47273Z" fill="#44c6cf"/><path d="M516.75282,20.56843c-2.89839,2.8676-1.31835,8.29983,3.07834,8.12644a4.61271,4.61271,0,0,0,2.70834-8.20419A4.54592,4.54592,0,0,0,516.75282,20.56843Z" fill="#44c6cf"/><path d="M527.82826,15.55945c-2.89834,2.86759-1.31834,8.29978,3.07839,8.12639a4.61269,4.61269,0,0,0,2.70829-8.20415A4.54582,4.54582,0,0,0,527.82826,15.55945Z" fill="#44c6cf"/><path d="M540.25181,18.58614c-2.62349,1.96273-1.72745,6.24878,1.33759,7.28062a4.54329,4.54329,0,0,0,5.62479-3.08945C548.251,18.5683,543.42792,16.21,540.25181,18.58614Z" fill="#44c6cf"/><path d="M511.181,31.73378c-2.62349,1.96275-1.72749,6.24877,1.33759,7.2806a4.54332,4.54332,0,0,0,5.62479-3.08942C519.1802,31.716,514.35705,29.35767,511.181,31.73378Z" fill="#44c6cf"/><path d="M625.18956,138.83437a14.19522,14.19522,0,0,1,4.49929-3.575c9.19291-4.56485,18.79163,1.604,19.71437,11.4186a14.61472,14.61472,0,0,1-1.29661,7.73925,9.84685,9.84685,0,0,1-5.75153,5.24982,4.572,4.572,0,0,1-5.70294-2.67349,8.50505,8.50505,0,0,1-.42808-3.1063,4.54822,4.54822,0,0,0-.51368-3.08685,3.31676,3.31676,0,0,0-1.09766-.93888,3.96194,3.96194,0,0,0-4.11109.02586c-1.07531.64789-2.25156,1.40736-3.56506,1.21669a4.02961,4.02961,0,0,1-2.28545-1.27515C621.40706,146.46681,622.46394,142.10154,625.18956,138.83437Z" fill="#44c6cf"/><path d="M642.25256,123.1703c-3.9979-.80025-7.6189,3.54643-5.01737,7.09515a4.61272,4.61272,0,0,0,8.31659-2.3405A4.5459,4.5459,0,0,0,642.25256,123.1703Z" fill="#44c6cf"/><path d="M652.597,129.55366c-3.9979-.80022-7.6189,3.54647-5.01737,7.09514a4.61269,4.61269,0,0,0,8.31659-2.34045A4.546,4.546,0,0,0,652.597,129.55366Z" fill="#44c6cf"/><path d="M657.03215,141.54684c-3.094-1.07818-6.147,2.06068-5.28915,5.17895a4.54332,4.54332,0,0,0,5.7059,2.93689C661.51845,148.16957,660.77776,142.85207,657.03215,141.54684Z" fill="#44c6cf"/><path d="M629.88,124.79172c-3.094-1.07817-6.14693,2.06069-5.28916,5.179a4.54336,4.54336,0,0,0,5.70594,2.93688C634.36629,131.41445,633.62556,126.097,629.88,124.79172Z" fill="#44c6cf"/><path d="M343.63593,38.32362a14.19536,14.19536,0,0,1,1.95155-5.40514c5.42609-8.71235,16.83426-8.50329,22.77362-.63551a14.615,14.615,0,0,1,2.96079,7.2671,9.847,9.847,0,0,1-2.1377,7.48807,4.57206,4.57206,0,0,1-6.25728.71966,8.50542,8.50542,0,0,1-1.99557-2.41865,4.54815,4.54815,0,0,0-2.05816-2.35722,3.31668,3.31668,0,0,0-1.42716-.22257,3.96208,3.96208,0,0,0-3.48506,2.18093c-.57481,1.11609-1.177,2.3801-2.39494,2.90759a4.0295,4.0295,0,0,1-2.61455.115C344.42509,46.8053,343.0321,42.53542,343.63593,38.32362Z" fill="#44c6cf"/><path d="M349.93086,16.03277c-3.8225,1.41846-4.62138,7.01912-.54387,8.6729a4.61268,4.61268,0,0,0,5.84842-6.35918A4.5459,4.5459,0,0,0,349.93086,16.03277Z" fill="#44c6cf"/><path d="M362.08633,16.03277c-3.8225,1.41846-4.62138,7.01912-.54387,8.6729a4.61271,4.61271,0,0,0,5.84846-6.35918A4.546,4.546,0,0,0,362.08633,16.03277Z" fill="#44c6cf"/><path d="M372.1588,23.91c-3.19918.70726-4.14893,4.9817-1.78143,7.18492a4.54333,4.54333,0,0,0,6.39812-.49709C379.45462,27.1901,376.03185,23.05381,372.1588,23.91Z" fill="#44c6cf"/><path d="M340.25308,23.91c-3.19922.70726-4.149,4.9817-1.78142,7.18492a4.5433,4.5433,0,0,0,6.39809-.49709C347.54891,27.1901,344.1261,23.05381,340.25308,23.91Z" fill="#44c6cf"/><path d="M432.2209,143.83816a14.19517,14.19517,0,0,1,1.95155-5.40514c5.42609-8.71235,16.83425-8.50329,22.77362-.63553a14.61517,14.61517,0,0,1,2.96079,7.26712,9.847,9.847,0,0,1-2.1377,7.48807,4.57206,4.57206,0,0,1-6.25728.71966,8.50551,8.50551,0,0,1-1.99557-2.41864,4.54813,4.54813,0,0,0-2.05816-2.35723,3.31652,3.31652,0,0,0-1.42716-.22256,3.96205,3.96205,0,0,0-3.48506,2.18092c-.57481,1.11609-1.177,2.3801-2.39494,2.90759a4.02953,4.02953,0,0,1-2.61456.115C433.01006,152.31984,431.61707,148.05,432.2209,143.83816Z" fill="#44c6cf"/><path d="M438.51583,121.54731c-3.8225,1.41846-4.62138,7.01912-.54387,8.6729a4.61268,4.61268,0,0,0,5.84842-6.35918A4.5459,4.5459,0,0,0,438.51583,121.54731Z" fill="#44c6cf"/><path d="M450.6713,121.54731c-3.8225,1.41846-4.62138,7.01912-.54387,8.6729a4.61271,4.61271,0,0,0,5.84846-6.35918A4.546,4.546,0,0,0,450.6713,121.54731Z" fill="#44c6cf"/><path d="M460.74377,129.42456c-3.19918.70726-4.14893,4.9817-1.78143,7.18491a4.54333,4.54333,0,0,0,6.39812-.49706C468.03959,132.70464,464.61682,128.56836,460.74377,129.42456Z" fill="#44c6cf"/><path d="M428.83806,129.42456c-3.19922.70726-4.149,4.9817-1.78142,7.18491a4.54328,4.54328,0,0,0,6.39808-.49706C436.13388,132.70464,432.71107,128.56836,428.83806,129.42456Z" fill="#44c6cf"/><path d="M200.84637,381.03481a14.19542,14.19542,0,0,1,1.226-5.61436c4.237-9.34859,15.5741-10.637,22.49369-3.61588a14.61438,14.61438,0,0,1,3.888,6.8162,9.84689,9.84689,0,0,1-1.13747,7.70371,4.57209,4.57209,0,0,1-6.1089,1.53385,8.50556,8.50556,0,0,1-2.29545-2.13619,4.5487,4.5487,0,0,0-2.34947-2.067,3.3177,3.3177,0,0,0-1.44406-.0335,3.962,3.962,0,0,0-3.169,2.619c-.42355,1.18185-.85482,2.51389-1.99308,3.1965a4.02939,4.02939,0,0,1-2.57692.45683C202.74075,389.33979,200.8,385.28937,200.84637,381.03481Z" fill="#44c6cf"/><path d="M204.1644,358.111c-3.60351,1.90737-3.66119,7.56441.59793,8.66936a4.61273,4.61273,0,0,0,4.96423-7.07109A4.546,4.546,0,0,0,204.1644,358.111Z" fill="#44c6cf"/><path d="M216.215,356.51733c-3.60356,1.90741-3.66123,7.5644.59789,8.66935a4.61271,4.61271,0,0,0,4.96422-7.07108A4.54588,4.54588,0,0,0,216.215,356.51733Z" fill="#44c6cf"/><path d="M227.23327,363.006c-3.07886,1.12062-3.46,5.48266-.824,7.35645a4.54333,4.54333,0,0,0,6.27772-1.33165C234.89618,365.30121,230.96061,361.64939,227.23327,363.006Z" fill="#44c6cf"/><path d="M195.603,367.18914c-3.07886,1.12062-3.46,5.48266-.824,7.35645a4.54333,4.54333,0,0,0,6.27772-1.33165C203.26588,369.48435,199.3303,365.83253,195.603,367.18914Z" fill="#44c6cf"/><path d="M225.65016,482.61224a14.19546,14.19546,0,0,1,1.226-5.61436c4.237-9.34858,15.57411-10.637,22.49369-3.61588a14.61442,14.61442,0,0,1,3.888,6.8162,9.84693,9.84693,0,0,1-1.13746,7.70371,4.57211,4.57211,0,0,1-6.10891,1.53386,8.50575,8.50575,0,0,1-2.29545-2.1362,4.54864,4.54864,0,0,0-2.34947-2.067,3.31754,3.31754,0,0,0-1.44406-.03351,3.962,3.962,0,0,0-3.169,2.619c-.42355,1.18184-.85481,2.51388-1.99308,3.1965a4.02938,4.02938,0,0,1-2.57692.45682C227.54454,490.91722,225.60378,486.8668,225.65016,482.61224Z" fill="#44c6cf"/><path d="M228.9682,459.68846c-3.60352,1.90737-3.6612,7.56441.59792,8.66936a4.61273,4.61273,0,0,0,4.96423-7.07109A4.546,4.546,0,0,0,228.9682,459.68846Z" fill="#44c6cf"/><path d="M241.01878,458.09476c-3.60355,1.90741-3.66123,7.56441.59789,8.66936a4.61273,4.61273,0,0,0,4.96423-7.07109A4.54591,4.54591,0,0,0,241.01878,458.09476Z" fill="#44c6cf"/><path d="M252.03706,464.58343c-3.07886,1.12062-3.46,5.48266-.824,7.35645a4.54333,4.54333,0,0,0,6.27772-1.33165C259.7,466.87865,255.7644,463.22682,252.03706,464.58343Z" fill="#44c6cf"/><path d="M220.40675,468.76657c-3.07886,1.12062-3.46,5.48266-.824,7.35645a4.54333,4.54333,0,0,0,6.27772-1.33165C228.06967,471.06179,224.13409,467.41,220.40675,468.76657Z" fill="#44c6cf"/><path d="M15.87465,367.90357a14.19638,14.19638,0,0,1,.1795-5.74389c2.45734-9.96538,13.36814-13.30381,21.45425-7.66528a14.61462,14.61462,0,0,1,5.06809,5.991,9.84692,9.84692,0,0,1,.28934,7.78182,4.572,4.572,0,0,1-5.72574,2.62432,8.50552,8.50552,0,0,1-2.64716-1.68076,4.54854,4.54854,0,0,0-2.68759-1.60291,3.31777,3.31777,0,0,0-1.42586.23091,3.96205,3.96205,0,0,0-2.63708,3.154c-.20048,1.23932-.381,2.62774-1.37539,3.50686a4.02944,4.02944,0,0,1-2.45006.92C19.25474,375.72255,16.60649,372.095,15.87465,367.90357Z" fill="#44c6cf"/><path d="M14.948,344.75942c-3.19434,2.53377-2.21734,8.10608,2.172,8.41412a4.61267,4.61267,0,0,0,3.58852-7.8591A4.54583,4.54583,0,0,0,14.948,344.75942Z" fill="#44c6cf"/><path d="M26.50442,340.99055c-3.19434,2.53376-2.21734,8.10607,2.172,8.41411a4.61267,4.61267,0,0,0,3.58852-7.8591A4.54583,4.54583,0,0,0,26.50442,340.99055Z" fill="#44c6cf"/><path d="M38.52288,345.35656c-2.82224,1.66438-2.39987,6.02264.53407,7.38319a4.54335,4.54335,0,0,0,5.92869-2.45637C46.47616,346.21289,41.93954,343.34171,38.52288,345.35656Z" fill="#44c6cf"/><path d="M8.1895,355.24914c-2.82224,1.66434-2.39987,6.0226.53411,7.38319a4.54329,4.54329,0,0,0,5.92865-2.45637C16.14277,356.10546,11.6062,353.23429,8.1895,355.24914Z" fill="#44c6cf"/><path d="M100.63063,463.881a14.19529,14.19529,0,0,1,3.818-4.29495c8.27179-6.07662,18.78777-1.64886,21.38323,7.86118a14.61479,14.61479,0,0,1,.05252,7.84694,9.84677,9.84677,0,0,1-4.76387,6.16,4.57211,4.57211,0,0,1-6.07755-1.65378,8.50489,8.50489,0,0,1-.95546-2.98654,4.54848,4.54848,0,0,0-1.03644-2.95267,3.31729,3.31729,0,0,0-1.24268-.73632,3.962,3.962,0,0,0-4.04549.73191c-.948.823-1.97624,1.77331-3.303,1.81119a4.02943,4.02943,0,0,1-2.47058-.86349C98.21588,472.04984,98.50691,467.56788,100.63063,463.881Z" fill="#44c6cf"/><path d="M114.74823,445.5179c-4.07592-.10138-6.89616,4.80288-3.72355,7.85177a4.6127,4.6127,0,0,0,7.79071-3.7347A4.54589,4.54589,0,0,0,114.74823,445.5179Z" fill="#44c6cf"/><path d="M126.03573,450.02884c-4.076-.10138-6.8962,4.80288-3.7236,7.85174a4.61271,4.61271,0,0,0,7.79075-3.7347A4.54592,4.54592,0,0,0,126.03573,450.02884Z" fill="#44c6cf"/><path d="M132.46566,461.08153c-3.23323-.53049-5.70141,3.08626-4.32058,6.01074a4.54334,4.54334,0,0,0,6.12571,1.91277C138.02325,466.83487,136.37986,461.72375,132.46566,461.08153Z" fill="#44c6cf"/><path d="M102.83828,449.24122c-3.23323-.53048-5.70141,3.0863-4.32058,6.01075a4.54334,4.54334,0,0,0,6.12571,1.91276C108.39587,454.99456,106.75248,449.88344,102.83828,449.24122Z" fill="#44c6cf"/><path d="M626.24356,429.86592a14.19631,14.19631,0,0,1-.10469-5.74574c1.96175-10.07467,12.69415-13.94836,21.04909-8.71649a14.615,14.615,0,0,1,5.35805,5.73314,9.8466,9.8466,0,0,1,.67368,7.758,4.572,4.572,0,0,1-5.589,2.90417,8.50561,8.50561,0,0,1-2.727-1.54784,4.54847,4.54847,0,0,0-2.76357-1.46811,3.31764,3.31764,0,0,0-1.41268.30111,3.96207,3.96207,0,0,0-2.47794,3.28052c-.13894,1.24771-.25067,2.64338-1.20038,3.57057a4.02942,4.02942,0,0,1-2.40156,1.04C630.006,437.50824,627.1817,434.016,626.24356,429.86592Z" fill="#44c6cf"/><path d="M624.1739,406.79591c-3.06519,2.68853-1.8139,8.20576,2.58527,8.29644a4.61268,4.61268,0,0,0,3.19563-8.0269A4.54587,4.54587,0,0,0,624.1739,406.79591Z" fill="#44c6cf"/><path d="M635.52991,402.46037c-3.0652,2.68853-1.81391,8.20576,2.58526,8.29643a4.61268,4.61268,0,0,0,3.19563-8.0269A4.54585,4.54585,0,0,0,635.52991,402.46037Z" fill="#44c6cf"/><path d="M647.74947,406.22692c-2.73648,1.80182-2.09918,6.1339.89845,7.34775a4.54334,4.54334,0,0,0,5.8-2.74645C655.73535,406.689,651.06239,404.0456,647.74947,406.22692Z" fill="#44c6cf"/><path d="M617.94225,417.60686c-2.73653,1.80182-2.09923,6.1339.8984,7.34775a4.5433,4.5433,0,0,0,5.8-2.74645C625.92812,418.069,621.25517,415.42558,617.94225,417.60686Z" fill="#44c6cf"/><path d="M493.95667,387.34513a14.19613,14.19613,0,0,1-.10468-5.74574c1.96174-10.07467,12.69414-13.94835,21.04908-8.71648a14.61493,14.61493,0,0,1,5.35806,5.73314,9.84657,9.84657,0,0,1,.67368,7.758,4.572,4.572,0,0,1-5.589,2.90417,8.50551,8.50551,0,0,1-2.727-1.54783,4.54847,4.54847,0,0,0-2.76357-1.46811,3.31749,3.31749,0,0,0-1.41268.30111,3.962,3.962,0,0,0-2.47793,3.28052c-.139,1.24771-.25068,2.64337-1.20039,3.57056a4.02946,4.02946,0,0,1-2.40156,1.04C497.71913,394.98746,494.89481,391.49524,493.95667,387.34513Z" fill="#44c6cf"/><path d="M491.887,364.27513c-3.06519,2.68853-1.8139,8.20576,2.58527,8.29643a4.61268,4.61268,0,0,0,3.19563-8.0269A4.54587,4.54587,0,0,0,491.887,364.27513Z" fill="#44c6cf"/><path d="M503.243,359.93958c-3.0652,2.68853-1.81391,8.20576,2.58526,8.29643a4.61268,4.61268,0,0,0,3.19563-8.0269A4.54587,4.54587,0,0,0,503.243,359.93958Z" fill="#44c6cf"/><path d="M515.46259,363.70613c-2.73649,1.80182-2.09919,6.1339.89844,7.34775a4.54334,4.54334,0,0,0,5.8-2.74645C523.44846,364.16823,518.77551,361.52482,515.46259,363.70613Z" fill="#44c6cf"/><path d="M485.65536,375.08607c-2.73653,1.80182-2.09923,6.1339.89841,7.34775a4.54329,4.54329,0,0,0,5.8-2.74645C493.64123,375.54817,488.96828,372.9048,485.65536,375.08607Z" fill="#44c6cf"/><path d="M520.5954,465.9991a14.19535,14.19535,0,0,1,4.68421-3.329c9.4241-4.0662,18.67883,2.60767,19.07486,12.45757a14.61447,14.61447,0,0,1-1.70906,7.65874,9.8469,9.8469,0,0,1-6.02432,4.93442,4.572,4.572,0,0,1-5.55164-2.975,8.50507,8.50507,0,0,1-.26119-3.12476,4.54828,4.54828,0,0,0-.34769-3.10993,3.317,3.317,0,0,0-1.04581-.99628,3.962,3.962,0,0,0-4.1066-.19426c-1.10846.58942-2.32365,1.28484-3.62506,1.02408a4.02951,4.02951,0,0,1-2.21391-1.39563C516.40974,473.41811,517.69879,469.11567,520.5954,465.9991Z" fill="#44c6cf"/><path d="M538.47247,451.27088c-3.94935-1.0131-7.79784,3.13355-5.39,6.8164a4.61273,4.61273,0,0,0,8.43-1.8919A4.546,4.546,0,0,0,538.47247,451.27088Z" fill="#44c6cf"/><path d="M548.46041,458.19889c-3.94936-1.01309-7.79784,3.13351-5.39,6.81636a4.61268,4.61268,0,0,0,8.42994-1.8919A4.54586,4.54586,0,0,0,548.46041,458.19889Z" fill="#44c6cf"/><path d="M552.24712,470.41224c-3.03185-1.2422-6.24843,1.72871-5.55881,4.8884a4.54337,4.54337,0,0,0,5.54054,3.23815C556.37246,477.26565,555.91749,471.91618,552.24712,470.41224Z" fill="#44c6cf"/><path d="M526.03081,452.22764c-3.03185-1.2422-6.24843,1.7287-5.5588,4.88839a4.54333,4.54333,0,0,0,5.54049,3.23816C530.15615,459.081,529.70118,453.73157,526.03081,452.22764Z" fill="#44c6cf"/><path d="M342.68166,360.949a14.19581,14.19581,0,0,1,3.02311-4.88726c7.10435-7.40783,18.22484-4.85331,22.41613,4.06916a14.61469,14.61469,0,0,1,1.40035,7.72115,9.84668,9.84668,0,0,1-3.63427,6.88715,4.57208,4.57208,0,0,1-6.27134-.58467,8.50519,8.50519,0,0,1-1.45453-2.77786,4.54853,4.54853,0,0,0-1.5285-2.73062,3.31758,3.31758,0,0,0-1.35071-.51179,3.96205,3.96205,0,0,0-3.85954,1.4163c-.79243.97372-1.64205,2.08659-2.94252,2.35191a4.02961,4.02961,0,0,1-2.58219-.426C341.70679,369.41128,341.22323,364.94605,342.68166,360.949Z" fill="#44c6cf"/><path d="M353.43323,340.43282c-4.0327.60064-5.9681,5.9166-2.31872,8.37486a4.6127,4.6127,0,0,0,7.03294-5.01809A4.54584,4.54584,0,0,0,353.43323,340.43282Z" fill="#44c6cf"/><path d="M365.328,342.93666c-4.0327.60068-5.96811,5.91665-2.31872,8.3749a4.61271,4.61271,0,0,0,7.03294-5.01812A4.54593,4.54593,0,0,0,365.328,342.93666Z" fill="#44c6cf"/><path d="M373.56191,352.71979c-3.27631.03311-5.08616,4.02026-3.22324,6.66391a4.54331,4.54331,0,0,0,6.36328.83148C380.02558,357.43235,377.52823,352.67975,373.56191,352.71979Z" fill="#44c6cf"/><path d="M342.34039,346.14765c-3.27628.03311-5.08617,4.02022-3.22324,6.66387a4.54333,4.54333,0,0,0,6.36332.83148C348.8041,350.86021,346.30671,346.10757,342.34039,346.14765Z" fill="#44c6cf"/><path d="M409.34,477.13281a14.19574,14.19574,0,0,1-2.54515-5.15234c-2.52239-9.94911,5.53294-18.03011,15.32126-16.86118a14.61469,14.61469,0,0,1,7.29141,2.90043,9.84694,9.84694,0,0,1,3.9181,6.72974,4.57208,4.57208,0,0,1-3.81668,5.01044,8.506,8.506,0,0,1-3.12665-.237,4.54841,4.54841,0,0,0-3.12575-.14926,3.317,3.317,0,0,0-1.14936.87487,3.962,3.962,0,0,0-.84215,4.024c.40643,1.18782.90061,2.49782.43706,3.74151a4.0297,4.0297,0,0,1-1.72867,1.96494C416.00253,482.44062,411.95857,480.48648,409.34,477.13281Z" fill="#44c6cf"/><path d="M397.62895,457.14883c-1.62579,3.73907,1.859,8.19568,5.87672,6.4015a4.61269,4.61269,0,0,0-.533-8.62317A4.54588,4.54588,0,0,0,397.62895,457.14883Z" fill="#44c6cf"/><path d="M406.05129,448.38415c-1.62575,3.73908,1.859,8.19569,5.87677,6.40151a4.61272,4.61272,0,0,0-.533-8.62318A4.54593,4.54593,0,0,0,406.05129,448.38415Z" fill="#44c6cf"/><path d="M418.71024,446.57946c-1.7067,2.79684.7173,6.44336,3.94636,6.26284a4.5433,4.5433,0,0,0,4.07471-4.95777C426.13051,443.59155,420.77643,443.19358,418.71024,446.57946Z" fill="#44c6cf"/><path d="M396.60325,469.585c-1.70674,2.79684.7173,6.44335,3.94632,6.26283a4.54333,4.54333,0,0,0,4.07471-4.95776C404.02348,466.5971,398.66944,466.19914,396.60325,469.585Z" fill="#44c6cf"/></g><g id="bb233bef-a52f-403d-a722-41e329f3dfc8" data-name="huesos"><g id="bc223a60-0927-4d72-8859-1ceac223acaf" data-name="hueso"><path d="M175.05637,194.32651a7.48052,7.48052,0,0,0-2.03631,7.88163,5.24978,5.24978,0,0,0,6.02929,4.00423c4.22731-.05464,6.14523-3.943,8.28844-7.32393a15.91671,15.91671,0,0,1,6.931-6.16681c3.67431-1.82682,7.40441-3.48745,11.16277-5.156,1.64761-.73147,3.33533-1.38173,4.95521-2.14387,3.04441-1.43232,6.30568-2.77421,9.73065-2.70952,3.57942.0676,6.93592,2.88145,10.3103.60513a5.86054,5.86054,0,0,0-3.1161-10.7187" fill="none" stroke="#f90" stroke-miterlimit="10"/><path d="M226.00225,173.83122a7.78359,7.78359,0,0,0,2.43649-4.12263c.45268-4.45255-2.64613-7.32837-6.59132-8.00631-4.45256-.45272-5.92,4.45036-8.0632,7.83131a12.66066,12.66066,0,0,1-4.96458,4.836q-1.94184.86205-3.88364,1.72418-5.54406,2.46131-11.088,4.92265l-7.13735,3.1687a13.345,13.345,0,0,1-2.97027,1.09522,14.99572,14.99572,0,0,1-7.31594-.6908c-2.12333-.62663-4.26782-.97471-6.1848.40851-4.835,3.48872-1.94675,10.79213,3.69068,10.59374" fill="none" stroke="#f90" stroke-miterlimit="10"/></g><polygon points="398.745 101.207 397.002 102.177 394.734 102.538 392.375 102.176 390.692 100.859 389.503 99.269 389.006 97.534 389.128 95.514 389.996 93.473 392.014 91.624 394.819 90.182 397.03 88.723 398.618 87.028 400.147 84.748 401.443 82.16 408.626 65.054 409.763 61.734 410.298 58.374 410.045 54.873 409.388 51.5 409.098 49.073 409.389 46.215 411.04 43.529 412.963 41.843 415.966 41.308 418.732 42.832 420.706 44.62 421.694 46.458 422.032 47.799 423.707 46.614 425.681 46.09 427.887 46.382 430.384 47.768 432.049 50.417 431.763 54.24 429.003 56.838 426.034 58.447 423.381 60.364 421.496 62.731 419.883 66.477 411.776 85.527 410.415 89.381 410.464 92.809 411.281 96.675 411.992 100.095 411.783 102.973 409.829 105.444 407.453 106.489 404.735 106.752 402.534 106.291 400.452 104.646 399.187 102.561 398.745 101.207" fill="none" stroke="#f90" stroke-miterlimit="10"/><g id="57ddb136-67e9-4527-93dd-b388983e600b" data-name="hueso"><path d="M557.83459,75.0713a7.48051,7.48051,0,0,0-6.42332,5.00076,5.24983,5.24983,0,0,0,2.33238,6.85175c3.38206,2.53664,7.27448.627,11.03564-.74328a15.91665,15.91665,0,0,1,9.25418-.6551c4.02558.79534,7.99391,1.75635,11.98948,2.7283,1.75162.42611,3.48541.941,5.2338,1.3259,3.2858.7234,6.68825,1.65079,9.3619,3.7923,2.79424,2.23809,3.73584,6.51564,7.79811,6.77183A5.86056,5.86056,0,0,0,612.49,89.751" fill="none" stroke="#f90" stroke-miterlimit="10"/><path d="M610.70056,89.9283a7.78342,7.78342,0,0,0,4.44614-1.77882c3.076-3.25088,2.37636-7.42024-.33513-10.365-3.25083-3.07606-7.40566-.0876-11.16686,1.28267a12.66068,12.66068,0,0,1-6.88423.801q-2.06439-.50216-4.12877-1.00436l-11.78787-2.86755q-3.7939-.92293-7.58783-1.84584a13.3441,13.3441,0,0,1-3.02142-.94518,14.99563,14.99563,0,0,1-5.3738-5.01221c-1.29956-1.79226-2.786-3.37682-5.14871-3.451-5.95925-.18717-8.12864,7.36106-3.54179,10.64445" fill="none" stroke="#f90" stroke-miterlimit="10"/></g><polygon points="227.477 172.471 229.413 172.95 231.317 174.234 232.795 176.108 233.127 178.219 232.912 180.192 232.092 181.8 230.625 183.194 228.598 184.094 225.861 184.07 222.827 183.211 220.214 182.77 217.897 182.926 215.224 183.551 212.511 184.558 195.591 192.168 192.495 193.82 189.811 195.912 187.608 198.645 185.788 201.56 184.345 203.532 182.182 205.423 179.143 206.262 176.586 206.183 174.026 204.525 173.042 201.524 172.819 198.871 173.35 196.853 174.017 195.641 171.984 195.365 170.183 194.402 168.769 192.684 167.889 189.967 168.478 186.895 171.295 184.294 175.086 184.277 178.353 185.125 181.601 185.533 184.595 185.088 188.329 183.449 207.252 175.048 210.875 173.158 213.178 170.618 215.218 167.234 217.031 164.248 219.147 162.286 222.261 161.812 224.711 162.669 226.878 164.33 228.174 166.169 228.574 168.792 228.076 171.18 227.477 172.471" fill="none" stroke="#f90" stroke-miterlimit="10"/><g id="619ce787-159b-499e-83f0-99df650292d9" data-name="hueso"><path d="M175.05637,82.90631a7.4805,7.4805,0,0,0-2.03631,7.88162,5.24979,5.24979,0,0,0,6.02929,4.00424c4.22731-.05465,6.14523-3.943,8.28844-7.32393a15.91667,15.91667,0,0,1,6.931-6.16682c3.67431-1.82681,7.40441-3.48745,11.16277-5.156,1.64761-.73148,3.33533-1.38173,4.95521-2.14388,3.04441-1.43232,6.30568-2.77421,9.73065-2.70952,3.57942.0676,6.93592,2.88145,10.3103.60514a5.86055,5.86055,0,0,0-3.1161-10.71871" fill="none" stroke="#f90" stroke-miterlimit="10"/><path d="M226.00225,62.411a7.7836,7.7836,0,0,0,2.43649-4.12262c.45268-4.45256-2.64613-7.32838-6.59132-8.00631-4.45256-.45273-5.92,4.45035-8.0632,7.8313a12.66066,12.66066,0,0,1-4.96458,4.836q-1.94184.862-3.88364,1.72418-5.54406,2.4613-11.088,4.92265-3.56868,1.58438-7.13735,3.1687a13.345,13.345,0,0,1-2.97027,1.09523,14.99584,14.99584,0,0,1-7.31594-.69081c-2.12333-.62663-4.26782-.97471-6.1848.40852-4.835,3.48871-1.94675,10.79213,3.69068,10.59374" fill="none" stroke="#f90" stroke-miterlimit="10"/></g><polygon points="227.477 61.051 229.413 61.53 231.317 62.814 232.795 64.688 233.127 66.799 232.912 68.772 232.092 70.38 230.625 71.774 228.598 72.674 225.861 72.65 222.827 71.79 220.214 71.349 217.897 71.506 215.224 72.131 212.511 73.138 195.591 80.748 192.495 82.4 189.811 84.492 187.608 87.224 185.788 90.14 184.345 92.112 182.182 94.003 179.143 94.842 176.586 94.762 174.026 93.105 173.042 90.104 172.819 87.451 173.35 85.432 174.017 84.221 171.984 83.945 170.183 82.982 168.769 81.264 167.889 78.547 168.478 75.474 171.295 72.874 175.086 72.856 178.353 73.705 181.601 74.113 184.595 73.668 188.329 72.029 207.252 63.628 210.875 61.738 213.178 59.198 215.218 55.814 217.031 52.828 219.147 50.866 222.261 50.392 224.711 51.249 226.878 52.91 228.174 54.749 228.574 57.371 228.076 59.759 227.477 61.051" fill="none" stroke="#f90" stroke-miterlimit="10"/><g id="5e480c79-ab26-48c8-ba88-b1fc0aa76e1d" data-name="hueso"><path d="M73.4226,57.90586a7.48048,7.48048,0,0,0-8.07218,1.05184,5.24984,5.24984,0,0,0-1.46511,7.088c1.62815,3.90156,5.95129,4.23,9.88781,4.95675a15.91667,15.91667,0,0,1,8.30773,4.12916c3.066,2.72723,5.99858,5.56821,8.94905,8.43242,1.29346,1.25566,2.52657,2.57881,3.83814,3.79734,2.4649,2.29,4.92682,4.815,6.14488,8.01667,1.273,3.34611-.08512,7.51015,3.28591,9.79135a5.86053,5.86053,0,0,0,8.78168-6.89077" fill="none" stroke="#f90" stroke-miterlimit="10"/><path d="M111.44839,97.52381a7.78353,7.78353,0,0,0,4.734.72207c4.29987-1.24149,5.81156-5.18962,4.96839-9.10284-1.24153-4.29987-6.338-3.83171-10.27452-4.55842a12.66048,12.66048,0,0,1-6.33925-2.80141q-1.52443-1.47984-3.04886-2.95972-4.35235-4.2251-8.70468-8.45018L87.18032,64.934a13.3434,13.3434,0,0,1-2.12451-2.34707,14.99591,14.99591,0,0,1-2.08911-7.04526c-.21095-2.20375-.68828-4.32326-2.68691-5.58561-5.04092-3.1839-10.739,2.221-8.45133,7.37723" fill="none" stroke="#f90" stroke-miterlimit="10"/></g><polygon points="113.26 98.384 113.538 100.359 113.058 102.605 111.871 104.676 110.037 105.771 108.125 106.308 106.327 106.148 104.487 105.306 102.896 103.762 101.897 101.213 101.561 98.077 100.996 95.489 99.986 93.398 98.409 91.151 96.462 89.01 83.088 76.151 80.4 73.895 77.457 72.186 74.1 71.162 70.716 70.561 68.348 69.958 65.786 68.657 63.874 66.151 62.994 63.749 63.576 60.755 65.994 58.723 68.372 57.526 70.442 57.266 71.815 57.433 71.313 55.443 71.534 53.413 72.6 51.459 74.793 49.629 77.863 49.03 81.327 50.673 82.758 54.183 83.19 57.531 84.023 60.697 85.553 63.308 88.467 66.161 103.323 80.582 106.428 83.239 109.644 84.427 113.544 85.057 116.992 85.624 119.601 86.856 121.203 89.568 121.322 92.16 120.589 94.791 119.367 96.679 117.084 98.029 114.682 98.458 113.26 98.384" fill="none" stroke="#f90" stroke-miterlimit="10"/><g id="f5936157-26ca-4c3b-b3b7-32852dfd151e" data-name="hueso"><path d="M71.84776,222.08333a7.48052,7.48052,0,0,0-8.07218,1.05184,5.24987,5.24987,0,0,0-1.46512,7.088c1.62815,3.90156,5.9513,4.23,9.88782,4.95674A15.91683,15.91683,0,0,1,80.506,239.3091c3.066,2.72723,5.99858,5.56821,8.94905,8.43242,1.29346,1.25566,2.52656,2.57881,3.83813,3.79734,2.46491,2.29,4.92683,4.815,6.14489,8.01667,1.27295,3.34611-.08513,7.51015,3.28591,9.79135a5.86053,5.86053,0,0,0,8.78168-6.89077" fill="none" stroke="#f90" stroke-miterlimit="10"/><path d="M109.87354,261.70129a7.78355,7.78355,0,0,0,4.734.72207c4.29988-1.24149,5.81157-5.18963,4.9684-9.10284-1.24153-4.29987-6.338-3.83171-10.27452-4.55842a12.66063,12.66063,0,0,1-6.33926-2.80141q-1.52442-1.47985-3.04886-2.95973-4.35235-4.22508-8.70467-8.45018l-5.60318-5.43935a13.3437,13.3437,0,0,1-2.1245-2.34707,14.99568,14.99568,0,0,1-2.08911-7.04526c-.21095-2.20376-.68829-4.32326-2.68692-5.58562-5.04092-3.1839-10.739,2.22105-8.45132,7.37724" fill="none" stroke="#f90" stroke-miterlimit="10"/></g><polygon points="111.686 262.562 111.963 264.537 111.483 266.782 110.296 268.853 108.462 269.949 106.55 270.486 104.752 270.325 102.912 269.484 101.321 267.939 100.322 265.391 99.987 262.255 99.421 259.667 98.411 257.575 96.834 255.328 94.887 253.188 81.513 240.329 78.825 238.073 75.882 236.364 72.525 235.339 69.141 234.739 66.773 234.136 64.211 232.835 62.3 230.328 61.419 227.927 62.001 224.933 64.419 222.9 66.797 221.703 68.867 221.443 70.24 221.61 69.738 219.62 69.959 217.59 71.026 215.637 73.218 213.807 76.288 213.207 79.752 214.85 81.183 218.36 81.615 221.709 82.448 224.874 83.978 227.485 86.893 230.338 101.748 244.759 104.853 247.416 108.069 248.604 111.969 249.234 115.417 249.802 118.026 251.033 119.628 253.745 119.748 256.338 119.015 258.968 117.792 260.857 115.509 262.206 113.107 262.636 111.686 262.562" fill="none" stroke="#f90" stroke-miterlimit="10"/><g id="0321416c-8ab9-4c44-9825-5029a1e1bef4" data-name="hueso"><path d="M228.3909,308.35671a7.48042,7.48042,0,0,0,2.4749-7.755,5.24983,5.24983,0,0,0-5.79534-4.33594c-4.22373-.18241-6.35662,3.59229-8.68594,6.84781a15.91694,15.91694,0,0,1-7.26581,5.76862c-3.77093,1.618-7.58823,3.06693-11.43424,4.5222-1.686.638-3.40753,1.19259-5.06761,1.86273-3.11988,1.2594-6.45123,2.4164-9.86722,2.15981-3.57-.26815-6.76348-3.26571-10.26015-1.18215a5.86055,5.86055,0,0,0,2.51038,10.87654" fill="none" stroke="#f90" stroke-miterlimit="10"/><path d="M176.37625,325.96405a7.78362,7.78362,0,0,0-2.66373,3.97956c-.70159,4.42019,2.23119,7.46519,6.13216,8.36321,4.42019.70159,6.16016-4.11153,8.48951-7.36705a12.66056,12.66056,0,0,1,5.22785-4.55011q1.98708-.75186,3.9742-1.50378,5.67329-2.14665,11.34652-4.29338l7.30373-2.76362a13.34462,13.34462,0,0,1,3.027-.927,14.996,14.996,0,0,1,7.26571,1.09983c2.08481.74467,4.20648,1.2124,6.198-.06118,5.02288-3.21221,2.54861-10.66606-3.09107-10.784" fill="none" stroke="#f90" stroke-miterlimit="10"/></g><polygon points="174.828 327.239 172.922 326.652 171.093 325.264 169.722 323.31 169.508 321.184 169.834 319.226 170.743 317.666 172.286 316.357 174.36 315.572 177.091 315.75 180.073 316.777 182.656 317.364 184.979 317.338 187.682 316.864 190.448 316.01 207.768 309.361 210.952 307.885 213.748 305.946 216.101 303.342 218.082 300.533 219.633 298.645 221.899 296.878 224.98 296.211 227.528 296.433 229.992 298.232 230.805 301.284 230.88 303.945 230.236 305.93 229.502 307.102 231.517 307.492 233.261 308.555 234.577 310.349 235.303 313.111 234.542 316.146 231.584 318.584 227.798 318.389 224.583 317.359 221.363 316.769 218.35 317.046 214.529 318.473 195.166 325.8 191.442 327.484 189 329.891 186.774 333.155 184.797 336.035 182.574 337.875 179.438 338.174 177.04 337.181 174.97 335.401 173.779 333.492 173.526 330.852 174.157 328.495 174.828 327.239" fill="none" stroke="#f90" stroke-miterlimit="10"/><g id="e96b6a55-ea8f-4bca-8e78-e8254acf9e76" data-name="hueso"><path d="M69.07985,385.65044a7.4805,7.4805,0,0,0-7.915,1.90269,5.24985,5.24985,0,0,0-.7045,7.20349c2.03308,3.70671,6.36666,3.57443,10.35806,3.87924a15.91685,15.91685,0,0,1,8.69908,3.22406c3.33812,2.3864,6.55568,4.9,9.79352,7.43491,1.41945,1.11129,2.786,2.29609,4.21948,3.36848,2.69405,2.01544,5.41006,4.26483,6.96109,7.3192,1.6209,3.19209.7125,7.47677,4.3066,9.38729a5.86055,5.86055,0,0,0,8.00068-7.784" fill="none" stroke="#f90" stroke-miterlimit="10"/><path d="M111.09586,421.00852a7.78387,7.78387,0,0,0,4.78394.21552c4.14381-1.69087,5.22793-5.77716,3.97412-9.57879-1.69087-4.14377-6.70888-3.13733-10.70028-3.44214a12.6603,12.6603,0,0,1-6.6008-2.11269l-3.34579-2.6194q-4.77621-3.73929-9.55242-7.47854-3.07437-2.407-6.14886-4.8139a13.34632,13.34632,0,0,1-2.36163-2.10833,14.99578,14.99578,0,0,1-2.825-6.78371c-.44368-2.16892-1.1433-4.22578-3.26462-5.26888-5.35037-2.63086-10.44263,3.34835-7.62055,8.23261" fill="none" stroke="#f90" stroke-miterlimit="10"/></g><polygon points="112.989 421.672 113.475 423.606 113.235 425.89 112.275 428.075 110.567 429.359 108.724 430.096 106.919 430.127 105 429.486 103.254 428.119 101.99 425.691 101.324 422.608 100.486 420.095 99.26 418.122 97.454 416.056 95.29 414.134 80.627 402.767 77.715 400.809 74.607 399.422 71.161 398.76 67.732 398.522 65.313 398.174 62.628 397.152 60.461 394.862 59.33 392.568 59.591 389.529 61.779 387.251 64.017 385.808 66.048 385.33 67.431 385.35 66.72 383.425 66.725 381.383 67.578 379.328 69.564 377.275 72.553 376.353 76.172 377.619 77.967 380.957 78.752 384.241 79.917 387.3 81.715 389.734 84.916 392.262 101.218 405.025 104.588 407.337 107.912 408.177 111.857 408.389 115.345 408.588 118.07 409.535 119.951 412.062 120.345 414.627 119.895 417.32 118.88 419.328 116.753 420.913 114.411 421.594 112.989 421.672" fill="none" stroke="#f90" stroke-miterlimit="10"/><g id="a7687db1-e4a1-41a5-91cb-7c0b0153ddba" data-name="hueso"><path d="M289.48693,255.47644a7.48049,7.48049,0,0,0-7.59414-2.93173,5.24984,5.24984,0,0,0-4.67291,5.52723c-.43328,4.20543,3.20791,6.559,6.31914,9.07784a15.91655,15.91655,0,0,1,5.32628,7.596c1.39086,3.86049,2.61022,7.75721,3.83419,11.68294.5366,1.721.98786,3.47241,1.55807,5.16943,1.07164,3.18925,2.02844,6.58351,1.56918,9.97817-.48,3.54777-3.66215,6.55733-1.79021,10.17172a5.86053,5.86053,0,0,0,11.00655-1.85907" fill="none" stroke="#f90" stroke-miterlimit="10"/><path d="M303.96974,308.44616a7.78353,7.78353,0,0,0,3.81412,2.89567c4.37062.96321,7.58464-1.78328,8.71309-5.62393.96322-4.37062-3.73789-6.39379-6.84911-8.91259a12.66054,12.66054,0,0,1-4.23117-5.48924q-.63239-2.02824-1.26476-4.05656-1.80554-5.79091-3.611-11.5818-1.16217-3.72753-2.32438-7.45515a13.34209,13.34209,0,0,1-.74534-3.07681,14.9954,14.9954,0,0,1,1.53-7.18743c.86734-2.03683,1.46039-4.12692.30753-6.19063-2.9078-5.20506-10.49563-3.17843-10.9487,2.44423" fill="none" stroke="#f90" stroke-miterlimit="10"/></g><polygon points="305.151 310.068 304.451 311.936 302.957 313.679 300.925 314.931 298.79 315.018 296.854 314.576 295.351 313.576 294.136 311.958 293.476 309.841 293.816 307.125 295.019 304.21 295.759 301.666 295.87 299.346 295.558 296.619 294.87 293.808 289.263 276.123 287.979 272.857 286.21 269.95 283.75 267.446 281.064 265.302 279.271 263.641 277.642 261.274 277.16 258.159 277.534 255.629 279.475 253.277 282.57 252.646 285.231 252.73 287.174 253.49 288.301 254.293 288.81 252.305 289.974 250.627 291.844 249.42 294.644 248.86 297.628 249.799 299.886 252.898 299.467 256.664 298.247 259.813 297.467 262.992 297.564 266.017 298.761 269.915 304.924 289.68 306.383 293.498 308.64 296.078 311.766 298.494 314.524 300.64 316.228 302.968 316.34 306.116 315.207 308.451 313.306 310.411 311.33 311.487 308.679 311.582 306.365 310.812 305.151 310.068" fill="none" stroke="#f90" stroke-miterlimit="10"/><g id="81714812-9816-4eda-be45-e59fb3f72103" data-name="hueso"><path d="M281.219,396.03126a7.48049,7.48049,0,0,0-7.59414-2.93173,5.24984,5.24984,0,0,0-4.67291,5.52723c-.43328,4.20543,3.20791,6.559,6.31914,9.07784a15.91655,15.91655,0,0,1,5.32628,7.596c1.39086,3.86049,2.61022,7.75721,3.83419,11.68294.5366,1.721.98786,3.47241,1.55807,5.16942,1.07164,3.18926,2.02844,6.58352,1.56917,9.97818-.48,3.54777-3.66214,6.55733-1.7902,10.17172a5.86053,5.86053,0,0,0,11.00655-1.85907" fill="none" stroke="#f90" stroke-miterlimit="10"/><path d="M295.70181,449.001a7.78345,7.78345,0,0,0,3.81412,2.89566c4.37062.96322,7.58464-1.78327,8.71309-5.62392.96322-4.37063-3.73789-6.39379-6.84911-8.91259a12.66046,12.66046,0,0,1-4.23117-5.48924q-.63238-2.02824-1.26476-4.05656-1.80554-5.79091-3.611-11.5818-1.16217-3.72753-2.32438-7.45515a13.34221,13.34221,0,0,1-.74534-3.07681,14.99535,14.99535,0,0,1,1.53-7.18743c.86734-2.03683,1.46039-4.12692.30753-6.19064-2.9078-5.205-10.49563-3.17842-10.9487,2.44424" fill="none" stroke="#f90" stroke-miterlimit="10"/></g><polygon points="296.883 450.622 296.183 452.49 294.689 454.234 292.657 455.486 290.522 455.572 288.586 455.131 287.083 454.131 285.868 452.513 285.208 450.396 285.548 447.68 286.751 444.765 287.491 442.221 287.603 439.901 287.29 437.174 286.602 434.363 280.995 416.678 279.711 413.411 277.942 410.505 275.482 408.001 272.796 405.857 271.003 404.196 269.375 401.829 268.892 398.714 269.266 396.183 271.207 393.831 274.302 393.201 276.963 393.284 278.906 394.045 280.033 394.848 280.542 392.86 281.706 391.182 283.576 389.975 286.376 389.414 289.36 390.354 291.618 393.452 291.199 397.219 289.979 400.367 289.199 403.547 289.296 406.572 290.493 410.47 296.656 430.235 298.115 434.053 300.373 436.633 303.498 439.049 306.256 441.195 307.96 443.523 308.072 446.671 306.939 449.005 305.038 450.966 303.062 452.041 300.411 452.137 298.097 451.367 296.883 450.622" fill="none" stroke="#f90" stroke-miterlimit="10"/><g id="f4ab2ee7-65e6-409a-b1d2-cd681d51bbaf" data-name="hueso"><path d="M400.41551,383.41428a7.48058,7.48058,0,0,0-7.93851,1.80186,5.24989,5.24989,0,0,0-.79608,7.194c1.98576,3.73226,6.32067,3.65509,10.30786,4.01065a15.9166,15.9166,0,0,1,8.65739,3.33446c3.30749,2.42868,6.49285,4.983,9.69817,7.55893,1.40519,1.1292,2.75656,2.33132,4.17629,3.42186,2.66817,2.04954,5.35537,4.3333,6.86738,7.40712,1.5802,3.21249.61734,7.48528,4.18688,9.44131a5.86055,5.86055,0,0,0,8.09907-7.68154" fill="none" stroke="#f90" stroke-miterlimit="10"/><path d="M441.97836,419.304a7.78377,7.78377,0,0,0,4.78083.27639c4.165-1.638,5.301-5.71023,4.09566-9.52746-1.638-4.165-6.66844-3.2224-10.65563-3.578a12.66074,12.66074,0,0,1-6.5734-2.19652l-3.31221-2.66176-9.4565-7.59941q-3.04354-2.44588-6.08713-4.89174a13.34534,13.34534,0,0,1-2.33463-2.1382,14.9956,14.9956,0,0,1-2.73853-6.81912c-.416-2.17438-1.08944-4.24-3.19733-5.31-5.31648-2.69869-10.48437,3.21528-7.72465,8.135" fill="none" stroke="#f90" stroke-miterlimit="10"/></g><polygon points="443.863 419.991 444.324 421.932 444.056 424.212 443.068 426.385 441.344 427.647 439.491 428.36 437.686 428.369 435.775 427.703 434.046 426.314 432.813 423.87 432.186 420.779 431.381 418.256 430.18 416.267 428.4 414.178 426.261 412.228 411.744 400.676 408.857 398.682 405.767 397.255 402.329 396.549 398.904 396.267 396.49 395.889 393.818 394.832 391.68 392.516 390.579 390.207 390.879 387.172 393.095 384.922 395.351 383.508 397.388 383.055 398.771 383.093 398.085 381.159 398.115 379.118 398.994 377.073 401.006 375.046 404.007 374.162 407.609 375.474 409.361 378.835 410.105 382.128 411.231 385.202 412.998 387.659 416.166 390.227 432.304 403.196 435.645 405.551 438.958 406.433 442.9 406.696 446.385 406.938 449.098 407.92 450.946 410.471 451.308 413.041 450.824 415.728 449.784 417.723 447.636 419.28 445.285 419.932 443.863 419.991" fill="none" stroke="#f90" stroke-miterlimit="10"/><g id="f439ceca-03c7-4f65-9f12-ceb9122181d7" data-name="hueso"><path d="M565.1373,378.53864a7.48049,7.48049,0,0,0-7.29885-3.60458,5.24985,5.24985,0,0,0-5.1523,5.08336c-.81069,4.1492,2.60341,6.82152,5.47482,9.61064a15.91655,15.91655,0,0,1,4.61965,8.04533c1.03708,3.97018,1.90009,7.961,2.76507,11.98106.37919,1.76237.67069,3.54737,1.08558,5.28888.77967,3.27292,1.42653,6.73962.663,10.079-.79793,3.49-4.23853,6.20039-2.70015,9.96884a5.86055,5.86055,0,0,0,11.12939-.859" fill="none" stroke="#f90" stroke-miterlimit="10"/><path d="M574.78463,432.59851a7.78377,7.78377,0,0,0,3.53746,3.22784c4.266,1.35338,7.71457-1.09212,9.18472-4.81536,1.35342-4.266-3.1461-6.70478-6.01752-9.49391a12.66059,12.66059,0,0,1-3.71895-5.84838q-.44688-2.07708-.8938-4.15412-1.276-5.93006-2.55192-11.86019-.82135-3.81718-1.64268-7.63441a13.34436,13.34436,0,0,1-.46485-3.13146,14.99522,14.99522,0,0,1,2.17186-7.02018c1.04747-1.95037,1.82659-3.97845.86447-6.13772-2.42659-5.44605-10.16624-4.11188-11.1245,1.447" fill="none" stroke="#f90" stroke-miterlimit="10"/></g><polygon points="575.815 434.32 574.95 436.117 573.304 437.718 571.167 438.782 569.033 438.676 567.145 438.062 565.739 436.931 564.674 435.209 564.208 433.042 564.791 430.367 566.253 427.572 567.218 425.106 567.539 422.805 567.474 420.061 567.042 417.199 563.052 399.081 562.068 395.712 560.569 392.657 558.345 389.942 555.863 387.565 554.227 385.749 552.818 383.245 552.619 380.099 553.219 377.612 555.365 375.445 558.504 375.096 561.146 375.419 563.013 376.352 564.063 377.253 564.749 375.319 566.06 373.753 568.031 372.72 570.87 372.414 573.757 373.619 575.727 376.908 574.969 380.622 573.47 383.647 572.407 386.743 572.231 389.764 573.072 393.755 577.427 413.995 578.536 417.929 580.552 420.702 583.447 423.39 586 425.776 587.487 428.248 587.315 431.393 585.975 433.616 583.906 435.398 581.841 436.29 579.192 436.146 576.956 435.17 575.815 434.32" fill="none" stroke="#f90" stroke-miterlimit="10"/><g id="7d8a501b-7515-4576-b6f6-1ea1c7728c5e" data-name="hueso"><path d="M619.11913,255.28888a7.48051,7.48051,0,0,0-7.78442-2.38105,5.24989,5.24989,0,0,0-4.26562,5.84732c-.13134,4.22562,3.66887,6.31272,6.95231,8.60259a15.91648,15.91648,0,0,1,5.856,7.19554c1.66343,3.75112,3.15839,7.55066,4.66,11.37875.65828,1.6782,1.23369,3.39289,1.92383,5.04474,1.297,3.10445,2.49416,6.42158,2.27887,9.84041-.225,3.573-3.18374,6.80246-1.058,10.27369a5.86053,5.86053,0,0,0,10.84539-2.6416" fill="none" stroke="#f90" stroke-miterlimit="10"/><path d="M637.35361,307.087a7.78356,7.78356,0,0,0,4.01149,2.61546c4.4283.64813,7.43763-2.3212,8.28848-6.23276.64812-4.42834-4.18562-6.11-7.46905-8.39986a12.66049,12.66049,0,0,1-4.613-5.1725q-.77583-1.97786-1.55169-3.95573-2.21509-5.64693-4.43016-11.29383-1.42586-3.63487-2.85168-7.26984a13.34471,13.34471,0,0,1-.96353-3.01559,14.99617,14.99617,0,0,1,1.012-7.27845c.71943-2.09368,1.16149-4.22082-.13606-6.19678-3.27265-4.98375-10.69607-2.41959-10.74583,3.22111" fill="none" stroke="#f90" stroke-miterlimit="10"/></g><polygon points="638.648 308.62 638.084 310.533 636.717 312.379 634.78 313.773 632.657 314.012 630.695 313.71 629.124 312.821 627.796 311.293 626.987 309.229 627.131 306.495 628.123 303.502 628.679 300.912 628.624 298.589 628.118 295.892 627.23 293.137 620.372 275.898 618.858 272.732 616.886 269.959 614.253 267.638 611.421 265.692 609.514 264.163 607.72 261.919 607.016 258.846 607.207 256.296 608.976 253.811 612.017 252.96 614.678 252.854 616.67 253.473 617.851 254.193 618.217 252.174 619.258 250.417 621.037 249.08 623.79 248.32 626.833 249.044 629.307 251.973 629.158 255.76 628.167 258.987 627.616 262.214 627.929 265.224 629.402 269.027 636.963 288.301 638.691 292.004 641.128 294.417 644.418 296.603 647.322 298.546 649.189 300.746 649.525 303.878 648.562 306.288 646.807 308.379 644.913 309.593 642.275 309.878 639.912 309.275 638.648 308.62" fill="none" stroke="#f90" stroke-miterlimit="10"/><g id="834f1ad2-3d08-4b62-b65d-6f6dc4fb4edc" data-name="hueso"><path d="M401.37349,220.38215a7.48048,7.48048,0,0,0-7.86977,2.08163,5.24984,5.24984,0,0,0-.541,7.21763c2.11659,3.65966,6.44607,3.42914,10.44334,3.6434a15.91627,15.91627,0,0,1,8.76995,3.02594c3.39139,2.3101,6.66514,4.75016,9.95963,7.211,1.44425,1.0788,2.83732,2.2323,4.29476,3.27193,2.739,1.95387,5.50538,4.14109,7.12522,7.15948,1.69288,3.15453.88184,7.45869,4.51839,9.28721a5.86055,5.86055,0,0,0,7.82213-7.96336" fill="none" stroke="#f90" stroke-miterlimit="10"/><path d="M444.18043,254.77843a7.78362,7.78362,0,0,0,4.7876.107c4.1044-1.78441,5.09556-5.8942,3.75592-9.66643-1.78441-4.1044-6.77828-2.98441-10.77559-3.19862a12.66054,12.66054,0,0,1-6.647-1.96253q-1.70214-1.27145-3.4043-2.54283-4.85977-3.63-9.71955-7.26-3.12816-2.33662-6.25642-4.67327a13.34423,13.34423,0,0,1-2.40884-2.05418,14.996,14.996,0,0,1-2.97815-6.718c-.49273-2.15829-1.23877-4.19877-3.38323-5.19348-5.40865-2.50885-10.364,3.58426-7.43193,8.40328" fill="none" stroke="#f90" stroke-miterlimit="10"/></g><polygon points="446.088 255.398 446.618 257.321 446.43 259.61 445.52 261.816 443.841 263.139 442.015 263.917 440.211 263.99 438.278 263.392 436.502 262.065 435.183 259.666 434.447 256.6 433.553 254.106 432.282 252.161 430.429 250.136 428.223 248.264 413.306 237.232 410.35 235.341 407.212 234.025 403.751 233.441 400.318 233.281 397.892 232.988 395.184 232.027 392.965 229.787 391.783 227.519 391.975 224.475 394.111 222.148 396.316 220.655 398.335 220.131 399.718 220.12 398.964 218.211 398.923 216.169 399.729 214.095 401.667 211.998 404.635 211.008 408.282 212.192 410.152 215.489 411.011 218.754 412.245 221.786 414.098 224.179 417.355 226.633 433.942 239.023 437.364 241.258 440.706 242.023 444.655 242.145 448.147 242.264 450.893 243.15 452.83 245.633 453.282 248.189 452.894 250.892 451.925 252.922 449.834 254.554 447.508 255.289 446.088 255.398" fill="none" stroke="#f90" stroke-miterlimit="10"/><g id="88a1bddd-45e1-4d46-90c4-13072679b2a4" data-name="hueso"><path d="M556.17856,142.5662a7.48054,7.48054,0,0,0,1.73481-7.95344,5.24987,5.24987,0,0,0-6.17737-3.77183c-4.22215.21552-5.99066,4.17405-8.00359,7.63414a15.91653,15.91653,0,0,1-6.69127,6.42619c-3.60211,1.96536-7.26629,3.76679-10.9584,5.57719-1.61854.79368-3.28032,1.50772-4.87,2.331-2.98763,1.54716-6.19547,3.0122-9.62044,3.078-3.57938.0687-7.04058-2.61534-10.32582-.21225a5.86053,5.86053,0,0,0,3.52182,10.59232" fill="none" stroke="#f90" stroke-miterlimit="10"/><path d="M506.04974,164.98591a7.78358,7.78358,0,0,0-2.27777,4.21239c-.28288,4.46658,2.92318,7.22232,6.89132,7.74961,4.46657.28289,5.74629-4.67248,7.75925-8.13257a12.66035,12.66035,0,0,1,4.7769-5.02147l3.81518-1.87079q5.44632-2.67054,10.89264-5.34116,3.50573-1.719,7.01152-3.43809a13.34648,13.34648,0,0,1,2.92645-1.20751,14.996,14.996,0,0,1,7.337.41186c2.14556.54537,4.3018.81152,6.16476-.64367,4.69867-3.67022,1.53449-10.8584-4.09129-10.44555" fill="none" stroke="#f90" stroke-miterlimit="10"/></g><polygon points="504.628 166.401 502.675 165.996 500.724 164.786 499.175 162.969 498.763 160.873 498.903 158.892 499.661 157.254 501.074 155.806 503.065 154.83 505.801 154.749 508.866 155.492 511.493 155.834 513.803 155.589 516.45 154.863 519.123 153.753 535.741 145.505 538.772 143.736 541.374 141.543 543.472 138.729 545.18 135.747 546.546 133.721 548.636 131.749 551.641 130.795 554.199 130.777 556.82 132.336 557.917 135.297 558.242 137.94 557.787 139.977 557.167 141.213 559.209 141.412 561.045 142.305 562.524 143.968 563.507 146.65 563.035 149.742 560.319 152.448 556.532 152.61 553.234 151.886 549.973 151.602 546.999 152.161 543.329 153.941 524.74 163.056 521.191 165.083 518.987 167.709 517.078 171.167 515.38 174.221 513.34 176.261 510.246 176.854 507.765 176.091 505.537 174.513 504.172 172.725 503.672 170.12 504.079 167.715 504.628 166.401" fill="none" stroke="#f90" stroke-miterlimit="10"/><g id="3df53a05-c78a-4fbb-8865-2731e301e8b0" data-name="hueso"><path d="M422.1547,49.85632a7.48045,7.48045,0,0,0-3.89117-7.15019,5.24988,5.24988,0,0,0-7.13959,1.18862c-3.05224,2.92519-1.80009,7.07609-1.05885,11.00985a15.91719,15.91719,0,0,1-.85655,9.23772c-1.43858,3.843-3.0313,7.60256-4.6393,11.38718-.7049,1.65918-1.49456,3.28635-2.15832,4.949-1.24743,3.12469-2.71507,6.33134-5.26242,8.62172-2.66219,2.39364-7.03585,2.628-7.94839,6.59478a5.86053,5.86053,0,0,0,9.59324,5.707" fill="none" stroke="#f90" stroke-miterlimit="10"/><path d="M398.90906,99.60753a7.78356,7.78356,0,0,0,1.03309,4.676c2.70811,3.56317,6.93577,3.5499,10.28185,1.35272,3.5632-2.70814,1.2892-7.29315.548-11.227a12.66054,12.66054,0,0,1,.32773-6.92293q.83074-1.95543,1.66158-3.91085,2.372-5.58281,4.74394-11.16565,1.52679-3.59365,3.05366-7.18731a13.34639,13.34639,0,0,1,1.42334-2.82779,14.99591,14.99591,0,0,1,5.81842-4.48842c1.97954-.99121,3.78443-2.20057,4.24141-4.51988,1.15251-5.84972-5.94318-9.21622-9.92793-5.22352" fill="none" stroke="#f90" stroke-miterlimit="10"/></g><polygon points="398.76 101.608 397.018 102.579 394.75 102.94 392.39 102.58 390.707 101.264 389.517 99.674 389.019 97.94 389.14 95.92 390.007 93.879 392.024 92.028 394.828 90.585 397.039 89.124 398.626 87.428 400.153 85.147 401.448 82.559 408.62 65.449 409.755 62.128 410.289 58.768 410.034 55.267 409.375 51.894 409.083 49.468 409.373 46.609 411.022 43.922 412.944 42.235 415.947 41.699 418.714 43.221 420.689 45.008 421.678 46.846 422.017 48.186 423.691 47 425.665 46.475 427.871 46.765 430.369 48.15 432.035 50.798 431.751 54.622 428.993 57.221 426.025 58.832 423.373 60.75 421.489 63.119 419.878 66.865 411.783 85.92 410.424 89.775 410.475 93.203 411.293 97.068 412.007 100.488 411.799 103.366 409.847 105.838 407.472 106.884 404.754 107.149 402.552 106.689 400.469 105.046 399.203 102.961 398.76 101.608" fill="none" stroke="#f90" stroke-miterlimit="10"/><polygon points="303.733 146.927 303.037 148.797 301.545 150.543 299.516 151.799 297.381 151.889 295.444 151.451 293.94 150.454 292.722 148.838 292.058 146.723 292.392 144.006 293.59 141.088 294.325 138.543 294.433 136.223 294.115 133.496 293.422 130.687 287.782 113.012 286.492 109.748 284.718 106.844 282.253 104.345 279.564 102.206 277.768 100.549 276.134 98.185 275.646 95.071 276.015 92.54 277.952 90.184 281.046 89.547 283.707 89.626 285.652 90.383 286.78 91.184 287.285 89.195 288.446 87.515 290.314 86.305 293.113 85.739 296.099 86.673 298.363 89.767 297.95 93.535 296.736 96.685 295.962 99.866 296.064 102.891 297.269 106.787 303.468 126.541 304.934 130.355 307.197 132.931 310.327 135.342 313.089 137.482 314.797 139.807 314.915 142.955 313.786 145.292 311.889 147.256 309.915 148.335 307.264 148.435 304.948 147.669 303.733 146.927" fill="none" stroke="#f90" stroke-miterlimit="10"/><g id="bfa70e12-4bcc-4344-a871-b2896c7339d1" data-name="hueso"><path d="M288.20859,92.669a7.48056,7.48056,0,0,0-7.60122-2.91338,5.24989,5.24989,0,0,0-4.65953,5.53857c-.42309,4.20641,3.22378,6.55119,6.34106,9.06248a15.91683,15.91683,0,0,1,5.34468,7.58307c1.40018,3.85714,2.629,7.75091,3.86241,11.67365.54073,1.71965.99625,3.47,1.57056,5.16564,1.07935,3.18666,2.04439,6.5786,1.59334,9.97435-.47142,3.54891-3.6463,6.56616-1.76563,10.176a5.86054,5.86054,0,0,0,11.00205-1.88571" fill="none" stroke="#f90" stroke-miterlimit="10"/><path d="M302.81948,145.60352A7.78389,7.78389,0,0,0,306.6406,148.49c4.373.95263,7.58028-1.80162,8.69943-5.645.95263-4.373-3.75332-6.3847-6.87065-8.896a12.6609,12.6609,0,0,1-4.24443-5.479q-.63729-2.02677-1.27457-4.05353-1.81947-5.78649-3.639-11.573-1.17122-3.72475-2.34242-7.44952a13.34366,13.34366,0,0,1-.75278-3.075,14.99593,14.99593,0,0,1,1.51256-7.19114c.86243-2.03895,1.45043-4.13046.29257-6.19138-2.92039-5.198-10.50326-3.153-10.94276,2.47074" fill="none" stroke="#f90" stroke-miterlimit="10"/></g><polygon points="304.004 147.222 303.309 149.092 301.819 150.839 299.79 152.096 297.655 152.187 295.719 151.751 294.213 150.755 292.994 149.139 292.329 147.024 292.662 144.307 293.859 141.389 294.592 138.843 294.698 136.523 294.379 133.796 293.684 130.987 288.035 113.316 286.742 110.053 284.967 107.15 282.501 104.652 279.81 102.515 278.013 100.858 276.378 98.495 275.888 95.381 276.256 92.85 278.192 90.493 281.285 89.855 283.946 89.933 285.891 90.688 287.02 91.488 287.524 89.499 288.684 87.819 290.551 86.607 293.35 86.04 296.336 86.972 298.602 90.065 298.191 93.833 296.979 96.984 296.207 100.165 296.311 103.19 297.518 107.085 303.728 126.836 305.196 130.649 307.46 133.224 310.592 135.633 313.355 137.772 315.065 140.096 315.184 143.243 314.056 145.581 312.161 147.546 310.187 148.626 307.536 148.728 305.22 147.963 304.004 147.222" fill="none" stroke="#f90" stroke-miterlimit="10"/><polygon points="612.699 89.751 613.94 91.312 614.665 93.491 614.692 95.878 613.667 97.752 612.292 99.184 610.661 99.958 608.648 100.167 606.494 99.642 604.34 97.953 602.461 95.42 600.66 93.477 598.729 92.186 596.23 91.05 593.466 90.192 575.419 85.894 571.958 85.313 568.555 85.332 565.142 86.152 561.921 87.351 559.574 88.033 556.706 88.21 553.788 87.02 551.811 85.397 550.794 82.521 551.846 79.544 553.289 77.305 554.941 76.031 556.209 75.479 554.767 74.019 553.928 72.157 553.856 69.933 554.817 67.243 557.159 65.169 560.978 64.828 563.991 67.128 566.062 69.794 568.386 72.1 571.029 73.574 574.988 74.555 595.104 79.449 599.128 80.163 602.503 79.556 606.184 78.121 609.442 76.861 612.316 76.599 615.072 78.124 616.49 80.298 617.192 82.936 617.097 85.184 615.813 87.505 613.962 89.093 612.699 89.751" fill="none" stroke="#f90" stroke-miterlimit="10"/><polygon points="553.469 299.64 555.406 300.119 557.309 301.403 558.788 303.277 559.12 305.387 558.905 307.361 558.085 308.969 556.618 310.363 554.591 311.263 551.854 311.238 548.819 310.379 546.207 309.938 543.889 310.095 541.217 310.719 538.504 311.727 521.583 319.336 518.487 320.989 515.804 323.081 513.6 325.813 511.78 328.728 510.337 330.701 508.174 332.592 505.135 333.43 502.579 333.351 500.018 331.694 499.035 328.693 498.811 326.039 499.343 324.021 500.01 322.81 497.977 322.534 496.176 321.571 494.761 319.852 493.882 317.136 494.471 314.063 497.288 311.463 501.078 311.445 504.346 312.294 507.594 312.702 510.588 312.257 514.322 310.617 533.244 302.217 536.868 300.327 539.171 297.787 541.21 294.403 543.023 291.416 545.14 289.455 548.253 288.981 550.703 289.838 552.87 291.499 554.166 293.338 554.567 295.96 554.069 298.348 553.469 299.64" fill="none" stroke="#f90" stroke-miterlimit="10"/><g id="96e94707-aa57-4d45-9673-3ff7d3dd9ab6" data-name="hueso"><path d="M501.04906,321.49516a7.4805,7.4805,0,0,0-2.03631,7.88162A5.24979,5.24979,0,0,0,505.042,333.381c4.22731-.05465,6.14524-3.943,8.28844-7.32393a15.91656,15.91656,0,0,1,6.931-6.16681c3.67431-1.82682,7.4044-3.48746,11.16277-5.156,1.6476-.73148,3.33532-1.38173,4.95521-2.14388,3.0444-1.43232,6.30567-2.7742,9.73064-2.70952,3.57942.0676,6.93593,2.88146,10.31031.60514a5.86055,5.86055,0,0,0-3.11611-10.71871" fill="none" stroke="#f90" stroke-miterlimit="10"/><path d="M551.995,300.99987a7.78354,7.78354,0,0,0,2.43648-4.12263c.45269-4.45256-2.64613-7.32838-6.59131-8.00631-4.45256-.45273-5.92,4.45035-8.0632,7.8313a12.66075,12.66075,0,0,1-4.96458,4.836q-1.94184.86205-3.88365,1.72417-5.54406,2.4613-11.088,4.92265-3.56868,1.58437-7.13735,3.1687A13.34435,13.34435,0,0,1,509.733,312.449a14.99572,14.99572,0,0,1-7.31594-.69081c-2.12332-.62663-4.26783-.97471-6.18481.40852-4.835,3.48871-1.94674,10.79213,3.69069,10.59374" fill="none" stroke="#f90" stroke-miterlimit="10"/></g></g><g id="0e0f15e5-760e-4394-bb79-c178cd884f8f" data-name="circulos"><path d="M260.56516,433.09655c-3.80231,1.411-4.59694,6.982-.541,8.627a4.58829,4.58829,0,0,0,5.81747-6.32552A4.52183,4.52183,0,0,0,260.56516,433.09655Z" fill="#aacf15"/><path d="M34.12076,289.594c-6.37048,2.364-7.70181,11.69782-.9064,14.454a7.68739,7.68739,0,0,0,9.74682-10.598C41.42173,290.4114,37.43391,288.36454,34.12076,289.594Z" fill="#aacf15"/><path d="M123.49315,188.41026c-6.37048,2.364-7.70181,11.69782-.90641,14.454a7.68739,7.68739,0,0,0,9.74683-10.598C130.79412,189.22768,126.8063,187.18082,123.49315,188.41026Z" fill="#aacf15"/><path d="M203.41647,257.30968c-6.37048,2.364-7.70181,11.69782-.9064,14.454a7.6874,7.6874,0,0,0,9.74683-10.598C210.71745,258.1271,206.72963,256.08024,203.41647,257.30968Z" fill="#aacf15"/><path d="M118.82921,219.31149c-3.80231,1.411-4.59693,6.982-.541,8.627a4.58829,4.58829,0,0,0,5.81747-6.32552A4.52183,4.52183,0,0,0,118.82921,219.31149Z" fill="#aacf15"/><path d="M175.9173,275.21845c-3.80231,1.411-4.59693,6.982-.541,8.627a4.58828,4.58828,0,0,0,5.81747-6.32551A4.52183,4.52183,0,0,0,175.9173,275.21845Z" fill="#aacf15"/><path d="M272.37649,294.11658c-3.80231,1.411-4.59694,6.982-.541,8.627a4.58829,4.58829,0,0,0,5.81748-6.32552A4.52182,4.52182,0,0,0,272.37649,294.11658Z" fill="#aacf15"/><path d="M162.90586,240.6935c-2.66731.98979-3.22473,4.89784-.3795,6.05185a3.21868,3.21868,0,0,0,4.081-4.43736A3.17208,3.17208,0,0,0,162.90586,240.6935Z" fill="#aacf15"/><path d="M299.87566,179.74862c-6.37048,2.364-7.70181,11.69782-.9064,14.454a7.68739,7.68739,0,0,0,9.74682-10.598C307.17663,180.566,303.18882,178.51918,299.87566,179.74862Z" fill="#aacf15"/><path d="M284.58153,200.41336c-3.80231,1.411-4.59694,6.982-.541,8.627a4.58829,4.58829,0,0,0,5.81748-6.32552A4.52184,4.52184,0,0,0,284.58153,200.41336Z" fill="#aacf15"/><path d="M264.48329,185.574c-2.66731.98979-3.22473,4.89785-.3795,6.05185a3.21868,3.21868,0,0,0,4.081-4.43735A3.1721,3.1721,0,0,0,264.48329,185.574Z" fill="#aacf15"/><path d="M312.90974,266.67843c-2.66731.98979-3.22473,4.89784-.3795,6.05185a3.21868,3.21868,0,0,0,4.081-4.43736A3.17208,3.17208,0,0,0,312.90974,266.67843Z" fill="#aacf15"/><path d="M30.638,236.63477c-3.8023,1.411-4.59693,6.982-.541,8.627a4.58829,4.58829,0,0,0,5.81747-6.32552A4.52184,4.52184,0,0,0,30.638,236.63477Z" fill="#aacf15"/><path d="M2.27178,230.06331c-2.66731.98978-3.22473,4.89784-.37949,6.05184a3.30311,3.30311,0,0,0,3.57887-.80387,3.30311,3.30311,0,0,0,.5021-3.63348A3.1721,3.1721,0,0,0,2.27178,230.06331Z" fill="#aacf15"/><path d="M58.17874,311.16777c-2.66731.98979-3.22473,4.89784-.3795,6.05185a3.21868,3.21868,0,0,0,4.081-4.43736A3.17208,3.17208,0,0,0,58.17874,311.16777Z" fill="#aacf15"/><path d="M364.44427,289.594c-6.37048,2.364-7.70182,11.69782-.9064,14.454a7.68739,7.68739,0,0,0,9.74682-10.598C371.74524,290.4114,367.75742,288.36454,364.44427,289.594Z" fill="#aacf15"/><path d="M453.81666,188.41026c-6.37048,2.364-7.70181,11.69782-.9064,14.454a7.68739,7.68739,0,0,0,9.74683-10.598C461.11764,189.22768,457.12982,187.18082,453.81666,188.41026Z" fill="#aacf15"/><path d="M560.11862,243.5298c-6.37048,2.364-7.70181,11.69782-.9064,14.454a7.68739,7.68739,0,0,0,9.74683-10.598C567.4196,244.34722,563.43178,242.30035,560.11862,243.5298Z" fill="#aacf15"/><path d="M449.15272,219.31149c-3.8023,1.411-4.59693,6.982-.541,8.627a4.58829,4.58829,0,0,0,5.81747-6.32552A4.52183,4.52183,0,0,0,449.15272,219.31149Z" fill="#aacf15"/><path d="M532.61945,261.43857c-3.80231,1.411-4.59693,6.982-.541,8.627a4.58828,4.58828,0,0,0,5.81747-6.32552A4.52182,4.52182,0,0,0,532.61945,261.43857Z" fill="#aacf15"/><path d="M602.7,294.11658c-3.8023,1.411-4.59693,6.982-.541,8.627a4.58829,4.58829,0,0,0,5.81748-6.32552A4.52184,4.52184,0,0,0,602.7,294.11658Z" fill="#aacf15"/><path d="M504.25328,254.8671c-2.66731.98979-3.22473,4.89784-.3795,6.05185a3.21869,3.21869,0,0,0,4.081-4.43736A3.17208,3.17208,0,0,0,504.25328,254.8671Z" fill="#aacf15"/><path d="M630.19918,179.74862c-6.37048,2.364-7.70182,11.69782-.9064,14.454a7.68739,7.68739,0,0,0,9.74682-10.598C637.50015,180.566,633.51233,178.51918,630.19918,179.74862Z" fill="#aacf15"/><path d="M614.905,200.41336c-3.8023,1.411-4.59693,6.982-.541,8.627a4.58829,4.58829,0,0,0,5.81748-6.32552A4.52186,4.52186,0,0,0,614.905,200.41336Z" fill="#aacf15"/><path d="M594.8068,185.574c-2.66731.98979-3.22472,4.89785-.37949,6.05185a3.21868,3.21868,0,0,0,4.081-4.43735A3.17211,3.17211,0,0,0,594.8068,185.574Z" fill="#aacf15"/><path d="M643.23325,266.67843c-2.66731.98979-3.22472,4.89784-.37949,6.05185a3.21869,3.21869,0,0,0,4.081-4.43736A3.17209,3.17209,0,0,0,643.23325,266.67843Z" fill="#aacf15"/><path d="M360.96146,236.63477c-3.8023,1.411-4.59693,6.982-.541,8.627a4.58829,4.58829,0,0,0,5.81748-6.32552A4.52186,4.52186,0,0,0,360.96146,236.63477Z" fill="#aacf15"/><path d="M332.59528,230.06331c-2.6673.98978-3.22472,4.89784-.37949,6.05184a3.21868,3.21868,0,0,0,4.081-4.43735A3.17209,3.17209,0,0,0,332.59528,230.06331Z" fill="#aacf15"/><path d="M388.50225,311.16777c-2.66731.98979-3.22473,4.89784-.3795,6.05185a3.21869,3.21869,0,0,0,4.081-4.43736A3.1721,3.1721,0,0,0,388.50225,311.16777Z" fill="#aacf15"/><path d="M34.12076,126.20392c-6.37048,2.364-7.70181,11.69783-.9064,14.454a7.68739,7.68739,0,0,0,9.74682-10.598C41.42173,127.02135,37.43391,124.97448,34.12076,126.20392Z" fill="#aacf15"/><path d="M123.49315,25.0202c-6.37048,2.364-7.70181,11.69782-.90641,14.454a7.68739,7.68739,0,0,0,9.74683-10.598C130.79412,25.83763,126.8063,23.79076,123.49315,25.0202Z" fill="#aacf15"/><path d="M194.36112,127.38506c-6.37048,2.364-7.70181,11.69782-.9064,14.454a7.68739,7.68739,0,0,0,9.74683-10.598C201.6621,128.20248,197.67428,126.15562,194.36112,127.38506Z" fill="#aacf15"/><path d="M118.82921,55.92144c-3.80231,1.411-4.59693,6.982-.541,8.627a4.58829,4.58829,0,0,0,5.81747-6.32552A4.52182,4.52182,0,0,0,118.82921,55.92144Z" fill="#aacf15"/><path d="M166.862,145.29383c-3.80231,1.411-4.59694,6.982-.541,8.627a4.58829,4.58829,0,0,0,5.81747-6.32552A4.52182,4.52182,0,0,0,166.862,145.29383Z" fill="#aacf15"/><path d="M272.37649,130.72652c-3.80231,1.411-4.59694,6.982-.541,8.627A4.58829,4.58829,0,0,0,277.653,133.028,4.52183,4.52183,0,0,0,272.37649,130.72652Z" fill="#aacf15"/><path d="M147.55113,105.25693c-2.66731.98979-3.22473,4.89784-.3795,6.05185a3.21868,3.21868,0,0,0,4.081-4.43736A3.17208,3.17208,0,0,0,147.55113,105.25693Z" fill="#aacf15"/><path d="M232.5927,4.86063c-2.66731.98979-3.22473,4.89784-.3795,6.05185a3.30313,3.30313,0,0,0,3.57888-.80388,3.3031,3.3031,0,0,0,.50209-3.63348A3.17208,3.17208,0,0,0,232.5927,4.86063Z" fill="#aacf15"/><path d="M299.87566,16.35856c-6.37048,2.364-7.70181,11.69782-.9064,14.454a7.68737,7.68737,0,0,0,9.74682-10.598C307.17663,17.176,303.18882,15.12912,299.87566,16.35856Z" fill="#aacf15"/><path d="M284.58153,37.02331c-3.80231,1.411-4.59694,6.982-.541,8.627a4.58829,4.58829,0,0,0,5.81748-6.32551A4.52185,4.52185,0,0,0,284.58153,37.02331Z" fill="#aacf15"/><path d="M264.48329,22.18391c-2.66731.98979-3.22473,4.89784-.3795,6.05185a3.21868,3.21868,0,0,0,4.081-4.43736A3.17208,3.17208,0,0,0,264.48329,22.18391Z" fill="#aacf15"/><path d="M312.90974,103.28837c-2.66731.98979-3.22473,4.89784-.3795,6.05185a3.21868,3.21868,0,0,0,4.081-4.43736A3.17208,3.17208,0,0,0,312.90974,103.28837Z" fill="#aacf15"/><path d="M30.638,73.24472c-3.8023,1.411-4.59693,6.982-.541,8.627a4.58828,4.58828,0,0,0,5.81747-6.32551A4.52183,4.52183,0,0,0,30.638,73.24472Z" fill="#aacf15"/><path d="M2.27178,66.67325c-2.66731.98979-3.22473,4.89784-.37949,6.05185a3.30309,3.30309,0,0,0,3.57887-.80388,3.3031,3.3031,0,0,0,.5021-3.63348A3.1721,3.1721,0,0,0,2.27178,66.67325Z" fill="#aacf15"/><path d="M58.17874,147.77771c-2.66731.98979-3.22473,4.89784-.3795,6.05185a3.21868,3.21868,0,0,0,4.081-4.43736A3.17208,3.17208,0,0,0,58.17874,147.77771Z" fill="#aacf15"/><path d="M364.44427,126.20392c-6.37048,2.364-7.70182,11.69783-.9064,14.454a7.68739,7.68739,0,0,0,9.74682-10.598C371.74524,127.02135,367.75742,124.97448,364.44427,126.20392Z" fill="#aacf15"/><path d="M453.81666,25.0202c-6.37048,2.364-7.70181,11.69782-.9064,14.454a7.68739,7.68739,0,0,0,9.74683-10.598C461.11764,25.83763,457.12982,23.79076,453.81666,25.0202Z" fill="#aacf15"/><path d="M533.74,93.91962c-6.37048,2.364-7.70182,11.69783-.9064,14.454a7.68739,7.68739,0,0,0,9.74682-10.598C541.041,94.73705,537.05314,92.69018,533.74,93.91962Z" fill="#aacf15"/><path d="M477.89362,70.48874c-3.8023,1.411-4.59693,6.982-.541,8.627a4.58829,4.58829,0,0,0,5.81748-6.32552A4.52184,4.52184,0,0,0,477.89362,70.48874Z" fill="#aacf15"/><path d="M506.24081,111.8284c-3.8023,1.411-4.59693,6.982-.541,8.627a4.58829,4.58829,0,0,0,5.81748-6.32552A4.52184,4.52184,0,0,0,506.24081,111.8284Z" fill="#aacf15"/><path d="M602.7,130.72652c-3.8023,1.411-4.59693,6.982-.541,8.627a4.58829,4.58829,0,0,0,5.81748-6.32552A4.52184,4.52184,0,0,0,602.7,130.72652Z" fill="#aacf15"/><path d="M477.87464,105.25693c-2.66731.98979-3.22472,4.89784-.37949,6.05185a3.21869,3.21869,0,0,0,4.081-4.43736A3.17209,3.17209,0,0,0,477.87464,105.25693Z" fill="#aacf15"/><path d="M630.19918,16.35856c-6.37048,2.364-7.70182,11.69782-.9064,14.454a7.68737,7.68737,0,0,0,9.74682-10.598C637.50015,17.176,633.51233,15.12912,630.19918,16.35856Z" fill="#aacf15"/><path d="M614.905,37.02331c-3.8023,1.411-4.59693,6.982-.541,8.627a4.58829,4.58829,0,0,0,5.81748-6.32551A4.52187,4.52187,0,0,0,614.905,37.02331Z" fill="#aacf15"/><path d="M594.8068,22.18391c-2.66731.98979-3.22472,4.89784-.37949,6.05185a3.21869,3.21869,0,0,0,4.081-4.43736A3.17209,3.17209,0,0,0,594.8068,22.18391Z" fill="#aacf15"/><path d="M643.23325,103.28837c-2.66731.98979-3.22472,4.89784-.37949,6.05185a3.21869,3.21869,0,0,0,4.081-4.43736A3.17209,3.17209,0,0,0,643.23325,103.28837Z" fill="#aacf15"/><path d="M360.96146,73.24472c-3.8023,1.411-4.59693,6.982-.541,8.627a4.58829,4.58829,0,0,0,5.81748-6.32551A4.52184,4.52184,0,0,0,360.96146,73.24472Z" fill="#aacf15"/><path d="M332.59528,66.67325c-2.6673.98979-3.22472,4.89784-.37949,6.05185a3.21868,3.21868,0,0,0,4.081-4.43736A3.17209,3.17209,0,0,0,332.59528,66.67325Z" fill="#aacf15"/><path d="M388.50225,147.77771c-2.66731.98979-3.22473,4.89784-.3795,6.05185a3.21869,3.21869,0,0,0,4.081-4.43736A3.1721,3.1721,0,0,0,388.50225,147.77771Z" fill="#aacf15"/><path d="M34.12076,451.8029c-6.37048,2.364-7.70181,11.69782-.9064,14.454a7.68739,7.68739,0,0,0,9.74682-10.598C41.42173,452.62032,37.43391,450.57346,34.12076,451.8029Z" fill="#aacf15"/><path d="M123.49315,350.61918c-6.37048,2.364-7.70181,11.69782-.90641,14.454a7.68739,7.68739,0,0,0,9.74683-10.598C130.79412,351.4366,126.8063,349.38974,123.49315,350.61918Z" fill="#aacf15"/><path d="M195.54225,428.96767c-6.37048,2.36395-7.7018,11.69782-.9064,14.454a7.68739,7.68739,0,0,0,9.74683-10.598C202.84323,429.78509,198.85541,427.73822,195.54225,428.96767Z" fill="#aacf15"/><path d="M118.82921,381.52041c-3.80231,1.411-4.59693,6.982-.541,8.627a4.58829,4.58829,0,0,0,5.81747-6.32552A4.52184,4.52184,0,0,0,118.82921,381.52041Z" fill="#aacf15"/><path d="M168.04308,446.87644c-3.80231,1.411-4.59693,6.982-.541,8.627a4.58828,4.58828,0,0,0,5.81747-6.32552A4.52182,4.52182,0,0,0,168.04308,446.87644Z" fill="#aacf15"/><path d="M162.90586,397.78418c-2.66731.98979-3.22473,4.89784-.3795,6.05185a3.21868,3.21868,0,0,0,4.081-4.43736A3.17208,3.17208,0,0,0,162.90586,397.78418Z" fill="#aacf15"/><path d="M299.87566,341.95754c-6.37048,2.364-7.70181,11.69782-.9064,14.454a7.68739,7.68739,0,0,0,9.74682-10.598C307.17663,342.775,303.18882,340.7281,299.87566,341.95754Z" fill="#aacf15"/><path d="M284.58153,362.62229c-3.80231,1.411-4.59694,6.982-.541,8.627a4.58829,4.58829,0,0,0,5.81748-6.32552A4.52182,4.52182,0,0,0,284.58153,362.62229Z" fill="#aacf15"/><path d="M264.48329,347.78289c-2.66731.98979-3.22473,4.89784-.3795,6.05185a3.21868,3.21868,0,0,0,4.081-4.43736A3.17208,3.17208,0,0,0,264.48329,347.78289Z" fill="#aacf15"/><path d="M312.90974,417.86344c-2.66731.98979-3.22473,4.89784-.3795,6.05185a3.21868,3.21868,0,0,0,4.081-4.43736A3.17208,3.17208,0,0,0,312.90974,417.86344Z" fill="#aacf15"/><path d="M30.638,398.8437c-3.8023,1.411-4.59693,6.982-.541,8.627a4.58828,4.58828,0,0,0,5.81747-6.32552A4.52182,4.52182,0,0,0,30.638,398.8437Z" fill="#aacf15"/><path d="M2.27178,392.27223c-2.66731.98979-3.22473,4.89784-.37949,6.05185a3.30311,3.30311,0,0,0,3.57887-.80388,3.30311,3.30311,0,0,0,.5021-3.63348A3.1721,3.1721,0,0,0,2.27178,392.27223Z" fill="#aacf15"/><path d="M58.17874,473.37669c-2.66731.98979-3.22473,4.89784-.3795,6.05185a3.21868,3.21868,0,0,0,4.081-4.43736A3.17208,3.17208,0,0,0,58.17874,473.37669Z" fill="#aacf15"/><path d="M358.93231,431.72364c-6.37048,2.364-7.70181,11.69782-.9064,14.454a7.68739,7.68739,0,0,0,9.74683-10.598C366.23329,432.54106,362.24547,430.4942,358.93231,431.72364Z" fill="#aacf15"/><path d="M453.81666,350.61918c-6.37048,2.364-7.70181,11.69782-.9064,14.454a7.68739,7.68739,0,0,0,9.74683-10.598C461.11764,351.4366,457.12982,349.38974,453.81666,350.61918Z" fill="#aacf15"/><path d="M516.023,415.58149c-6.37048,2.364-7.70181,11.69782-.9064,14.454a7.68739,7.68739,0,0,0,9.74683-10.598C523.324,416.39891,519.33615,414.35205,516.023,415.58149Z" fill="#aacf15"/><path d="M449.15272,381.52041c-3.8023,1.411-4.59693,6.982-.541,8.627a4.58829,4.58829,0,0,0,5.81747-6.32552A4.52184,4.52184,0,0,0,449.15272,381.52041Z" fill="#aacf15"/><path d="M477.49991,429.94686c-3.8023,1.411-4.59693,6.982-.541,8.627a4.58829,4.58829,0,0,0,5.81748-6.32552A4.52186,4.52186,0,0,0,477.49991,429.94686Z" fill="#aacf15"/><path d="M602.7,456.3255c-3.8023,1.411-4.59693,6.982-.541,8.627a4.58829,4.58829,0,0,0,5.81748-6.32551A4.52184,4.52184,0,0,0,602.7,456.3255Z" fill="#aacf15"/><path d="M465.27589,465.10876c-2.66731.98979-3.22473,4.89784-.3795,6.05185a3.21869,3.21869,0,0,0,4.081-4.43736A3.1721,3.1721,0,0,0,465.27589,465.10876Z" fill="#aacf15"/><path d="M630.19918,341.95754c-6.37048,2.364-7.70182,11.69782-.9064,14.454a7.68739,7.68739,0,0,0,9.74682-10.598C637.50015,342.775,633.51233,340.7281,630.19918,341.95754Z" fill="#aacf15"/><path d="M614.905,362.62229c-3.8023,1.411-4.59693,6.982-.541,8.627a4.58829,4.58829,0,0,0,5.81748-6.32552A4.52184,4.52184,0,0,0,614.905,362.62229Z" fill="#aacf15"/><path d="M594.8068,347.78289c-2.66731.98979-3.22472,4.89784-.37949,6.05185a3.21869,3.21869,0,0,0,4.081-4.43736A3.17209,3.17209,0,0,0,594.8068,347.78289Z" fill="#aacf15"/><path d="M647.56407,469.04587c-2.66731.98979-3.22472,4.89784-.37949,6.05185a3.21869,3.21869,0,0,0,4.081-4.43736A3.17209,3.17209,0,0,0,647.56407,469.04587Z" fill="#aacf15"/><path d="M360.96146,398.8437c-3.8023,1.411-4.59693,6.982-.541,8.627a4.58829,4.58829,0,0,0,5.81748-6.32552A4.52184,4.52184,0,0,0,360.96146,398.8437Z" fill="#aacf15"/><path d="M302.29853,474.4362c-3.80232,1.411-4.59694,6.982-.541,8.627a4.58829,4.58829,0,0,0,5.81747-6.32552A4.52183,4.52183,0,0,0,302.29853,474.4362Z" fill="#aacf15"/><path d="M332.59528,392.27223c-2.6673.98979-3.22472,4.89784-.37949,6.05185a3.21868,3.21868,0,0,0,4.081-4.43736A3.17209,3.17209,0,0,0,332.59528,392.27223Z" fill="#aacf15"/><path d="M373.14752,473.37669c-2.66731.98979-3.22472,4.89784-.37949,6.05185a3.21869,3.21869,0,0,0,4.081-4.43736A3.17209,3.17209,0,0,0,373.14752,473.37669Z" fill="#aacf15"/></g></g></g></svg>