<svg xmlns="http://www.w3.org/2000/svg" viewBox="0 0 800 595.60118"><title>main-banner-bg</title><g id="690517cf-04ee-4675-b1ae-a239a58ef227" data-name="Layer 2"><g id="fbce7e40-4d07-4813-96cb-799613deb2d7" data-name="Layer 1"><g id="f6d5746d-98cc-40cc-b16f-0009f6a0d3f1" data-name="huellas"><path d="M284.73342,295.48074a17.20153,17.20153,0,0,1,2.36484-6.54983c6.57522-10.55743,20.39938-10.3041,27.59656-.77012a17.71035,17.71035,0,0,1,3.58782,8.80613c.32786,3.30791-.54012,6.87244-2.59041,9.07387a5.54033,5.54033,0,0,1-7.58244.87208,10.3066,10.3066,0,0,1-2.41818-2.93086,5.5114,5.5114,0,0,0-2.494-2.85644,4.01913,4.01913,0,0,0-1.72939-.2697,4.80115,4.80115,0,0,0-4.22312,2.6428c-.69655,1.35245-1.42626,2.88415-2.90214,3.52335a4.88282,4.88282,0,0,1-3.16826.13936C285.6897,305.75864,284.00171,300.5845,284.73342,295.48074Z" fill="#44c6cf"/><path d="M292.36148,268.46918c-4.632,1.71886-5.60008,8.50561-.65906,10.50963a5.58953,5.58953,0,0,0,7.087-7.70591C297.67006,269.06354,294.77049,267.57526,292.36148,268.46918Z" fill="#44c6cf"/><path d="M307.0912,268.46918c-4.632,1.71886-5.60008,8.50561-.65905,10.50963a5.58957,5.58957,0,0,0,7.087-7.70591C312.39978,269.06354,309.50022,267.57526,307.0912,268.46918Z" fill="#44c6cf"/><path d="M319.29679,278.01466c-3.8767.857-5.02758,6.03672-2.15869,8.70651a5.50549,5.50549,0,0,0,7.75309-.60232C328.13769,281.98939,323.99006,276.97713,319.29679,278.01466Z" fill="#44c6cf"/><path d="M280.63417,278.01466c-3.87674.857-5.02762,6.03672-2.15869,8.70651a5.50544,5.50544,0,0,0,7.753-.60232C289.47509,281.98939,285.3274,276.97713,280.63417,278.01466Z" fill="#44c6cf"/><path d="M18.72769,248.66183a17.20281,17.20281,0,0,1,.51525-6.94462c3.492-11.93727,16.87449-15.413,26.37154-8.16721a17.7096,17.7096,0,0,1,5.825,7.51594c1.2058,3.09765,1.329,6.76428-.05334,9.43622a5.54038,5.54038,0,0,1-7.06813,2.88019,10.30767,10.30767,0,0,1-3.1176-2.17214,5.51164,5.51164,0,0,0-3.17064-2.08,4.02017,4.02017,0,0,0-1.73823.20558,4.8011,4.8011,0,0,0-3.35619,3.68171c-.307,1.49-.59765,3.16153-1.8471,4.17425a4.88286,4.88286,0,0,1-3.01392.98676C22.41426,258.30335,19.39628,253.77419,18.72769,248.66183Z" fill="#44c6cf"/><path d="M18.80631,220.594c-3.99873,2.90186-3.1049,9.69872,2.19314,10.29938a5.58956,5.58956,0,0,0,4.75215-9.32864C24.079,219.738,20.886,219.08478,18.80631,220.594Z" fill="#44c6cf"/><path d="M32.99277,216.63053c-3.99868,2.90185-3.1049,9.69876,2.19314,10.29937a5.58956,5.58956,0,0,0,4.75215-9.32864C38.26553,215.77453,35.07241,215.12135,32.99277,216.63053Z" fill="#44c6cf"/><path d="M47.31669,222.53977c-3.50313,1.86857-3.21788,7.16689.26359,8.96624a5.50553,5.50553,0,0,0,7.30511-2.66632C56.901,223.989,51.55764,220.27764,47.31669,222.53977Z" fill="#44c6cf"/><path d="M10.08,232.94291c-3.50313,1.86857-3.21783,7.16689.26364,8.96629a5.50552,5.50552,0,0,0,7.30506-2.66632C19.66431,234.39216,14.321,230.68083,10.08,232.94291Z" fill="#44c6cf"/><path d="M122.11478,367.51991a17.20217,17.20217,0,0,1,4.04009-5.67193c9.17349-8.39879,22.41961-4.435,26.78589,6.684a17.70993,17.70993,0,0,1,1.086,9.44672c-.57437,3.27408-2.36942,6.47364-4.9365,8.04217a5.54037,5.54037,0,0,1-7.53745-1.20036,10.30678,10.30678,0,0,1-1.54029-3.47351,5.51175,5.51175,0,0,0-1.63346-3.42216,4.0209,4.0209,0,0,0-1.59305-.72513,4.80111,4.80111,0,0,0-4.77844,1.409c-1.03486,1.11515-2.14977,2.394-3.7432,2.6125a4.88286,4.88286,0,0,1-3.08892-.71831C120.27021,377.676,120.03677,372.23848,122.11478,367.51991Z" fill="#44c6cf"/><path d="M136.72981,343.55716c-4.92371.409-7.68224,6.685-3.46272,9.94465a5.58957,5.58957,0,0,0,8.89917-5.51468C141.68268,345.558,139.2905,343.34442,136.72981,343.55716Z" fill="#44c6cf"/><path d="M150.91628,347.52068c-4.92371.409-7.68225,6.685-3.46272,9.94465a5.58958,5.58958,0,0,0,8.89916-5.51473C155.86914,349.52155,153.477,347.3079,150.91628,347.52068Z" fill="#44c6cf"/><path d="M160.10317,359.9984c-3.96433-.21775-6.46652,4.46122-4.42186,7.80452a5.50556,5.50556,0,0,0,7.62925,1.50608C167.54851,366.20543,164.90251,360.262,160.10317,359.9984Z" fill="#44c6cf"/><path d="M122.86653,349.595c-3.96438-.2177-6.46657,4.46122-4.42186,7.80453a5.50553,5.50553,0,0,0,7.62924,1.50607C130.31181,355.802,127.66587,349.85856,122.86653,349.595Z" fill="#44c6cf"/><path d="M623.46741,261.13025a17.20136,17.20136,0,0,1,2.36484-6.54983c6.57521-10.55743,20.39937-10.30409,27.59656-.77012a17.71029,17.71029,0,0,1,3.58781,8.80613c.32786,3.30791-.54011,6.87244-2.5904,9.07388a5.54035,5.54035,0,0,1-7.58245.87207,10.30656,10.30656,0,0,1-2.41817-2.93086,5.51144,5.51144,0,0,0-2.494-2.85644,4.01914,4.01914,0,0,0-1.7294-.26969,4.80112,4.80112,0,0,0-4.22311,2.64279c-.69655,1.35245-1.42626,2.88415-2.90214,3.52336a4.88289,4.88289,0,0,1-3.16826.13935C624.42369,271.40815,622.7357,266.234,623.46741,261.13025Z" fill="#44c6cf"/><path d="M631.09546,234.1187c-4.632,1.71886-5.60008,8.50561-.659,10.50962a5.58953,5.58953,0,0,0,7.087-7.70591C636.404,234.71305,633.50448,233.22477,631.09546,234.1187Z" fill="#44c6cf"/><path d="M645.82519,234.1187c-4.632,1.71886-5.60009,8.50561-.659,10.50962a5.58957,5.58957,0,0,0,7.087-7.70591C651.13377,234.71305,648.23421,233.22477,645.82519,234.1187Z" fill="#44c6cf"/><path d="M658.03077,243.66417c-3.87669.857-5.02757,6.03672-2.15868,8.70651a5.50549,5.50549,0,0,0,7.75309-.60232C666.87168,247.63891,662.72405,242.62664,658.03077,243.66417Z" fill="#44c6cf"/><path d="M619.36816,243.66417c-3.87674.857-5.02763,6.03672-2.15869,8.70651a5.50543,5.50543,0,0,0,7.753-.60232C628.20906,247.63891,624.06139,242.62664,619.36816,243.66417Z" fill="#44c6cf"/><path d="M414.86935,237.49134a17.20182,17.20182,0,0,1,4.68559-5.15152c10.10673-7.24891,22.78783-1.7388,25.80161,9.82033a17.70963,17.70963,0,0,1-.04461,9.50883c-.95938,3.18262-3.122,6.14611-5.85733,7.39843a5.54034,5.54034,0,0,1-7.34132-2.0877,10.30678,10.30678,0,0,1-1.11658-3.63194,5.51171,5.51171,0,0,0-1.2151-3.59211,4.02,4.02,0,0,0-1.49558-.90929,4.80106,4.80106,0,0,0-4.91207.83105c-1.16.98418-2.419,2.12147-4.02717,2.149a4.883,4.883,0,0,1-2.98162-1.08037C411.8307,247.35623,412.2452,241.92952,414.86935,237.49134Z" fill="#44c6cf"/><path d="M432.22894,215.43556c-4.93745-.17905-8.42236,5.72451-4.62014,9.46261a5.58959,5.58959,0,0,0,9.49152-4.41791C436.90886,218.01094,434.79678,215.52869,432.22894,215.43556Z" fill="#44c6cf"/><path d="M445.84375,221.05711c-4.93745-.179-8.42235,5.72456-4.62014,9.46261a5.58956,5.58956,0,0,0,9.49152-4.41786C450.52367,223.63249,448.4116,221.15024,445.84375,221.05711Z" fill="#44c6cf"/><path d="M453.48244,234.53834c-3.91037-.68739-6.951,3.661-5.31812,7.22363a5.50555,5.50555,0,0,0,7.39614,2.40219C460.13723,241.5863,458.21642,235.37049,453.48244,234.53834Z" fill="#44c6cf"/><path d="M417.7463,219.78281c-3.91038-.68735-6.951,3.661-5.31814,7.22367a5.50545,5.50545,0,0,0,7.3961,2.40214C424.401,226.83081,422.48027,220.615,417.7463,219.78281Z" fill="#44c6cf"/><path d="M527.84395,378.13412a17.202,17.202,0,0,1-.32184-6.95626c2.03417-12.27,14.90286-17.32667,25.20085-11.27292a17.70971,17.70971,0,0,1,6.68484,6.7626c1.56887,2.93058,2.13117,6.55589,1.07947,9.3744a5.54036,5.54036,0,0,1-6.67139,3.70761,10.30758,10.30758,0,0,1-3.35576-1.78232,5.5116,5.5116,0,0,0-3.39736-1.68446,4.01986,4.01986,0,0,0-1.701.41268,4.80109,4.80109,0,0,0-2.89012,4.05785c-.12595,1.516-.21388,3.21038-1.3328,4.36575a4.88267,4.88267,0,0,1-2.8737,1.34134C532.66094,387.26357,529.12122,383.12935,527.84395,378.13412Z" fill="#44c6cf"/><path d="M524.55365,350.25965c-3.62154,3.36072-1.91852,10.00129,3.4133,9.96174a5.58953,5.58953,0,0,0,3.5983-9.83149C529.68557,348.77709,526.43716,348.51183,524.55365,350.25965Z" fill="#44c6cf"/><path d="M538.162,344.62245c-3.62159,3.36072-1.91857,10.00124,3.41324,9.96174a5.5896,5.5896,0,0,0,3.59836-9.83154C543.29394,343.13989,540.04553,342.87458,538.162,344.62245Z" fill="#44c6cf"/><path d="M553.09151,348.77c-3.25356,2.27548-2.33449,7.50128,1.33776,8.86986a5.50546,5.50546,0,0,0,6.93227-3.52374C562.78055,349.05858,557.03042,346.01532,553.09151,348.77Z" fill="#44c6cf"/><path d="M517.37235,363.5666c-3.25357,2.27544-2.33455,7.50124,1.33771,8.86982a5.5055,5.5055,0,0,0,6.93231-3.52369C527.06133,363.85519,521.3112,360.81188,517.37235,363.5666Z" fill="#44c6cf"/><path d="M277.10532,143.12836a17.20194,17.20194,0,0,1,.08173-6.96318c2.74169-12.13159,15.88176-16.43409,25.81167-9.79385a17.70985,17.70985,0,0,1,6.28181,7.13856c1.39638,3.01659,1.74771,6.66838.53447,9.42124a5.54031,5.54031,0,0,1-6.875,3.31477,10.30656,10.30656,0,0,1-3.24685-1.97372,5.51168,5.51168,0,0,0-3.29406-1.87849,4.02017,4.02017,0,0,0-1.72206.31344,4.801,4.801,0,0,0-3.12036,3.88356c-.21359,1.50623-.39956,3.1926-1.5835,4.28122a4.88308,4.88308,0,0,1-2.94666,1.17254C281.3852,152.52159,278.091,148.18919,277.10532,143.12836Z" fill="#44c6cf"/><path d="M275.43565,115.11009c-3.81023,3.14527-2.49485,9.87329,2.83034,10.1428a5.58961,5.58961,0,0,0,4.16194-9.60655C280.64481,113.92739,277.41724,113.4743,275.43565,115.11009Z" fill="#44c6cf"/><path d="M289.34774,110.27083c-3.81018,3.14526-2.4948,9.87328,2.83034,10.14279a5.58956,5.58956,0,0,0,4.16194-9.6065C294.55694,109.08812,291.32938,108.63508,289.34774,110.27083Z" fill="#44c6cf"/><path d="M304.01187,115.27646c-3.38,2.08311-2.76526,7.35339.82155,8.93246a5.50545,5.50545,0,0,0,7.12481-3.11612C313.66789,116.126,308.10373,112.75461,304.01187,115.27646Z" fill="#44c6cf"/><path d="M267.49534,127.97855c-3.37994,2.08312-2.76521,7.35339.82155,8.93246a5.50546,5.50546,0,0,0,7.12482-3.11611C277.15137,128.8281,271.5872,125.45675,267.49534,127.97855Z" fill="#44c6cf"/><path d="M14.6582,37.46211a17.20194,17.20194,0,0,1,5.2301-4.59772C30.73938,26.786,42.728,33.67387,44.43592,45.49673a17.7097,17.7097,0,0,1-1.10312,9.44472c-1.30785,3.056-3.78705,5.76024-6.64477,6.7002a5.54038,5.54038,0,0,1-7.06322-2.89221,10.30723,10.30723,0,0,1-.70519-3.73371,5.5117,5.5117,0,0,0-.80757-3.705,4.02,4.02,0,0,0-1.385-1.0702,4.80111,4.80111,0,0,0-4.974.2789c-1.26243.84894-2.64026,1.83895-4.24143,1.68728A4.88292,4.88292,0,0,1,14.66875,50.801C10.54,46.92733,11.55621,41.58048,14.6582,37.46211Z" fill="#44c6cf"/><path d="M34.36579,17.47651c-4.88678-.7277-9.00741,4.75111-5.64507,8.88934a5.58959,5.58959,0,0,0,9.92443-3.33353C38.72988,20.557,36.9073,17.855,34.36579,17.47651Z" fill="#44c6cf"/><path d="M47.27,24.57919c-4.88678-.72775-9.00741,4.7511-5.64512,8.88929A5.58956,5.58956,0,0,0,51.54929,30.135C51.634,27.65967,49.81149,24.95767,47.27,24.57919Z" fill="#44c6cf"/><path d="M53.36,38.82714c-3.80952-1.11851-7.31536,2.86425-6.08939,6.58653a5.50547,5.50547,0,0,0,7.08264,3.21082C59.1886,46.57228,57.97188,40.18128,53.36,38.82714Z" fill="#44c6cf"/><path d="M19.48912,20.1841c-3.80952-1.11854-7.31536,2.86425-6.08938,6.58651a5.50547,5.50547,0,0,0,7.08264,3.21082C25.31773,27.92927,24.101,21.53822,19.48912,20.1841Z" fill="#44c6cf"/><path d="M122.08367,169.29937a17.2025,17.2025,0,0,1,4.11123-5.6206c9.27859-8.28252,22.47372-4.15211,26.69959,7.021a17.71008,17.71008,0,0,1,.96682,9.45969c-.61559,3.26659-2.45081,6.44325-5.03745,7.97933a5.54039,5.54039,0,0,1-7.52171-1.29525,10.30728,10.30728,0,0,1-1.49643-3.49263,5.51152,5.51152,0,0,0-1.5902-3.44249,4.01985,4.01985,0,0,0-1.58379-.74512,4.80106,4.80106,0,0,0-4.7958,1.34868c-1.0488,1.102-2.17979,2.3667-3.77584,2.56508a4.88266,4.88266,0,0,1-3.07962-.75714C120.11129,179.43148,119.94636,173.99141,122.08367,169.29937Z" fill="#44c6cf"/><path d="M136.99947,145.52268c-4.92849.347-7.76584,6.58766-3.58772,9.90024a5.58958,5.58958,0,0,0,8.96791-5.40214C141.92671,147.58576,139.56268,145.3422,136.99947,145.52268Z" fill="#44c6cf"/><path d="M151.13488,149.66459c-4.92848.347-7.76588,6.5877-3.58772,9.90028a5.58958,5.58958,0,0,0,8.96792-5.40214C156.06213,151.72771,153.69805,149.48415,151.13488,149.66459Z" fill="#44c6cf"/><path d="M160.16381,162.25709c-3.96128-.26764-6.52225,4.3794-4.51981,7.74819a5.50546,5.50546,0,0,0,7.60964,1.60206C167.53032,168.55745,164.95943,162.58113,160.16381,162.25709Z" fill="#44c6cf"/><path d="M123.06118,151.38535c-3.96128-.26764-6.52225,4.37941-4.5198,7.74819a5.5055,5.5055,0,0,0,7.60963,1.60207C130.42769,157.68571,127.85685,151.70939,123.06118,151.38535Z" fill="#44c6cf"/><path d="M209.39116,23.78689a17.20225,17.20225,0,0,1,4.11123-5.6206c9.27859-8.28252,22.47372-4.15211,26.69958,7.021a17.71,17.71,0,0,1,.96683,9.4597c-.61559,3.26658-2.45081,6.44324-5.03745,7.97931a5.54034,5.54034,0,0,1-7.52171-1.29523,10.30711,10.30711,0,0,1-1.49643-3.49263,5.51162,5.51162,0,0,0-1.5902-3.4425,4.0201,4.0201,0,0,0-1.5838-.74512,4.80105,4.80105,0,0,0-4.79579,1.34869c-1.0488,1.102-2.17979,2.36668-3.77585,2.56509a4.88271,4.88271,0,0,1-3.07961-.75715C207.41878,33.919,207.25385,28.47893,209.39116,23.78689Z" fill="#44c6cf"/><path d="M224.307.0102c-4.92849.347-7.76584,6.58766-3.58772,9.90024a5.736,5.736,0,0,0,6.35679.408,5.73614,5.73614,0,0,0,2.61112-5.8101C229.2342,2.07328,226.87017-.17029,224.307.0102Z" fill="#44c6cf"/><path d="M238.44237,4.1521c-4.92848.347-7.76588,6.58771-3.58772,9.90029a5.73611,5.73611,0,0,0,6.3568.408,5.73614,5.73614,0,0,0,2.61111-5.8101C243.36961,6.21523,241.00554,3.97167,238.44237,4.1521Z" fill="#44c6cf"/><path d="M247.4713,16.74461c-3.96128-.26765-6.52225,4.3794-4.51981,7.74818a5.50547,5.50547,0,0,0,7.60964,1.60207C254.83781,23.045,252.26692,17.06865,247.4713,16.74461Z" fill="#44c6cf"/><path d="M210.36867,5.87287c-3.96128-.26765-6.52225,4.3794-4.51981,7.74818a5.5055,5.5055,0,0,0,7.60964,1.60207C217.73518,12.17323,215.16433,6.19691,210.36867,5.87287Z" fill="#44c6cf"/><path d="M630.37,52.67928a17.20171,17.20171,0,0,1-.54431-6.94238c1.64048-12.32892,14.34076-17.7947,24.8272-12.07363a17.7099,17.7099,0,0,1,6.89782,6.54523c1.66184,2.87888,2.33988,6.48434,1.37888,9.3351a5.54025,5.54025,0,0,1-6.5493,3.91915,10.30651,10.30651,0,0,1-3.4111-1.674,5.51153,5.51153,0,0,0-3.4495-1.57488,4.02,4.02,0,0,0-1.6869.46693A4.80108,4.80108,0,0,0,645.074,54.829c-.07738,1.51934-.11107,3.21563-1.19239,4.40621a4.88278,4.88278,0,0,1-2.82934,1.43256C635.47667,61.64991,631.80647,57.631,630.37,52.67928Z" fill="#44c6cf"/><path d="M626.18945,24.92437c-3.5122,3.47488-1.59754,10.05753,3.73027,9.84742a5.58958,5.58958,0,0,0,3.2819-9.94165C631.27127,23.27836,628.016,23.11715,626.18945,24.92437Z" fill="#44c6cf"/><path d="M639.61042,18.85459c-3.51215,3.47488-1.59754,10.05749,3.73032,9.84738a5.58956,5.58956,0,0,0,3.28186-9.94161C644.69224,17.20853,641.43706,17.04732,639.61042,18.85459Z" fill="#44c6cf"/><path d="M654.665,22.52227c-3.17909,2.37839-2.09328,7.57213,1.62087,8.82249a5.50547,5.50547,0,0,0,6.816-3.74373C664.35828,22.50065,658.51373,19.64293,654.665,22.52227Z" fill="#44c6cf"/><path d="M619.43762,38.45428c-3.17909,2.37842-2.09333,7.57212,1.62087,8.82247a5.5055,5.5055,0,0,0,6.816-3.74369C629.1309,38.4327,623.28631,35.575,619.43762,38.45428Z" fill="#44c6cf"/><path d="M757.59065,168.23637a17.20173,17.20173,0,0,1,5.45214-4.33212c11.13977-5.53158,22.77128,1.94371,23.88943,13.8368a17.7098,17.7098,0,0,1-1.5712,9.37826c-1.45813,2.9872-4.06862,5.56487-6.96957,6.36161a5.5403,5.5403,0,0,1-6.9107-3.23968,10.3064,10.3064,0,0,1-.51874-3.76414,5.51139,5.51139,0,0,0-.62246-3.74058,4.01946,4.01946,0,0,0-1.33013-1.13772,4.801,4.801,0,0,0-4.98172.03135c-1.303.7851-2.72839,1.7054-4.32005,1.47435a4.883,4.883,0,0,1-2.76946-1.5452C753.00711,177.48519,754.28781,172.19545,757.59065,168.23637Z" fill="#44c6cf"/><path d="M778.26722,149.255c-4.84457-.96973-9.23241,4.29749-6.07995,8.59774a5.58959,5.58959,0,0,0,10.07787-2.83616C782.47276,152.54855,780.78678,149.75934,778.26722,149.255Z" fill="#44c6cf"/><path d="M790.80242,156.99021c-4.84456-.96969-9.23241,4.29753-6.07994,8.59774a5.58956,5.58956,0,0,0,10.07786-2.83611C795.008,160.2838,793.322,157.49459,790.80242,156.99021Z" fill="#44c6cf"/><path d="M796.1768,171.52328c-3.74926-1.30651-7.44876,2.49709-6.40928,6.27574a5.50548,5.50548,0,0,0,6.91428,3.55885C801.61319,179.54856,800.71564,173.10493,796.1768,171.52328Z" fill="#44c6cf"/><path d="M763.27437,151.2198c-3.74921-1.30651-7.44871,2.49709-6.40927,6.27574a5.50553,5.50553,0,0,0,6.91432,3.55886C768.71081,159.24508,767.81322,152.80145,763.27437,151.2198Z" fill="#44c6cf"/><path d="M416.4103,46.4397a17.20165,17.20165,0,0,1,2.36484-6.54983c6.57521-10.55743,20.39937-10.30409,27.59656-.7701a17.71021,17.71021,0,0,1,3.58782,8.80611c.32785,3.30791-.54012,6.87244-2.59041,9.07388a5.54034,5.54034,0,0,1-7.58244.87207,10.3066,10.3066,0,0,1-2.41818-2.93086,5.51144,5.51144,0,0,0-2.494-2.85644,4.01914,4.01914,0,0,0-1.7294-.26969,4.80112,4.80112,0,0,0-4.22311,2.64279c-.69655,1.35245-1.42626,2.88415-2.90214,3.52336a4.88288,4.88288,0,0,1-3.16826.13935C417.36658,56.7176,415.67859,51.54347,416.4103,46.4397Z" fill="#44c6cf"/><path d="M424.03835,19.42815c-4.632,1.71886-5.60008,8.50561-.659,10.50962a5.58953,5.58953,0,0,0,7.087-7.70591C429.34693,20.0225,426.44737,18.53422,424.03835,19.42815Z" fill="#44c6cf"/><path d="M438.76808,19.42815c-4.632,1.71886-5.60008,8.50561-.659,10.50962a5.58957,5.58957,0,0,0,7.087-7.70591C444.07666,20.0225,441.1771,18.53422,438.76808,19.42815Z" fill="#44c6cf"/><path d="M450.97367,28.97362c-3.87669.85705-5.02758,6.03672-2.15869,8.70653a5.5055,5.5055,0,0,0,7.75309-.60236C459.81458,32.94835,455.66694,27.93609,450.97367,28.97362Z" fill="#44c6cf"/><path d="M412.311,28.97362c-3.87674.85705-5.02762,6.03672-2.15869,8.70653a5.50547,5.50547,0,0,0,7.75306-.60236C421.152,32.94835,417.00428,27.93609,412.311,28.97362Z" fill="#44c6cf"/><path d="M523.75558,174.29985a17.20119,17.20119,0,0,1,2.36484-6.54983c6.5752-10.55743,20.39937-10.30409,27.59656-.77012a17.71038,17.71038,0,0,1,3.58781,8.80613c.32786,3.30791-.54011,6.87244-2.59041,9.07388a5.54034,5.54034,0,0,1-7.58244.87207,10.30677,10.30677,0,0,1-2.41818-2.93086,5.51142,5.51142,0,0,0-2.494-2.85644,4.01917,4.01917,0,0,0-1.72941-.26969,4.80112,4.80112,0,0,0-4.2231,2.64279c-.69656,1.35245-1.42626,2.88415-2.90214,3.52336a4.88289,4.88289,0,0,1-3.16826.13935C524.71186,184.57775,523.02386,179.40362,523.75558,174.29985Z" fill="#44c6cf"/><path d="M531.38363,147.2883c-4.632,1.71886-5.60009,8.50561-.65906,10.50962a5.58954,5.58954,0,0,0,7.087-7.70591C536.69221,147.88265,533.79265,146.39437,531.38363,147.2883Z" fill="#44c6cf"/><path d="M546.11335,147.2883c-4.632,1.71886-5.60008,8.50561-.659,10.50962a5.58957,5.58957,0,0,0,7.087-7.70591C551.42194,147.88265,548.52237,146.39437,546.11335,147.2883Z" fill="#44c6cf"/><path d="M558.31894,156.83377c-3.87669.85705-5.02757,6.03672-2.15869,8.70651a5.5055,5.5055,0,0,0,7.7531-.60232C567.15985,160.8085,563.01222,155.79624,558.31894,156.83377Z" fill="#44c6cf"/><path d="M519.65632,156.83377c-3.87674.85705-5.02762,6.03672-2.15869,8.70651a5.50544,5.50544,0,0,0,7.75305-.60232C528.49723,160.8085,524.34955,155.79624,519.65632,156.83377Z" fill="#44c6cf"/><path d="M243.38111,461.72942a17.20165,17.20165,0,0,1,1.48571-6.80335c5.13425-11.32841,18.87235-12.88974,27.25735-4.38165a17.70949,17.70949,0,0,1,4.71141,8.25972c.75871,3.23634.36564,6.88389-1.37836,9.33518a5.54035,5.54035,0,0,1-7.40263,1.85869,10.30713,10.30713,0,0,1-2.78158-2.58859,5.51189,5.51189,0,0,0-2.847-2.50478,4.02025,4.02025,0,0,0-1.74987-.0406,4.801,4.801,0,0,0-3.8401,3.17366c-.51326,1.43212-1.03585,3.04626-2.41518,3.87344a4.88271,4.88271,0,0,1-3.12265.55357C245.67668,471.79321,243.32491,466.885,243.38111,461.72942Z" fill="#44c6cf"/><path d="M247.40184,433.95089c-4.36667,2.31132-4.43656,9.16638.72455,10.50534a5.5896,5.5896,0,0,0,6.01554-8.56859C252.74257,433.84412,249.67289,432.74882,247.40184,433.95089Z" fill="#44c6cf"/><path d="M262.00447,432.01968c-4.36671,2.31136-4.43661,9.16638.72451,10.50534a5.5896,5.5896,0,0,0,6.01553-8.56859C267.34516,431.91291,264.27546,430.81761,262.00447,432.01968Z" fill="#44c6cf"/><path d="M275.35617,439.88251c-3.73089,1.35794-4.19272,6.64376-.99855,8.91438a5.5055,5.5055,0,0,0,7.6072-1.61366C284.64192,442.6638,279.87287,438.2386,275.35617,439.88251Z" fill="#44c6cf"/><path d="M237.02727,444.95154c-3.73089,1.35794-4.19271,6.64377-.99855,8.91438a5.50551,5.50551,0,0,0,7.60721-1.61366C246.313,447.73284,241.544,443.30763,237.02727,444.95154Z" fill="#44c6cf"/><path d="M273.43779,584.81867a17.20173,17.20173,0,0,1,1.4857-6.80336c5.13426-11.3284,18.87235-12.88973,27.25735-4.38164a17.7094,17.7094,0,0,1,4.71141,8.25972c.75872,3.23634.36564,6.88389-1.37835,9.33517a5.54034,5.54034,0,0,1-7.40263,1.8587,10.307,10.307,0,0,1-2.78158-2.5886,5.512,5.512,0,0,0-2.847-2.50477,4.0203,4.0203,0,0,0-1.74988-.0406,4.801,4.801,0,0,0-3.8401,3.17365c-.51325,1.43213-1.03585,3.04627-2.41517,3.87345a4.88271,4.88271,0,0,1-3.12265.55357C275.73336,594.88245,273.38159,589.97425,273.43779,584.81867Z" fill="#44c6cf"/><path d="M277.45851,557.04014c-4.36666,2.31131-4.43655,9.16638.72456,10.50534a5.5896,5.5896,0,0,0,6.01553-8.56859C282.79925,556.93337,279.72957,555.83807,277.45851,557.04014Z" fill="#44c6cf"/><path d="M292.06114,555.10893c-4.36671,2.31136-4.4366,9.16638.72451,10.50533a5.58959,5.58959,0,0,0,6.01554-8.56858C297.40183,555.00216,294.33214,553.90685,292.06114,555.10893Z" fill="#44c6cf"/><path d="M305.41284,562.97176c-3.73089,1.35794-4.19271,6.64376-.99855,8.91438a5.50552,5.50552,0,0,0,7.60721-1.61366C314.69859,565.75305,309.92955,561.32785,305.41284,562.97176Z" fill="#44c6cf"/><path d="M267.084,568.04079c-3.73089,1.35794-4.19272,6.64377-.99855,8.91438a5.5055,5.5055,0,0,0,7.6072-1.61366C276.3697,570.82208,271.60066,566.39688,267.084,568.04079Z" fill="#44c6cf"/><path d="M19.23655,445.81727a17.20278,17.20278,0,0,1,.21751-6.96031c2.97775-12.07582,16.19921-16.12126,25.99778-9.28861a17.70968,17.70968,0,0,1,6.14139,7.25973c1.33728,3.04322,1.61734,6.70116.35062,9.42983a5.5403,5.5403,0,0,1-6.93833,3.18009,10.3067,10.3067,0,0,1-3.20776-2.03669,5.51172,5.51172,0,0,0-3.25676-1.94238,4.02061,4.02061,0,0,0-1.72783.27981,4.80113,4.80113,0,0,0-3.19555,3.822c-.24293,1.50179-.46173,3.18424-1.66667,4.24954a4.88279,4.88279,0,0,1-2.96893,1.11486C23.33246,455.29214,20.12337,450.89632,19.23655,445.81727Z" fill="#44c6cf"/><path d="M18.11362,417.77172c-3.87082,3.07036-2.68692,9.82276,2.632,10.196a5.58954,5.58954,0,0,0,4.34848-9.52349C23.34487,416.69082,20.12675,416.1749,18.11362,417.77172Z" fill="#44c6cf"/><path d="M32.11746,413.20468c-3.87083,3.07036-2.68693,9.82276,2.632,10.196a5.58953,5.58953,0,0,0,4.34849-9.52348C37.34871,412.12378,34.13059,411.60786,32.11746,413.20468Z" fill="#44c6cf"/><path d="M46.68116,418.49532c-3.41993,2.01685-2.9081,7.2981.64717,8.94678a5.50554,5.50554,0,0,0,7.18426-2.97657C56.31876,419.533,50.82139,416.05377,46.68116,418.49532Z" fill="#44c6cf"/><path d="M9.92385,430.48293c-3.41993,2.0168-2.90811,7.298.64722,8.94677a5.50547,5.50547,0,0,0,7.18421-2.97656C19.56145,431.5206,14.06413,428.04137,9.92385,430.48293Z" fill="#44c6cf"/><path d="M121.94193,562.12053a17.20169,17.20169,0,0,1,4.62663-5.20453c10.02357-7.3635,22.7666-1.99805,25.91172,9.526a17.70986,17.70986,0,0,1,.06364,9.50874c-.92312,3.19335-3.0519,6.18127-5.77274,7.46459a5.54038,5.54038,0,0,1-7.36465-2.004,10.30594,10.30594,0,0,1-1.1578-3.619,5.51172,5.51172,0,0,0-1.25594-3.578,4.0198,4.0198,0,0,0-1.50584-.89226,4.80116,4.80116,0,0,0-4.90225.88691c-1.14878.99736-2.39475,2.14887-4.00245,2.19476a4.88273,4.88273,0,0,1-2.99378-1.04635C119.01579,572.01939,119.36846,566.58824,121.94193,562.12053Z" fill="#44c6cf"/><path d="M139.04933,539.86857c-4.93912-.12285-8.35661,5.82-4.51212,9.51461a5.58957,5.58957,0,0,0,9.44061-4.52563C143.75831,542.39052,141.61808,539.93246,139.04933,539.86857Z" fill="#44c6cf"/><path d="M152.72727,545.33483c-4.93917-.12285-8.35667,5.82-4.51218,9.51456a5.58957,5.58957,0,0,0,9.44066-4.52563C157.43619,547.85678,155.296,545.39872,152.72727,545.33483Z" fill="#44c6cf"/><path d="M160.51891,558.72823c-3.918-.64283-6.90884,3.73986-5.23559,7.28369a5.50553,5.50553,0,0,0,7.423,2.31785C167.25347,565.7,165.262,559.50646,160.51891,558.72823Z" fill="#44c6cf"/><path d="M124.61712,544.38041c-3.918-.64283-6.90884,3.73991-5.23559,7.28369a5.50552,5.50552,0,0,0,7.423,2.31785C131.35168,551.35218,129.36025,545.15864,124.61712,544.38041Z" fill="#44c6cf"/><path d="M758.86787,520.90186a17.20264,17.20264,0,0,1-.12686-6.96256c2.3772-12.20826,15.38249-16.9023,25.50682-10.56244a17.71,17.71,0,0,1,6.49276,6.94729c1.48614,2.97337,1.94667,6.613.81635,9.401a5.54028,5.54028,0,0,1-6.77263,3.51921,10.30686,10.30686,0,0,1-3.30451-1.87563,5.51168,5.51168,0,0,0-3.34884-1.779,4.01989,4.01989,0,0,0-1.71185.36488,4.8011,4.8011,0,0,0-3.00271,3.97525c-.16836,1.51195-.30376,3.20319-1.4546,4.32673a4.88281,4.88281,0,0,1-2.91015,1.26029C763.42714,530.16265,760.00468,525.93086,758.86787,520.90186Z" fill="#44c6cf"/><path d="M756.35991,492.94614c-3.71434,3.25791-2.198,9.94356,3.13276,10.05343a5.58954,5.58954,0,0,0,3.8724-9.72681C761.53132,491.608,758.29164,491.25176,756.35991,492.94614Z" fill="#44c6cf"/><path d="M770.12085,487.69242c-3.71433,3.25791-2.198,9.94356,3.13277,10.05344a5.58955,5.58955,0,0,0,3.8724-9.72682C775.29227,486.35423,772.05259,485.998,770.12085,487.69242Z" fill="#44c6cf"/><path d="M784.92825,492.25665c-3.316,2.1834-2.54375,7.43292,1.08872,8.90384a5.50552,5.50552,0,0,0,7.0283-3.32809C794.60536,492.81661,788.94277,489.61338,784.92825,492.25665Z" fill="#44c6cf"/><path d="M748.80852,506.04661c-3.31606,2.1834-2.54379,7.43292,1.08868,8.90383a5.50545,5.50545,0,0,0,7.0283-3.32808C758.48563,506.60657,752.82305,503.40338,748.80852,506.04661Z" fill="#44c6cf"/><path d="M598.5656,469.37612a17.20241,17.20241,0,0,1-.12686-6.96255c2.37719-12.20826,15.38248-16.9023,25.50681-10.56244a17.71013,17.71013,0,0,1,6.49277,6.94729c1.48613,2.97336,1.94667,6.613.81634,9.401a5.54027,5.54027,0,0,1-6.77262,3.51921,10.3068,10.3068,0,0,1-3.30452-1.87563,5.51163,5.51163,0,0,0-3.34884-1.779,4.01991,4.01991,0,0,0-1.71185.36487,4.80115,4.80115,0,0,0-3.00271,3.97526c-.16836,1.512-.30376,3.20318-1.4546,4.32673a4.88271,4.88271,0,0,1-2.91015,1.26028C603.12486,478.63692,599.70241,474.40513,598.5656,469.37612Z" fill="#44c6cf"/><path d="M596.05763,441.42041c-3.71434,3.2579-2.198,9.94356,3.13276,10.05343a5.58955,5.58955,0,0,0,3.8724-9.72682C601.22905,440.08222,597.98937,439.726,596.05763,441.42041Z" fill="#44c6cf"/><path d="M609.81858,436.16669c-3.71434,3.25791-2.198,9.94356,3.13276,10.05344a5.58955,5.58955,0,0,0,3.8724-9.72682C614.99,434.8285,611.75031,434.47231,609.81858,436.16669Z" fill="#44c6cf"/><path d="M624.626,440.73092c-3.316,2.1834-2.54374,7.43292,1.08872,8.90384a5.50554,5.50554,0,0,0,7.02831-3.32809C634.30308,441.29088,628.6405,438.08765,624.626,440.73092Z" fill="#44c6cf"/><path d="M588.50625,454.52087c-3.31607,2.18341-2.5438,7.43292,1.08867,8.90384a5.50546,5.50546,0,0,0,7.0283-3.32808C598.18335,455.08083,592.52077,451.87765,588.50625,454.52087Z" fill="#44c6cf"/><path d="M630.8458,564.68723a17.20189,17.20189,0,0,1,5.67623-4.034c11.41991-4.92733,22.63458,3.15992,23.11449,15.0958a17.70963,17.70963,0,0,1-2.071,9.28069c-1.616,2.90486-4.3607,5.33912-7.30015,5.97942a5.54027,5.54027,0,0,1-6.72735-3.605,10.30629,10.30629,0,0,1-.3165-3.78652,5.51156,5.51156,0,0,0-.42132-3.76853,4.01938,4.01938,0,0,0-1.2673-1.20728,4.80111,4.80111,0,0,0-4.97629-.23539c-1.34319.71425-2.81573,1.55693-4.39275,1.24095a4.8829,4.8829,0,0,1-2.68278-1.69118C625.77371,573.67742,627.33575,568.46383,630.8458,564.68723Z" fill="#44c6cf"/><path d="M652.50884,546.83991c-4.78574-1.22765-9.44925,3.79716-6.53151,8.26a5.58959,5.58959,0,0,0,10.21526-2.29257C656.532,550.35392,654.99777,547.4784,652.50884,546.83991Z" fill="#44c6cf"/><path d="M664.612,555.23512c-4.78573-1.22765-9.44924,3.79711-6.5315,8.25991a5.58954,5.58954,0,0,0,10.21521-2.29256C668.6352,558.74908,667.10093,555.87361,664.612,555.23512Z" fill="#44c6cf"/><path d="M669.20065,570.035c-3.67393-1.50527-7.57171,2.09481-6.736,5.92365a5.50554,5.50554,0,0,0,6.7139,3.92392C674.19964,578.33978,673.64832,571.85742,669.20065,570.035Z" fill="#44c6cf"/><path d="M637.43231,547.99929c-3.67392-1.50527-7.5717,2.0948-6.736,5.92364a5.50551,5.50551,0,0,0,6.71385,3.92393C642.43131,556.30409,641.88,549.82172,637.43231,547.99929Z" fill="#44c6cf"/><path d="M415.25393,437.38986a17.20233,17.20233,0,0,1,3.66334-5.92227c8.6089-8.97664,22.08445-5.88113,27.16336,4.93092a17.70973,17.70973,0,0,1,1.69691,9.35631c-.36053,3.30452-1.94409,6.6138-4.40392,8.34569a5.54034,5.54034,0,0,1-7.59947-.70848,10.30638,10.30638,0,0,1-1.76256-3.36616,5.51182,5.51182,0,0,0-1.85221-3.3089,4.02014,4.02014,0,0,0-1.63675-.62017,4.80115,4.80115,0,0,0-4.67692,1.71623c-.96024,1.17994-1.9898,2.52849-3.56567,2.85a4.883,4.883,0,0,1-3.12905-.51626C414.07261,447.64429,413.48664,442.23342,415.25393,437.38986Z" fill="#44c6cf"/><path d="M428.28245,412.52883c-4.88674.72785-7.232,7.16962-2.80977,10.14847a5.58956,5.58956,0,0,0,8.52235-6.0808C433.35478,414.2039,430.824,412.15026,428.28245,412.52883Z" fill="#44c6cf"/><path d="M442.6963,415.56294c-4.88674.72789-7.232,7.16966-2.80978,10.14851a5.58957,5.58957,0,0,0,8.52236-6.08084C447.76862,417.23805,445.2378,415.18441,442.6963,415.56294Z" fill="#44c6cf"/><path d="M452.67392,427.41791c-3.97015.04012-6.16329,4.87166-3.90584,8.07518a5.50548,5.50548,0,0,0,7.71087,1.00757C460.50645,433.12849,457.48022,427.36939,452.67392,427.41791Z" fill="#44c6cf"/><path d="M414.84039,419.45394c-3.97012.04012-6.1633,4.87161-3.90586,8.07513a5.50551,5.50551,0,0,0,7.71094,1.00757C422.673,425.16452,419.64669,419.40537,414.84039,419.45394Z" fill="#44c6cf"/><path d="M496.02905,578.17881a17.202,17.202,0,0,1-3.08414-6.24348c-3.05658-12.05612,6.70469-21.84849,18.566-20.432a17.70984,17.70984,0,0,1,8.83556,3.51468c2.61231,2.05559,4.58112,5.15119,4.74786,8.15495a5.54033,5.54033,0,0,1-4.625,6.07154,10.30733,10.30733,0,0,1-3.78881-.28716,5.51168,5.51168,0,0,0-3.78771-.18087A4.01969,4.01969,0,0,0,511.5,569.83661a4.801,4.801,0,0,0-1.0205,4.87619c.4925,1.43938,1.09135,3.0268.52962,4.53388a4.88318,4.88318,0,0,1-2.09476,2.38107C504.10252,584.6107,499.20213,582.24272,496.02905,578.17881Z" fill="#44c6cf"/><path d="M481.83782,553.96267c-1.9701,4.53093,2.25272,9.93135,7.12128,7.7572a5.58955,5.58955,0,0,0-.64583-10.44937C485.94461,550.54676,482.86242,551.60628,481.83782,553.96267Z" fill="#44c6cf"/><path d="M492.04383,543.34184c-1.97005,4.53092,2.25272,9.93134,7.12133,7.7572a5.58958,5.58958,0,0,0-.64584-10.44937C496.15062,539.92592,493.06847,540.98544,492.04383,543.34184Z" fill="#44c6cf"/><path d="M507.38366,541.155c-2.06814,3.38915.86921,7.80791,4.78211,7.58917a5.50546,5.50546,0,0,0,4.93764-6.00771C516.37537,537.53427,509.88743,537.052,507.38366,541.155Z" fill="#44c6cf"/><path d="M480.5949,569.03257c-2.06818,3.38915.86921,7.80791,4.78207,7.58916a5.50551,5.50551,0,0,0,4.93764-6.0077C489.58657,565.41188,483.09867,564.92964,480.5949,569.03257Z" fill="#44c6cf"/></g><g id="dbc2960c-e0f3-4538-ba48-cf7f25abfd00" data-name="huesos"><g id="4add2067-e5ab-46a2-8a21-bf4b7921f11e" data-name="hueso"><path d="M212.12937,235.4805a9.06469,9.06469,0,0,0-2.46755,9.55077,6.36157,6.36157,0,0,0,7.30615,4.85225c5.12257-.06622,7.44666-4.778,10.04375-8.875a19.28742,19.28742,0,0,1,8.39884-7.47281c4.45244-2.2137,8.97249-4.226,13.52679-6.248,1.99653-.88639,4.04167-1.67435,6.00461-2.5979,3.68915-1.73566,7.64107-3.36172,11.79138-3.28334,4.33746.08192,8.4048,3.49168,12.49379.73329,5.94641-4.01137,2.86693-12.81545-3.776-12.98868" fill="none" stroke="#f90" stroke-miterlimit="10"/><path d="M273.86445,210.64477a9.432,9.432,0,0,0,2.95248-4.99571c.54855-5.39551-3.20652-8.88037-7.98721-9.70187-5.39551-.5486-7.17372,5.39284-9.77081,9.4898-1.43823,2.2689-3.53915,4.76055-6.016,5.8602q-2.35308,1.0446-4.70611,2.08932-6.71817,2.98255-13.43624,5.96515-4.32444,1.91991-8.64888,3.83976a16.17074,16.17074,0,0,1-3.59931,1.32717,18.17144,18.17144,0,0,1-8.86529-.8371c-2.573-.75934-5.17165-1.18113-7.4946.495-5.85892,4.22754-2.359,13.07766,4.47228,12.83725" fill="none" stroke="#f90" stroke-miterlimit="10"/></g><polygon points="483.19 122.641 481.078 123.816 478.33 124.253 475.471 123.814 473.432 122.218 471.991 120.291 471.388 118.189 471.537 115.741 472.589 113.269 475.034 111.028 478.433 109.281 481.112 107.512 483.037 105.458 484.889 102.695 486.46 99.56 495.163 78.831 496.541 74.808 497.19 70.736 496.884 66.494 496.087 62.406 495.735 59.466 496.089 56.002 498.089 52.747 500.419 50.704 504.058 50.057 507.41 51.903 509.802 54.069 510.999 56.297 511.409 57.922 513.439 56.486 515.831 55.851 518.504 56.204 521.53 57.884 523.547 61.094 523.2 65.727 519.856 68.875 516.259 70.824 513.044 73.147 510.759 76.016 508.805 80.555 498.981 103.64 497.332 108.31 497.391 112.464 498.381 117.148 499.243 121.293 498.989 124.781 496.622 127.774 493.743 129.04 490.449 129.359 487.781 128.801 485.259 126.808 483.726 124.281 483.19 122.641" fill="none" stroke="#f90" stroke-miterlimit="10"/><g id="488c2782-6619-4ca7-8de2-c78e2eeaa1ce" data-name="hueso"><path d="M675.97141,90.96972a9.06471,9.06471,0,0,0-7.78363,6.0598,6.36164,6.36164,0,0,0,2.82633,8.3028c4.0983,3.07385,8.81506.75977,13.37274-.90069a19.28755,19.28755,0,0,1,11.214-.79384c4.8781.96377,9.68684,2.1283,14.52858,3.3061,2.12258.51635,4.22354,1.14029,6.3422,1.60669,3.98165.87661,8.10467,2.00039,11.34454,4.59543,3.386,2.71207,4.527,7.89551,9.44958,8.206,7.15873.45147,10.0925-8.40222,4.93588-12.59375" fill="none" stroke="#f90" stroke-miterlimit="10"/><path d="M740.03321,108.97309a9.43174,9.43174,0,0,0,5.38773-2.15554c3.72746-3.93933,2.87963-8.99167-.40609-12.56011-3.93929-3.72751-8.974-.10615-13.53176,1.55431-2.524.91955-5.709,1.61114-8.34216.97059q-2.50157-.60851-5.00315-1.21705l-14.28427-3.47484q-4.59738-1.1184-9.19476-2.23674a16.17042,16.17042,0,0,1-3.66129-1.14535,18.17138,18.17138,0,0,1-6.51185-6.07369c-1.57478-2.17181-3.376-4.092-6.2391-4.18189-7.22128-.22681-9.85009,8.92-4.29185,12.8987" fill="none" stroke="#f90" stroke-miterlimit="10"/></g><polygon points="275.651 208.997 277.997 209.577 280.304 211.133 282.096 213.404 282.498 215.961 282.237 218.353 281.244 220.302 279.466 221.991 277.01 223.081 273.693 223.052 270.016 222.01 266.851 221.476 264.042 221.666 260.803 222.423 257.516 223.644 237.012 232.865 233.261 234.867 230.009 237.402 227.339 240.713 225.133 244.246 223.385 246.636 220.764 248.927 217.081 249.943 213.983 249.847 210.881 247.839 209.689 244.202 209.418 240.987 210.062 238.542 210.87 237.074 208.406 236.739 206.224 235.572 204.51 233.49 203.444 230.198 204.158 226.475 207.572 223.323 212.165 223.302 216.125 224.33 220.06 224.825 223.688 224.285 228.213 222.299 251.143 212.119 255.534 209.829 258.324 206.751 260.796 202.651 262.993 199.032 265.557 196.655 269.331 196.081 272.299 197.118 274.925 199.132 276.496 201.36 276.981 204.538 276.377 207.432 275.651 208.997" fill="none" stroke="#f90" stroke-miterlimit="10"/><g id="6787f932-1e7c-4572-9ef2-8f82a3f77d71" data-name="hueso"><path d="M212.12937,100.464a9.06469,9.06469,0,0,0-2.46755,9.55077A6.36158,6.36158,0,0,0,216.968,114.867c5.12257-.06622,7.44666-4.778,10.04375-8.875a19.28746,19.28746,0,0,1,8.39884-7.4728c4.45244-2.2137,8.97249-4.226,13.52679-6.248,1.99653-.88639,4.04167-1.67435,6.00461-2.5979,3.68915-1.73566,7.64107-3.36172,11.79138-3.28334,4.33746.08192,8.4048,3.49168,12.49379.73329,5.94641-4.01137,2.86693-12.81545-3.776-12.98868" fill="none" stroke="#f90" stroke-miterlimit="10"/><path d="M273.86445,75.62826a9.432,9.432,0,0,0,2.95248-4.9957c.54855-5.39551-3.20652-8.88037-7.98721-9.70187-5.39551-.5486-7.17372,5.39284-9.77081,9.4898-1.43823,2.2689-3.53915,4.76055-6.016,5.86019q-2.35308,1.04462-4.70611,2.08933-6.71817,2.98254-13.43624,5.96515-4.32444,1.91991-8.64888,3.83976a16.17074,16.17074,0,0,1-3.59931,1.32717,18.17144,18.17144,0,0,1-8.86529-.8371c-2.573-.75934-5.17165-1.18113-7.4946.495-5.85892,4.22754-2.359,13.07766,4.47228,12.83725" fill="none" stroke="#f90" stroke-miterlimit="10"/></g><polygon points="275.651 73.98 277.997 74.561 280.304 76.117 282.096 78.387 282.498 80.945 282.237 83.337 281.244 85.285 279.466 86.974 277.01 88.064 273.693 88.035 270.016 86.994 266.851 86.46 264.042 86.649 260.803 87.406 257.516 88.627 237.012 97.848 233.261 99.85 230.009 102.386 227.339 105.696 225.133 109.229 223.385 111.619 220.764 113.911 217.081 114.927 213.983 114.831 210.881 112.822 209.689 109.186 209.418 105.971 210.062 103.525 210.87 102.057 208.406 101.722 206.224 100.555 204.51 98.473 203.444 95.181 204.158 91.458 207.572 88.307 212.165 88.286 216.125 89.314 220.06 89.808 223.688 89.269 228.213 87.283 251.143 77.103 255.534 74.813 258.324 71.735 260.796 67.634 262.993 64.015 265.557 61.639 269.331 61.064 272.299 62.102 274.925 64.115 276.496 66.343 276.981 69.521 276.377 72.415 275.651 73.98" fill="none" stroke="#f90" stroke-miterlimit="10"/><g id="f1cf0ea0-5c00-4195-8f41-b553826b8150" data-name="hueso"><path d="M88.97186,70.169a9.0647,9.0647,0,0,0-9.78169,1.27459,6.36166,6.36166,0,0,0-1.77539,8.5891c1.973,4.72782,7.21165,5.12581,11.98183,6.00647a19.28757,19.28757,0,0,1,10.06712,5.00363c3.71525,3.3048,7.269,6.74743,10.84426,10.21822,1.56739,1.52158,3.06163,3.12494,4.651,4.60153,2.98692,2.775,5.97022,5.83467,7.44623,9.71441,1.54254,4.05475-.10314,9.10064,3.9818,11.86495,5.94063,4.02006,12.95963-2.12234,10.64145-8.35008" fill="none" stroke="#f90" stroke-miterlimit="10"/><path d="M135.05065,118.17716a9.43187,9.43187,0,0,0,5.73658.875c5.21049-1.50441,7.04232-6.28867,6.02059-11.03061-1.50446-5.21049-7.68025-4.64319-12.45043-5.5238-2.64169-.48773-5.73734-1.50708-7.68177-3.39469q-1.84727-1.79323-3.69454-3.58652Q117.707,90.39666,112.433,85.27679l-6.7898-6.59129a16.16984,16.16984,0,0,1-2.57443-2.84412,18.1715,18.1715,0,0,1-2.53153-8.53729c-.25563-2.67046-.834-5.23883-3.25595-6.76852-6.10847-3.85818-13.0133,2.6914-10.24112,8.93957" fill="none" stroke="#f90" stroke-miterlimit="10"/></g><polygon points="137.246 119.22 137.583 121.613 137.001 124.334 135.563 126.844 133.34 128.171 131.024 128.822 128.845 128.627 126.615 127.608 124.687 125.736 123.476 122.648 123.07 118.848 122.385 115.712 121.161 113.177 119.25 110.455 116.89 107.86 100.684 92.279 97.426 89.545 93.861 87.474 89.793 86.232 85.692 85.505 82.822 84.774 79.718 83.197 77.402 80.16 76.334 77.25 77.04 73.622 79.969 71.159 82.851 69.708 85.36 69.393 87.024 69.596 86.415 67.184 86.684 64.725 87.976 62.357 90.632 60.14 94.353 59.413 98.55 61.404 100.284 65.657 100.807 69.715 101.817 73.551 103.672 76.715 107.203 80.172 125.204 97.647 128.967 100.867 132.864 102.307 137.59 103.07 141.768 103.757 144.93 105.25 146.871 108.536 147.016 111.678 146.128 114.865 144.647 117.154 141.879 118.789 138.969 119.309 137.246 119.22" fill="none" stroke="#f90" stroke-miterlimit="10"/><g id="1f327fc6-8479-4066-80af-38077faea064" data-name="hueso"><path d="M87.0635,269.11559a9.06472,9.06472,0,0,0-9.78169,1.2746,6.36166,6.36166,0,0,0-1.77539,8.5891c1.973,4.72782,7.21165,5.12581,11.98183,6.00647a19.28762,19.28762,0,0,1,10.06712,5.00362c3.71525,3.30481,7.269,6.74744,10.84426,10.21822,1.56739,1.52159,3.06163,3.12494,4.651,4.60154,2.98692,2.77494,5.97022,5.83467,7.44623,9.71441,1.54254,4.05474-.10314,9.10064,3.9818,11.865,5.94063,4.02,12.95963-2.12234,10.64145-8.35008" fill="none" stroke="#f90" stroke-miterlimit="10"/><path d="M133.14229,317.12374a9.43179,9.43179,0,0,0,5.73658.875c5.21049-1.5044,7.04232-6.28866,6.02059-11.03061-1.50446-5.21049-7.68025-4.64318-12.45043-5.52379-2.64169-.48773-5.73734-1.50708-7.68177-3.39469q-1.84726-1.79323-3.69454-3.58653-5.27409-5.11986-10.54813-10.23973l-6.7898-6.59129a16.16984,16.16984,0,0,1-2.57443-2.84412,18.1715,18.1715,0,0,1-2.53153-8.53729c-.25563-2.67047-.834-5.23883-3.25595-6.76853-6.10847-3.85818-13.0133,2.69141-10.24112,8.93957" fill="none" stroke="#f90" stroke-miterlimit="10"/></g><polygon points="135.338 318.166 135.675 320.56 135.092 323.281 133.654 325.79 131.431 327.118 129.115 327.768 126.937 327.574 124.706 326.555 122.778 324.683 121.568 321.595 121.162 317.795 120.476 314.658 119.252 312.124 117.341 309.401 114.982 306.807 98.776 291.225 95.518 288.491 91.953 286.42 87.885 285.179 83.784 284.451 80.914 283.721 77.81 282.144 75.493 279.107 74.426 276.197 75.132 272.569 78.061 270.106 80.943 268.655 83.452 268.34 85.116 268.542 84.507 266.131 84.775 263.671 86.067 261.304 88.724 259.086 92.444 258.36 96.642 260.351 98.375 264.604 98.899 268.661 99.909 272.498 101.763 275.662 105.294 279.119 123.296 296.594 127.059 299.813 130.956 301.253 135.682 302.016 139.86 302.704 143.022 304.196 144.963 307.483 145.107 310.624 144.219 313.812 142.738 316.1 139.971 317.736 137.061 318.256 135.338 318.166" fill="none" stroke="#f90" stroke-miterlimit="10"/><g id="9f227291-dee7-4864-8c2a-fa4a3cc43e7a" data-name="hueso"><path d="M276.759,373.65973a9.06462,9.06462,0,0,0,2.999-9.39739,6.36164,6.36164,0,0,0-7.02267-5.25419c-5.11822-.221-7.70281,4.35306-10.52542,8.298a19.28785,19.28785,0,0,1-8.80455,6.99027c-4.56952,1.96065-9.19525,3.71644-13.85575,5.47991-2.043.77308-4.12917,1.44515-6.14082,2.25721-3.7806,1.52611-7.81745,2.92814-11.95688,2.61722-4.32606-.32495-8.19583-3.95732-12.433-1.43251-6.16195,3.67178-3.5808,12.63463,3.042,13.18" fill="none" stroke="#f90" stroke-miterlimit="10"/><path d="M213.72877,394.99591a9.432,9.432,0,0,0-3.22784,4.82234c-.85018,5.35629,2.70371,9.04615,7.43081,10.13434,5.35629.85018,7.46475-4.98225,10.2874-8.92721,1.56314-2.18469,3.80046-4.55468,6.335-5.51373q2.40791-.91107,4.81585-1.82225,6.87474-2.60126,13.74945-5.20262,4.42527-1.67443,8.8505-3.34888a16.1701,16.1701,0,0,1,3.6681-1.12336,18.17175,18.17175,0,0,1,8.80442,1.33275c2.52633.90237,5.09732,1.46915,7.51059-.07414,6.08662-3.89248,3.08834-12.92489-3.74569-13.06778" fill="none" stroke="#f90" stroke-miterlimit="10"/></g><polygon points="211.853 396.541 209.543 395.83 207.326 394.147 205.665 391.78 205.406 389.204 205.801 386.83 206.902 384.94 208.772 383.354 211.285 382.403 214.595 382.618 218.208 383.864 221.339 384.575 224.153 384.543 227.429 383.969 230.78 382.934 251.768 374.877 255.627 373.088 259.015 370.739 261.867 367.583 264.267 364.179 266.146 361.891 268.892 359.75 272.626 358.942 275.713 359.211 278.699 361.391 279.685 365.089 279.775 368.314 278.995 370.719 278.105 372.14 280.547 372.612 282.66 373.9 284.255 376.074 285.135 379.421 284.213 383.098 280.628 386.053 276.041 385.817 272.145 384.568 268.243 383.854 264.591 384.189 259.962 385.919 236.497 394.797 231.985 396.838 229.026 399.755 226.329 403.71 223.932 407.2 221.239 409.429 217.439 409.791 214.533 408.589 212.024 406.431 210.581 404.119 210.275 400.919 211.04 398.063 211.853 396.541" fill="none" stroke="#f90" stroke-miterlimit="10"/><g id="7d708f2d-1cba-4a9c-9c26-5365995ad1d3" data-name="hueso"><path d="M83.70941,467.32254a9.06469,9.06469,0,0,0-9.59118,2.30563,6.36165,6.36165,0,0,0-.8537,8.729c2.46364,4.49171,7.715,4.33141,12.55166,4.70077a19.28774,19.28774,0,0,1,10.54135,3.90684c4.04506,2.89179,7.944,5.93777,11.86757,9.00947,1.72006,1.34663,3.376,2.78234,5.11308,4.08184,3.26458,2.44227,6.55578,5.168,8.43528,8.86925,1.96418,3.8681.86339,9.06018,5.21865,11.3753,6.33376,3.36678,12.66116-3.4859,9.695-9.43245" fill="none" stroke="#f90" stroke-miterlimit="10"/><path d="M134.62346,510.16866a9.43228,9.43228,0,0,0,5.79708.26116c5.02137-2.049,6.33508-7.00063,4.81574-11.60736-2.04895-5.02133-8.12966-3.80174-12.96635-4.1711-2.67853-.20453-5.86492-.88959-7.9987-2.56012l-4.05436-3.17413q-5.7877-4.53118-11.5754-9.06232-3.72546-2.91672-7.451-5.83338a16.17315,16.17315,0,0,1-2.86178-2.55482,18.17173,18.17173,0,0,1-3.42331-8.22036c-.53763-2.62824-1.38542-5.1207-3.956-6.3847-6.48347-3.188-12.65415,4.05746-9.23442,9.97609" fill="none" stroke="#f90" stroke-miterlimit="10"/></g><polygon points="136.917 510.972 137.506 513.316 137.216 516.084 136.052 518.732 133.983 520.288 131.749 521.181 129.562 521.219 127.236 520.442 125.12 518.785 123.589 515.843 122.782 512.107 121.767 509.062 120.281 506.671 118.092 504.167 115.47 501.838 97.702 488.064 94.173 485.692 90.408 484.011 86.231 483.208 82.076 482.92 79.145 482.498 75.891 481.259 73.265 478.485 71.895 475.705 72.212 472.022 74.863 469.263 77.574 467.514 80.036 466.934 81.712 466.959 80.85 464.626 80.856 462.152 81.89 459.661 84.296 457.174 87.918 456.056 92.303 457.59 94.478 461.636 95.43 465.615 96.841 469.322 99.021 472.271 102.899 475.334 122.653 490.8 126.737 493.602 130.765 494.62 135.545 494.877 139.772 495.117 143.075 496.266 145.354 499.327 145.831 502.436 145.286 505.7 144.057 508.132 141.478 510.053 138.64 510.878 136.917 510.972" fill="none" stroke="#f90" stroke-miterlimit="10"/><g id="75dad29a-635d-4b6e-ba63-998150b4ecb4" data-name="hueso"><path d="M350.79375,309.58061a9.06466,9.06466,0,0,0-9.2024-3.5526,6.36166,6.36166,0,0,0-5.66254,6.69777c-.525,5.096,3.88729,7.948,7.6574,11.00031a19.28728,19.28728,0,0,1,6.45426,9.20465c1.68542,4.67806,3.163,9.4,4.64619,14.15712.65024,2.08541,1.19707,4.20779,1.888,6.26419,1.29859,3.86467,2.458,7.97776,1.90149,12.09133-.58161,4.29911-4.4377,7.946-2.16933,12.32586,3.29879,6.36939,12.39928,4.32587,13.33749-2.25277" fill="none" stroke="#f90" stroke-miterlimit="10"/><path d="M368.3437,373.76812a9.43184,9.43184,0,0,0,4.62186,3.50891c5.29622,1.1672,9.1909-2.16094,10.55834-6.815,1.1672-5.29622-4.5295-7.74785-8.29961-10.80008-2.08789-1.69033-4.32062-4.06462-5.12724-6.65173l-1.5326-4.91565q-2.18792-7.01732-4.37573-14.03456-1.40829-4.517-2.81663-9.034a16.16844,16.16844,0,0,1-.90319-3.72841,18.17116,18.17116,0,0,1,1.854-8.70957c1.051-2.46818,1.76967-5.0009.37267-7.50167-3.52361-6.30737-12.71838-3.85155-13.2674,2.96187" fill="none" stroke="#f90" stroke-miterlimit="10"/></g><polygon points="369.775 375.733 368.927 377.996 367.116 380.109 364.654 381.626 362.067 381.731 359.721 381.196 357.9 379.985 356.428 378.024 355.628 375.459 356.039 372.167 357.498 368.635 358.394 365.552 358.529 362.741 358.151 359.436 357.317 356.03 350.522 334.599 348.966 330.642 346.823 327.119 343.842 324.085 340.587 321.487 338.415 319.474 336.441 316.606 335.856 312.831 336.309 309.765 338.662 306.915 342.412 306.15 345.637 306.252 347.992 307.174 349.356 308.146 349.973 305.737 351.384 303.704 353.65 302.242 357.043 301.562 360.659 302.701 363.396 306.456 362.887 311.02 361.409 314.835 360.464 318.688 360.581 322.353 362.032 327.077 369.5 351.028 371.268 355.654 374.004 358.781 377.791 361.709 381.133 364.308 383.198 367.13 383.334 370.944 381.96 373.773 379.657 376.15 377.263 377.453 374.05 377.568 371.246 376.635 369.775 375.733" fill="none" stroke="#f90" stroke-miterlimit="10"/><g id="551b99ed-e741-4c50-be07-860238037786" data-name="hueso"><path d="M340.77486,479.90178a9.06466,9.06466,0,0,0-9.2024-3.5526,6.36165,6.36165,0,0,0-5.66254,6.69777c-.525,5.096,3.88729,7.948,7.65739,11.00031a19.28723,19.28723,0,0,1,6.45427,9.20465c1.68542,4.67806,3.163,9.4,4.64619,14.15712.65024,2.08541,1.19707,4.20779,1.888,6.26419,1.29859,3.86467,2.458,7.97776,1.90149,12.09133-.58161,4.29911-4.43771,7.946-2.16933,12.32586,3.29879,6.36939,12.39928,4.32587,13.33749-2.25277" fill="none" stroke="#f90" stroke-miterlimit="10"/><path d="M358.32481,544.08929a9.4318,9.4318,0,0,0,4.62186,3.50891c5.29622,1.1672,9.1909-2.16094,10.55833-6.815,1.1672-5.29622-4.52949-7.74785-8.2996-10.80008-2.08789-1.69033-4.32062-4.06462-5.12724-6.65173q-.7663-2.45778-1.5326-4.91565-2.18792-7.01732-4.37573-14.03456-1.4083-4.517-2.81663-9.034a16.16844,16.16844,0,0,1-.90319-3.72841,18.17116,18.17116,0,0,1,1.854-8.70957c1.051-2.46818,1.76967-5.0009.37266-7.50167-3.5236-6.30737-12.71837-3.85155-13.2674,2.96187" fill="none" stroke="#f90" stroke-miterlimit="10"/></g><polygon points="359.756 546.054 358.908 548.318 357.097 550.43 354.635 551.948 352.048 552.052 349.702 551.517 347.881 550.306 346.409 548.345 345.609 545.78 346.021 542.488 347.479 538.956 348.375 535.873 348.51 533.062 348.132 529.757 347.298 526.351 340.503 504.92 338.947 500.963 336.804 497.44 333.823 494.406 330.568 491.808 328.396 489.796 326.422 486.927 325.837 483.152 326.29 480.086 328.643 477.236 332.393 476.472 335.618 476.573 337.973 477.495 339.338 478.468 339.954 476.058 341.365 474.026 343.631 472.563 347.024 471.884 350.64 473.022 353.377 476.777 352.868 481.341 351.39 485.156 350.445 489.009 350.562 492.674 352.013 497.398 359.481 521.349 361.249 525.975 363.985 529.102 367.772 532.03 371.114 534.63 373.179 537.451 373.315 541.265 371.941 544.095 369.638 546.471 367.244 547.774 364.032 547.889 361.227 546.956 359.756 546.054" fill="none" stroke="#f90" stroke-miterlimit="10"/><g id="93aba0c9-7b45-4370-b746-6d1318a87118" data-name="hueso"><path d="M485.21452,464.61281a9.06477,9.06477,0,0,0-9.61971,2.18345,6.36168,6.36168,0,0,0-.96468,8.71748c2.4063,4.52268,7.65925,4.42917,12.49084,4.86a19.28731,19.28731,0,0,1,10.49083,4.04062c4.00794,2.943,7.86788,6.03833,11.752,9.15974,1.70278,1.36835,3.34035,2.825,5.06073,4.14654,3.23324,2.48359,6.48952,5.251,8.32174,8.97578,1.91485,3.89282.74808,9.07048,5.07357,11.44076,6.29038,3.44708,12.70443-3.3245,9.81427-9.30831" fill="none" stroke="#f90" stroke-miterlimit="10"/><path d="M535.57944,508.1031a9.43215,9.43215,0,0,0,5.79331.33492c5.047-1.98493,6.42359-6.91952,4.963-11.54515-1.98493-5.047-8.08066-3.90484-12.91225-4.3357-2.67576-.23864-5.85313-.96415-7.9655-2.66169L521.44436,486.67l-11.45918-9.20879q-3.68809-2.96388-7.37624-5.9277a16.17155,16.17155,0,0,1-2.829-2.591,18.17142,18.17142,0,0,1-3.3185-8.26325c-.50414-2.63488-1.32015-5.13793-3.87445-6.43452-6.44238-3.27021-12.70471,3.89621-9.36055,9.85783" fill="none" stroke="#f90" stroke-miterlimit="10"/></g><polygon points="537.863 508.936 538.422 511.287 538.097 514.051 536.899 516.684 534.81 518.214 532.565 519.078 530.378 519.088 528.062 518.281 525.968 516.598 524.474 513.636 523.714 509.891 522.738 506.833 521.283 504.423 519.126 501.892 516.534 499.529 498.942 485.531 495.443 483.113 491.7 481.385 487.534 480.529 483.383 480.188 480.457 479.729 477.219 478.449 474.629 475.642 473.294 472.844 473.658 469.166 476.344 466.44 479.078 464.726 481.546 464.178 483.222 464.224 482.39 461.88 482.427 459.406 483.492 456.928 485.93 454.472 489.566 453.401 493.932 454.991 496.055 459.063 496.956 463.054 498.32 466.779 500.462 469.756 504.301 472.868 523.857 488.583 527.904 491.437 531.919 492.507 536.696 492.824 540.919 493.119 544.207 494.309 546.447 497.399 546.885 500.514 546.298 503.77 545.038 506.187 542.435 508.074 539.587 508.864 537.863 508.936" fill="none" stroke="#f90" stroke-miterlimit="10"/><g id="d8e2e50e-9423-442f-ac71-fe2f92a8b63f" data-name="hueso"><path d="M684.82067,458.70462a9.06467,9.06467,0,0,0-8.84458-4.36795,6.36165,6.36165,0,0,0-6.24344,6.1599c-.98238,5.02791,3.15476,8.26616,6.63427,11.646a19.28736,19.28736,0,0,1,5.598,9.74915c1.2567,4.811,2.30248,9.647,3.35065,14.51837.45948,2.1356.81272,4.29863,1.31548,6.409.94478,3.966,1.72864,8.16692.80342,12.21355-.96692,4.22912-5.13616,7.5135-3.272,12.08,2.711,6.6409,11.95869,5.42632,13.48633-1.04092" fill="none" stroke="#f90" stroke-miterlimit="10"/><path d="M696.5111,524.21315a9.43221,9.43221,0,0,0,4.2866,3.91142c5.16942,1.64,9.34835-1.3234,11.12985-5.83515,1.64-5.16941-3.81238-8.1247-7.29189-11.5045-1.927-1.87172-3.93647-4.4376-4.50655-7.08693q-.54152-2.517-1.08309-5.03388-1.5462-7.1859-3.09235-14.37191-.99531-4.62558-1.99057-9.2512a16.17119,16.17119,0,0,1-.5633-3.79464,18.171,18.171,0,0,1,2.63182-8.50689c1.2693-2.36341,2.21341-4.821,1.04755-7.43755-2.9405-6.5994-12.31923-4.98268-13.48042,1.75349" fill="none" stroke="#f90" stroke-miterlimit="10"/></g><polygon points="697.759 526.299 696.711 528.477 694.717 530.417 692.128 531.707 689.542 531.578 687.254 530.833 685.549 529.463 684.26 527.377 683.695 524.75 684.401 521.509 686.172 518.123 687.342 515.133 687.731 512.345 687.652 509.02 687.129 505.553 682.294 483.597 681.101 479.515 679.285 475.813 676.589 472.523 673.582 469.642 671.6 467.442 669.893 464.407 669.651 460.595 670.378 457.582 672.979 454.956 676.782 454.533 679.985 454.925 682.247 456.055 683.519 457.147 684.35 454.803 685.938 452.906 688.327 451.653 691.767 451.283 695.266 452.743 697.653 456.729 696.735 461.229 694.919 464.895 693.63 468.647 693.416 472.308 694.436 477.143 699.713 501.67 701.057 506.437 703.499 509.797 707.008 513.055 710.101 515.945 711.904 518.941 711.695 522.752 710.072 525.446 707.564 527.605 705.062 528.687 701.852 528.512 699.143 527.33 697.759 526.299" fill="none" stroke="#f90" stroke-miterlimit="10"/><g id="57b93fec-3c58-4f38-8f99-c682b58bf501" data-name="hueso"><path d="M750.23464,309.35333a9.06466,9.06466,0,0,0-9.433-2.8853,6.36168,6.36168,0,0,0-5.169,7.08564c-.15916,5.12052,4.44586,7.64962,8.42465,10.42442a19.28738,19.28738,0,0,1,7.09614,8.7194c2.0157,4.54552,3.82726,9.14973,5.64689,13.78852.79769,2.0336,1.495,4.11142,2.33125,6.1131,1.57168,3.7619,3.02236,7.78153,2.76149,11.92439-.27261,4.32969-3.858,8.24307-1.28213,12.44943,3.74592,6.11711,12.677,3.42789,13.14221-3.201" fill="none" stroke="#f90" stroke-miterlimit="10"/><path d="M772.33078,372.12107a9.43193,9.43193,0,0,0,4.861,3.16935c5.36612.78539,9.01275-2.81278,10.04379-7.55271.78539-5.36617-5.072-7.404-9.05083-10.17877-2.20344-1.53666-4.60029-3.74516-5.58987-6.26791q-.94013-2.39675-1.88031-4.79347-2.68421-6.84284-5.36836-13.68562-1.72782-4.40466-3.45561-8.80942a16.17094,16.17094,0,0,1-1.16758-3.65422,18.17205,18.17205,0,0,1,1.22626-8.81987c.87179-2.53707,1.40747-5.11469-.16488-7.50911-3.96572-6.0392-12.96125-2.932-13.02155,3.90326" fill="none" stroke="#f90" stroke-miterlimit="10"/></g><polygon points="773.899 373.978 773.215 376.297 771.56 378.533 769.212 380.223 766.639 380.513 764.262 380.147 762.359 379.069 760.75 377.218 759.768 374.717 759.944 371.404 761.145 367.777 761.819 364.638 761.753 361.824 761.139 358.555 760.063 355.217 751.753 334.327 749.918 330.491 747.529 327.131 744.338 324.318 740.906 321.959 738.595 320.107 736.421 317.388 735.568 313.664 735.8 310.573 737.943 307.562 741.629 306.531 744.853 306.402 747.267 307.153 748.698 308.026 749.141 305.578 750.403 303.45 752.558 301.829 755.894 300.909 759.582 301.786 762.581 305.335 762.4 309.924 761.198 313.835 760.531 317.745 760.911 321.393 762.696 326.001 771.857 349.357 773.952 353.844 776.904 356.767 780.892 359.417 784.411 361.771 786.672 364.437 787.08 368.232 785.913 371.152 783.786 373.687 781.491 375.158 778.295 375.503 775.43 374.773 773.899 373.978" fill="none" stroke="#f90" stroke-miterlimit="10"/><g id="58675bdc-cffe-49e6-923e-bb6e27c1280f" data-name="hueso"><path d="M486.37537,267.05413a9.06469,9.06469,0,0,0-9.53641,2.52248,6.36164,6.36164,0,0,0-.65557,8.74615c2.56484,4.4347,7.81121,4.15536,12.655,4.415a19.287,19.287,0,0,1,10.62723,3.66677c4.10961,2.79932,8.07666,5.75614,12.06885,8.73809,1.75011,1.30728,3.4382,2.70506,5.20429,3.96486,3.31912,2.36766,6.6713,5.01808,8.63419,8.67569,2.05139,3.82259,1.06859,9.03829,5.47528,11.254,6.40841,3.22231,12.57881-3.77207,9.47868-9.64982" fill="none" stroke="#f90" stroke-miterlimit="10"/><path d="M538.24786,308.73478a9.43205,9.43205,0,0,0,5.80151.12967c4.97361-2.16231,6.17469-7.14247,4.55134-11.71356-2.16231-4.97362-8.21377-3.61644-13.05762-3.876-2.68249-.14379-5.88357-.75637-8.05471-2.37815q-2.06261-1.54068-4.12526-3.08133-5.889-4.39879-11.77792-8.79754-3.79065-2.83149-7.58139-5.663a16.16992,16.16992,0,0,1-2.919-2.48921A18.17178,18.17178,0,0,1,497.476,262.725c-.59707-2.61536-1.50111-5.088-4.09973-6.29334-6.55407-3.04016-12.55887,4.34333-9.00584,10.18291" fill="none" stroke="#f90" stroke-miterlimit="10"/></g><polygon points="540.559 309.486 541.201 311.816 540.974 314.59 539.871 317.263 537.837 318.866 535.624 319.809 533.438 319.897 531.095 319.173 528.943 317.565 527.345 314.658 526.453 310.942 525.37 307.92 523.83 305.563 521.585 303.109 518.911 300.84 500.835 287.473 497.253 285.181 493.45 283.586 489.256 282.878 485.096 282.684 482.156 282.329 478.875 281.165 476.187 278.451 474.754 275.702 474.987 272.014 477.575 269.194 480.246 267.385 482.694 266.749 484.37 266.736 483.456 264.423 483.406 261.949 484.382 259.435 486.731 256.894 490.328 255.695 494.746 257.13 497.013 261.125 498.054 265.081 499.549 268.755 501.795 271.654 505.742 274.629 525.842 289.642 529.988 292.351 534.038 293.277 538.823 293.426 543.054 293.571 546.382 294.644 548.729 297.653 549.277 300.75 548.807 304.025 547.632 306.485 545.098 308.463 542.28 309.353 540.559 309.486" fill="none" stroke="#f90" stroke-miterlimit="10"/><g id="87d8aae6-a882-42ca-8a34-591efacfe168" data-name="hueso"><path d="M673.96468,172.75851a9.06475,9.06475,0,0,0,2.1022-9.63779,6.36166,6.36166,0,0,0-7.48559-4.57062c-5.11632.26116-7.25936,5.058-9.69858,9.25088a19.28728,19.28728,0,0,1-8.10833,7.78711c-4.36495,2.38158-8.80513,4.56451-13.27914,6.75831-1.96132.96177-3.975,1.827-5.90141,2.82462-3.62035,1.87482-7.50754,3.65012-11.65784,3.72979-4.33742.08325-8.53161-3.16921-12.5126-.2572-5.78944,4.23484-2.37705,12.91531,4.26767,12.83554" fill="none" stroke="#f90" stroke-miterlimit="10"/><path d="M613.2197,199.92622a9.432,9.432,0,0,0-2.76015,5.10448c-.34279,5.41249,3.54225,8.75184,8.35074,9.39081,5.4125.34279,6.96323-5.662,9.4025-9.85487,1.35083-2.322,3.35537-4.89185,5.78853-6.08491l4.62315-2.267q6.59973-3.23612,13.19946-6.4723,4.24815-2.08308,8.4964-4.16619a16.17244,16.17244,0,0,1,3.54621-1.46324,18.17181,18.17181,0,0,1,8.89077.49908c2.6.66087,5.21283.98338,7.47032-.78,5.69374-4.44748,1.85946-13.15795-4.95773-12.65768" fill="none" stroke="#f90" stroke-miterlimit="10"/></g><polygon points="611.497 201.641 609.131 201.15 606.766 199.683 604.889 197.483 604.39 194.942 604.559 192.542 605.478 190.557 607.19 188.802 609.603 187.619 612.918 187.522 616.633 188.422 619.816 188.836 622.615 188.539 625.823 187.66 629.061 186.314 649.199 176.32 652.872 174.176 656.025 171.519 658.567 168.109 660.636 164.495 662.293 162.04 664.825 159.65 668.466 158.495 671.565 158.473 674.742 160.362 676.072 163.95 676.465 167.153 675.914 169.621 675.162 171.119 677.637 171.359 679.862 172.442 681.654 174.458 682.845 177.707 682.273 181.454 678.982 184.734 674.393 184.929 670.397 184.053 666.445 183.708 662.841 184.386 658.394 186.543 635.869 197.588 631.568 200.043 628.897 203.225 626.583 207.417 624.525 211.117 622.053 213.59 618.305 214.307 615.299 213.383 612.598 211.471 610.944 209.305 610.338 206.147 610.831 203.233 611.497 201.641" fill="none" stroke="#f90" stroke-miterlimit="10"/><g id="86c0a3af-cf63-4277-bd3d-1f7d7c7b748b" data-name="hueso"><path d="M511.55757,60.41477a9.06462,9.06462,0,0,0-4.71522-8.66444,6.3617,6.3617,0,0,0-8.6516,1.44034c-3.69864,3.54468-2.1813,8.57464-1.28309,13.34149a19.28809,19.28809,0,0,1-1.038,11.19406c-1.74324,4.65683-3.67326,9.21261-5.62179,13.79873-.85419,2.01056-1.81109,3.98232-2.61541,5.99707-1.51162,3.78643-3.29006,7.67219-6.37688,10.44761-3.226,2.90056-8.52589,3.18458-9.63169,7.9914-1.60808,6.99037,6.65159,11.32307,11.62487,6.91566" fill="none" stroke="#f90" stroke-miterlimit="10"/><path d="M483.389,120.70216a9.432,9.432,0,0,0,1.25188,5.66631c3.28162,4.31776,8.40461,4.30168,12.45931,1.63918,4.31781-3.28166,1.56223-8.83766.664-13.60456-.49741-2.63993-.66258-5.89487.39713-8.38905q1.00668-2.36955,2.01346-4.73908,2.87428-6.76512,5.74861-13.53028,1.85013-4.35471,3.70036-8.70942a16.17225,16.17225,0,0,1,1.72477-3.42665,18.17155,18.17155,0,0,1,7.05063-5.439c2.39876-1.20112,4.58589-2.6666,5.13964-5.47709,1.39659-7.08856-7.20181-11.168-12.03044-6.32975" fill="none" stroke="#f90" stroke-miterlimit="10"/></g><polygon points="483.208 123.126 481.097 124.303 478.349 124.741 475.49 124.304 473.45 122.709 472.008 120.783 471.404 118.681 471.551 116.233 472.602 113.76 475.046 111.518 478.444 109.769 481.122 107.999 483.046 105.944 484.896 103.18 486.465 100.043 495.157 79.31 496.532 75.286 497.179 71.214 496.87 66.972 496.071 62.884 495.718 59.944 496.069 56.48 498.067 53.224 500.397 51.18 504.035 50.53 507.389 52.375 509.781 54.54 510.979 56.766 511.39 58.391 513.42 56.954 515.811 56.318 518.485 56.669 521.511 58.348 523.53 61.556 523.186 66.189 519.844 69.34 516.248 71.291 513.034 73.616 510.751 76.486 508.799 81.026 498.989 104.117 497.342 108.787 497.404 112.941 498.396 117.625 499.261 121.769 499.009 125.257 496.643 128.252 493.765 129.52 490.472 129.84 487.803 129.284 485.28 127.292 483.746 124.766 483.208 123.126" fill="none" stroke="#f90" stroke-miterlimit="10"/><polygon points="368.057 178.043 367.213 180.308 365.406 182.424 362.946 183.946 360.36 184.056 358.013 183.525 356.19 182.317 354.714 180.359 353.909 177.795 354.315 174.503 355.766 170.968 356.657 167.883 356.787 165.072 356.402 161.768 355.562 158.363 348.728 136.945 347.165 132.99 345.015 129.472 342.028 126.443 338.769 123.851 336.593 121.843 334.613 118.978 334.022 115.204 334.469 112.137 336.816 109.283 340.565 108.511 343.79 108.607 346.147 109.525 347.513 110.494 348.126 108.084 349.533 106.049 351.796 104.582 355.188 103.896 358.806 105.029 361.549 108.778 361.049 113.343 359.578 117.161 358.64 121.015 358.764 124.681 360.224 129.402 367.736 153.339 369.512 157.962 372.254 161.083 376.047 164.004 379.394 166.598 381.464 169.415 381.606 173.229 380.238 176.061 377.94 178.442 375.548 179.749 372.336 179.87 369.529 178.942 368.057 178.043" fill="none" stroke="#f90" stroke-miterlimit="10"/><g id="cec43a5e-7b44-4e76-bc95-4552925517a8" data-name="hueso"><path d="M349.24469,112.29421a9.06478,9.06478,0,0,0-9.211-3.53037,6.3617,6.3617,0,0,0-5.64631,6.71151c-.51269,5.09724,3.9065,7.93859,7.684,10.98171a19.28761,19.28761,0,0,1,6.47656,9.189c1.69671,4.674,3.18571,9.39237,4.68038,14.14586.65524,2.08384,1.20723,4.20488,1.90316,6.25961,1.308,3.86152,2.47735,7.9718,1.93079,12.0867-.57126,4.30049-4.41852,7.95672-2.13956,12.33106,3.3142,6.36138,12.40973,4.29587,13.332-2.28507" fill="none" stroke="#f90" stroke-miterlimit="10"/><path d="M366.94983,176.43907a9.43245,9.43245,0,0,0,4.63035,3.49774c5.299,1.15437,9.18562-2.18316,10.54179-6.84052,1.15436-5.299-4.5482-7.73682-8.3257-10.77994-2.09195-1.68528-4.33041-4.05412-5.14331-6.63928q-.77226-2.456-1.54449-4.912-2.20481-7.01193-4.40965-14.02392-1.41925-4.51359-2.8385-9.02717a16.16907,16.16907,0,0,1-.91219-3.72617,18.17142,18.17142,0,0,1,1.83288-8.714c1.04507-2.47075,1.7576-5.0052.35453-7.50257-3.53887-6.29883-12.72762-3.82078-13.2602,2.994" fill="none" stroke="#f90" stroke-miterlimit="10"/></g><polygon points="368.386 178.4 367.544 180.666 365.737 182.783 363.279 184.306 360.692 184.417 358.345 183.888 356.521 182.681 355.044 180.724 354.238 178.16 354.642 174.868 356.091 171.332 356.98 168.247 357.109 165.435 356.722 162.132 355.88 158.727 349.034 137.313 347.468 133.359 345.316 129.842 342.328 126.816 339.067 124.225 336.89 122.218 334.909 119.355 334.315 115.581 334.76 112.514 337.106 109.658 340.854 108.884 344.08 108.978 346.437 109.894 347.804 110.863 348.415 108.453 349.821 106.417 352.083 104.949 355.475 104.261 359.093 105.391 361.839 109.139 361.341 113.705 359.872 117.523 358.936 121.378 359.063 125.043 360.525 129.764 368.051 153.696 369.83 158.318 372.573 161.438 376.368 164.357 379.716 166.948 381.788 169.765 381.933 173.579 380.566 176.411 378.269 178.793 375.878 180.102 372.666 180.225 369.859 179.299 368.386 178.4" fill="none" stroke="#f90" stroke-miterlimit="10"/><polygon points="742.454 108.758 743.958 110.65 744.837 113.29 744.87 116.182 743.628 118.454 741.962 120.189 739.985 121.127 737.546 121.38 734.935 120.744 732.326 118.697 730.048 115.628 727.867 113.273 725.526 111.709 722.499 110.332 719.149 109.293 697.279 104.084 693.085 103.38 688.962 103.404 684.826 104.397 680.923 105.85 678.079 106.676 674.604 106.891 671.067 105.449 668.672 103.482 667.44 99.997 668.715 96.389 670.463 93.677 672.465 92.133 674.002 91.463 672.254 89.694 671.238 87.438 671.151 84.743 672.315 81.484 675.153 78.971 679.781 78.558 683.432 81.344 685.941 84.575 688.757 87.369 691.96 89.156 696.757 90.344 721.134 96.274 726.01 97.14 730.099 96.404 734.56 94.665 738.509 93.139 741.991 92.821 745.33 94.669 747.049 97.303 747.9 100.5 747.784 103.224 746.229 106.037 743.985 107.961 742.454 108.758" fill="none" stroke="#f90" stroke-miterlimit="10"/><polygon points="670.682 363.097 673.028 363.678 675.335 365.233 677.127 367.504 677.529 370.062 677.268 372.453 676.275 374.402 674.497 376.091 672.041 377.181 668.724 377.152 665.047 376.111 661.881 375.576 659.073 375.766 655.834 376.523 652.547 377.744 632.043 386.965 628.291 388.967 625.039 391.502 622.369 394.813 620.164 398.346 618.415 400.736 615.794 403.027 612.112 404.043 609.014 403.948 605.911 401.939 604.719 398.302 604.448 395.087 605.092 392.642 605.901 391.174 603.437 390.839 601.255 389.672 599.541 387.59 598.475 384.298 599.189 380.575 602.602 377.423 607.195 377.402 611.155 378.43 615.091 378.925 618.719 378.385 623.244 376.399 646.174 366.219 650.565 363.929 653.355 360.851 655.827 356.751 658.023 353.132 660.588 350.755 664.361 350.181 667.33 351.219 669.956 353.232 671.526 355.46 672.011 358.638 671.408 361.532 670.682 363.097" fill="none" stroke="#f90" stroke-miterlimit="10"/><g id="27b93de6-de8c-42b7-a059-f2e8274ea016" data-name="hueso"><path d="M607.16,389.58061a9.06471,9.06471,0,0,0-2.46756,9.55077,6.36158,6.36158,0,0,0,7.30616,4.85224c5.12257-.06622,7.44666-4.778,10.04375-8.875a19.28734,19.28734,0,0,1,8.39884-7.4728c4.45244-2.2137,8.97249-4.226,13.52679-6.248,1.99653-.88638,4.04167-1.67434,6.00461-2.5979,3.68915-1.73565,7.64107-3.36172,11.79138-3.28333,4.33746.08192,8.4048,3.49168,12.49379.73329,5.94641-4.01138,2.86693-12.81545-3.776-12.98868" fill="none" stroke="#f90" stroke-miterlimit="10"/><path d="M668.89507,364.74487a9.43187,9.43187,0,0,0,2.95247-4.9957c.54856-5.39551-3.20652-8.88037-7.9872-9.70187-5.39551-.54861-7.17372,5.39284-9.77081,9.4898-1.43823,2.2689-3.53915,4.76055-6.016,5.86019q-2.35308,1.04462-4.70611,2.08932-6.71817,2.98256-13.43624,5.96516l-8.64888,3.83976a16.17123,16.17123,0,0,1-3.59931,1.32717,18.17156,18.17156,0,0,1-8.86529-.8371c-2.573-.75934-5.17166-1.18113-7.49461.495-5.85891,4.22754-2.359,13.07766,4.47229,12.83725" fill="none" stroke="#f90" stroke-miterlimit="10"/></g></g><g id="90db7ebf-8585-44da-847f-6aff83a4042b" data-name="circulos"><path d="M315.747,524.81667c-4.60756,1.70979-5.57047,8.46062-.65558,10.454a5.56,5.56,0,0,0,7.04948-7.66512C321.02748,525.40788,318.14323,523.92747,315.747,524.81667Z" fill="#aacf15"/><path d="M41.34677,350.92348c-7.71961,2.86459-9.33289,14.17515-1.09836,17.515a9.3154,9.3154,0,0,0,11.811-12.8424C50.19392,351.914,45.36157,349.43367,41.34677,350.92348Z" fill="#aacf15"/><path d="M149.64622,228.31132c-7.71961,2.86459-9.33288,14.17515-1.09836,17.515a9.31541,9.31541,0,0,0,11.811-12.8424C158.49338,229.30185,153.661,226.82151,149.64622,228.31132Z" fill="#aacf15"/><path d="M246.49551,311.80209c-7.71961,2.86459-9.33288,14.17515-1.09836,17.515a9.31541,9.31541,0,0,0,11.811-12.8424C255.34267,312.79262,250.51032,310.31228,246.49551,311.80209Z" fill="#aacf15"/><path d="M143.99457,265.75674c-4.60755,1.70979-5.57047,8.46062-.65558,10.454a5.56,5.56,0,0,0,7.04949-7.66512C149.275,266.348,146.39079,264.86754,143.99457,265.75674Z" fill="#aacf15"/><path d="M213.17263,333.50353c-4.60755,1.7098-5.57046,8.46062-.65557,10.454a5.56,5.56,0,0,0,7.04948-7.66512C218.45311,334.09474,215.56886,332.61433,213.17263,333.50353Z" fill="#aacf15"/><path d="M330.05971,356.40386c-4.60756,1.70979-5.57047,8.46062-.65558,10.454a5.56,5.56,0,0,0,7.04948-7.66512C335.34018,356.99507,332.45593,355.51466,330.05971,356.40386Z" fill="#aacf15"/><path d="M197.40566,291.667c-3.23219,1.1994-3.90766,5.93509-.45987,7.33349a3.90033,3.90033,0,0,0,4.94523-5.37709A3.84386,3.84386,0,0,0,197.40566,291.667Z" fill="#aacf15"/><path d="M363.38258,217.81533c-7.7196,2.8646-9.33287,14.17516-1.09835,17.515a9.3154,9.3154,0,0,0,11.811-12.84241C372.22974,218.80587,367.39739,216.32552,363.38258,217.81533Z" fill="#aacf15"/><path d="M344.8495,242.85641c-4.60755,1.7098-5.57046,8.46062-.65558,10.454a5.56,5.56,0,0,0,7.04949-7.66512C350.13,243.44762,347.24573,241.96721,344.8495,242.85641Z" fill="#aacf15"/><path d="M320.4949,224.87436c-3.23218,1.1994-3.90765,5.9351-.45986,7.33349a3.90032,3.90032,0,0,0,4.94522-5.37709A3.84386,3.84386,0,0,0,320.4949,224.87436Z" fill="#aacf15"/><path d="M379.177,323.15492c-3.23217,1.19941-3.90765,5.9351-.45986,7.3335a3.90033,3.90033,0,0,0,4.94523-5.37709A3.84389,3.84389,0,0,0,379.177,323.15492Z" fill="#aacf15"/><path d="M37.12638,286.7487c-4.60755,1.7098-5.57046,8.46062-.65557,10.454a5.56,5.56,0,0,0,7.04948-7.66512C42.40686,287.33991,39.52261,285.8595,37.12638,286.7487Z" fill="#aacf15"/><path d="M2.7529,278.78554c-3.23219,1.19941-3.90766,5.9351-.45987,7.3335a4.00262,4.00262,0,0,0,4.3368-.97413,4.00262,4.00262,0,0,0,.60843-4.403A3.84387,3.84387,0,0,0,2.7529,278.78554Z" fill="#aacf15"/><path d="M70.49969,377.06611c-3.23219,1.1994-3.90765,5.93509-.45987,7.33349a3.90033,3.90033,0,0,0,4.94523-5.37709A3.84386,3.84386,0,0,0,70.49969,377.06611Z" fill="#aacf15"/><path d="M441.62537,350.92348c-7.7196,2.86459-9.33288,14.17515-1.09835,17.515a9.3154,9.3154,0,0,0,11.811-12.8424C450.47253,351.914,445.64018,349.43367,441.62537,350.92348Z" fill="#aacf15"/><path d="M549.92483,228.31132c-7.71961,2.86459-9.33289,14.17515-1.09836,17.515a9.31541,9.31541,0,0,0,11.811-12.8424C558.772,229.30185,553.93964,226.82151,549.92483,228.31132Z" fill="#aacf15"/><path d="M678.73916,295.10393c-7.71961,2.86459-9.33289,14.17516-1.09836,17.515a9.31541,9.31541,0,0,0,11.811-12.84241C687.58632,296.09447,682.754,293.61412,678.73916,295.10393Z" fill="#aacf15"/><path d="M544.27317,265.75674c-4.60755,1.70979-5.57046,8.46062-.65557,10.454a5.56,5.56,0,0,0,7.04948-7.66512C549.55365,266.348,546.6694,264.86754,544.27317,265.75674Z" fill="#aacf15"/><path d="M645.41627,316.80538c-4.60754,1.70979-5.57045,8.46062-.65557,10.454a5.56,5.56,0,0,0,7.04949-7.66512C650.69675,317.39659,647.81251,315.91618,645.41627,316.80538Z" fill="#aacf15"/><path d="M730.33831,356.40386c-4.60754,1.70979-5.57045,8.46062-.65557,10.454a5.56,5.56,0,0,0,7.04949-7.66512C735.61879,356.99507,732.73455,355.51466,730.33831,356.40386Z" fill="#aacf15"/><path d="M611.04279,308.84222c-3.23219,1.1994-3.90765,5.9351-.45987,7.33349a3.90033,3.90033,0,0,0,4.94523-5.37709A3.84386,3.84386,0,0,0,611.04279,308.84222Z" fill="#aacf15"/><path d="M763.6612,217.81533c-7.71961,2.8646-9.33289,14.17516-1.09836,17.515a9.31541,9.31541,0,0,0,11.811-12.84241C772.50836,218.80587,767.676,216.32552,763.6612,217.81533Z" fill="#aacf15"/><path d="M745.12811,242.85641c-4.60755,1.7098-5.57046,8.46062-.65557,10.454a5.56,5.56,0,0,0,7.04948-7.66512C750.40859,243.44762,747.52434,241.96721,745.12811,242.85641Z" fill="#aacf15"/><path d="M720.77352,224.87436c-3.23219,1.1994-3.90766,5.9351-.45987,7.33349a3.90033,3.90033,0,0,0,4.94523-5.37709A3.84386,3.84386,0,0,0,720.77352,224.87436Z" fill="#aacf15"/><path d="M779.4556,323.15492c-3.23219,1.19941-3.90766,5.9351-.45987,7.3335a3.90033,3.90033,0,0,0,4.94523-5.37709A3.84387,3.84387,0,0,0,779.4556,323.15492Z" fill="#aacf15"/><path d="M437.405,286.7487c-4.60755,1.7098-5.57046,8.46062-.65557,10.454a5.56,5.56,0,0,0,7.04948-7.66512C442.68547,287.33991,439.80122,285.8595,437.405,286.7487Z" fill="#aacf15"/><path d="M403.03149,278.78554c-3.23218,1.19941-3.90765,5.9351-.45987,7.3335a3.90033,3.90033,0,0,0,4.94523-5.37709A3.84387,3.84387,0,0,0,403.03149,278.78554Z" fill="#aacf15"/><path d="M470.7783,377.06611c-3.23219,1.1994-3.90766,5.93509-.45987,7.33349a3.90033,3.90033,0,0,0,4.94523-5.37709A3.84386,3.84386,0,0,0,470.7783,377.06611Z" fill="#aacf15"/><path d="M41.34677,152.93108c-7.71961,2.86459-9.33289,14.17516-1.09836,17.515a9.3154,9.3154,0,0,0,11.811-12.84241C50.19392,153.92161,45.36157,151.44127,41.34677,152.93108Z" fill="#aacf15"/><path d="M149.64622,30.31892c-7.71961,2.86459-9.33288,14.17515-1.09836,17.515a9.31541,9.31541,0,0,0,11.811-12.84241C158.49338,31.30945,153.661,28.82911,149.64622,30.31892Z" fill="#aacf15"/><path d="M235.52244,154.36235c-7.71961,2.86459-9.33288,14.17516-1.09836,17.515a9.3154,9.3154,0,0,0,11.811-12.84241C244.36959,155.35288,239.53724,152.87254,235.52244,154.36235Z" fill="#aacf15"/><path d="M143.99457,67.76434c-4.60755,1.7098-5.57047,8.46062-.65558,10.454a5.56,5.56,0,0,0,7.04949-7.66512C149.275,68.35555,146.39079,66.87514,143.99457,67.76434Z" fill="#aacf15"/><path d="M202.19956,176.0638c-4.60755,1.70979-5.57046,8.46062-.65558,10.454a5.56,5.56,0,0,0,7.04949-7.66512C207.48,176.655,204.59579,175.17459,202.19956,176.0638Z" fill="#aacf15"/><path d="M330.05971,158.41146c-4.60756,1.7098-5.57047,8.46062-.65558,10.454a5.56,5.56,0,0,0,7.04948-7.66512C335.34018,159.00267,332.45593,157.52226,330.05971,158.41146Z" fill="#aacf15"/><path d="M178.79914,127.548c-3.23218,1.1994-3.90765,5.93509-.45986,7.33349a3.90033,3.90033,0,0,0,4.94523-5.37709A3.84387,3.84387,0,0,0,178.79914,127.548Z" fill="#aacf15"/><path d="M281.8506,5.89c-3.23218,1.1994-3.90765,5.93509-.45986,7.33349a4.00263,4.00263,0,0,0,4.3368-.97412,4.00264,4.00264,0,0,0,.60843-4.403A3.84387,3.84387,0,0,0,281.8506,5.89Z" fill="#aacf15"/><path d="M363.38258,19.82294c-7.7196,2.86459-9.33287,14.17516-1.09835,17.515a9.31539,9.31539,0,0,0,11.811-12.84239C372.22974,20.81347,367.39739,18.33313,363.38258,19.82294Z" fill="#aacf15"/><path d="M344.8495,44.864c-4.60755,1.7098-5.57046,8.46062-.65558,10.45405a5.56,5.56,0,0,0,7.04949-7.66512C350.13,45.45522,347.24573,43.97483,344.8495,44.864Z" fill="#aacf15"/><path d="M320.4949,26.882c-3.23218,1.19941-3.90765,5.9351-.45986,7.3335a3.90032,3.90032,0,0,0,4.94522-5.37709A3.84387,3.84387,0,0,0,320.4949,26.882Z" fill="#aacf15"/><path d="M379.177,125.16253c-3.23217,1.1994-3.90765,5.93509-.45986,7.33349a3.90033,3.90033,0,0,0,4.94523-5.37709A3.84387,3.84387,0,0,0,379.177,125.16253Z" fill="#aacf15"/><path d="M37.12638,88.7563c-4.60755,1.7098-5.57046,8.46063-.65557,10.45405a5.56,5.56,0,0,0,7.04948-7.66512C42.40686,89.34751,39.52261,87.8671,37.12638,88.7563Z" fill="#aacf15"/><path d="M2.7529,80.79315c-3.23219,1.1994-3.90766,5.93509-.45987,7.33349a4.00263,4.00263,0,0,0,4.3368-.97412,4.00264,4.00264,0,0,0,.60843-4.403A3.84386,3.84386,0,0,0,2.7529,80.79315Z" fill="#aacf15"/><path d="M70.49969,179.07371c-3.23219,1.1994-3.90765,5.9351-.45987,7.33349a3.90033,3.90033,0,0,0,4.94523-5.37709A3.84386,3.84386,0,0,0,70.49969,179.07371Z" fill="#aacf15"/><path d="M441.62537,152.93108c-7.7196,2.86459-9.33288,14.17516-1.09835,17.515a9.31541,9.31541,0,0,0,11.811-12.84241C450.47253,153.92161,445.64018,151.44127,441.62537,152.93108Z" fill="#aacf15"/><path d="M549.92483,30.31892c-7.71961,2.86459-9.33289,14.17515-1.09836,17.515a9.31541,9.31541,0,0,0,11.811-12.84241C558.772,31.30945,553.93964,28.82911,549.92483,30.31892Z" fill="#aacf15"/><path d="M646.77412,113.80969c-7.7196,2.86459-9.33288,14.17516-1.09836,17.515a9.31541,9.31541,0,0,0,11.811-12.84241C655.62128,114.80022,650.78893,112.31988,646.77412,113.80969Z" fill="#aacf15"/><path d="M579.10075,85.41667c-4.60755,1.7098-5.57046,8.46062-.65557,10.45405a5.56,5.56,0,0,0,7.04948-7.66512C584.38123,86.00788,581.497,84.52747,579.10075,85.41667Z" fill="#aacf15"/><path d="M613.45124,135.51114c-4.60755,1.70979-5.57046,8.46062-.65557,10.454a5.56,5.56,0,0,0,7.04948-7.66512C618.73172,136.10235,615.84747,134.62193,613.45124,135.51114Z" fill="#aacf15"/><path d="M730.33831,158.41146c-4.60754,1.7098-5.57045,8.46062-.65557,10.454a5.56,5.56,0,0,0,7.04949-7.66512C735.61879,159.00267,732.73455,157.52226,730.33831,158.41146Z" fill="#aacf15"/><path d="M579.07775,127.548c-3.23219,1.1994-3.90765,5.93509-.45986,7.33349a3.90034,3.90034,0,0,0,4.94523-5.37709A3.84387,3.84387,0,0,0,579.07775,127.548Z" fill="#aacf15"/><path d="M763.6612,19.82294c-7.71961,2.86459-9.33289,14.17516-1.09836,17.515a9.3154,9.3154,0,0,0,11.811-12.84239C772.50836,20.81347,767.676,18.33313,763.6612,19.82294Z" fill="#aacf15"/><path d="M745.12811,44.864c-4.60755,1.7098-5.57046,8.46062-.65557,10.45405a5.56,5.56,0,0,0,7.04948-7.66512C750.40859,45.45522,747.52434,43.97483,745.12811,44.864Z" fill="#aacf15"/><path d="M720.77352,26.882c-3.23219,1.19941-3.90766,5.9351-.45987,7.3335a3.90033,3.90033,0,0,0,4.94523-5.37709A3.84388,3.84388,0,0,0,720.77352,26.882Z" fill="#aacf15"/><path d="M779.4556,125.16253c-3.23219,1.1994-3.90766,5.93509-.45987,7.33349a3.90033,3.90033,0,0,0,4.94523-5.37709A3.84386,3.84386,0,0,0,779.4556,125.16253Z" fill="#aacf15"/><path d="M437.405,88.7563c-4.60755,1.7098-5.57046,8.46063-.65557,10.45405a5.56,5.56,0,0,0,7.04948-7.66512C442.68547,89.34751,439.80122,87.8671,437.405,88.7563Z" fill="#aacf15"/><path d="M403.03149,80.79315c-3.23218,1.1994-3.90765,5.93509-.45987,7.33349a3.90033,3.90033,0,0,0,4.94523-5.37709A3.84386,3.84386,0,0,0,403.03149,80.79315Z" fill="#aacf15"/><path d="M470.7783,179.07371c-3.23219,1.1994-3.90766,5.9351-.45987,7.33349a3.90033,3.90033,0,0,0,4.94523-5.37709A3.84386,3.84386,0,0,0,470.7783,179.07371Z" fill="#aacf15"/><path d="M41.34677,547.4846c-7.71961,2.86459-9.33289,14.17516-1.09836,17.515a9.3154,9.3154,0,0,0,11.811-12.84241C50.19392,548.47514,45.36157,545.99479,41.34677,547.4846Z" fill="#aacf15"/><path d="M149.64622,424.87244c-7.71961,2.86459-9.33288,14.17516-1.09836,17.515a9.31541,9.31541,0,0,0,11.811-12.84241C158.49338,425.863,153.661,423.38263,149.64622,424.87244Z" fill="#aacf15"/><path d="M236.95371,519.81337c-7.71961,2.8646-9.33288,14.17516-1.09836,17.515a9.31541,9.31541,0,0,0,11.811-12.8424C245.80087,520.80391,240.96852,518.32357,236.95371,519.81337Z" fill="#aacf15"/><path d="M143.99457,462.31786c-4.60755,1.7098-5.57047,8.46062-.65558,10.454a5.56,5.56,0,0,0,7.04949-7.66512C149.275,462.90907,146.39079,461.42866,143.99457,462.31786Z" fill="#aacf15"/><path d="M203.63083,541.51482c-4.60755,1.7098-5.57046,8.46062-.65558,10.45405a5.56,5.56,0,0,0,7.04949-7.66512C208.9113,542.106,206.02706,540.62562,203.63083,541.51482Z" fill="#aacf15"/><path d="M197.40566,482.02593c-3.23219,1.1994-3.90766,5.9351-.45987,7.33349a3.90033,3.90033,0,0,0,4.94523-5.37709A3.84386,3.84386,0,0,0,197.40566,482.02593Z" fill="#aacf15"/><path d="M363.38258,414.37646c-7.7196,2.86459-9.33287,14.17516-1.09835,17.515a9.3154,9.3154,0,0,0,11.811-12.84241C372.22974,415.367,367.39739,412.88665,363.38258,414.37646Z" fill="#aacf15"/><path d="M344.8495,439.41754c-4.60755,1.70979-5.57046,8.46062-.65558,10.454a5.56,5.56,0,0,0,7.04949-7.66512C350.13,440.00875,347.24573,438.52834,344.8495,439.41754Z" fill="#aacf15"/><path d="M320.4949,421.43549c-3.23218,1.1994-3.90765,5.93509-.45986,7.33349a3.90032,3.90032,0,0,0,4.94522-5.37709A3.84386,3.84386,0,0,0,320.4949,421.43549Z" fill="#aacf15"/><path d="M379.177,506.35753c-3.23217,1.1994-3.90765,5.93509-.45986,7.33349a3.90033,3.90033,0,0,0,4.94523-5.37709A3.84387,3.84387,0,0,0,379.177,506.35753Z" fill="#aacf15"/><path d="M37.12638,483.30983c-4.60755,1.70979-5.57046,8.46062-.65557,10.454a5.56,5.56,0,0,0,7.04948-7.66512C42.40686,483.901,39.52261,482.42063,37.12638,483.30983Z" fill="#aacf15"/><path d="M2.7529,475.34667c-3.23219,1.1994-3.90766,5.93509-.45987,7.33349a4.00263,4.00263,0,0,0,4.3368-.97412,4.00264,4.00264,0,0,0,.60843-4.403A3.84386,3.84386,0,0,0,2.7529,475.34667Z" fill="#aacf15"/><path d="M70.49969,573.62723c-3.23219,1.19941-3.90765,5.9351-.45987,7.3335a3.90034,3.90034,0,0,0,4.94523-5.3771A3.84388,3.84388,0,0,0,70.49969,573.62723Z" fill="#aacf15"/><path d="M434.94611,523.153c-7.7196,2.86459-9.33288,14.17515-1.09836,17.515a9.31541,9.31541,0,0,0,11.811-12.8424C443.79327,524.14354,438.96092,521.6632,434.94611,523.153Z" fill="#aacf15"/><path d="M549.92483,424.87244c-7.71961,2.86459-9.33289,14.17516-1.09836,17.515a9.31541,9.31541,0,0,0,11.811-12.84241C558.772,425.863,553.93964,423.38263,549.92483,424.87244Z" fill="#aacf15"/><path d="M625.30506,503.59231c-7.7196,2.86459-9.33288,14.17516-1.09835,17.515a9.3154,9.3154,0,0,0,11.811-12.84241C634.15222,504.58285,629.31987,502.1025,625.30506,503.59231Z" fill="#aacf15"/><path d="M544.27317,462.31786c-4.60755,1.7098-5.57046,8.46062-.65557,10.454a5.56,5.56,0,0,0,7.04948-7.66512C549.55365,462.90907,546.6694,461.42866,544.27317,462.31786Z" fill="#aacf15"/><path d="M578.62366,521c-4.60755,1.70979-5.57046,8.46062-.65557,10.454a5.56,5.56,0,0,0,7.04948-7.66512C583.90414,521.59116,581.01989,520.11075,578.62366,521Z" fill="#aacf15"/><path d="M730.33831,552.965c-4.60754,1.7098-5.57045,8.46062-.65557,10.45405a5.56,5.56,0,0,0,7.04949-7.66512C735.61879,553.55619,732.73455,552.07578,730.33831,552.965Z" fill="#aacf15"/><path d="M563.81087,563.60834c-3.23219,1.1994-3.90766,5.9351-.45987,7.33349a3.90033,3.90033,0,0,0,4.94523-5.37709A3.84386,3.84386,0,0,0,563.81087,563.60834Z" fill="#aacf15"/><path d="M763.6612,414.37646c-7.71961,2.86459-9.33289,14.17516-1.09836,17.515a9.31541,9.31541,0,0,0,11.811-12.84241C772.50836,415.367,767.676,412.88665,763.6612,414.37646Z" fill="#aacf15"/><path d="M745.12811,439.41754c-4.60755,1.70979-5.57046,8.46062-.65557,10.454a5.56,5.56,0,0,0,7.04948-7.66512C750.40859,440.00875,747.52434,438.52834,745.12811,439.41754Z" fill="#aacf15"/><path d="M720.77352,421.43549c-3.23219,1.1994-3.90766,5.93509-.45987,7.33349a3.90033,3.90033,0,0,0,4.94523-5.37709A3.84386,3.84386,0,0,0,720.77352,421.43549Z" fill="#aacf15"/><path d="M784.70359,568.37924c-3.23219,1.1994-3.90765,5.9351-.45987,7.33349a3.90033,3.90033,0,0,0,4.94523-5.37709A3.84386,3.84386,0,0,0,784.70359,568.37924Z" fill="#aacf15"/><path d="M437.405,483.30983c-4.60755,1.70979-5.57046,8.46062-.65557,10.454a5.56,5.56,0,0,0,7.04948-7.66512C442.68547,483.901,439.80122,482.42063,437.405,483.30983Z" fill="#aacf15"/><path d="M366.31856,574.91113c-4.60756,1.70979-5.57047,8.46062-.65558,10.454a5.56,5.56,0,0,0,7.04948-7.66512C371.599,575.50234,368.71478,574.02193,366.31856,574.91113Z" fill="#aacf15"/><path d="M403.03149,475.34667c-3.23218,1.1994-3.90765,5.93509-.45987,7.33349a3.90033,3.90033,0,0,0,4.94523-5.37709A3.84386,3.84386,0,0,0,403.03149,475.34667Z" fill="#aacf15"/><path d="M452.17178,573.62723c-3.23219,1.19941-3.90765,5.9351-.45986,7.3335a3.90034,3.90034,0,0,0,4.94523-5.3771A3.8439,3.8439,0,0,0,452.17178,573.62723Z" fill="#aacf15"/></g></g></g></svg>