<svg xmlns="http://www.w3.org/2000/svg" xmlns:xlink="http://www.w3.org/1999/xlink" viewBox="0 0 493 298.56047"><defs><clipPath id="1c225a2b-cc4b-459d-8f1f-622c8c61d8a8" transform="translate(0 -37.41139)"><rect x="107.16902" width="278.83098" height="278.83098" fill="none"/></clipPath></defs><title>shk-logo_2</title><g style="isolation:isolate"><g id="d14f7713-5b2c-4e33-9711-02c5be8ba891" data-name="Layer 2"><g id="bcf8f5f0-acc3-46d2-98eb-7b7a1b2b3fab" data-name="Layer 1"><path d="M105.99121,307.97186H387.00879a171.71248,171.71248,0,1,0-281.01758,0Z" transform="translate(0 -37.41139)" fill="#fff"/><path d="M99.26855,182.175q5.62647.57934,8.27881,4.03515,2.65211,3.45557,2.04395,9.37061l-.668,6.49219L86.19971,199.735l.73877-7.18115q.56177-5.46606,3.81152-8.19336Q93.999,181.633,99.26855,182.175Zm-.20361,2.895q-4.44507-.457-6.936,1.61084-2.49024,2.06909-2.957,6.605l-.40723,3.959,18.1543,1.86768.3413-3.31788q.501-4.8728-1.56982-7.56445Q103.61914,185.53852,99.06494,185.07Z" transform="translate(0 -37.41139)" fill="#707070"/><path d="M112.29346,178.14325l-22.2334-5.24561.62939-2.6665,22.2334,5.24609Z" transform="translate(0 -37.41139)" fill="#707070"/><path d="M120.915,151.82928l-1.11279,2.92139-22.49952,5.206-.04589.12012q3.24536.96094,5.874,1.96192l12.1333,4.623-.90039,2.36377L93.0166,160.89276l1.10156-2.89111,22.415-5.20362.0459-.12011q-.40577-.12012-2.585-.82959-2.179-.70973-3.08789-1.09034l-12.25049-4.667.91211-2.39453Z" transform="translate(0 -37.41139)" fill="#707070"/><path d="M138.877,123.30731l-1.81543,2.54492-23.08447-.64941-.07519.105q2.89746,1.74975,5.1875,3.38281l10.57128,7.53906-1.46875,2.05957-18.59863-13.26367,1.79639-2.519,23.00244.63037.07471-.10449q-.36182-.219-2.291-1.45606t-2.71191-1.83545l-10.67334-7.61181,1.48779-2.08594Z" transform="translate(0 -37.41139)" fill="#707070"/><path d="M125.97168,97.47626a1.4519,1.4519,0,0,1-.52344-1.13184,1.53728,1.53728,0,0,1,.47217-.97656,1.62462,1.62462,0,0,1,1.00195-.48926,1.42157,1.42157,0,0,1,1.14014.51855,1.45478,1.45478,0,0,1,.50684,1.1377,1.55841,1.55841,0,0,1-.47852,1.01562,1.39733,1.39733,0,0,1-2.11914-.07421Zm4.353-4.32911a1.45274,1.45274,0,0,1-.52344-1.13232,1.5372,1.5372,0,0,1,.47217-.97607,1.60033,1.60033,0,0,1,.99023-.478,1.42334,1.42334,0,0,1,1.14063.51806,1.45635,1.45635,0,0,1,.50683,1.13819,1.54223,1.54223,0,0,1-.46728,1.00439,1.39825,1.39825,0,0,1-2.11914-.07422Zm23.35742,14.916-7.20313-3.0835-6.69482,6.65869,3.06689,7.19678-1.96533,1.95459-9.5708-22.83154,1.63379-1.62451,22.74414,9.72949ZM144.188,103.8869,137.25439,100.8q-1.325-.57789-3.102-1.56495a28.89239,28.89239,0,0,1,1.605,3.05323l3.02637,6.97314Z" transform="translate(0 -37.41139)" fill="#707070"/><path d="M154.94629,94.85419l5.61572,7.66259-2.21,1.61914L144.84912,85.71014l5.21192-3.81933q3.49658-2.562,6.11816-2.48829a5.75572,5.75572,0,0,1,4.5332,2.68311q2.67847,3.65551-.20068,7.74072l11.228,4.499-2.6128,1.91455-10.21631-4.291Zm-1.34863-1.84034,3.0288-2.21924a6.62719,6.62719,0,0,0,2.77051-3.41552,4.09118,4.09118,0,0,0-.88916-3.50342,3.7622,3.7622,0,0,0-3.0415-1.81982,7.6474,7.6474,0,0,0-4.15869,1.8081l-2.87256,2.105Z" transform="translate(0 -37.41139)" fill="#707070"/><path d="M184.19336,87.70184,168.15039,72.986l-.11621.05615q1.25537,2.06544,2.70361,5.04444l6.3545,13.06836-2.2754,1.10595-9.98925-20.54345,3.71-1.8042,14.9497,13.68408.11622-.05615-1.47266-20.23731,3.68066-1.79,9.98926,20.544-2.46338,1.19775-6.43652-13.23681q-1.10668-2.27637-2.20215-5.04493l-.11572.05664,1.5957,21.70606Z" transform="translate(0 -37.41139)" fill="#707070"/><path d="M216.14648,76.20575l-4.77783-6.21-9.09521,2.53808-.84082,7.77783-2.66944.74512,2.80567-24.59668,2.21972-.61963,15.08985,19.603Zm-6.24267-8.28321-4.541-6.081q-.87378-1.15137-1.94189-2.88086a28.89936,28.89936,0,0,1-.0918,3.44824l-.7666,7.5625Z" transform="translate(0 -37.41139)" fill="#707070"/><path d="M234.59229,67.29754a5.53911,5.53911,0,0,1-1.61182,4.96094,10.00029,10.00029,0,0,1-5.84473,2.48535,15.75872,15.75872,0,0,1-6.52783-.18164l-.33984-2.54a17.36269,17.36269,0,0,0,3.25488.51026,17.12915,17.12915,0,0,0,3.39941-.10889,6.99025,6.99025,0,0,0,3.95508-1.54639,3.2724,3.2724,0,0,0,1.001-2.96386,3.51245,3.51245,0,0,0-.74561-1.8628,4.52756,4.52756,0,0,0-1.81445-1.168,23.44667,23.44667,0,0,0-3.667-.9751,11.24846,11.24846,0,0,1-5.01416-2.05518,5.85377,5.85377,0,0,1-1.939-3.855,5.01463,5.01463,0,0,1,1.47022-4.4375,8.69051,8.69051,0,0,1,5.15869-2.26758,16.38843,16.38843,0,0,1,6.5708.38086l-.53955,2.40528a15.01064,15.01064,0,0,0-5.77979-.42383,5.61931,5.61931,0,0,0-3.24951,1.34961,2.9553,2.9553,0,0,0-.87988,2.65625,3.76383,3.76383,0,0,0,.70557,1.86816,4.19685,4.19685,0,0,0,1.69384,1.17627,19.22565,19.22565,0,0,0,3.436.95068,13.09072,13.09072,0,0,1,5.41992,2.04834A5.31266,5.31266,0,0,1,234.59229,67.29754Z" transform="translate(0 -37.41139)" fill="#707070"/><path d="M247.55664,73.03094l-2.73877.043-.32226-20.48144-7.46.11718-.0371-2.35937,17.65869-.27734.03711,2.35888-7.45948.11719Z" transform="translate(0 -37.41139)" fill="#707070"/><path d="M271.78809,75.01385l-13.0337-1.61133,2.80323-22.67089L274.59131,52.343l-.28955,2.34131-10.31494-1.27539-.90332,7.3042,9.6914,1.19824-.2876,2.32569-9.6914-1.19824-1.03125,8.34277,10.31494,1.27539Z" transform="translate(0 -37.41139)" fill="#707070"/><path d="M309.26514,74.19549q-1.94971,5.31006-5.95313,7.02735-4.00341,1.71753-9.58545-.33155l-6.126-2.24951,7.873-21.44384,6.77686,2.48779q5.1577,1.894,6.999,5.71582T309.26514,74.19549Zm-2.75489-.91162q1.54029-4.19457.15039-7.11865-1.39013-2.92383-5.67089-4.49561L297.25342,60.298l-6.28955,17.13184,3.13086,1.14941q4.59814,1.68824,7.71826.34522Q304.93237,77.582,306.51025,73.28387Z" transform="translate(0 -37.41139)" fill="#707070"/><path d="M304.23,91.57977a5.55266,5.55266,0,0,1-1.93359-1.4585l1.02832-2.01855a8.98941,8.98941,0,0,0,1.9834,1.36035,3.06571,3.06571,0,0,0,2.58642.26514,3.95151,3.95151,0,0,0,1.96582-2.03223l10.3667-20.356,2.44092,1.24317L312.40088,88.74432a6.42691,6.42691,0,0,1-3.4668,3.39844A5.83519,5.83519,0,0,1,304.23,91.57977Z" transform="translate(0 -37.41139)" fill="#707070"/><path d="M345.5835,82.75751l-8.23243,12.27685a7.9219,7.9219,0,0,1-5.44091,3.74463,9.50918,9.50918,0,0,1-6.79834-1.86865,9.08512,9.08512,0,0,1-4.21387-5.53467,8.20169,8.20169,0,0,1,1.51221-6.436L330.60742,72.715l2.27539,1.52588-8.30224,12.38037a5.76918,5.76918,0,0,0-1.10694,4.544,6.62883,6.62883,0,0,0,3.082,3.91016,6.38744,6.38744,0,0,0,4.67139,1.27978,5.8179,5.8179,0,0,0,3.79688-2.76855l8.28466-12.3545Z" transform="translate(0 -37.41139)" fill="#707070"/><path d="M346.13574,100.6701l-6.48779,6.93946-2.001-1.87061,15.6001-16.687,4.72022,4.4126q3.16626,2.96044,3.58007,5.55029A5.75483,5.75483,0,0,1,359.752,103.967q-3.09449,3.31054-7.64355,1.23877l-2.3374,11.86816-2.36621-2.21191,2.3208-10.83545Zm1.55762-1.6665,2.74268,2.564a6.63044,6.63044,0,0,0,3.8706,2.08936,4.09369,4.09369,0,0,0,3.27783-1.52393,3.76263,3.76263,0,0,0,1.22364-3.32666,7.64949,7.64949,0,0,0-2.54834-3.751l-2.60157-2.43213Z" transform="translate(0 -37.41139)" fill="#707070"/><path d="M361.39648,131.6535l3.89307-6.79931-5.84277-7.418-7.50244,2.21679-1.71485-2.17724,23.78223-6.876,1.42578,1.81055-12.28613,21.47119Zm5.24268-8.94971,3.86572-6.53125q.72657-1.2495,1.91162-2.90087a28.98221,28.98221,0,0,1-3.21777,1.24267l-7.27539,2.20215Z" transform="translate(0 -37.41139)" fill="#707070"/><path d="M366.08154,139.195l-1.373-2.37061,19.76855-11.44727,6.58106,11.36475L389.0166,137.924l-5.20849-8.99414-7.23438,4.189,4.89356,8.45069-2.04151,1.18213-4.89355-8.4502Z" transform="translate(0 -37.41139)" fill="#707070"/><path d="M373.97852,154.39618l-1.05274-2.52881,21.08936-8.77979,5.04736,12.12452-2.17822.90673-3.99463-9.59521-7.71729,3.21289,3.75293,9.01465-2.17773.90674-3.75342-9.01465Z" transform="translate(0 -37.41139)" fill="#707070"/><path d="M382.81934,182.12323l6.32275-4.62744-2.31934-9.15332-7.75537-1.02735-.68066-2.68652,24.52246,3.395.56592,2.2334-19.959,14.61572Zm8.43017-6.04248,6.189-4.39356q1.17188-.84594,2.92675-1.87207a28.88991,28.88991,0,0,1-3.44531-.17431l-7.542-.94825Zm14.79639-12.40918a1.45011,1.45011,0,0,1,1.24072.126,1.535,1.535,0,0,1,.59961.90381,1.62719,1.62719,0,0,1-.08887,1.11133A1.42443,1.42443,0,0,1,406.77,166.53a1.45581,1.45581,0,0,1-1.23731-.14356,1.55983,1.55983,0,0,1-.63037-.9292,1.39705,1.39705,0,0,1,1.14356-1.78564Zm1.50781,5.95117a1.4535,1.4535,0,0,1,1.24072.126,1.5379,1.5379,0,0,1,.59961.9038,1.6028,1.6028,0,0,1-.09277,1.09571,1.42444,1.42444,0,0,1-1.02734.71728,1.45409,1.45409,0,0,1-1.23731-.14355,1.53869,1.53869,0,0,1-.62646-.91358,1.39785,1.39785,0,0,1,1.14355-1.78564Z" transform="translate(0 -37.41139)" fill="#707070"/><path d="M393.4917,189.99335l-9.46191.84716-.24415-2.72851,22.75245-2.0376.57617,6.436q.38672,4.31762-1.03174,6.52343a5.753,5.753,0,0,1-4.63965,2.49414q-4.51319.40429-6.523-4.17236l-9.65429,7.2876-.28907-3.22608,8.95362-6.52881Zm2.27246-.20362.335,3.73975a6.63053,6.63053,0,0,0,1.4917,4.13721,4.09359,4.09359,0,0,0,3.459,1.04931,3.761,3.761,0,0,0,3.12989-1.66357,7.64693,7.64693,0,0,0,.60156-4.49463l-.31787-3.54688Z" transform="translate(0 -37.41139)" fill="#707070"/><path d="M115.44258,296.01309A999.392,999.392,0,0,1,0,266.48316c15.595-10.0853,23.23205-15.33575,38.17147-26.2123-10.04962-18.16383-14.87415-27.33462-24.1191-45.81331A942.31092,942.31092,0,0,0,122.9142,222.30331C119.92549,251.787,118.43126,266.52941,115.44258,296.01309Z" transform="translate(0 -37.41139)" fill="#d66600"/><path d="M115.44258,296.01309C93.585,292.27941,71.64477,287.43962,50.05646,281.59c2.23969-14.57736,3.35965-21.866,5.59934-36.44341,22.68058-6.89353,44.87812-14.42287,67.2584-22.84326C119.92549,251.787,118.43126,266.52941,115.44258,296.01309Z" transform="translate(0 -37.41139)" fill="#44c6cf"/><path d="M377.55763,296.01286A999.3414,999.3414,0,0,0,493,266.48316c-15.595-10.0853-23.23184-15.33575-38.17126-26.2123,10.04938-18.16383,14.87391-27.33462,24.11913-45.81331a942.36606,942.36606,0,0,1-108.86112,27.84576C373.07472,251.787,374.56895,266.52894,377.55763,296.01286Z" transform="translate(0 -37.41139)" fill="#d66600"/><path d="M377.55763,296.01286c21.85759-3.73369,43.79807-8.57348,65.38612-14.42288-2.23969-14.57736-3.35965-21.866-5.59931-36.44364-22.68034-6.89353-44.87792-14.42264-67.25769-22.843C373.07472,251.787,374.56895,266.52894,377.55763,296.01286Z" transform="translate(0 -37.41139)" fill="#44c6cf"/><g clip-path="url(#1c225a2b-cc4b-459d-8f1f-622c8c61d8a8)"><path d="M215.9605,121.023s16.093-8.40174,23.96362-11.82584c7.871-3.42437,29.37038,15.63172,24.20169,22.21062-5.1698,6.57924-13.159,39.16109-16.13461,38.37741C245.01446,169.00264,211.1863,124.20448,215.9605,121.023Z" transform="translate(0 -37.41139)" fill="#56312a"/><path d="M181.37943,120.4392s-10.41913-9.75339-17.89855-14.07962c-7.47886-4.32568-28.39258,11.18073-26.74842,19.44165,1.74269,8.756,3.7288,43.068,6.79539,42.62573C146.59421,167.98479,185.79009,124.16773,181.37943,120.4392Z" transform="translate(0 -37.41139)" fill="#56312a"/><path d="M170.16251,111.70611c1.15313-1.365-13.72535-10.35188-23.29549-14.19312-9.5701-3.841-15.60121-.85339-16.61878,7.83772-1.01673,8.69116-3.28222,23.41913-.75557,26.0925C132.01849,134.11637,149.47124,136.17871,170.16251,111.70611Z" transform="translate(0 -37.41139)" fill="#69250e"/><path d="M149.13391,127.81568a35.0778,35.0778,0,0,1-19.78283-13.01249c-.07194-.09474-.14326-.19167-.21459-.28753-.84274,7.41735-1.39661,15.07294.35618,16.92755,1.68877,1.78736,10.05258,3.29969,21.59468-3.20929C150.43494,128.11141,149.78331,127.9769,149.13391,127.81568Z" transform="translate(0 -37.41139)" fill="#643a31" opacity="0.07" style="mix-blend-mode:multiply"/><path d="M119.455,281.06163s-5.04974-38.421,7.78273-91.43041c12.8322-53.01056,35.24217-79.61171,73.545-75.33885,38.30273,4.27342,51.99378,16.30292,47.74434,61.55356-4.24888,45.25126-4.90185,105.2157-4.90185,105.2157Z" transform="translate(0 -37.41139)" fill="#b89075"/><path d="M138.04765,190.92678c5.87341-1.44044,16.18279-4.26249,16.182-11.9184-.00056-6.84385-8.1591-10.33526-10.84229-16.08125-1.65776-3.54963.30878-6.63472,2.16908-9.58972,2.63122-4.17917,2.52722-8.22384.81308-12.38127-7.99158,12.28112-14.25412,28.61665-19.13177,48.766-.11733.48355-.22981.96392-.34391,1.44535A23.15047,23.15047,0,0,0,138.04765,190.92678Z" transform="translate(0 -37.41139)" fill="#7f4a3e" opacity="0.5"/><path d="M232.59968,236.73241a24.94427,24.94427,0,0,0-11.91105,3.255c-4.32734,2.63908-7.07015,6.75295-9.2714,11.21916-2.174,4.41171-4.03324,9.07014-7.17093,12.91768-3.63406,4.45694-8.51387,6.86733-13.83642,8.78267-5.2142,1.875-10.15826,3.83443-14.42951,7.45979-.29679.25162-.64806.54679-1.03095.87681h68.67579s.202-18.56786,1.112-42.83106A34.7366,34.7366,0,0,0,232.59968,236.73241Z" transform="translate(0 -37.41139)" fill="#7f4a3e" opacity="0.5"/><path d="M241.51547,277.60563c-12.52236.15576-24.95131-2.03619-36.99061-5.36259-18.86844-5.2128-35.5964-15.72668-47.44672-31.45888-13.4343-17.83375-19.05531-39.57872-21.519-61.46316-.522-4.63556-.88635-9.30927-1.03664-13.99057a221.93646,221.93646,0,0,0-7.28474,24.39175c-12.83247,53.00945-7.78273,91.52136-7.78273,91.52136H243.62521s.01417-1.31792.05226-3.69562Q242.59754,277.5904,241.51547,277.60563Z" transform="translate(0 -37.41139)" fill="#744334" opacity="0.1" style="mix-blend-mode:multiply"/><path d="M125.35431,198.33053l-2.363,11.74631s9.19652,15.17231,46.62768,22.47908c37.43083,7.30626,73.7562,1.15017,75.378,0,1.62179-1.15124,2.64889-8.5517.55-10.21269-2.09993-1.66105-40.88956,10.21269-73.98819,1.8124C134.45876,214.73962,127.24786,198.95243,125.35431,198.33053Z" transform="translate(0 -37.41139)" fill="#744334" opacity="0.2" style="mix-blend-mode:multiply"/><path d="M214.59355,165.44319c-1.8584,8.41228,16.998,12.03764,18.58392,3.45C234.7633,160.30657,216.97968,154.64334,214.59355,165.44319Z" transform="translate(0 -37.41139)" fill="#56162a" opacity="0.5"/><path d="M174.24694,154.37706c3.56273-7.8443-14.133-15.30085-17.46481-7.22947C153.45061,155.22008,169.67288,164.44654,174.24694,154.37706Z" transform="translate(0 -37.41139)" fill="#56162a" opacity="0.5"/><path d="M220.43211,133.14559c6.19038.244,12.18413-2.60016,16.58637-6.97976-6.89371-5.86113-16.83743-9.10282-30.181-11.05141-1.368,3.61968.40163,8.36878,2.34391,11.382A14.21676,14.21676,0,0,0,220.43211,133.14559Z" transform="translate(0 -37.41139)" fill="#7f4a3e" opacity="0.5"/><path d="M232.72571,113.71782c-.984-1.47692,14.71542-8.665,24.59435-11.37408,9.87942-2.70879,15.49418.92176,15.51593,9.61426.02125,8.69194.59252,23.48359-2.20393,25.83654C267.83772,140.14742,250.37978,140.20949,232.72571,113.71782Z" transform="translate(0 -37.41139)" fill="#643a31"/><path d="M272.86433,124.687c.08442-4.40715-.01964-9.0996-.02834-12.729-.02069-8.51416-5.4116-12.16807-14.91634-9.76806C257.47413,112.2172,264.13669,120.07973,272.86433,124.687Z" transform="translate(0 -37.41139)" fill="#744334" opacity="0.6"/><path d="M175.44719,166.86345c-2.6083,13.67091,23.32377,18.91857,27.51878,6.04388C207.83162,157.97247,178.19546,152.45954,175.44719,166.86345Z" transform="translate(0 -37.41139)" fill="#212121"/><path d="M187.67031,176.78972a15.66731,15.66731,0,0,1-8.06051-10.131,14.82326,14.82326,0,0,1-.3284-5.7612,9.24786,9.24786,0,0,0-3.83421,5.966c-2.01087,10.54,12.94088,16.07037,21.81825,12.152A20.16772,20.16772,0,0,1,187.67031,176.78972Z" transform="translate(0 -37.41139)" fill="#242424" opacity="0.15" style="mix-blend-mode:multiply"/><path d="M194.69852,165.27651c-2.97591,2.23829,1.92979,11.23438,5.42031,7.9309C203.6094,169.90449,199.16115,161.92022,194.69852,165.27651Z" transform="translate(0 -37.41139)" fill="#2d2d2d" opacity="0.6"/><path d="M188.39488,162.3668c-1.34486,2.3047,4.37145,4.1514,5.658,1.509C195.33844,161.23513,189.97964,159.64981,188.39488,162.3668Z" transform="translate(0 -37.41139)" fill="#363636" opacity="0.6"/><path d="M220.5955,163.16185a1.11677,1.11677,0,0,1-1.0527-1.484,5.00155,5.00155,0,0,0-9.44188-3.30348,1.1154,1.1154,0,0,1-2.1054-.73739,7.23216,7.23216,0,0,1,13.65268,4.77715A1.11662,1.11662,0,0,1,220.5955,163.16185Z" transform="translate(0 -37.41139)" fill="#111"/><path d="M181.90469,153.30585a1.11736,1.11736,0,0,1-1.07121-1.4279,5.00146,5.00146,0,0,0-9.6036-2.79812,1.11521,1.11521,0,1,1-2.14132-.62414,7.23191,7.23191,0,1,1,13.88629,4.04634A1.11629,1.11629,0,0,1,181.90469,153.30585Z" transform="translate(0 -37.41139)" fill="#111"/><path d="M187.56764,193.34642c-.75641,1.8859-2.6794,12.53541,6.21163,13.29132,8.89125.75368,22.63923-1.52158,22.71245-8.91607.073-7.395-3.51694-8.46135-8.23343-7.99949C203.54159,190.18236,188.2636,191.61137,187.56764,193.34642Z" transform="translate(0 -37.41139)" fill="#3d2121"/><path d="M195.64721,194.33c.82752-.02454,2.04986.10891,2.375,1.0532.385,1.1175-.27588,3.05683,1.82,3.03011,1.56162-.02068,3.07562-.80325,2.98249-2.61292-.14566-2.85261,2.21292-3.4734,4.70828-2.80738,2.47351.66111,4.64482,2.00083,7.27219,2.10484.51433.02013,1.02086.013,1.52376-.00926-.745-5.01623-3.98394-5.76611-8.0706-5.36638-4.7167.46018-19.99469,1.88919-20.69065,3.62424a14.74906,14.74906,0,0,0-.71068,4.75C189.51293,196.39611,192.62937,194.41708,195.64721,194.33Z" transform="translate(0 -37.41139)" fill="#331919" opacity="0.3" style="mix-blend-mode:multiply"/><path d="M207.57265,200.51216a11.17183,11.17183,0,0,1,4.345,3.322A20.88061,20.88061,0,0,1,204.90853,206S205.78478,201.35244,207.57265,200.51216Z" transform="translate(0 -37.41139)" fill="#d85a56" opacity="0.5"/><path d="M208.25829,200.82149s-4.75724-2.718-8.15553.68018c0,0-3.032-3.27135-5.853.67912-2.82071,3.951-1.48974,16.554,5.06011,13.36593,0,0,2.36432,3.17171,5.21063,1.7563C209.76219,214.69768,204.06713,204.10646,208.25829,200.82149Z" transform="translate(0 -37.41139)" fill="#d85a56"/><path d="M208.25829,200.82149s-4.73656-2.705-8.13288.65949a26.39892,26.39892,0,0,0-.81553,14.06574c.7036.68888,2.7186,2.98271,5.21063,1.7563C209.77285,214.71893,204.06713,204.10646,208.25829,200.82149Z" transform="translate(0 -37.41139)" fill="#d85a56" opacity="0.15" style="mix-blend-mode:multiply"/><path d="M200.246,216.43547a3.79618,3.79618,0,0,0,4.27448.86755c2.93347-1.44211,2.449-5.39091,2.17946-9.16768C205.7845,211.79444,203.61921,215.227,200.246,216.43547Z" transform="translate(0 -37.41139)" fill="#d85a56" opacity="0.15" style="mix-blend-mode:multiply"/><path d="M195.45878,204.5029c-2.204,0-2.19663,7.02308.092,7.02252C197.30765,211.52487,197.44082,204.5029,195.45878,204.5029Z" transform="translate(0 -37.41139)" fill="#e56a6a" opacity="0.5"/><path d="M195.96854,212.37608c-1.13278.33928.28318,3.2278,1.359,2.43431C198.4039,214.018,197.10126,212.03574,195.96854,212.37608Z" transform="translate(0 -37.41139)" fill="#e56a6a" opacity="0.5"/><path d="M125.35431,195.61137s-5.85032,6.56942-2.363,11.74631c0,0,9.19652,15.17231,46.62768,22.47913,37.43083,7.30732,73.7562,1.15124,75.378,0,1.62179-1.15018,2.64889-8.55119.55-10.21168-2.09993-1.661-40.88956,10.21168-73.98819,1.8124C133.62472,211.80972,128.07208,196.50558,125.35431,195.61137Z" transform="translate(0 -37.41139)" fill="#aacf15"/><path d="M227.218,228.42141c-14.06925,1.747-28.37272,2.47786-42.50812,1.07445-12.53351-1.24331-24.79772-4.06374-36.02474-9.92683a88.63721,88.63721,0,0,1-15.36537-10.12285c-3.71715-3.06385-7.56385-6.155-10.37234-10.07874-1.07529,2.314-1.7451,5.33482.04388,7.99024,0,0,9.19652,15.17231,46.62768,22.47913,37.43083,7.30732,73.7562,1.15124,75.378,0,.76678-.54405,1.40017-2.48555,1.63323-4.5566A189.70512,189.70512,0,0,1,227.218,228.42141Z" transform="translate(0 -37.41139)" fill="#f8de5a" opacity="0.5" style="mix-blend-mode:multiply"/><path d="M169.16859,229.74859c-.59252-.043-1.59263-.44005-2.18626-2.00848-1.00641-2.65709.01093-7.03886.69384-7.41623a.8375.8375,0,0,1,.6663-.07356.48376.48376,0,0,1,.2998.41719l1.53.41116a3.14492,3.14492,0,0,0-1.15888-2.01065,2.03133,2.03133,0,0,0-1.87854.00926c-1.62508.70578-2.50435,5.84893-1.51835,8.87575a3.25644,3.25644,0,0,0,3.08945,2.602,3.616,3.616,0,0,0,.4545-.03156l-.77086,9.05492a.67913.67913,0,0,0,.61973.73411c.01957.00161.0392.00273.05827.00273a.67966.67966,0,0,0,.67639-.6214l.91546-9.6572" transform="translate(0 -37.41139)" fill="#e24334"/><path d="M160.39088,239.95531l17.2385,2.41144s3.66373-4.93347,6.78206-1.57874c2.70338,2.90648-1.37347,4.59469-1.27705,5.50033.09637.90676,2.19663,4.08883-1.277,5.5015-4.06815,1.65336-4.80794-4.97267-4.80794-4.97267l-17.15876-2.24972s-4.26115,6.42075-7.45761,1.83036c-3.197-4.59034,3.33616-5.06413,3.33616-5.06413s-4.28513-4.1166.69111-6.37391C160.26724,233.23175,160.39088,239.95531,160.39088,239.95531Z" transform="translate(0 -37.41139)" fill="#744334" opacity="0.25" style="mix-blend-mode:multiply"/><path d="M160.08835,237.12233l17.23878,2.41144s3.6635-4.93235,6.78183-1.57874c2.703,2.90754-1.373,4.59469-1.27682,5.50145.09586.90676,2.19635,4.08878-1.27682,5.50039-4.06837,1.65391-4.80816-4.97268-4.80816-4.97268l-17.159-2.24916s-4.26088,6.4202-7.45706,1.8298c-3.197-4.59089,3.33587-5.06413,3.33587-5.06413s-4.28513-4.11549.69084-6.37446C159.96527,230.39988,160.08835,237.12233,160.08835,237.12233Z" transform="translate(0 -37.41139)" fill="#fff7df"/><path d="M182.99743,243.0437a60.22745,60.22745,0,0,1-10.3173-.57345c-7.03368-.99715-13.68915-3.42387-18.77587-8.26527-.74609,2.07489,1.56268,4.29572,1.56268,4.29572s-6.53289.47324-3.33587,5.06413c3.19618,4.5904,7.45706-1.8298,7.45706-1.8298l17.159,2.24916s.73979,6.62659,4.80816,4.97268c3.47317-1.41161,1.37268-4.59363,1.27682-5.50039A.63322.63322,0,0,1,182.99743,243.0437Z" transform="translate(0 -37.41139)" fill="#fff7df" style="mix-blend-mode:multiply"/><path d="M244.00588,278.831c-.63011-5.57662,2.15547-62.83339,2.657-85.789.50106-22.95621,7.846-57.21891,9.39041-58.18065,2.0406-1.26919,14.43168,10.622,15.65212,10.02564A121.14,121.14,0,0,1,342.095,132.06c1.6354.20773,6.73934-15.37413,9.29182-14.78842,11.04271,2.534,36.73436,63.96857,18.25093,161.55941Z" transform="translate(0 -37.41139)" fill="#f0d9a7"/><path d="M302.47,192.35089q-.90592,0-1.86744-.08332a.83637.83637,0,0,1,.14489-1.66646c4.03975.35071,7.23-.49994,9.48353-2.53017a12.15576,12.15576,0,0,0,3.567-7.97986.83657.83657,0,0,1,1.6654-.09754,9.49374,9.49374,0,0,0,3.8786,6.93866c4.488,3.0644,11.27408,1.46988,11.34217,1.453a.83656.83656,0,0,1,.39594,1.62559c-.306.07517-7.5644,1.79121-12.67482-1.692a10.08444,10.08444,0,0,1-3.62809-4.46024,12.4,12.4,0,0,1-3.42711,5.45572A12.80494,12.80494,0,0,1,302.47,192.35089Z" transform="translate(0 -37.41139)" fill="#cd7963" opacity="0.6"/><path d="M278.86031,141.375s10.125,11.01923,11.46742,10.37937c1.34079-.64153,3.64008-11.82037,5.64688-12.84965,2.68-1.37458,9.38222,5.72636,11.114,5.27766,1.466-.38016,5.82115-9.60662,7.91947-9.60662,2.29651,0,7.37759,8.04143,9.46392,8.48856,1.51393.324,6.08091-6.06892,9.56412-11.752C334.03616,131.31222,306.58107,128.08581,278.86031,141.375Z" transform="translate(0 -37.41139)" fill="#e29052"/><path d="M246.84811,188.23s-2.9125,72.2891-2.86839,81.9632c0,0,28.32147-7.2839,28.1728-8.77442-.14973-1.49113-23.10482-11.92493-23.25406-13.26683-.14811-1.34129,39.0538-3.14934,39.42682-7.09s-35.25305-18.661-35.25305-21.06428,36.669-11.43754,36.96691-14.22473C290.33811,202.98678,246.84811,188.23,246.84811,188.23Z" transform="translate(0 -37.41139)" fill="#e29052"/><path d="M306.4117,175.17774c-.666.66657,7.00072,7.81435,8.32846,7.712,1.32824-.10183,7.969-7.95811,6.94735-8.94657C320.88426,173.166,307.33151,174.25849,306.4117,175.17774Z" transform="translate(0 -37.41139)" fill="#de6162"/><path d="M321.68751,173.94313a6.48569,6.48569,0,0,0-2.64237-.26355,13.03862,13.03862,0,0,1-7.25339,7.36181c1.32824,1.08973,2.49966,1.88261,2.94841,1.84831C316.0684,182.78787,322.70915,174.93159,321.68751,173.94313Z" transform="translate(0 -37.41139)" fill="#de6162" opacity="0.15" style="mix-blend-mode:multiply"/><path d="M374.87018,185.219s5.20192,46.38721-5.23244,93.34135c0,0-26.23465-7.45327-26.38382-11.77621-.14867-4.32188,23.84981-9.83755,24.29695-12.81864s-21.2805-13.26572-21.2979-17.21614,23.38477-13.63985,23.98108-16.32254c.59636-2.68319-25.48905-9.24119-25.63828-14.75736C344.44654,200.1538,374.87018,185.219,374.87018,185.219Z" transform="translate(0 -37.41139)" fill="#e29052"/><path d="M364.20327,136.06489c-.22384,2.61538-.53261,5.22457-.90569,7.82-2.937,20.39336-9.53251,40.5558-20.28658,58.19944A113.34113,113.34113,0,0,1,321.27635,228.49a127.03709,127.03709,0,0,1-30.68446,19.6369c-11.19846,5.12842-23.19745,8.72055-35.53243,9.54343-3.47725.232-7.09441.372-10.72524.27828-.35829,10.59831-.54455,18.61576-.32834,20.61169H369.63774C382.35885,211.77375,374.15458,161.65171,364.20327,136.06489Z" transform="translate(0 -37.41139)" fill="#f0d9a7" opacity="0.27" style="mix-blend-mode:multiply"/><path d="M318.71239,230.2463c-.66055-1.70181-1.1006-6.85913-5.25312-6.30582-4.15358.55387-3.32038,4.38724-3.652,7.41189a13.93441,13.93441,0,0,1-1.49,3.74515c-.13941.33225,1.777,1.07394,4.56971,1.14582a1.74783,1.74783,0,0,0,3.48265.08717,1.77676,1.77676,0,0,0,.00218-.35233,16.22025,16.22025,0,0,0,4.65843-1.58477C321.57749,234.10694,319.36268,231.92146,318.71239,230.2463Z" transform="translate(0 -37.41139)" fill="#d3946a" opacity="0.3" style="mix-blend-mode:multiply"/><path d="M246.21366,206.50758s-3.10529,1.22206-.13563,4.366c0,0,22.49709,9.81954,67.06594,9.46224,44.56884-.35612,63.02288-9.46224,63.02288-9.46224s2.3559-2.88634,0-5.502c0,0-29.62362,11.81217-63.61869,10.583A318.75015,318.75015,0,0,1,246.21366,206.50758Z" transform="translate(0 -37.41139)" fill="#d3946a" opacity="0.4" style="mix-blend-mode:multiply"/><path d="M270.05421,176.603c-.02392,7.06334,19.42615,5.58967,19.53835,0C289.70421,171.01273,270.08036,168.77718,270.05421,176.603Z" transform="translate(0 -37.41139)" fill="#ff8a90" opacity="0.3"/><path d="M353.24717,167.81c-1.59078-6.8815-20.18965-1.00368-19.02208,4.46347C335.39329,177.74059,355.00893,175.43477,353.24717,167.81Z" transform="translate(0 -37.41139)" fill="#ff8a90" opacity="0.3"/><path d="M340.62895,169.38765a1.11538,1.11538,0,0,1-1.11533-1.11533,4.97948,4.97948,0,1,0-9.959,0,1.11532,1.11532,0,1,1-2.23064,0,7.21012,7.21012,0,1,1,14.42024,0A1.11537,1.11537,0,0,1,340.62895,169.38765Z" transform="translate(0 -37.41139)" fill="#75593d"/><path d="M284.05515,175.34822a1.11553,1.11553,0,0,1-1.1088-1.00368,7.21091,7.21091,0,1,1,14.34942-1.44318,1.11546,1.11546,0,1,1-2.21972.22329,4.98,4.98,0,0,0-9.90993.9966,1.11556,1.11556,0,0,1-.99827,1.2215C284.12976,175.34655,284.09218,175.34822,284.05515,175.34822Z" transform="translate(0 -37.41139)" fill="#75593d"/><path d="M246.21366,204.27147s-3.10529,1.22206-.13563,4.366c0,0,22.49709,9.81953,67.06594,9.46285s63.02288-9.46285,63.02288-9.46285,2.3559-2.88579,0-5.502c0,0-29.62362,11.81273-63.61869,10.58359A318.7659,318.7659,0,0,1,246.21366,204.27147Z" transform="translate(0 -37.41139)" fill="#44c6cf"/><path d="M364.48534,206.95522a186.8695,186.8695,0,0,1-61.06014,9.77163,175.24112,175.24112,0,0,1-31.74262-2.60317c-9.00323-1.7084-18.15346-4.42315-25.71128-9.73243-.66875.3747-2.33682,1.65938.10673,4.24621,0,0,22.49709,9.81953,67.06594,9.46285s63.02288-9.46285,63.02288-9.46285,2.3559-2.88579,0-5.502C376.16685,203.13545,371.79322,204.87871,364.48534,206.95522Z" transform="translate(0 -37.41139)" fill="#44c6cf" opacity="0.2" style="mix-blend-mode:multiply"/><path d="M348.13073,132.00087s3.50769-8.6277,3.84374-8.7878c.33488-.16038,4.6949,8.64867,4.6949,8.64867A49.73264,49.73264,0,0,1,348.13073,132.00087Z" transform="translate(0 -37.41139)" fill="#de6162" opacity="0.5"/><path d="M256.46884,153.89346l9.53473-5.01567s-7.3787-8.26422-7.82578-8.04963S256.46884,153.89346,256.46884,153.89346Z" transform="translate(0 -37.41139)" fill="#de6162" opacity="0.5"/><path d="M311.09467,175.895c-.1291,1.63434,4.598,1.75195,4.684.18626C315.86474,174.51607,311.20631,174.47849,311.09467,175.895Z" transform="translate(0 -37.41139)" fill="#ea7177" opacity="0.7"/><path d="M308.56065,176.268c.05014.648,1.63925.89365,1.56464,0C310.05123,175.37326,308.48554,175.29808,308.56065,176.268Z" transform="translate(0 -37.41139)" fill="#ea7177" opacity="0.7"/><path d="M310.537,218.0905c-.39918-.4221-.434-2.92282.06971-3.80019.15681-.27281.29623-.58214.46944-.6083l1.94417.05337a.72751.72751,0,0,0-.16284-.51243,2.57121,2.57121,0,0,0-1.94038-.71454,2.02245,2.02245,0,0,0-1.47362,1.1088,6.92632,6.92632,0,0,0-.17756,4.93347,1.34454,1.34454,0,0,0,1.01567.83811,2.26436,2.26436,0,0,0,.89042-.04523l-.18682,4.63724a.71618.71618,0,0,0,.64315.757h.02777a.72491.72491,0,0,0,.66987-.70254l.24068-5.85924-1.21168-.03106A4.8173,4.8173,0,0,1,310.537,218.0905Z" transform="translate(0 -37.41139)" fill="#f90"/><path d="M316.924,229.79922c-.66111-1.70131-1.10116-6.85913-5.25368-6.30581-4.15358.55325-3.32038,4.38668-3.65146,7.41132a13.97372,13.97372,0,0,1-1.49058,3.74677c-.13885.33169,1.77755,1.07288,4.57021,1.14477a1.74732,1.74732,0,0,0,3.4816.0871,1.69426,1.69426,0,0,0,.00323-.35233,16.22457,16.22457,0,0,0,4.65793-1.5842C319.78907,233.66036,317.5742,231.47494,316.924,229.79922Z" transform="translate(0 -37.41139)" fill="#ef8782"/><path d="M316.924,229.79922c-.3066-.78964-.56637-2.32377-1.17087-3.68525a13.85975,13.85975,0,0,1-1.72089,3.47178c-1.655,2.3902-3.82194,4.68676-6.51661,5.673a13.2842,13.2842,0,0,0,3.58286.53753,1.74732,1.74732,0,0,0,3.4816.0871,1.69426,1.69426,0,0,0,.00323-.35233,16.22457,16.22457,0,0,0,4.65793-1.5842C319.78907,233.66036,317.5742,231.47494,316.924,229.79922Z" transform="translate(0 -37.41139)" fill="#ef8782" opacity="0.15" style="mix-blend-mode:multiply"/><path d="M313.43535,224.851c-.66061-.93012-4.67483.51082-3.52683,2.07328S314.63343,226.54092,313.43535,224.851Z" transform="translate(0 -37.41139)" fill="#ffa1a1" opacity="0.5"/><path d="M309.73375,228.02926c-.90787-.104-1.17794,2.61137-.01584,2.54216C310.88008,230.50171,310.64157,228.13382,309.73375,228.02926Z" transform="translate(0 -37.41139)" fill="#ffa1a1" opacity="0.5"/></g><path d="M451.67725,335.97186l-14.67725-91c-123.40918,28.70654-250.666,30.27051-383,0l-9.89111,91Z" transform="translate(0 -37.41139)" fill="#f90"/><path d="M79.249,275.01532a11.9205,11.9205,0,0,0-1.41748-.35791,15.23594,15.23594,0,0,0-1.99365-.22608,19.4782,19.4782,0,0,0-2.49072.02295,4.95434,4.95434,0,0,0-2.2251.646,2.25739,2.25739,0,0,0-1.11816,1.55469,2.18506,2.18506,0,0,0,.85254,2.00048,16.3001,16.3001,0,0,0,2.60986,1.97608q1.5608.97705,3.1084,2.13525a8.06153,8.06153,0,0,1,2.43408,2.98145,6.29782,6.29782,0,0,1,.45068,4.06152q-.77416,3.96534-5.10254,5.99365a16.08136,16.08136,0,0,1-10.10009.90186,22.08958,22.08958,0,0,1-4.25733-1.15674q-.28418-.42261.4707-4.28955a37.596,37.596,0,0,1,1.06495-4.62158q.18677-.33033,1.54248-.59522a6.58063,6.58063,0,0,1,2.53369-.03564q-.90454,4.6333-.11426,5.80566a2.16389,2.16389,0,0,0,1.41553.68408,7.17888,7.17888,0,0,0,4.65283-.55908,4.19255,4.19255,0,0,0,2.51611-2.97314,2.92953,2.92953,0,0,0-.77246-2.51465,12.32911,12.32911,0,0,0-2.63086-2.28613q-1.60546-1.06714-3.17578-2.20948a8.82233,8.82233,0,0,1-2.51172-2.79248,5.04256,5.04256,0,0,1-.56543-3.5747q.55884-2.86524,4.458-4.5708,3.89795-1.70434,10.41553-.43311a3.89082,3.89082,0,0,1,1.68945.53369,2.4754,2.4754,0,0,1-.07226.57666,10.662,10.662,0,0,1-.61573,1.69336A3.99885,3.99885,0,0,1,79.249,275.01532Z" transform="translate(0 -37.41139)" fill="#fff"/><path d="M82.28955,298.01825l3.62891-18.32959a11.55874,11.55874,0,0,0,.34033-3.12793,12.18735,12.18735,0,0,1-.44922-1.62061,5.64118,5.64118,0,0,1-.24219-1.64551q.0271-.15747.86377-.29687a11.203,11.203,0,0,1,3.90039-.13477,6.40438,6.40438,0,0,1,1.69727.39649,6.65549,6.65549,0,0,1-.188,1.55029q-.25048,1.43921-1.47363,7.31592c-.02735.15771-.01514.24121.03808.25049q.07837.01318.22412-.12354,2.7129-2.5327,6.41895-5.40185,3.70459-2.86743,4.35547-2.75537a4.61824,4.61824,0,0,1,1.59961.72461,9.1416,9.1416,0,0,1,1.55371,1.22363q.60351.613.57666.77l-.00684.03955a26.40784,26.40784,0,0,0-3.90088,2.124q-2.19286,1.40625-3.60107,2.50049a6.3003,6.3003,0,0,0-1.44238,1.29248q-.25269,1.45826,1.7373,9.05078,1.99,7.59229,3.67725,10.03711.03149.04614-.22168.2251a4.11994,4.11994,0,0,1-.77881.39258,10.08582,10.08582,0,0,1-1.16357.38672,6.39022,6.39022,0,0,1-3.03956.20312,19.01217,19.01217,0,0,1-2.23242-5.84814q-1.06055-4.18287-1.63525-7.53077a29.974,29.974,0,0,0-.65479-3.36181q-.19774-.03442-1.52539,1.41992a7.24112,7.24112,0,0,0-1.3833,1.76953l-.44482,2.56152a68.90406,68.90406,0,0,0-1.13867,7.9629q.0183.1245-.49512.27929a7.68654,7.68654,0,0,1-3.50586.08155l-1.30566-.42969A6.99748,6.99748,0,0,1,82.28955,298.01825Z" transform="translate(0 -37.41139)" fill="#fff"/><path d="M112.05615,304.97381q-5.89454-.88549-8.21094-4.7124a13.05805,13.05805,0,0,1-1.54443-8.96924,17.86376,17.86376,0,0,1,1.29492-4.57812,14.869,14.869,0,0,1,1.57129-2.91895,3.11514,3.11514,0,0,1,.99365-.96338,8.84635,8.84635,0,0,1,2.519.19678l.75146.11279a7.36048,7.36048,0,0,1,1.28858-3.32519,5.325,5.325,0,0,1,2.32422-1.87549,8.93638,8.93638,0,0,1,4.54736-.65185q10.99658,1.65234,8.9165,15.49707a19.28287,19.28287,0,0,1-2.6167,7.4541,10.83636,10.83636,0,0,1-2.666,2.936,10.18387,10.18387,0,0,1-3.91553,1.69727A14.21456,14.21456,0,0,1,112.05615,304.97381Zm9.39649-13.271q1.39673-9.29517-4.14112-10.12793a3.201,3.201,0,0,0-2.56933.54443,3.28979,3.28979,0,0,0-1.19824,2.186,8.10822,8.10822,0,0,0,.39355,3.43652,14.561,14.561,0,0,0,1.34814,3.27686l.70411,1.23828q-.07179.4746-1.59766.66992a9.18657,9.18657,0,0,1-2.396.06494q-.19848-.03-.69824-.87353a14.19049,14.19049,0,0,1-1.07617-2.52784,12.76308,12.76308,0,0,1-.67041-3.47851,4.95863,4.95863,0,0,0-1.312,2.27051,18.51777,18.51777,0,0,0-.88526,3.46679,8.97529,8.97529,0,0,0,1.00635,5.95557,5.8178,5.8178,0,0,0,4.35352,3.061Q119.91284,301.9477,121.45264,291.70282Z" transform="translate(0 -37.41139)" fill="#fff"/><path d="M141.5542,296.35711l-2.437-.17138q-.15894-.019-.09668-.53516a7.387,7.387,0,0,1,.56689-1.70459,4.18886,4.18886,0,0,1,1.12793-1.67773q.62256-.48926,9.43946.56885,2.26391.27173,2.23974.47021a8.8599,8.8599,0,0,1-.79394,2.42285,9.00741,9.00741,0,0,1-1.1045,1.98242q-1.322,10.67871-1.58789,11.04932a3.104,3.104,0,0,1-1.55664.71973,5.82613,5.82613,0,0,1-2.14453.24609c-.56982-.06836-.84912-.14209-.83984-.22168a9.22209,9.22209,0,0,0,.11133-2.605l-.06983-.08887-.1289.06494a8.33005,8.33005,0,0,1-6.397,1.60889q-5.16357-.61962-7.36426-4.26758a13.706,13.706,0,0,1-1.56689-8.93017,19.54078,19.54078,0,0,1,2.59619-7.86719,14.03377,14.03377,0,0,1,3.11279-3.61475,12.40242,12.40242,0,0,1,4.78174-2.24609,18.0817,18.0817,0,0,1,6.70606-.32324,18.46149,18.46149,0,0,1,2.27978.4751,5.52114,5.52114,0,0,1,1.53076.50585,2.03788,2.03788,0,0,1-.00585.88575,14.819,14.819,0,0,1-.44629,2.0415,3.61977,3.61977,0,0,1-.62256,1.49609,9.89681,9.89681,0,0,0-4.09424-1.13574,8.58838,8.58838,0,0,0-7.05029,2.01416q-2.84034,2.52027-3.49317,7.96045a9.8723,9.8723,0,0,0,.75781,5.77149,4.6079,4.6079,0,0,0,3.75831,2.58642,6.60629,6.60629,0,0,0,4.34277-.76806q1.76075-1.0774,1.86572-1.95166l.15235-1.271a7.03235,7.03235,0,0,0,.08105-2.68945Q144.96948,296.76751,141.5542,296.35711Z" transform="translate(0 -37.41139)" fill="#fff"/><path d="M164.5376,301.03778a18.125,18.125,0,0,0-3.36084-.13818,57.52062,57.52062,0,0,0-3.28076,9.78759,4.60316,4.60316,0,0,1-.98-.04736,20.27217,20.27217,0,0,1-2.57032-.44971q-1.59375-.36255-1.57275-.60156.1421-1.593,3.65527-9.03174a5.98337,5.98337,0,0,1-1.03369-1.91894,5.477,5.477,0,0,1-.47363-2.35108q.00366-.03954,3.32129.13477,4.11034-9.19116,4.59521-9.67041a6.35753,6.35753,0,0,1,1.46826-.251,11.34524,11.34524,0,0,1,1.65625-.11377l-.0332-.5249q-.03077-.5647-.07129-1.231a7.57613,7.57613,0,0,1-.02344-.86572c.00733-.07959.24659-.21875.72022-.418a9.08059,9.08059,0,0,1,4.10889-.59766l.47412,5.50342q.47388,5.50416,1.67285,12.55811A41.4925,41.4925,0,0,0,175.5,310.96893a4.55728,4.55728,0,0,1,.23633.50293q-.01758.19921-.8169.60986a10.2105,10.2105,0,0,1-2.07373.73926,6.86741,6.86741,0,0,1-2.31006.23584q-.35888-.03149-1.33056-4.67627-.97266-4.64355-1.24463-6.99756Q167.40527,301.29364,164.5376,301.03778Zm1.78955-11.085c-.05322-.0044-.124.043-.21338.1416q-.41895.646-1.62549,3.14844-1.207,2.50341-1.57422,3.47412,4.42309.39332,4.45557.47705-.84449-5.8579-.97315-7.11426Zm2.22705-13.73633a2.54206,2.54206,0,0,0-1.94531.6499,2.70807,2.70807,0,0,0-.97071,1.88135,2.48,2.48,0,0,0,.57227,1.91846,2.51092,2.51092,0,0,0,1.749.87841,2.8042,2.8042,0,0,0,2.9502-2.46826,2.57409,2.57409,0,0,0-.5918-1.91992A2.474,2.474,0,0,0,168.5542,276.21649Zm.44482,3.57324a1.15135,1.15135,0,0,1-.86865.28418,1.08275,1.08275,0,0,1-.76855-.38965,1.10983,1.10983,0,0,1-.2461-.84521,1.17615,1.17615,0,0,1,.43506-.82471,1.12831,1.12831,0,0,1,.84863-.28564,1.09683,1.09683,0,0,1,.76661.40918,1.121,1.121,0,0,1,.26611.84716A1.151,1.151,0,0,1,168.999,279.78973Z" transform="translate(0 -37.41139)" fill="#fff"/><path d="M194.73389,289.32342a11.9521,11.9521,0,0,0-1.45264-.167,15.34742,15.34742,0,0,0-2.00635.04053,19.52379,19.52379,0,0,0-2.46533.35351,4.95882,4.95882,0,0,0-2.11963.93555,2.25734,2.25734,0,0,0-.90234,1.689,2.18536,2.18536,0,0,0,1.11084,1.86962,16.31052,16.31052,0,0,0,2.84863,1.6128q1.67724.76171,3.36475,1.70361a8.06476,8.06476,0,0,1,2.8081,2.63233,6.2975,6.2975,0,0,1,.98487,3.96582q-.24024,4.03344-4.26172,6.61767a16.08108,16.08108,0,0,1-9.89112,2.23389,22.08666,22.08666,0,0,1-4.373-.58154q-.33765-.38087-.103-4.314a37.706,37.706,0,0,1,.44238-4.72217q.14136-.35156,1.4502-.79492a6.581,6.581,0,0,1,2.50634-.37109q-.28125,4.71167.65723,5.76953a2.16413,2.16413,0,0,0,1.49365.48974,7.17335,7.17335,0,0,0,4.5376-1.17138,4.19409,4.19409,0,0,0,2.09961-3.28076,2.92917,2.92917,0,0,0-1.09961-2.38965,12.34154,12.34154,0,0,0-2.91113-1.917q-1.7329-.84447-3.44043-1.76855a8.81742,8.81742,0,0,1-2.85986-2.43457,5.042,5.042,0,0,1-1.03516-3.46777q.17432-2.9143,3.812-5.12207,3.63794-2.2068,10.2666-1.811a3.88307,3.88307,0,0,1,1.74463.30469,2.45863,2.45863,0,0,1,.00537.58105,10.64854,10.64854,0,0,1-.38574,1.76026A4.00518,4.00518,0,0,1,194.73389,289.32342Z" transform="translate(0 -37.41139)" fill="#fff"/><path d="M215.47461,297.26092l5.31982.06055a20.62579,20.62579,0,0,1,2.958.13574q.09888-5.23828.3042-7.63525.20508-2.39722.207-2.47656.00147-.07984.5874-.38916a8.13393,8.13393,0,0,1,1.63135-.58936,6.58743,6.58743,0,0,1,1.78565-.26611c.49267.00927.73877.06787.73681.17383q-.55224,5.87035-.67724,12.52929a88.56625,88.56625,0,0,0,.21289,9.90576,7.77429,7.77429,0,0,0,1.67285,4.63282q-.00147.07909-.3877.39257a6.1281,6.1281,0,0,1-1.814.72608,9.03106,9.03106,0,0,1-2.668.38965l-.478-.08936a5.6304,5.6304,0,0,1-1.00049-3.15918q-.25562-2.38476-.15087-10.0249-.67969-.052-4.33838-.12207a30.96267,30.96267,0,0,0-4.02149.04394q-.06151,1.11989-.1333,4.93848a52.68667,52.68667,0,0,0,.19922,6.38477q-.00806.44018-1.29395.71582a10.46485,10.46485,0,0,1-2.38476.25488,2.29344,2.29344,0,0,1-1.31592-.24463q-.21606-.22485-.08105-7.34326l.08935-4.71875a6.74033,6.74033,0,0,1-1.165-1.86279,5.30968,5.30968,0,0,1-.63769-2.25245,6.13192,6.13192,0,0,1,1.96191-.08251q.093-2.83887.16309-6.51807l.01611-.83984a7.92911,7.92911,0,0,1-.96826-3.81934.3165.3165,0,0,1,.04394-.19922,2.78012,2.78012,0,0,1,.44043-.03174q.2.00439.89991.01709a10.76089,10.76089,0,0,1,1.97509.29737,11.18437,11.18437,0,0,1,2.02832.61865q.75368.33471.75.53418a87.16966,87.16966,0,0,0-.45214,9.11328Z" transform="translate(0 -37.41139)" fill="#fff"/><path d="M237.61084,288.20379l-.21338,11.00245q.10107,10.40039,4.50049,10.35693a4.36147,4.36147,0,0,0,2.23486-.56152,4.822,4.822,0,0,0,1.66065-1.99659q1.533-2.814,1.45508-10.83447a81.7736,81.7736,0,0,0-.54346-10.69531,2.72,2.72,0,0,1,1.11816-.21045q2.99927-.0293,4.00977,1.001a94.98764,94.98764,0,0,1,.47021,11.396q.09522,9.80053-3.10937,13.47071a9.03483,9.03483,0,0,1-3.43555,2.55322,11.85919,11.85919,0,0,1-4.293.76172q-4.76.04614-6.95459-3.55274-2.19507-3.59838-2.28125-12.47851-.03222-3.35963.04932-5.24073a17.53849,17.53849,0,0,0,.0415-1.92041,9.40629,9.40629,0,0,1-.59472-1.51416,5.97892,5.97892,0,0,1-.355-1.55664q-.00147-.15966.75537-.4873a10.12062,10.12062,0,0,1,3.63232-.79541,8.132,8.132,0,0,1,1.76074.063A4.23869,4.23869,0,0,1,237.61084,288.20379Z" transform="translate(0 -37.41139)" fill="#fff"/><path d="M258.605,314.03924a4.07293,4.07293,0,0,1-1.44824-.18359l-.04688-1.19922q-.23877-6.115-.29394-17.76221l.00879-3.8833a7.79833,7.79833,0,0,1-1.103-2.09814,8.56161,8.56161,0,0,1-.56982-1.7793.6781.6781,0,0,1,.06347-.42285,11.65363,11.65363,0,0,1,2.00977-.29883q1.93286-.21533,3.9917-.2959a6.39307,6.39307,0,0,1,2.30615.11036q7.69263,15.5515,7.84521,15.86572c.10157.21.17872.313.23243.311l.14892-.28613-.04394-1.11914q-.13257-3.397-.55078-8.46484a61.08686,61.08686,0,0,0-.70655-6.29737,4.92625,4.92625,0,0,1,2.02344-.97949,11.17887,11.17887,0,0,1,2.70312-.48584q1.21875-.04761,1.22706.15186a7.66315,7.66315,0,0,1-.20655,1.88964q-.238,1.08986-.23584,1.13038a40.26326,40.26326,0,0,0-.06054,5.62646q.14941,3.81738.23486,5.49512.085,1.678.16553,3.21582.07983,1.53809.17871,3.03515.09741,1.49781.147,2.73633.18237,2.63526.22363,3.67432l.06153.5581c.00341.07959-.16651.19288-.50684.33985a11.30935,11.30935,0,0,1-4.17187.80371l-1.48536-.10205q-1.77538-4.45386-5.12158-11.209-3.34644-6.75366-3.727-7.27978-.38013-.52589-.46045-.52246l-.10888.28467a43.87112,43.87112,0,0,0,.02832,4.82226q.14428,3.69728.49414,8.04688a44.92342,44.92342,0,0,0,.63379,5.45947Q261.44287,313.92816,258.605,314.03924Z" transform="translate(0 -37.41139)" fill="#fff"/><path d="M282.47949,305.72088l-.94189-15.772a14.99333,14.99333,0,0,1-1.28028-2.33935,9.93059,9.93059,0,0,1-.81787-2.02979.88985.88985,0,0,1,.01416-.38183q.37207-.42481,4.68262-.71631,8.30053-.55884,13.06445,2.60791a11.14656,11.14656,0,0,1,5.15625,8.99414,14.8017,14.8017,0,0,1-.562,5.34961,12.397,12.397,0,0,1-2.18017,4.23632,19.00851,19.00851,0,0,1-3.23584,3.14454,17.32678,17.32678,0,0,1-3.87793,2.2456,24.57937,24.57937,0,0,1-7.45166,1.86475,3.69726,3.69726,0,0,1-1.85157-.11573Q282.94214,312.58539,282.47949,305.72088Zm12.3208-1.5913a9.31406,9.31406,0,0,0,1.74463-3.26465,11.15322,11.15322,0,0,0,.51465-4.26416,8.383,8.383,0,0,0-1.05469-3.75782,6.80594,6.80594,0,0,0-2.03711-2.26806,9.62242,9.62242,0,0,0-2.56445-1.17041,11.8791,11.8791,0,0,0-4.16455-.52149c-.34619.02344-.51758.04883-.51611.0752q-.26075.2981.355,9.4375.616,9.13915.91406,9.3999a1.12223,1.12223,0,0,0,.584.04053,6.4071,6.4071,0,0,0,1.49756-.38135,10.93278,10.93278,0,0,0,2.32324-1.21875A11.78192,11.78192,0,0,0,294.80029,304.12958Z" transform="translate(0 -37.41139)" fill="#fff"/><path d="M331.69385,294.64178l-.09668-.55322a6.592,6.592,0,0,1,2.22705.15576,7.04942,7.04942,0,0,1,1.667.57422l.59326.30127a12.424,12.424,0,0,1-2.51172,9.30176,13.40768,13.40768,0,0,0,2.77832,2.41162.11693.11693,0,0,1,.04786.07519q.041.39844-1.44,1.45362a5.76223,5.76223,0,0,1-2.63525,1.17236q-1.51466-1.45459-2.14893-2.15332a11.14712,11.14712,0,0,1-5.501,2.04688,10.42075,10.42075,0,0,1-6.938-1.40528,7.47463,7.47463,0,0,1-3.21191-5.88476q-.6189-6.08863,4.97119-9.63282a13.81217,13.81217,0,0,1-1.54834-4.54638,4.87136,4.87136,0,0,1,1.90478-4.59668,9.92044,9.92044,0,0,1,5.26026-2.04248,7.394,7.394,0,0,1,2.21728.05566,6.84308,6.84308,0,0,1,.9126,3.04346,2.44459,2.44459,0,0,1,.01269.52148,15.83845,15.83845,0,0,0-2.24462.06739,4.70526,4.70526,0,0,0-2.168.82373,2.34481,2.34481,0,0,0-.8833,2.38134q.16992,1.67139,2.73242,5.91407a52.39419,52.39419,0,0,0,4.979,7.05224,7.43772,7.43772,0,0,0,.95215-3.09228A16.00362,16.00362,0,0,0,331.69385,294.64178Zm-12.5542,6.62451a4.81512,4.81512,0,0,0,1.50781,3.16358,4.31129,4.31129,0,0,0,3.53809.98682,6.45015,6.45015,0,0,0,3.34521-1.104,64.9786,64.9786,0,0,1-5.729-8.10205,4.65185,4.65185,0,0,0-1.91944,1.68311A5.0084,5.0084,0,0,0,319.13965,301.26629Z" transform="translate(0 -37.41139)" fill="#fff"/><path d="M349.92871,304.81708l-1.981-18.57959a11.564,11.564,0,0,0-.605-3.08789,12.31034,12.31034,0,0,1-.91064-1.41407,5.6133,5.6133,0,0,1-.71973-1.49951q-.02124-.15747.73633-.53955a11.18978,11.18978,0,0,1,3.68408-1.2876,6.39984,6.39984,0,0,1,1.73828-.126,6.64663,6.64663,0,0,1,.28125,1.53613q.189,1.44873.76709,7.42334c.021.15869.05713.23437.11036.22754.05273-.00684.1123-.06787.17773-.18457q1.83765-3.22413,4.52393-7.06446,2.685-3.83936,3.33984-3.92529a4.61355,4.61355,0,0,1,1.74267.21631,9.15388,9.15388,0,0,1,1.84717.70654q.75805.4065.7793.564l.00537.03955a26.44894,26.44894,0,0,0-3.09375,3.1875q-1.67578,1.99438-2.69482,3.45752a6.29235,6.29235,0,0,0-.99366,1.6626q.19189,1.46777,4.34815,8.126,4.15648,6.65772,6.49365,8.49072c.0293.02344-.01855.11719-.145.28125a4.11658,4.11658,0,0,1-.62646.606,10.16876,10.16876,0,0,1-.9961.71533,6.38224,6.38224,0,0,1-2.84179,1.09668,19.00018,19.00018,0,0,1-3.86963-4.92041q-2.25513-3.67894-3.79932-6.70459a29.85918,29.85918,0,0,0-1.624-3.01562q-.19849.02637-1.03467,1.80908a7.24845,7.24845,0,0,0-.79492,2.10059l.33691,2.57812a68.82531,68.82531,0,0,0,1.27832,7.94141q.05419.11426-.38965.41406a7.68621,7.68621,0,0,1-3.32324,1.11963l-1.37451-.02246A6.98477,6.98477,0,0,1,349.92871,304.81708Z" transform="translate(0 -37.41139)" fill="#fff"/><path d="M384.46045,291.801q-.56031.04322-3.40869.4668a18.15169,18.15169,0,0,0-3.29981.65332,57.60613,57.60613,0,0,0-.895,10.28418,4.59841,4.59841,0,0,1-.96338.18359,17.52315,17.52315,0,0,1-2.01562.1792q-2.22363.0066-2.2583-.23-.23584-1.582,1.436-9.63672a5.98843,5.98843,0,0,1-1.45507-1.62353,5.48137,5.48137,0,0,1-1.01123-2.17481q-.00587-.03882,3.26025-.647,1.842-9.89868,2.20068-10.47852a6.3651,6.3651,0,0,1,1.36866-.58789,11.34265,11.34265,0,0,1,1.58349-.499l-.15576-.50244q-.16187-.54126-.35742-1.18018a7.44289,7.44289,0,0,1-.22559-.83593q-.01758-.11867.60205-.57471a9.07392,9.07392,0,0,1,3.85449-1.54443q.74268,2.27564,1.93506,5.79785,1.19166,3.52295,4.19825,10.67822,3.00658,7.15576,5.18359,9.82373l.34766.43359q.02929.19776-.65186.78467a10.20889,10.20889,0,0,1-1.84277,1.20459,6.86985,6.86985,0,0,1-2.18994.771q-.3567.05273-2.38965-4.23438Q385.27661,294.02532,384.46045,291.801Zm-1.55664-3.93359q-2.1936-5.49683-2.41211-6.15186-.219-.65478-.29785-.64306c-.05322.00781-.11084.0708-.17432.1875q-.25635.72656-.84228,3.44189-.58742,2.71656-.71631,3.7461Q382.85254,287.79388,382.90381,287.86737Z" transform="translate(0 -37.41139)" fill="#fff"/><path d="M397.88721,295.54217l-2.37793-16.47168a9.67985,9.67985,0,0,0-.44043-2.09668,1.216,1.216,0,0,0-.66748.00684,41.49708,41.49708,0,0,0-4.27979,1.09668l-1.04053.33057-.28466-1.00782a8.20206,8.20206,0,0,1,.09619-3.41894l.16015-.51221q3.074-.53687,6.92823-1.38281,3.854-.84522,6.99365-1.35352a12.02755,12.02755,0,0,1,3.16455-.34912,23.22684,23.22684,0,0,1,.24609,2.77637,4.303,4.303,0,0,1-.17041,1.95215,18.90051,18.90051,0,0,0-3.38867.34521,11.80882,11.80882,0,0,0-2.54736.53321q-.23219.32153,1.38916,10.35058,1.62085,10.03051,3.15674,12.01026l.00634.03955q.05714.35521-1.43164.92041a13.09363,13.09363,0,0,1-2.39746.71142,5.10613,5.10613,0,0,1-2.11035-.02344Q398.56348,299.72748,397.88721,295.54217Z" transform="translate(0 -37.41139)" fill="#fff"/><path d="M417.03857,292.36688,414.47119,275.924a9.66779,9.66779,0,0,0-.46435-2.0918,1.2165,1.2165,0,0,0-.66748.01465,41.46515,41.46515,0,0,0-4.26661,1.14551l-1.03711.34228-.29589-1.0039a8.20092,8.20092,0,0,1,.05664-3.41992l.15429-.51416q3.0674-.572,6.91162-1.46241,3.84449-.88915,6.978-1.43359a12.03217,12.03217,0,0,1,3.16065-.38574,23.2816,23.2816,0,0,1,.27783,2.77343,4.29774,4.29774,0,0,1-.14844,1.95411,18.9683,18.9683,0,0,0-3.38428.38379,11.84455,11.84455,0,0,0-2.541.5625q-.22853.32445,1.50781,10.33447,1.73658,10.01074,3.29443,11.97314l.00684.03955q.06153.35449-1.4209.93653a13.06055,13.06055,0,0,1-2.38867.73877,5.1127,5.1127,0,0,1-2.11084.001Q417.7627,296.54413,417.03857,292.36688Z" transform="translate(0 -37.41139)" fill="#fff"/></g></g></g></svg>