<svg xmlns="http://www.w3.org/2000/svg" viewBox="0 0 748.37438 557.16583"><title>shk-bg</title><g id="78a1873d-defa-452e-ada4-6988f8573c08" data-name="Layer 2"><g id="e7cc20ba-a313-403c-83cd-1b669aff5030" data-name="Layer 1"><g id="4671a05c-cfa2-4137-8508-751f964a4db2" data-name="huellas"><path d="M266.359,276.41277a16.09121,16.09121,0,0,1,2.21223-6.12715c6.15091-9.87614,19.083-9.63916,25.8157-.72043a16.56736,16.56736,0,0,1,3.35628,8.23786,11.1622,11.1622,0,0,1-2.42324,8.48831,5.1828,5.1828,0,0,1-7.09313.8158,9.64152,9.64152,0,0,1-2.26213-2.74173,5.15571,5.15571,0,0,0-2.33309-2.6721,3.75969,3.75969,0,0,0-1.61779-.25229,4.49131,4.49131,0,0,0-3.95059,2.47224c-.6516,1.26518-1.33422,2.698-2.71486,3.296a4.56777,4.56777,0,0,1-2.96381.13037C267.25357,286.02742,265.6745,281.18718,266.359,276.41277Z" transform="translate(0)" fill="#e2f6f7"/><path d="M273.4948,251.14433c-4.33311,1.60793-5.2387,7.95672-.61653,9.83142a5.22884,5.22884,0,0,0,6.62965-7.20864A5.15313,5.15313,0,0,0,273.4948,251.14433Z" transform="translate(0)" fill="#e2f6f7"/><path d="M287.274,251.14433c-4.3331,1.60793-5.2387,7.95672-.61652,9.83142a5.22887,5.22887,0,0,0,6.62969-7.20864A5.15322,5.15322,0,0,0,287.274,251.14433Z" transform="translate(0)" fill="#e2f6f7"/><path d="M298.69192,260.07381c-3.62652.80174-4.70314,5.64716-2.01939,8.14467a5.15023,5.15023,0,0,0,7.25278-.56346C306.96231,263.79205,303.08233,259.10324,298.69192,260.07381Z" transform="translate(0)" fill="#e2f6f7"/><path d="M262.52428,260.07381c-3.62657.80174-4.70317,5.64716-2.01939,8.14467a5.15017,5.15017,0,0,0,7.25273-.56346C270.79467,263.79205,266.91465,259.10324,262.52428,260.07381Z" transform="translate(0)" fill="#e2f6f7"/><path d="M17.51915,232.61518a16.09247,16.09247,0,0,1,.482-6.49647c3.26662-11.16693,15.78554-14.41838,24.66973-7.64016A16.56673,16.56673,0,0,1,48.12,225.50947a11.16227,11.16227,0,0,1-.0499,8.82728,5.18285,5.18285,0,0,1-6.612,2.69433,9.64259,9.64259,0,0,1-2.91642-2.032,5.15592,5.15592,0,0,0-2.966-1.94579,3.76048,3.76048,0,0,0-1.62606.19231A4.49126,4.49126,0,0,0,30.81,236.68975c-.28719,1.39384-.55908,2.95751-1.7279,3.90488a4.56774,4.56774,0,0,1-2.81943.92308C20.96782,241.63451,18.1446,237.39763,17.51915,232.61518Z" transform="translate(0)" fill="#e2f6f7"/><path d="M17.5927,206.35858c-3.74068,2.71459-2.90454,9.07284,2.05161,9.63474a5.22886,5.22886,0,0,0,4.44549-8.72665A5.15311,5.15311,0,0,0,17.5927,206.35858Z" transform="translate(0)" fill="#e2f6f7"/><path d="M30.86368,202.65092c-3.74064,2.71459-2.90453,9.07289,2.05161,9.63474a5.22886,5.22886,0,0,0,4.44549-8.72665A5.1531,5.1531,0,0,0,30.86368,202.65092Z" transform="translate(0)" fill="#e2f6f7"/><path d="M44.26325,208.17883c-3.27707,1.748-3.01022,6.7044.24658,8.38763a5.15024,5.15024,0,0,0,6.83369-2.49425C53.22906,209.53456,48.23052,206.06268,44.26325,208.17883Z" transform="translate(0)" fill="#e2f6f7"/><path d="M9.42947,217.91063c-3.27706,1.748-3.01018,6.7044.24663,8.38768a5.15024,5.15024,0,0,0,6.83365-2.49425C18.39533,219.26636,13.39679,215.79453,9.42947,217.91063Z" transform="translate(0)" fill="#e2f6f7"/><path d="M114.23447,343.80311a16.09172,16.09172,0,0,1,3.77938-5.30591c8.5815-7.8568,20.97282-4.14878,25.05734,6.2527a16.56706,16.56706,0,0,1,1.01587,8.8371,11.16232,11.16232,0,0,1-4.61794,7.52319,5.18282,5.18282,0,0,1-7.051-1.1229,9.64152,9.64152,0,0,1-1.44089-3.24935,5.15607,5.15607,0,0,0-1.52805-3.20133,3.76125,3.76125,0,0,0-1.49025-.67833,4.49129,4.49129,0,0,0-4.47007,1.31806c-.96808,1.04319-2.011,2.2395-3.50165,2.44391a4.56773,4.56773,0,0,1-2.88958-.67195C112.50893,353.30382,112.29055,348.21718,114.23447,343.80311Z" transform="translate(0)" fill="#e2f6f7"/><path d="M127.90636,321.38672c-4.606.38266-7.18649,6.25359-3.23926,9.30291a5.22887,5.22887,0,0,0,8.32488-5.15881A5.15317,5.15317,0,0,0,127.90636,321.38672Z" transform="translate(0)" fill="#e2f6f7"/><path d="M141.17735,325.09447c-4.606.38266-7.1865,6.25359-3.23927,9.3029a5.22887,5.22887,0,0,0,8.32488-5.15885A5.15308,5.15308,0,0,0,141.17735,325.09447Z" transform="translate(0)" fill="#e2f6f7"/><path d="M149.77139,336.767c-3.7085-.20369-6.04923,4.17333-4.13651,7.30089a5.15029,5.15029,0,0,0,7.13692,1.40889C156.73626,342.57346,154.261,337.01356,149.77139,336.767Z" transform="translate(0)" fill="#e2f6f7"/><path d="M114.93771,327.0349c-3.70856-.20365-6.04928,4.17333-4.13651,7.30089a5.15025,5.15025,0,0,0,7.13691,1.40888C121.90252,332.84139,119.42733,327.28148,114.93771,327.0349Z" transform="translate(0)" fill="#e2f6f7"/><path d="M583.2338,244.279a16.09132,16.09132,0,0,1,2.21223-6.12716c6.1509-9.87614,19.083-9.63915,25.8157-.72042a16.56736,16.56736,0,0,1,3.35628,8.23785,11.16225,11.16225,0,0,1-2.42324,8.48832,5.1828,5.1828,0,0,1-7.09313.8158,9.64152,9.64152,0,0,1-2.26213-2.74173,5.15571,5.15571,0,0,0-2.33309-2.6721,3.75987,3.75987,0,0,0-1.6178-.2523,4.49133,4.49133,0,0,0-3.95058,2.47225c-.6516,1.26518-1.33422,2.698-2.71486,3.296a4.56777,4.56777,0,0,1-2.96381.13037C584.12837,253.89364,582.5493,249.0534,583.2338,244.279Z" transform="translate(0)" fill="#e2f6f7"/><path d="M590.3696,219.01054c-4.33311,1.60794-5.2387,7.95673-.61653,9.83142a5.22883,5.22883,0,0,0,6.62965-7.20863A5.15315,5.15315,0,0,0,590.3696,219.01054Z" transform="translate(0)" fill="#e2f6f7"/><path d="M604.14878,219.01054c-4.3331,1.60794-5.2387,7.95673-.61652,9.83142a5.22886,5.22886,0,0,0,6.62969-7.20863A5.15324,5.15324,0,0,0,604.14878,219.01054Z" transform="translate(0)" fill="#e2f6f7"/><path d="M615.56672,227.94c-3.62652.80174-4.70314,5.64716-2.01939,8.14466a5.15023,5.15023,0,0,0,7.25278-.56345C623.83711,231.65827,619.95713,226.96946,615.56672,227.94Z" transform="translate(0)" fill="#e2f6f7"/><path d="M579.39908,227.94c-3.62657.80174-4.70318,5.64716-2.01939,8.14466a5.15017,5.15017,0,0,0,7.25273-.56345C587.66946,231.65827,583.78944,226.96946,579.39908,227.94Z" transform="translate(0)" fill="#e2f6f7"/><path d="M388.097,222.16555a16.09171,16.09171,0,0,1,4.38323-4.81909c9.45451-6.78112,21.31728-1.62659,24.13657,9.1866a16.56668,16.56668,0,0,1-.04173,8.89521,11.16211,11.16211,0,0,1-5.47934,6.921,5.1828,5.1828,0,0,1-6.86757-1.953,9.64153,9.64153,0,0,1-1.04453-3.39757,5.15608,5.15608,0,0,0-1.13669-3.3603,3.76047,3.76047,0,0,0-1.39906-.85061,4.49126,4.49126,0,0,0-4.59509.77742c-1.08514.92068-2.26293,1.98457-3.76728,2.01037a4.56794,4.56794,0,0,1-2.78922-1.01065C385.25443,231.39383,385.64218,226.31732,388.097,222.16555Z" transform="translate(0)" fill="#e2f6f7"/><path d="M404.33633,201.53307c-4.61883-.1675-7.87884,5.35509-4.322,8.852a5.22887,5.22887,0,0,0,8.879-4.1328A5.15317,5.15317,0,0,0,404.33633,201.53307Z" transform="translate(0)" fill="#e2f6f7"/><path d="M417.07256,206.79185c-4.61883-.1675-7.87885,5.35514-4.322,8.852a5.22885,5.22885,0,0,0,8.879-4.13277A5.15319,5.15319,0,0,0,417.07256,206.79185Z" transform="translate(0)" fill="#e2f6f7"/><path d="M424.21831,219.40311c-3.658-.643-6.50241,3.42475-4.97494,6.75747a5.15027,5.15027,0,0,0,6.91885,2.24718C430.44365,225.99625,428.64679,220.18155,424.21831,219.40311Z" transform="translate(0)" fill="#e2f6f7"/><path d="M390.78828,205.59978c-3.658-.643-6.50241,3.42479-4.97494,6.75751a5.15016,5.15016,0,0,0,6.91881,2.24713C397.01358,212.193,395.21677,206.37826,390.78828,205.59978Z" transform="translate(0)" fill="#e2f6f7"/><path d="M493.78112,353.73236A16.09188,16.09188,0,0,1,493.48,347.225c1.9029-11.47823,13.94115-16.20855,23.57459-10.54546a16.56693,16.56693,0,0,1,6.25346,6.32621,11.16213,11.16213,0,0,1,1.0098,8.76944,5.18282,5.18282,0,0,1-6.24087,3.46835,9.6422,9.6422,0,0,1-3.1392-1.6673,5.15593,5.15593,0,0,0-3.17812-1.57576,3.76045,3.76045,0,0,0-1.59125.38606,4.49126,4.49126,0,0,0-2.70361,3.796c-.11782,1.41821-.20008,3.00321-1.24679,4.084a4.5676,4.5676,0,0,1-2.68826,1.25478C498.28725,362.27267,494.976,358.40524,493.78112,353.73236Z" transform="translate(0)" fill="#e2f6f7"/><path d="M490.70315,327.65669c-3.38784,3.14384-1.79472,9.35588,3.193,9.31889a5.22884,5.22884,0,0,0,3.36611-9.197A5.15314,5.15314,0,0,0,490.70315,327.65669Z" transform="translate(0)" fill="#e2f6f7"/><path d="M503.43334,322.38327c-3.38788,3.14384-1.79476,9.35584,3.193,9.31888a5.22888,5.22888,0,0,0,3.36614-9.19709A5.15314,5.15314,0,0,0,503.43334,322.38327Z" transform="translate(0)" fill="#e2f6f7"/><path d="M517.3994,326.26315c-3.0436,2.12864-2.18385,7.01722,1.25143,8.29748a5.15018,5.15018,0,0,0,6.48491-3.29634C526.46318,326.53312,521.08412,323.68625,517.3994,326.26315Z" transform="translate(0)" fill="#e2f6f7"/><path d="M483.98527,340.10491c-3.04361,2.1286-2.1839,7.01717,1.25138,8.29744a5.15023,5.15023,0,0,0,6.485-3.2963C493.049,340.37488,487.66994,337.528,483.98527,340.10491Z" transform="translate(0)" fill="#e2f6f7"/><path d="M259.22316,133.892a16.09183,16.09183,0,0,1,.07645-6.51383c2.56477-11.34871,14.85687-15.37356,24.146-9.16183a16.56692,16.56692,0,0,1,5.87643,6.67789,11.16242,11.16242,0,0,1,.5,8.81327,5.18277,5.18277,0,0,1-6.43134,3.10087,9.64133,9.64133,0,0,1-3.03732-1.84636,5.156,5.156,0,0,0-3.08149-1.75727,3.76088,3.76088,0,0,0-1.61094.29322,4.49118,4.49118,0,0,0-2.919,3.63295c-.19981,1.409-.37378,2.98657-1.48132,4.00494a4.5679,4.5679,0,0,1-2.7565,1.09688C263.22685,142.67907,260.14522,138.62624,259.22316,133.892Z" transform="translate(0)" fill="#e2f6f7"/><path d="M257.66123,107.68181c-3.56435,2.94229-2.33385,9.23614,2.64769,9.48826a5.2289,5.2289,0,0,0,3.89337-8.98662A5.15316,5.15316,0,0,0,257.66123,107.68181Z" transform="translate(0)" fill="#e2f6f7"/><path d="M270.67555,103.15483c-3.56431,2.94229-2.33381,9.23614,2.64769,9.48825a5.22884,5.22884,0,0,0,3.89336-8.98656A5.15313,5.15313,0,0,0,270.67555,103.15483Z" transform="translate(0)" fill="#e2f6f7"/><path d="M284.39337,107.83743c-3.16183,1.94869-2.58682,6.87886.76853,8.356a5.15019,5.15019,0,0,0,6.665-2.915C293.42626,108.63212,288.22117,105.47832,284.39337,107.83743Z" transform="translate(0)" fill="#e2f6f7"/><path d="M250.23333,119.71984c-3.16183,1.94869-2.58677,6.87886.76853,8.356a5.15018,5.15018,0,0,0,6.665-2.915C259.26623,120.51457,254.06113,117.36077,250.23333,119.71984Z" transform="translate(0)" fill="#e2f6f7"/><path d="M13.71228,35.0446a16.09193,16.09193,0,0,1,4.89259-4.301c10.15084-5.68616,21.36584.75724,22.96351,11.81716A16.5667,16.5667,0,0,1,40.53644,51.396a11.16242,11.16242,0,0,1-6.216,6.26783,5.18286,5.18286,0,0,1-6.60742-2.70557,9.642,9.642,0,0,1-.65968-3.49277,5.156,5.156,0,0,0-.75546-3.46594,3.7605,3.7605,0,0,0-1.29566-1.00114,4.49129,4.49129,0,0,0-4.653.2609c-1.181.79416-2.46988,1.72028-3.96771,1.5784a4.56792,4.56792,0,0,1-2.65939-1.31494C9.85984,43.899,10.81046,38.89721,13.71228,35.0446Z" transform="translate(0)" fill="#e2f6f7"/><path d="M32.1481,16.34872c-4.57143-.68075-8.42615,4.4445-5.28079,8.31569a5.22889,5.22889,0,0,0,9.284-3.11841A5.15319,5.15319,0,0,0,32.1481,16.34872Z" transform="translate(0)" fill="#e2f6f7"/><path d="M44.21956,22.99305c-4.57144-.68079-8.42615,4.4445-5.28083,8.31564a5.22885,5.22885,0,0,0,9.284-3.1184A5.15311,5.15311,0,0,0,44.21956,22.99305Z" transform="translate(0)" fill="#e2f6f7"/><path d="M49.91656,36.32155c-3.56368-1.04634-6.84329,2.67941-5.69642,6.16148a5.15019,5.15019,0,0,0,6.62558,3.00362C55.369,43.56688,54.23084,37.5883,49.91656,36.32155Z" transform="translate(0)" fill="#e2f6f7"/><path d="M18.23145,18.88157c-3.56368-1.04635-6.84329,2.67943-5.69643,6.16148a5.1502,5.1502,0,0,0,6.62559,3.00361C23.68393,26.12694,22.54572,20.14832,18.23145,18.88157Z" transform="translate(0)" fill="#e2f6f7"/><path d="M114.20537,158.37414a16.09222,16.09222,0,0,1,3.84592-5.25789c8.67983-7.748,21.02344-3.88417,24.97661,6.56792a16.56729,16.56729,0,0,1,.90443,8.84925,11.16248,11.16248,0,0,1-4.71238,7.46441,5.18285,5.18285,0,0,1-7.03631-1.21167,9.64223,9.64223,0,0,1-1.39987-3.26725,5.15589,5.15589,0,0,0-1.48758-3.22034,3.76053,3.76053,0,0,0-1.48159-.697,4.49119,4.49119,0,0,0-4.48631,1.26165c-.98111,1.03087-2.03912,2.214-3.53218,2.39954a4.56751,4.56751,0,0,1-2.88088-.70828C112.36026,167.8524,112.206,162.76339,114.20537,158.37414Z" transform="translate(0)" fill="#e2f6f7"/><path d="M128.15862,136.13181c-4.61044.32459-7.2647,6.16254-3.3562,9.26136a5.22887,5.22887,0,0,0,8.38919-5.05353A5.15307,5.15307,0,0,0,128.15862,136.13181Z" transform="translate(0)" fill="#e2f6f7"/><path d="M141.38184,140.00643c-4.61044.32464-7.26473,6.16259-3.35619,9.2614a5.22887,5.22887,0,0,0,8.38919-5.05353A5.15321,5.15321,0,0,0,141.38184,140.00643Z" transform="translate(0)" fill="#e2f6f7"/><path d="M149.82812,151.78632c-3.70565-.25038-6.10136,4.09678-4.22814,7.24817a5.15018,5.15018,0,0,0,7.11857,1.49869C156.71925,157.6801,154.31426,152.08944,149.82812,151.78632Z" transform="translate(0)" fill="#e2f6f7"/><path d="M115.1198,141.61615c-3.70565-.25037-6.10136,4.09679-4.22814,7.24818a5.15023,5.15023,0,0,0,7.11857,1.49868C122.01093,147.50993,119.606,141.91928,115.1198,141.61615Z" transform="translate(0)" fill="#e2f6f7"/><path d="M195.87873,22.25187a16.09222,16.09222,0,0,1,3.84592-5.25789c8.67983-7.748,21.02344-3.88417,24.97661,6.56792a16.56729,16.56729,0,0,1,.90443,8.84925,11.16239,11.16239,0,0,1-4.71238,7.46439,5.18279,5.18279,0,0,1-7.03631-1.21165,9.642,9.642,0,0,1-1.39987-3.26724,5.15591,5.15591,0,0,0-1.48758-3.22035,3.76053,3.76053,0,0,0-1.48159-.697,4.49122,4.49122,0,0,0-4.48631,1.26165c-.98112,1.03087-2.03912,2.21395-3.53218,2.39956a4.56765,4.56765,0,0,1-2.88088-.70829C194.03362,31.73013,193.87934,26.64112,195.87873,22.25187Z" transform="translate(0)" fill="#e2f6f7"/><path d="M209.832.00954c-4.61045.32459-7.2647,6.16254-3.35619,9.26136a5.36585,5.36585,0,0,0,5.94657.38163A5.366,5.366,0,0,0,214.865,4.21737,5.15307,5.15307,0,0,0,209.832.00954Z" transform="translate(0)" fill="#e2f6f7"/><path d="M223.0552,3.88416c-4.61044.32464-7.26473,6.16259-3.35619,9.2614a5.36592,5.36592,0,0,0,5.94658.38163A5.366,5.366,0,0,0,228.0882,8.092,5.15321,5.15321,0,0,0,223.0552,3.88416Z" transform="translate(0)" fill="#e2f6f7"/><path d="M231.50148,15.66405c-3.70565-.25038-6.10136,4.09679-4.22814,7.24817a5.15018,5.15018,0,0,0,7.11857,1.49869C238.39261,21.55783,235.98762,15.96717,231.50148,15.66405Z" transform="translate(0)" fill="#e2f6f7"/><path d="M196.79316,5.49388c-3.70565-.25037-6.10136,4.09679-4.22814,7.24818a5.15022,5.15022,0,0,0,7.11857,1.49868C203.68429,11.38766,201.27934,5.797,196.79316,5.49388Z" transform="translate(0)" fill="#e2f6f7"/><path d="M589.691,49.27978a16.09167,16.09167,0,0,1-.50918-6.49438c1.53461-11.5333,13.41531-16.64637,23.225-11.29448a16.56686,16.56686,0,0,1,6.45269,6.12285,11.162,11.162,0,0,1,1.2899,8.73268,5.18273,5.18273,0,0,1-6.12666,3.66624,9.64156,9.64156,0,0,1-3.191-1.566,5.15588,5.15588,0,0,0-3.2269-1.47325,3.76051,3.76051,0,0,0-1.578.4368,4.49123,4.49123,0,0,0-2.58079,3.88051c-.07239,1.42129-.1039,3.00812-1.11544,4.12187a4.56764,4.56764,0,0,1-2.64676,1.34011C594.46808,57.67151,591.03472,53.912,589.691,49.27978Z" transform="translate(0)" fill="#e2f6f7"/><path d="M585.78018,23.316c-3.28555,3.25064-1.49445,9.4085,3.48955,9.212a5.22887,5.22887,0,0,0,3.07011-9.3001A5.15316,5.15316,0,0,0,585.78018,23.316Z" transform="translate(0)" fill="#e2f6f7"/><path d="M598.33507,17.63786c-3.2855,3.25065-1.49445,9.40846,3.48959,9.21191a5.22884,5.22884,0,0,0,3.07007-9.3A5.153,5.153,0,0,0,598.33507,17.63786Z" transform="translate(0)" fill="#e2f6f7"/><path d="M612.41814,21.06886c-2.97393,2.22491-1.95819,7.08349,1.51627,8.25316a5.1502,5.1502,0,0,0,6.37615-3.50214C621.4859,21.04864,616.01851,18.37533,612.41814,21.06886Z" transform="translate(0)" fill="#e2f6f7"/><path d="M579.46406,35.97275c-2.97394,2.22494-1.95824,7.08347,1.51627,8.25314a5.15021,5.15021,0,0,0,6.37614-3.50211C588.53181,35.95256,583.06438,33.27924,579.46406,35.97275Z" transform="translate(0)" fill="#e2f6f7"/><path d="M708.7018,157.37974a16.09154,16.09154,0,0,1,5.1003-4.05257c10.4209-5.17461,21.3018,1.81829,22.3478,12.94389a16.56707,16.56707,0,0,1-1.46981,8.77306,11.16225,11.16225,0,0,1-6.51981,5.95109,5.18278,5.18278,0,0,1-6.46474-3.03062,9.64121,9.64121,0,0,1-.48526-3.52124,5.15574,5.15574,0,0,0-.5823-3.49919,3.75977,3.75977,0,0,0-1.24429-1.06429,4.49116,4.49116,0,0,0-4.66024.02932c-1.21894.73443-2.55232,1.59535-4.04127,1.37921a4.56788,4.56788,0,0,1-2.59074-1.44549C704.414,166.03171,705.61209,161.08333,708.7018,157.37974Z" transform="translate(0)" fill="#e2f6f7"/><path d="M728.04406,139.62328c-4.53193-.90716-8.63662,4.02016-5.68759,8.0429a5.22888,5.22888,0,0,0,9.42752-2.65313A5.15312,5.15312,0,0,0,728.04406,139.62328Z" transform="translate(0)" fill="#e2f6f7"/><path d="M739.77035,146.85931c-4.53194-.90711-8.63663,4.02021-5.68759,8.04291a5.22885,5.22885,0,0,0,9.42751-2.65309A5.15323,5.15323,0,0,0,739.77035,146.85931Z" transform="translate(0)" fill="#e2f6f7"/><path d="M744.7979,160.45454c-3.50731-1.2222-6.96808,2.33594-5.99567,5.87075a5.15019,5.15019,0,0,0,6.46808,3.32919C749.88347,167.96193,749.04384,161.93412,744.7979,160.45454Z" transform="translate(0)" fill="#e2f6f7"/><path d="M714.01874,141.46129c-3.50727-1.2222-6.968,2.33594-5.99568,5.87075a5.15025,5.15025,0,0,0,6.46813,3.32919C719.10435,148.96867,718.26468,142.94087,714.01874,141.46129Z" transform="translate(0)" fill="#e2f6f7"/><path d="M389.5385,43.44285a16.09152,16.09152,0,0,1,2.21224-6.12715c6.15089-9.87614,19.08295-9.63915,25.8157-.7204a16.56723,16.56723,0,0,1,3.35628,8.23783,11.16231,11.16231,0,0,1-2.42324,8.48832,5.18281,5.18281,0,0,1-7.09314.81579,9.64161,9.64161,0,0,1-2.26212-2.74172,5.15583,5.15583,0,0,0-2.3331-2.67211,3.75969,3.75969,0,0,0-1.6178-.25229,4.49133,4.49133,0,0,0-3.95058,2.47225c-.6516,1.26518-1.33422,2.698-2.71486,3.296a4.56775,4.56775,0,0,1-2.9638.13036C390.43307,53.0575,388.854,48.21726,389.5385,43.44285Z" transform="translate(0)" fill="#e2f6f7"/><path d="M396.6743,18.17441c-4.33311,1.60794-5.2387,7.95672-.61652,9.83142a5.22883,5.22883,0,0,0,6.62964-7.20864A5.15313,5.15313,0,0,0,396.6743,18.17441Z" transform="translate(0)" fill="#e2f6f7"/><path d="M410.45349,18.17441c-4.33311,1.60794-5.2387,7.95672-.61652,9.83142a5.22887,5.22887,0,0,0,6.62969-7.20864A5.15322,5.15322,0,0,0,410.45349,18.17441Z" transform="translate(0)" fill="#e2f6f7"/><path d="M421.87142,27.1039c-3.62652.80173-4.70313,5.64715-2.01938,8.14468a5.15022,5.15022,0,0,0,7.25277-.5635C430.14181,30.82213,426.26184,26.13332,421.87142,27.1039Z" transform="translate(0)" fill="#e2f6f7"/><path d="M385.70377,27.1039c-3.62656.80173-4.70317,5.64715-2.01938,8.14468a5.15019,5.15019,0,0,0,7.25274-.5635C393.97417,30.82213,390.09415,26.13332,385.70377,27.1039Z" transform="translate(0)" fill="#e2f6f7"/><path d="M489.95657,163.05193a16.09149,16.09149,0,0,1,2.21223-6.12716c6.1509-9.87613,19.083-9.63915,25.8157-.72042a16.56746,16.56746,0,0,1,3.35629,8.23786,11.16225,11.16225,0,0,1-2.42325,8.48831,5.1828,5.1828,0,0,1-7.09313.8158,9.64169,9.64169,0,0,1-2.26213-2.74173,5.15571,5.15571,0,0,0-2.33309-2.6721,3.75969,3.75969,0,0,0-1.6178-.25229,4.49132,4.49132,0,0,0-3.95058,2.47224c-.6516,1.26518-1.33422,2.698-2.71486,3.296a4.56775,4.56775,0,0,1-2.9638.13037C490.85114,172.66658,489.27208,167.82634,489.95657,163.05193Z" transform="translate(0)" fill="#e2f6f7"/><path d="M497.09237,137.78348c-4.33311,1.60794-5.2387,7.95673-.61652,9.83142a5.22883,5.22883,0,0,0,6.62964-7.20863A5.15315,5.15315,0,0,0,497.09237,137.78348Z" transform="translate(0)" fill="#e2f6f7"/><path d="M510.87156,137.78348c-4.33311,1.60794-5.2387,7.95673-.61653,9.83142a5.22886,5.22886,0,0,0,6.62969-7.20863A5.15323,5.15323,0,0,0,510.87156,137.78348Z" transform="translate(0)" fill="#e2f6f7"/><path d="M522.28949,146.713c-3.62652.80174-4.70313,5.64716-2.01938,8.14467a5.15022,5.15022,0,0,0,7.25277-.56346C530.55988,150.43121,526.6799,145.7424,522.28949,146.713Z" transform="translate(0)" fill="#e2f6f7"/><path d="M486.12185,146.713c-3.62656.80174-4.70318,5.64716-2.01938,8.14467a5.15016,5.15016,0,0,0,7.25272-.56346C494.39224,150.43121,490.51222,145.7424,486.12185,146.713Z" transform="translate(0)" fill="#e2f6f7"/><path d="M227.67524,431.93309a16.09149,16.09149,0,0,1,1.38983-6.36432c4.80293-10.59737,17.65448-12.05794,25.49838-4.09889a16.5666,16.5666,0,0,1,4.40737,7.7267,11.16227,11.16227,0,0,1-1.28941,8.73276,5.18281,5.18281,0,0,1-6.92492,1.73875,9.64178,9.64178,0,0,1-2.60208-2.42155,5.15621,5.15621,0,0,0-2.6633-2.34313,3.76074,3.76074,0,0,0-1.637-.038,4.49119,4.49119,0,0,0-3.59229,2.96885c-.48013,1.33971-.969,2.84968-2.25932,3.62348a4.56766,4.56766,0,0,1-2.92114.51785C229.82267,441.34744,227.62266,436.756,227.67524,431.93309Z" transform="translate(0)" fill="#e2f6f7"/><path d="M231.4365,405.94717c-4.08488,2.16215-4.15026,8.57485.6778,9.8274a5.22889,5.22889,0,0,0,5.62734-8.01564A5.15317,5.15317,0,0,0,231.4365,405.94717Z" transform="translate(0)" fill="#e2f6f7"/><path d="M245.09679,404.14058c-4.08492,2.1622-4.1503,8.57485.67775,9.8274a5.22888,5.22888,0,0,0,5.62734-8.01564A5.15315,5.15315,0,0,0,245.09679,404.14058Z" transform="translate(0)" fill="#e2f6f7"/><path d="M257.58688,411.496c-3.49013,1.27031-3.92215,6.215-.93411,8.33912a5.15022,5.15022,0,0,0,7.11629-1.50953C266.2734,414.09781,261.81211,409.95818,257.58688,411.496Z" transform="translate(0)" fill="#e2f6f7"/><path d="M221.73143,416.23792c-3.49014,1.27031-3.92216,6.215-.93412,8.33912a5.15024,5.15024,0,0,0,7.1163-1.50953C230.41794,418.83973,225.95666,414.7001,221.73143,416.23792Z" transform="translate(0)" fill="#e2f6f7"/><path d="M255.7923,547.07914a16.09149,16.09149,0,0,1,1.38983-6.36432c4.80293-10.59736,17.65447-12.05793,25.49837-4.09889a16.56658,16.56658,0,0,1,4.40738,7.7267,11.16227,11.16227,0,0,1-1.28941,8.73276,5.18283,5.18283,0,0,1-6.92493,1.73875,9.64188,9.64188,0,0,1-2.60207-2.42155,5.1562,5.1562,0,0,0-2.66331-2.34313,3.76069,3.76069,0,0,0-1.637-.038,4.49118,4.49118,0,0,0-3.59229,2.96885c-.48013,1.33971-.969,2.84968-2.25932,3.62348a4.56766,4.56766,0,0,1-2.92114.51785C257.93972,556.49349,255.73972,551.902,255.7923,547.07914Z" transform="translate(0)" fill="#e2f6f7"/><path d="M259.55355,521.09322c-4.08487,2.16216-4.15025,8.57485.6778,9.8274a5.22888,5.22888,0,0,0,5.62734-8.01564A5.15318,5.15318,0,0,0,259.55355,521.09322Z" transform="translate(0)" fill="#e2f6f7"/><path d="M273.21385,519.28663c-4.08492,2.1622-4.1503,8.57486.67775,9.8274a5.22888,5.22888,0,0,0,5.62734-8.01563A5.15314,5.15314,0,0,0,273.21385,519.28663Z" transform="translate(0)" fill="#e2f6f7"/><path d="M285.70394,526.64205c-3.49013,1.27031-3.92215,6.215-.93412,8.33912a5.15023,5.15023,0,0,0,7.1163-1.50953C294.39046,529.24386,289.92917,525.10423,285.70394,526.64205Z" transform="translate(0)" fill="#e2f6f7"/><path d="M249.84848,531.384c-3.49013,1.27031-3.92215,6.215-.93411,8.33912a5.15024,5.15024,0,0,0,7.1163-1.50953C258.535,533.98578,254.07372,529.84615,249.84848,531.384Z" transform="translate(0)" fill="#e2f6f7"/><path d="M17.99518,417.04778a16.09258,16.09258,0,0,1,.20347-6.51115c2.78559-11.29654,15.15384-15.08092,24.32009-8.6892a16.56682,16.56682,0,0,1,5.74507,6.79125,11.16222,11.16222,0,0,1,.328,8.82131,5.18276,5.18276,0,0,1-6.49057,2.97487,9.64157,9.64157,0,0,1-3.00076-1.90526,5.15614,5.15614,0,0,0-3.0466-1.817,3.76128,3.76128,0,0,0-1.61633.26176,4.4913,4.4913,0,0,0-2.98933,3.57533c-.22726,1.40487-.43193,2.97876-1.55912,3.97531a4.56777,4.56777,0,0,1-2.77734,1.04292C21.82677,425.91122,18.82477,421.79907,17.99518,417.04778Z" transform="translate(0)" fill="#e2f6f7"/><path d="M16.94471,390.81207c-3.621,2.87222-2.51353,9.18887,2.46212,9.53806a5.22883,5.22883,0,0,0,4.06787-8.90891A5.15306,5.15306,0,0,0,16.94471,390.81207Z" transform="translate(0)" fill="#e2f6f7"/><path d="M30.04485,386.53975c-3.621,2.87222-2.51353,9.18887,2.46212,9.53806a5.22883,5.22883,0,0,0,4.06787-8.90891A5.15306,5.15306,0,0,0,30.04485,386.53975Z" transform="translate(0)" fill="#e2f6f7"/><path d="M43.66873,391.489c-3.19923,1.8867-2.72044,6.82714.60541,8.36943a5.15026,5.15026,0,0,0,6.72064-2.78449C52.6844,392.45968,47.54179,389.205,43.66873,391.489Z" transform="translate(0)" fill="#e2f6f7"/><path d="M9.28344,402.703c-3.19923,1.88666-2.72044,6.82709.60546,8.36943a5.1502,5.1502,0,0,0,6.7206-2.78449C18.29911,403.6737,13.15654,400.419,9.28344,402.703Z" transform="translate(0)" fill="#e2f6f7"/><path d="M114.07277,525.84576a16.0915,16.0915,0,0,1,4.32806-4.86867c9.37673-6.88832,21.29743-1.86911,24.23959,8.91128a16.567,16.567,0,0,1,.05953,8.89512,11.16211,11.16211,0,0,1-5.40021,6.98289,5.18285,5.18285,0,0,1-6.8894-1.87469,9.641,9.641,0,0,1-1.08308-3.38547,5.156,5.156,0,0,0-1.17489-3.34709,3.76038,3.76038,0,0,0-1.40867-.83468,4.49127,4.49127,0,0,0-4.58589.82968c-1.07465.933-2.24022,2.01019-3.74417,2.05312a4.56764,4.56764,0,0,1-2.80059-.97883C111.33546,535.10582,111.66537,530.02516,114.07277,525.84576Z" transform="translate(0)" fill="#e2f6f7"/><path d="M130.0762,505.02976c-4.62039-.11492-7.81735,5.44445-4.221,8.90061a5.22886,5.22886,0,0,0,8.83139-4.23358A5.15314,5.15314,0,0,0,130.0762,505.02976Z" transform="translate(0)" fill="#e2f6f7"/><path d="M142.87147,510.14327c-4.62044-.11492-7.81739,5.44445-4.221,8.90057a5.22887,5.22887,0,0,0,8.83144-4.23358A5.15317,5.15317,0,0,0,142.87147,510.14327Z" transform="translate(0)" fill="#e2f6f7"/><path d="M150.1603,522.67237c-3.66512-.60135-6.463,3.49852-4.89772,6.81366a5.15023,5.15023,0,0,0,6.944,2.16827C156.46026,529.19423,154.59735,523.40038,150.1603,522.67237Z" transform="translate(0)" fill="#e2f6f7"/><path d="M116.57532,509.25045c-3.66512-.60135-6.463,3.49856-4.89772,6.81365a5.15024,5.15024,0,0,0,6.944,2.16827C122.87529,515.77231,121.01237,509.97846,116.57532,509.25045Z" transform="translate(0)" fill="#e2f6f7"/><path d="M709.8966,487.287a16.0925,16.0925,0,0,1-.11868-6.51325c2.2238-11.42044,14.38982-15.81156,23.86081-9.88083a16.56728,16.56728,0,0,1,6.07378,6.499,11.16189,11.16189,0,0,1,.76366,8.7943,5.18274,5.18274,0,0,1-6.33557,3.29211,9.64159,9.64159,0,0,1-3.09127-1.7546,5.156,5.156,0,0,0-3.13273-1.66421,3.76047,3.76047,0,0,0-1.60138.34133,4.49129,4.49129,0,0,0-2.80894,3.71873c-.1575,1.41437-.28416,2.99647-1.36073,4.04751a4.56767,4.56767,0,0,1-2.72236,1.179C714.16164,495.95019,710.96005,491.99148,709.8966,487.287Z" transform="translate(0)" fill="#e2f6f7"/><path d="M707.55047,461.13533c-3.47464,3.04767-2.0562,9.30188,2.9306,9.40467a5.22885,5.22885,0,0,0,3.62251-9.09913A5.15311,5.15311,0,0,0,707.55047,461.13533Z" transform="translate(0)" fill="#e2f6f7"/><path d="M720.4234,456.22065c-3.47464,3.04766-2.05621,9.30188,2.9306,9.40466a5.22884,5.22884,0,0,0,3.6225-9.09912A5.15308,5.15308,0,0,0,720.4234,456.22065Z" transform="translate(0)" fill="#e2f6f7"/><path d="M734.27525,460.49033c-3.102,2.04251-2.3796,6.95326,1.01846,8.32926a5.15024,5.15024,0,0,0,6.57475-3.11332C743.32787,461.01416,738.0307,458.01764,734.27525,460.49033Z" transform="translate(0)" fill="#e2f6f7"/><path d="M700.4864,473.3904c-3.10207,2.0425-2.37964,6.95326,1.01841,8.32925a5.15017,5.15017,0,0,0,6.57475-3.11332C709.539,473.91422,704.24185,470.91775,700.4864,473.3904Z" transform="translate(0)" fill="#e2f6f7"/><path d="M559.939,439.08633a16.09231,16.09231,0,0,1-.11867-6.51325c2.22379-11.42043,14.38982-15.81156,23.8608-9.88082a16.56721,16.56721,0,0,1,6.07378,6.499,11.16189,11.16189,0,0,1,.76367,8.7943,5.18276,5.18276,0,0,1-6.33558,3.29211,9.64178,9.64178,0,0,1-3.09127-1.7546,5.156,5.156,0,0,0-3.13273-1.66422,3.76063,3.76063,0,0,0-1.60138.34134,4.49129,4.49129,0,0,0-2.80894,3.71872c-.1575,1.41438-.28416,2.99648-1.36073,4.04752a4.56772,4.56772,0,0,1-2.72236,1.17895C564.204,447.74951,561.0024,443.79081,559.939,439.08633Z" transform="translate(0)" fill="#e2f6f7"/><path d="M557.59283,412.93466c-3.47465,3.04766-2.05621,9.30188,2.9306,9.40466a5.22884,5.22884,0,0,0,3.6225-9.09912A5.15308,5.15308,0,0,0,557.59283,412.93466Z" transform="translate(0)" fill="#e2f6f7"/><path d="M570.46575,408.02c-3.47464,3.04767-2.0562,9.30189,2.9306,9.40467a5.22885,5.22885,0,0,0,3.62251-9.09913A5.15311,5.15311,0,0,0,570.46575,408.02Z" transform="translate(0)" fill="#e2f6f7"/><path d="M584.3176,412.28966c-3.102,2.04251-2.3796,6.95326,1.01846,8.32926a5.15023,5.15023,0,0,0,6.57475-3.11332C593.37022,412.81349,588.07306,409.817,584.3176,412.28966Z" transform="translate(0)" fill="#e2f6f7"/><path d="M550.52875,425.18972c-3.10207,2.04251-2.37964,6.95326,1.01842,8.32926a5.15019,5.15019,0,0,0,6.57475-3.11332C559.58137,425.71355,554.28421,422.71707,550.52875,425.18972Z" transform="translate(0)" fill="#e2f6f7"/><path d="M590.136,528.24682a16.09187,16.09187,0,0,1,5.30993-3.77371c10.683-4.60937,21.17393,2.956,21.62287,14.12164a16.56678,16.56678,0,0,1-1.93735,8.68179,11.16231,11.16231,0,0,1-6.82906,5.59355,5.18277,5.18277,0,0,1-6.29322-3.37235,9.6414,9.6414,0,0,1-.29608-3.54217,5.15582,5.15582,0,0,0-.39413-3.52534,3.75994,3.75994,0,0,0-1.18551-1.12937,4.49131,4.49131,0,0,0-4.65516-.22021c-1.25652.66816-2.634,1.45647-4.10929,1.16088a4.56779,4.56779,0,0,1-2.50964-1.582C585.39127,536.65686,586.85251,531.77971,590.136,528.24682Z" transform="translate(0)" fill="#e2f6f7"/><path d="M610.40113,511.55123c-4.47691-1.14843-8.83947,3.55212-6.11,7.72692a5.22889,5.22889,0,0,0,9.55605-2.14462A5.1532,5.1532,0,0,0,610.40113,511.55123Z" transform="translate(0)" fill="#e2f6f7"/><path d="M621.72324,519.40468c-4.47691-1.14843-8.83947,3.55207-6.11,7.72688a5.22884,5.22884,0,0,0,9.556-2.14462A5.15306,5.15306,0,0,0,621.72324,519.40468Z" transform="translate(0)" fill="#e2f6f7"/><path d="M626.01578,533.24947c-3.43684-1.40813-7.08309,1.95963-6.30135,5.54138a5.15026,5.15026,0,0,0,6.28064,3.67071C630.69218,541.01835,630.17643,534.9543,626.01578,533.24947Z" transform="translate(0)" fill="#e2f6f7"/><path d="M596.29752,512.63579c-3.43684-1.40813-7.08309,1.95962-6.30135,5.54138a5.15023,5.15023,0,0,0,6.2806,3.6707C600.97392,520.40466,600.45817,514.34062,596.29752,512.63579Z" transform="translate(0)" fill="#e2f6f7"/><path d="M388.45675,409.1642a16.09231,16.09231,0,0,1,3.42694-5.54008c8.05335-8.39736,20.6593-5.50162,25.41046,4.61271a16.56692,16.56692,0,0,1,1.5874,8.75253,11.162,11.162,0,0,1-4.11972,7.80713,5.18283,5.18283,0,0,1-7.10907-.66276,9.64149,9.64149,0,0,1-1.64882-3.14893,5.15609,5.15609,0,0,0-1.73268-3.09538,3.76077,3.76077,0,0,0-1.53113-.58015,4.49133,4.49133,0,0,0-4.3751,1.60548c-.89828,1.1038-1.8614,2.36532-3.33558,2.66608a4.56786,4.56786,0,0,1-2.92712-.48294C387.35167,418.7569,386.80352,413.6952,388.45675,409.1642Z" transform="translate(0)" fill="#e2f6f7"/><path d="M400.64452,385.90751c-4.57139.68088-6.76532,6.707-2.62846,9.49357a5.22886,5.22886,0,0,0,7.9724-5.68839A5.15308,5.15308,0,0,0,400.64452,385.90751Z" transform="translate(0)" fill="#e2f6f7"/><path d="M414.12821,388.74582c-4.57139.68092-6.76532,6.707-2.62845,9.49361a5.22886,5.22886,0,0,0,7.97239-5.68843A5.15317,5.15317,0,0,0,414.12821,388.74582Z" transform="translate(0)" fill="#e2f6f7"/><path d="M423.462,399.83577c-3.71395.03753-5.76556,4.55728-3.65379,7.55407a5.1502,5.1502,0,0,0,7.21327.94255C430.789,405.17783,427.9581,399.79038,423.462,399.83577Z" transform="translate(0)" fill="#e2f6f7"/><path d="M388.0699,392.38573c-3.71392.03753-5.76557,4.55724-3.6538,7.554a5.15023,5.15023,0,0,0,7.21333.94254C395.397,397.72779,392.566,392.3403,388.0699,392.38573Z" transform="translate(0)" fill="#e2f6f7"/><path d="M464.0193,540.86777a16.09186,16.09186,0,0,1-2.88512-5.84059c-2.85933-11.2781,6.272-20.43855,17.36786-19.11348a16.5671,16.5671,0,0,1,8.26539,3.28786,11.16233,11.16233,0,0,1,4.44147,7.6287,5.18282,5.18282,0,0,1-4.32651,5.67973,9.64207,9.64207,0,0,1-3.54431-.26863,5.156,5.156,0,0,0-3.54328-.16919,3.76027,3.76027,0,0,0-1.30289.99173,4.49116,4.49116,0,0,0-.95464,4.56152c.46071,1.3465,1.02091,2.83148.49544,4.24131a4.56806,4.56806,0,0,1-1.95958,2.2274C471.57176,546.88459,466.98761,544.66942,464.0193,540.86777Z" transform="translate(0)" fill="#e2f6f7"/><path d="M450.74385,518.21434c-1.843,4.23854,2.10735,9.29046,6.66174,7.25661a5.22885,5.22885,0,0,0-.60416-9.775A5.15313,5.15313,0,0,0,450.74385,518.21434Z" transform="translate(0)" fill="#e2f6f7"/><path d="M460.29124,508.27889c-1.84291,4.23854,2.10735,9.29046,6.66178,7.25661a5.22887,5.22887,0,0,0-.60416-9.775A5.15319,5.15319,0,0,0,460.29124,508.27889Z" transform="translate(0)" fill="#e2f6f7"/><path d="M474.64116,506.23313c-1.93467,3.17044.81312,7.30405,4.47352,7.09942a5.15019,5.15019,0,0,0,4.619-5.62C483.05263,502.84609,476.98336,502.395,474.64116,506.23313Z" transform="translate(0)" fill="#e2f6f7"/><path d="M449.58114,532.31175c-1.93472,3.17044.81312,7.30405,4.47347,7.09942a5.15023,5.15023,0,0,0,4.619-5.62C457.99256,528.92471,451.92334,528.47359,449.58114,532.31175Z" transform="translate(0)" fill="#e2f6f7"/></g><g id="09d6e0ef-752f-4312-90f1-e185f7f4c985" data-name="huesos"><g id="6380663f-4ee0-484e-a815-ebdaaa45ad33" data-name="hueso"><path d="M198.44024,220.28447a8.47974,8.47974,0,0,0-2.30833,8.93444,5.95106,5.95106,0,0,0,6.83468,4.53912c4.792-.06195,6.96611-4.46967,9.39561-8.30225a18.0427,18.0427,0,0,1,7.85684-6.99057c4.16512-2.07085,8.39348-3.95331,12.65388-5.84478,1.86769-.82919,3.78085-1.5663,5.61712-2.43025,3.45108-1.62365,7.148-3.14478,11.03046-3.07146,4.05755.07663,7.86242,3.26636,11.68754.686,5.56267-3.75251,2.68192-11.98844-3.53235-12.1505" transform="translate(0)" fill="none" stroke="#ffefd8" stroke-miterlimit="10"/><path d="M256.19142,197.05143a8.82334,8.82334,0,0,0,2.762-4.67332c.51315-5.04732-2.9996-8.3073-7.47179-9.07578-5.04732-.51321-6.71078,5.04482-9.14027,8.8774-1.34543,2.12248-3.31076,4.45334-5.62774,5.482q-2.20123.9772-4.40242,1.95449-6.28463,2.79009-12.56917,5.58021-4.04538,1.796-8.09075,3.592a15.12809,15.12809,0,0,1-3.367,1.24153,16.9989,16.9989,0,0,1-8.29319-.78309c-2.407-.71033-4.83792-1.10491-7.011.46309-5.48082,3.95473-2.20679,12.23373,4.18368,12.00884" transform="translate(0)" fill="none" stroke="#ffefd8" stroke-miterlimit="10"/></g><polygon points="452.008 114.726 450.033 115.826 447.462 116.234 444.788 115.824 442.88 114.331 441.533 112.529 440.969 110.562 441.107 108.272 442.092 105.959 444.379 103.863 447.559 102.229 450.065 100.574 451.865 98.653 453.598 96.068 455.068 93.135 463.21 73.744 464.498 69.981 465.105 66.171 464.819 62.203 464.073 58.379 463.744 55.628 464.075 52.388 465.946 49.343 468.126 47.432 471.53 46.826 474.666 48.554 476.903 50.58 478.023 52.664 478.406 54.184 480.306 52.841 482.543 52.247 485.044 52.577 487.874 54.149 489.761 57.151 489.437 61.485 486.309 64.43 482.944 66.254 479.936 68.427 477.799 71.111 475.971 75.357 466.781 96.952 465.238 101.32 465.294 105.207 466.219 109.588 467.026 113.466 466.788 116.728 464.574 119.529 461.881 120.713 458.8 121.011 456.304 120.489 453.944 118.625 452.51 116.26 452.008 114.726" fill="none" stroke="#ffefd8" stroke-miterlimit="10"/><g id="0aa9308d-9ab3-4af4-9da3-8546a9cbbc3a" data-name="hueso"><path d="M632.34961,85.09926a8.47973,8.47973,0,0,0-7.28133,5.66875,5.95111,5.95111,0,0,0,2.64394,7.767c3.83383,2.87548,8.2462.71073,12.50977-.84258a18.04285,18.04285,0,0,1,10.49034-.7426c4.56331.90157,9.06173,1.991,13.591,3.09274,1.9856.483,3.951,1.06671,5.93292,1.503,3.72471.82,7.58165,1.87131,10.61245,4.29888,3.1675,2.537,4.23487,7.386,8.83978,7.6764,6.69677.42234,9.44122-7.86,4.61736-11.781" transform="translate(0)" fill="none" stroke="#ffefd8" stroke-miterlimit="10"/><path d="M692.27738,101.94084a8.82319,8.82319,0,0,0,5.04-2.01644c3.48691-3.68512,2.69379-8.41142-.3799-11.74958-3.68507-3.487-8.3949-.09931-12.65852,1.454-2.36116.8602-5.34059,1.50716-7.80382.90795q-2.34015-.56923-4.68029-1.13851-6.68121-1.62531-13.36247-3.2506-4.30071-1.04623-8.60141-2.0924a15.127,15.127,0,0,1-3.425-1.07144,16.99863,16.99863,0,0,1-6.09163-5.68175c-1.47315-2.03165-3.15812-3.82789-5.83647-3.912-6.75528-.21217-9.21445,8.34434-4.0149,12.06633" transform="translate(0)" fill="none" stroke="#ffefd8" stroke-miterlimit="10"/></g><polygon points="257.863 195.51 260.058 196.053 262.216 197.508 263.892 199.632 264.268 202.025 264.024 204.262 263.095 206.085 261.432 207.665 259.134 208.685 256.031 208.658 252.592 207.684 249.63 207.184 247.003 207.361 243.973 208.069 240.898 209.212 221.718 217.837 218.208 219.71 215.166 222.082 212.668 225.179 210.605 228.484 208.969 230.72 206.517 232.864 203.072 233.814 200.174 233.724 197.272 231.845 196.157 228.443 195.904 225.436 196.506 223.148 197.263 221.775 194.957 221.462 192.916 220.37 191.313 218.422 190.315 215.343 190.983 211.86 194.177 208.912 198.473 208.892 202.178 209.854 205.86 210.316 209.253 209.812 213.486 207.954 234.936 198.431 239.044 196.289 241.654 193.409 243.966 189.574 246.021 186.188 248.42 183.964 251.95 183.427 254.727 184.398 257.184 186.282 258.653 188.366 259.106 191.339 258.542 194.046 257.863 195.51" fill="none" stroke="#ffefd8" stroke-miterlimit="10"/><g id="79c17c95-d69b-4561-95c7-42697ce72eaf" data-name="hueso"><path d="M198.44024,93.98086a8.47973,8.47973,0,0,0-2.30833,8.93444,5.95107,5.95107,0,0,0,6.83468,4.53912c4.792-.06195,6.96611-4.46968,9.39561-8.30226a18.04283,18.04283,0,0,1,7.85684-6.99057c4.16512-2.07084,8.39348-3.9533,12.65388-5.84478,1.86769-.82918,3.78085-1.56629,5.61712-2.43025,3.45108-1.62364,7.148-3.14478,11.03046-3.07145,4.05755.07663,7.86242,3.26635,11.68754.686,5.56267-3.75251,2.68192-11.98845-3.53235-12.1505" transform="translate(0)" fill="none" stroke="#ffefd8" stroke-miterlimit="10"/><path d="M256.19142,70.74782a8.82338,8.82338,0,0,0,2.762-4.67332c.51315-5.04733-2.9996-8.3073-7.47179-9.07579-5.04732-.5132-6.71078,5.04483-9.14027,8.8774-1.34543,2.12249-3.31076,4.45335-5.62774,5.482q-2.20123.9772-4.40242,1.95449-6.28463,2.79009-12.56917,5.58021-4.04538,1.796-8.09075,3.592a15.12756,15.12756,0,0,1-3.367,1.24152,16.99878,16.99878,0,0,1-8.29319-.78308c-2.407-.71034-4.83792-1.10491-7.011.46308-5.48082,3.95473-2.20679,12.23373,4.18368,12.00884" transform="translate(0)" fill="none" stroke="#ffefd8" stroke-miterlimit="10"/></g><polygon points="257.863 69.206 260.058 69.749 262.216 71.205 263.892 73.329 264.268 75.721 264.024 77.959 263.095 79.782 261.432 81.361 259.134 82.381 256.031 82.354 252.592 81.38 249.63 80.88 247.003 81.057 243.973 81.766 240.898 82.908 221.718 91.534 218.208 93.407 215.166 95.778 212.668 98.876 210.605 102.18 208.969 104.416 206.517 106.56 203.072 107.51 200.174 107.421 197.272 105.542 196.157 102.14 195.904 99.132 196.506 96.844 197.263 95.471 194.957 95.158 192.916 94.066 191.313 92.119 190.315 89.039 190.983 85.556 194.177 82.608 198.473 82.588 202.178 83.55 205.86 84.013 209.253 83.508 213.486 81.65 234.936 72.127 239.044 69.985 241.654 67.105 243.966 63.27 246.021 59.884 248.42 57.661 251.95 57.124 254.727 58.094 257.184 59.978 258.653 62.062 259.106 65.035 258.542 67.742 257.863 69.206" fill="none" stroke="#ffefd8" stroke-miterlimit="10"/><g id="cd28648a-7751-48ae-a72f-eaaa45365a01" data-name="hueso"><path d="M83.23032,65.64087a8.47974,8.47974,0,0,0-9.15045,1.19234A5.95113,5.95113,0,0,0,72.41905,74.868c1.84563,4.42272,6.74626,4.795,11.20862,5.61886a18.04294,18.04294,0,0,1,9.41747,4.68073c3.47549,3.09154,6.79986,6.312,10.14446,9.55882,1.46623,1.42339,2.86405,2.92328,4.35082,4.30459,2.79417,2.59587,5.58494,5.45814,6.96571,9.08752,1.443,3.79308-.09649,8.51335,3.72484,11.09928,5.55727,3.76063,12.12332-1.98538,9.95473-7.81124" transform="translate(0)" fill="none" stroke="#ffefd8" stroke-miterlimit="10"/><path d="M126.33556,110.551a8.82318,8.82318,0,0,0,5.36638.81852c4.87425-1.40732,6.58787-5.88285,5.63207-10.31878-1.40737-4.87425-7.18462-4.34355-11.647-5.16734-2.47122-.45625-5.3671-1.40982-7.18606-3.17562q-1.72806-1.67751-3.45612-3.35508-4.93374-4.78947-9.86743-9.57894l-6.35165-6.16594a15.12583,15.12583,0,0,1-2.40829-2.66059,16.9988,16.9988,0,0,1-2.36817-7.98636c-.23913-2.49813-.78023-4.90076-3.04583-6.33174-5.71429-3.6092-12.17353,2.51773-9.58025,8.36269" transform="translate(0)" fill="none" stroke="#ffefd8" stroke-miterlimit="10"/></g><polygon points="128.39 111.526 128.705 113.765 128.16 116.311 126.814 118.658 124.735 119.9 122.568 120.509 120.53 120.327 118.444 119.373 116.64 117.622 115.508 114.733 115.128 111.179 114.487 108.245 113.342 105.874 111.554 103.327 109.347 100.9 94.187 86.324 91.139 83.766 87.804 81.829 83.998 80.668 80.163 79.987 77.478 79.303 74.574 77.828 72.407 74.987 71.408 72.265 72.069 68.871 74.809 66.567 77.505 65.21 79.852 64.915 81.408 65.104 80.839 62.849 81.09 60.548 82.298 58.333 84.783 56.259 88.264 55.579 92.191 57.441 93.812 61.42 94.302 65.216 95.247 68.805 96.981 71.764 100.285 74.999 117.124 91.346 120.645 94.357 124.29 95.705 128.711 96.418 132.619 97.062 135.577 98.458 137.393 101.532 137.529 104.471 136.698 107.453 135.312 109.593 132.723 111.124 130.001 111.61 128.39 111.526" fill="none" stroke="#ffefd8" stroke-miterlimit="10"/><g id="e35510de-d56c-4042-9e74-6faa03eca030" data-name="hueso"><path d="M81.44511,251.749a8.47974,8.47974,0,0,0-9.15045,1.19234,5.95113,5.95113,0,0,0-1.66082,8.03483c1.84563,4.42273,6.74626,4.795,11.20862,5.61886a18.043,18.043,0,0,1,9.41747,4.68073c3.47549,3.09154,6.79986,6.312,10.14446,9.55882,1.46623,1.42339,2.864,2.92328,4.35082,4.30459,2.79417,2.59587,5.58494,5.45814,6.96571,9.08752,1.443,3.79308-.09649,8.51336,3.72484,11.09928,5.55727,3.76063,12.12332-1.98538,9.95473-7.81123" transform="translate(0)" fill="none" stroke="#ffefd8" stroke-miterlimit="10"/><path d="M124.55035,296.6591a8.82311,8.82311,0,0,0,5.36638.81852c4.87425-1.40732,6.58787-5.88284,5.63207-10.31878-1.40737-4.87425-7.18462-4.34355-11.647-5.16733-2.47122-.45626-5.3671-1.40983-7.18606-3.17562q-1.72806-1.67753-3.45612-3.35508-4.93374-4.78949-9.86743-9.57895l-6.35165-6.16594a15.12583,15.12583,0,0,1-2.40829-2.66059,16.9988,16.9988,0,0,1-2.36817-7.98636c-.23913-2.49813-.78023-4.90075-3.04583-6.33173C83.504,239.128,77.04475,245.255,79.638,251.09992" transform="translate(0)" fill="none" stroke="#ffefd8" stroke-miterlimit="10"/></g><polygon points="126.604 297.634 126.919 299.873 126.375 302.419 125.029 304.766 122.95 306.008 120.783 306.617 118.745 306.435 116.659 305.481 114.855 303.731 113.723 300.841 113.343 297.287 112.702 294.353 111.557 291.982 109.769 289.435 107.562 287.008 92.401 272.432 89.354 269.874 86.019 267.937 82.213 266.776 78.377 266.095 75.693 265.412 72.789 263.937 70.621 261.095 69.623 258.373 70.283 254.979 73.024 252.675 75.719 251.318 78.067 251.023 79.623 251.213 79.053 248.957 79.304 246.656 80.513 244.441 82.998 242.367 86.479 241.687 90.405 243.55 92.027 247.528 92.517 251.324 93.462 254.913 95.196 257.873 98.5 261.107 115.339 277.454 118.859 280.466 122.505 281.813 126.926 282.527 130.834 283.17 133.792 284.566 135.608 287.64 135.743 290.579 134.913 293.561 133.527 295.702 130.938 297.232 128.216 297.718 126.604 297.634" fill="none" stroke="#ffefd8" stroke-miterlimit="10"/><g id="80b7557a-773c-4a18-865e-08f43300b322" data-name="hueso"><path d="M258.89914,349.54671a8.47963,8.47963,0,0,0,2.8055-8.791,5.9511,5.9511,0,0,0-6.56948-4.91513c-4.78793-.20677-7.20573,4.07215-9.84619,7.76254a18.04322,18.04322,0,0,1-8.23638,6.53918c-4.27464,1.83412-8.60186,3.47661-12.96161,5.12627-1.9112.72319-3.8627,1.3519-5.74454,2.11155-3.53663,1.42763-7.313,2.73918-11.18527,2.44833-4.0469-.304-7.66695-3.702-11.63069-1.34007-5.76431,3.43483-3.34973,11.81929,2.84571,12.32942" transform="translate(0)" fill="none" stroke="#ffefd8" stroke-miterlimit="10"/><path d="M199.93642,369.506a8.82331,8.82331,0,0,0-3.01954,4.51114c-.79531,5.01064,2.52923,8.46238,6.95129,9.48036,5.01064.79531,6.983-4.66074,9.62353-8.35113,1.46226-2.04371,3.55521-4.26076,5.92618-5.15792q2.25252-.85227,4.50507-1.70465,6.4311-2.43339,12.86217-4.86688l8.27936-3.13278a15.12719,15.12719,0,0,1,3.43139-1.05086,16.999,16.999,0,0,1,8.23626,1.24674c2.3633.84414,4.76837,1.37435,7.02591-.06935,5.69383-3.6413,2.889-12.09083-3.504-12.2245" transform="translate(0)" fill="none" stroke="#ffefd8" stroke-miterlimit="10"/></g><polygon points="198.181 370.952 196.02 370.286 193.947 368.712 192.393 366.498 192.151 364.088 192.52 361.867 193.55 360.099 195.299 358.615 197.65 357.726 200.747 357.927 204.127 359.092 207.055 359.757 209.688 359.728 212.753 359.19 215.887 358.222 235.521 350.685 239.131 349.012 242.301 346.814 244.968 343.862 247.213 340.678 248.971 338.538 251.54 336.535 255.033 335.779 257.921 336.031 260.714 338.069 261.636 341.529 261.72 344.546 260.991 346.796 260.159 348.125 262.443 348.567 264.419 349.771 265.911 351.806 266.734 354.936 265.872 358.376 262.518 361.141 258.228 360.919 254.583 359.751 250.933 359.083 247.516 359.397 243.186 361.015 221.236 369.32 217.014 371.229 214.247 373.958 211.723 377.657 209.482 380.923 206.962 383.008 203.407 383.347 200.689 382.222 198.342 380.203 196.992 378.04 196.706 375.046 197.421 372.375 198.181 370.952" fill="none" stroke="#ffefd8" stroke-miterlimit="10"/><g id="5512919c-c13d-4e2a-91f8-2e73eb9a2ee7" data-name="hueso"><path d="M78.30747,437.16527a8.47971,8.47971,0,0,0-8.97224,2.15685,5.95113,5.95113,0,0,0-.79861,8.16573c2.30466,4.20184,7.21711,4.05189,11.74168,4.39741A18.04312,18.04312,0,0,1,90.1394,455.54c3.784,2.70517,7.43138,5.55459,11.10173,8.42807,1.609,1.25973,3.15817,2.60279,4.78312,3.81843,3.05391,2.28466,6.13272,4.83453,7.89093,8.2969,1.83743,3.61848.80768,8.4755,4.88188,10.64123,5.925,3.14951,11.84411-3.261,9.0694-8.82376" transform="translate(0)" fill="none" stroke="#ffefd8" stroke-miterlimit="10"/><path d="M125.93594,477.24645a8.82365,8.82365,0,0,0,5.423.24431c4.69733-1.91674,5.92627-6.54887,4.505-10.85832-1.91673-4.69729-7.605-3.55641-12.12961-3.90194-2.50567-.19132-5.48644-.83217-7.48253-2.3949l-3.79272-2.96929q-5.4142-4.23879-10.82841-8.47752-3.48505-2.7285-6.97022-5.45694a15.12945,15.12945,0,0,1-2.6771-2.38995,16.99905,16.99905,0,0,1-3.2024-7.68988c-.50294-2.45864-1.296-4.79026-3.7007-5.97269-6.06507-2.98228-11.83755,3.79562-8.6385,9.33232" transform="translate(0)" fill="none" stroke="#ffefd8" stroke-miterlimit="10"/></g><polygon points="128.082 477.998 128.633 480.191 128.361 482.78 127.273 485.257 125.337 486.713 123.247 487.548 121.201 487.583 119.025 486.856 117.046 485.307 115.613 482.554 114.858 479.06 113.909 476.211 112.519 473.975 110.471 471.632 108.019 469.453 91.397 456.568 88.096 454.349 84.573 452.776 80.666 452.026 76.78 451.756 74.038 451.361 70.993 450.203 68.537 447.608 67.255 445.007 67.552 441.562 70.032 438.98 72.568 437.344 74.871 436.802 76.439 436.825 75.633 434.643 75.638 432.328 76.605 429.998 78.856 427.671 82.245 426.626 86.347 428.061 88.382 431.845 89.272 435.568 90.592 439.036 92.631 441.795 96.259 444.66 114.738 459.127 118.558 461.749 122.326 462.701 126.798 462.942 130.753 463.166 133.842 464.241 135.974 467.105 136.42 470.013 135.911 473.066 134.76 475.341 132.349 477.138 129.694 477.91 128.082 477.998" fill="none" stroke="#ffefd8" stroke-miterlimit="10"/><g id="5a177ded-206d-44d5-aa56-891d20d9dfaa" data-name="hueso"><path d="M328.15632,289.60275a8.47971,8.47971,0,0,0-8.60855-3.32335,5.95112,5.95112,0,0,0-5.29712,6.26555c-.49116,4.76718,3.63643,7.43514,7.16324,10.29045a18.04252,18.04252,0,0,1,6.03776,8.61064c1.57666,4.37618,2.9589,8.79341,4.34636,13.24354.60828,1.95083,1.11982,3.93626,1.7662,5.86,1.21479,3.61528,2.2994,7.46294,1.77879,11.31105-.54408,4.02168-4.15133,7.43326-2.02934,11.53045,3.08591,5.95836,11.59913,4.04671,12.4768-2.1074" transform="translate(0)" fill="none" stroke="#ffefd8" stroke-miterlimit="10"/><path d="M344.57374,349.64811a8.82316,8.82316,0,0,0,4.3236,3.28247c4.95445,1.09188,8.59779-2.02148,9.877-6.37517,1.09188-4.95444-4.23719-7.24786-7.764-10.10312-1.95315-1.58125-4.0418-3.80232-4.79637-6.22249q-.71685-2.29917-1.4337-4.59843-2.04672-6.56446-4.09335-13.12888-1.31742-4.22547-2.63487-8.451a15.12479,15.12479,0,0,1-.84491-3.48781,16.99864,16.99864,0,0,1,1.73433-8.14752c.98321-2.3089,1.65547-4.67819.34862-7.01757-3.29622-5.90034-11.89763-3.603-12.41123,2.77073" transform="translate(0)" fill="none" stroke="#ffefd8" stroke-miterlimit="10"/></g><polygon points="345.912 351.486 345.12 353.604 343.425 355.58 341.122 356.999 338.702 357.097 336.508 356.597 334.804 355.464 333.427 353.629 332.678 351.23 333.064 348.15 334.428 344.846 335.266 341.962 335.393 339.332 335.039 336.241 334.259 333.054 327.902 313.007 326.447 309.305 324.442 306.009 321.653 303.171 318.609 300.741 316.576 298.858 314.73 296.175 314.183 292.644 314.606 289.775 316.807 287.109 320.315 286.394 323.332 286.489 325.535 287.351 326.812 288.261 327.389 286.007 328.709 284.106 330.828 282.738 334.002 282.102 337.385 283.167 339.945 286.679 339.469 290.949 338.086 294.518 337.202 298.122 337.312 301.551 338.67 305.97 345.655 328.376 347.309 332.703 349.868 335.628 353.412 338.367 356.538 340.799 358.47 343.438 358.596 347.006 357.312 349.653 355.157 351.876 352.918 353.095 349.912 353.203 347.289 352.33 345.912 351.486" fill="none" stroke="#ffefd8" stroke-miterlimit="10"/><g id="1ea9a060-ba50-45ed-b67b-e9785dfc5308" data-name="hueso"><path d="M318.784,448.93275a8.47972,8.47972,0,0,0-8.60855-3.32335,5.95112,5.95112,0,0,0-5.29712,6.26555c-.49116,4.76719,3.63643,7.43514,7.16324,10.29045a18.0425,18.0425,0,0,1,6.03776,8.61065c1.57665,4.37617,2.9589,8.7934,4.34636,13.24353.60828,1.95083,1.11982,3.93626,1.7662,5.85995,1.21479,3.61528,2.29939,7.46294,1.77878,11.31105-.54407,4.02168-4.15132,7.43326-2.02933,11.53045,3.08591,5.95836,11.59913,4.04671,12.47679-2.1074" transform="translate(0)" fill="none" stroke="#ffefd8" stroke-miterlimit="10"/><path d="M335.20138,508.97811a8.82319,8.82319,0,0,0,4.3236,3.28247c4.95445,1.09188,8.5978-2.02148,9.877-6.37517,1.09188-4.95444-4.23719-7.24786-7.764-10.10312-1.95315-1.58125-4.04181-3.80232-4.79637-6.22249q-.71685-2.29917-1.4337-4.59843-2.04672-6.56446-4.09335-13.12888-1.31742-4.22546-2.63488-8.451a15.12477,15.12477,0,0,1-.8449-3.48781,16.99852,16.99852,0,0,1,1.73433-8.14752c.98321-2.3089,1.65547-4.67819.34862-7.01757-3.29622-5.90034-11.89763-3.603-12.41123,2.77074" transform="translate(0)" fill="none" stroke="#ffefd8" stroke-miterlimit="10"/></g><polygon points="336.54 510.816 335.747 512.934 334.053 514.91 331.75 516.329 329.329 516.427 327.135 515.927 325.432 514.794 324.054 512.959 323.306 510.56 323.691 507.481 325.055 504.176 325.893 501.292 326.02 498.662 325.666 495.571 324.886 492.384 318.53 472.337 317.074 468.635 315.069 465.339 312.281 462.501 309.236 460.071 307.204 458.188 305.357 455.505 304.811 451.974 305.234 449.105 307.435 446.439 310.943 445.724 313.96 445.819 316.163 446.681 317.439 447.591 318.016 445.337 319.336 443.436 321.456 442.068 324.63 441.432 328.013 442.497 330.573 446.009 330.097 450.279 328.714 453.848 327.83 457.452 327.94 460.881 329.297 465.3 336.283 487.706 337.937 492.033 340.496 494.958 344.039 497.697 347.165 500.129 349.097 502.768 349.224 506.336 347.939 508.983 345.785 511.206 343.545 512.425 340.54 512.533 337.916 511.66 336.54 510.816" fill="none" stroke="#ffefd8" stroke-miterlimit="10"/><g id="2d4e11fe-47e7-4a37-9a10-2e527d3ea1fb" data-name="hueso"><path d="M453.90265,434.63041a8.47984,8.47984,0,0,0-8.99894,2.04254,5.95117,5.95117,0,0,0-.90242,8.15493c2.251,4.23082,7.165,4.14334,11.68478,4.5464a18.04274,18.04274,0,0,1,9.81384,3.77987c3.74929,2.7531,7.36015,5.64867,10.99363,8.56865,1.5929,1.28,3.12479,2.64273,4.73416,3.87895,3.02459,2.32331,6.07074,4.91214,7.78472,8.39655,1.79128,3.64161.6998,8.48515,4.74616,10.70247,5.88445,3.22463,11.88459-3.11,9.18093-8.70763" transform="translate(0)" fill="none" stroke="#ffefd8" stroke-miterlimit="10"/><path d="M501.01742,475.31418a8.82344,8.82344,0,0,0,5.41945.31331c4.7213-1.85684,6.00906-6.473,4.64275-10.80012-1.85684-4.72135-7.5592-3.65285-12.079-4.05591-2.50308-.22324-5.47541-.90193-7.45146-2.48992l-3.75466-3.01732-10.71969-8.61453q-3.45011-2.77262-6.90024-5.54518a15.12783,15.12783,0,0,1-2.64649-2.42382,16.99868,16.99868,0,0,1-3.10434-7.73c-.47161-2.46484-1.235-4.80637-3.62443-6.01929-6.02664-3.05918-11.88485,3.64478-8.7565,9.22168" transform="translate(0)" fill="none" stroke="#ffefd8" stroke-miterlimit="10"/></g><polygon points="503.154 476.093 503.677 478.293 503.372 480.878 502.252 483.341 500.298 484.772 498.198 485.58 496.152 485.59 493.985 484.836 492.026 483.261 490.628 480.49 489.918 476.987 489.005 474.126 487.643 471.872 485.626 469.503 483.201 467.294 466.745 454.198 463.471 451.937 459.97 450.32 456.072 449.52 452.189 449.2 449.452 448.771 446.423 447.574 444 444.948 442.752 442.331 443.092 438.89 445.605 436.34 448.162 434.736 450.471 434.224 452.038 434.267 451.26 432.074 451.295 429.76 452.292 427.442 454.572 425.144 457.974 424.142 462.057 425.629 464.044 429.439 464.886 433.172 466.162 436.657 468.166 439.442 471.757 442.353 490.051 457.054 493.838 459.724 497.593 460.724 502.062 461.022 506.013 461.297 509.088 462.41 511.183 465.301 511.593 468.214 511.045 471.261 509.865 473.522 507.431 475.287 504.766 476.026 503.154 476.093" fill="none" stroke="#ffefd8" stroke-miterlimit="10"/><g id="5d6948d3-029e-491e-96c5-ba6526cc3ff4" data-name="hueso"><path d="M640.62781,429.10348a8.47971,8.47971,0,0,0-8.27382-4.08607,5.95112,5.95112,0,0,0-5.84054,5.76239c-.919,4.70344,2.95117,7.73272,6.20615,10.89442a18.04262,18.04262,0,0,1,5.23673,9.12c1.17561,4.50052,2.1539,9.02442,3.13443,13.58148.42984,1.99778.76028,4.02123,1.23059,5.99536.88381,3.71011,1.61709,7.6399.75157,11.42539-.90452,3.9562-4.80471,7.02864-3.06083,11.30047,2.53607,6.21235,11.187,5.07615,12.616-.97374" transform="translate(0)" fill="none" stroke="#ffefd8" stroke-miterlimit="10"/><path d="M651.56383,490.38461a8.82352,8.82352,0,0,0,4.01,3.659c4.83583,1.53416,8.74508-1.238,10.41162-5.4586,1.53421-4.83582-3.56636-7.60039-6.82134-10.76209-1.80261-1.75094-3.68244-4.15124-4.21572-6.6296q-.50658-2.35453-1.0132-4.709-1.44642-6.72219-2.8928-13.44446-.93108-4.32708-1.86211-8.65421a15.1279,15.1279,0,0,1-.52695-3.54975,16.99843,16.99843,0,0,1,2.462-7.95794c1.18738-2.21089,2.07057-4.50988.97994-6.95758-2.75074-6.17353-11.52424-4.66114-12.6105,1.64034" transform="translate(0)" fill="none" stroke="#ffefd8" stroke-miterlimit="10"/></g><polygon points="652.731 492.336 651.751 494.373 649.885 496.188 647.463 497.395 645.044 497.274 642.904 496.578 641.31 495.296 640.103 493.344 639.574 490.887 640.236 487.855 641.892 484.687 642.987 481.891 643.35 479.283 643.277 476.172 642.787 472.928 638.264 452.389 637.149 448.571 635.449 445.108 632.928 442.03 630.115 439.335 628.26 437.277 626.663 434.438 626.437 430.872 627.117 428.053 629.55 425.596 633.108 425.201 636.104 425.567 638.22 426.625 639.41 427.646 640.188 425.454 641.673 423.679 643.908 422.507 647.126 422.16 650.399 423.526 652.632 427.255 651.773 431.465 650.074 434.894 648.869 438.404 648.669 441.829 649.622 446.352 654.559 469.296 655.816 473.755 658.101 476.899 661.383 479.946 664.277 482.65 665.963 485.453 665.767 489.018 664.249 491.538 661.903 493.558 659.563 494.57 656.56 494.406 654.026 493.3 652.731 492.336" fill="none" stroke="#ffefd8" stroke-miterlimit="10"/><g id="e0262b85-39b6-4f9b-8f7a-ed4b6d2adc17" data-name="hueso"><path d="M701.82048,289.39013a8.47969,8.47969,0,0,0-8.82424-2.6991,5.95113,5.95113,0,0,0-4.83542,6.62839c-.14889,4.79008,4.159,7.156,7.881,9.75171a18.04271,18.04271,0,0,1,6.63822,8.15672c1.88563,4.25219,3.58028,8.55928,5.28248,12.89872.74622,1.90236,1.39849,3.8461,2.18081,5.71861,1.47026,3.51914,2.82733,7.27937,2.58329,11.15488-.255,4.05029-3.609,7.71113-1.19939,11.646,3.50419,5.72236,11.85888,3.20669,12.29411-2.99446" transform="translate(0)" fill="none" stroke="#ffefd8" stroke-miterlimit="10"/><path d="M722.49072,348.10734a8.82323,8.82323,0,0,0,4.54733,2.96483c5.01983.73471,8.43115-2.63126,9.39565-7.06532.7347-5.01988-4.74473-6.92622-8.46676-9.52191-2.06125-1.4375-4.30343-3.50348-5.22915-5.86343q-.87947-2.24208-1.759-4.48414-2.511-6.40125-5.02193-12.80245-1.61633-4.12043-3.23261-8.24094a15.12794,15.12794,0,0,1-1.09224-3.41841,16.99945,16.99945,0,0,1,1.14713-8.2507c.81553-2.37335,1.31664-4.78463-.15424-7.02454-3.7098-5.64947-12.12483-2.74279-12.18124,3.65138" transform="translate(0)" fill="none" stroke="#ffefd8" stroke-miterlimit="10"/></g><polygon points="723.957 349.845 723.318 352.014 721.769 354.106 719.574 355.687 717.167 355.958 714.942 355.615 713.162 354.607 711.657 352.876 710.739 350.536 710.903 347.437 712.027 344.043 712.657 341.107 712.595 338.475 712.021 335.416 711.015 332.294 703.241 312.752 701.524 309.164 699.289 306.02 696.305 303.389 693.094 301.183 690.932 299.45 688.898 296.906 688.1 293.423 688.317 290.531 690.322 287.714 693.77 286.75 696.786 286.629 699.045 287.332 700.383 288.148 700.798 285.859 701.978 283.868 703.994 282.351 707.115 281.49 710.565 282.311 713.37 285.631 713.2 289.924 712.077 293.583 711.452 297.241 711.807 300.653 713.477 304.964 722.048 326.812 724.007 331.01 726.769 333.744 730.499 336.223 733.791 338.425 735.907 340.92 736.288 344.469 735.196 347.201 733.207 349.572 731.06 350.948 728.07 351.271 725.39 350.588 723.957 349.845" fill="none" stroke="#ffefd8" stroke-miterlimit="10"/><g id="6a7f5ac0-8a90-4ed5-80ab-37cf6d192a20" data-name="hueso"><path d="M454.98859,249.82059a8.47974,8.47974,0,0,0-8.921,2.35969,5.95111,5.95111,0,0,0-.61326,8.18175c2.39932,4.14852,7.30713,3.88721,11.83835,4.13009a18.04238,18.04238,0,0,1,9.94143,3.43015c3.84441,2.61868,7.55546,5.38468,11.29,8.1742,1.63717,1.22292,3.21632,2.5305,4.86845,3.709,3.10492,2.21487,6.24078,4.69426,8.077,8.11583,1.919,3.57591.99963,8.455,5.12195,10.52779,5.99487,3.01437,11.76708-3.52865,8.867-9.02709" transform="translate(0)" fill="none" stroke="#ffefd8" stroke-miterlimit="10"/><path d="M503.51363,288.8115a8.82331,8.82331,0,0,0,5.42713.1213c4.65266-2.02277,5.77623-6.68155,4.25764-10.95766-2.02278-4.65266-7.68372-3.38306-12.215-3.6259-2.50938-.13451-5.50389-.70756-7.53492-2.22468q-1.92951-1.44126-3.859-2.88249-5.50893-4.11494-11.01787-8.22982-3.546-2.64876-7.09215-5.29752a15.12678,15.12678,0,0,1-2.73061-2.32858,16.99914,16.99914,0,0,1-3.376-7.61535c-.55854-2.44659-1.40424-4.75964-3.83516-5.88722-6.13113-2.844-11.74843,4.06305-8.42468,9.52579" transform="translate(0)" fill="none" stroke="#ffefd8" stroke-miterlimit="10"/></g><polygon points="505.676 289.514 506.276 291.694 506.064 294.289 505.032 296.79 503.129 298.289 501.059 299.171 499.014 299.253 496.823 298.576 494.809 297.072 493.314 294.352 492.48 290.876 491.467 288.049 490.026 285.845 487.926 283.549 485.425 281.426 468.515 268.922 465.164 266.778 461.607 265.286 457.684 264.624 453.792 264.442 451.042 264.11 447.972 263.021 445.457 260.482 444.117 257.911 444.335 254.46 446.756 251.823 449.255 250.13 451.545 249.535 453.113 249.523 452.257 247.359 452.21 245.045 453.124 242.694 455.322 240.317 458.686 239.195 462.82 240.536 464.939 244.274 465.914 247.975 467.312 251.412 469.413 254.124 473.105 256.906 491.908 270.951 495.786 273.485 499.575 274.352 504.052 274.491 508.01 274.626 511.123 275.63 513.319 278.445 513.831 281.342 513.391 284.406 512.293 286.707 509.922 288.558 507.285 289.39 505.676 289.514" fill="none" stroke="#ffefd8" stroke-miterlimit="10"/><g id="e752707a-928b-422c-82a7-0514ef1ad33e" data-name="hueso"><path d="M630.47238,161.61006a8.47979,8.47979,0,0,0,1.96654-9.01585,5.95113,5.95113,0,0,0-7.00253-4.27567c-4.78615.24431-6.7909,4.73161-9.07271,8.6539a18.04256,18.04256,0,0,1-7.58509,7.28459c-4.08326,2.2279-8.23691,4.27-12.4222,6.32219-1.83475.8997-3.71851,1.70912-5.52059,2.64234-3.38672,1.75383-7.02306,3.41457-10.90553,3.4891-4.05752.07788-7.981-2.9647-11.70513-.2406-5.41584,3.96156-2.22366,12.08185,3.99226,12.00723" transform="translate(0)" fill="none" stroke="#ffefd8" stroke-miterlimit="10"/><path d="M573.6474,187.02458a8.82325,8.82325,0,0,0-2.582,4.77508c-.32067,5.06321,3.31366,8.18706,7.81186,8.78479,5.06321.32067,6.51387-5.29663,8.79573-9.21891,1.26366-2.17216,3.13884-4.57616,5.415-5.69223l4.32481-2.1207q6.17384-3.02727,12.34767-6.05463,3.974-1.94865,7.94812-3.89733a15.12781,15.12781,0,0,1,3.31736-1.36881,16.999,16.999,0,0,1,8.317.46687c2.43217.61822,4.87643.91992,6.98825-.72966,5.32631-4.16047,1.73946-12.30884-4.6378-11.84085" transform="translate(0)" fill="none" stroke="#ffefd8" stroke-miterlimit="10"/></g><polygon points="572.036 188.629 569.822 188.169 567.61 186.797 565.854 184.739 565.387 182.362 565.546 180.117 566.405 178.26 568.007 176.618 570.264 175.511 573.366 175.421 576.84 176.263 579.818 176.65 582.437 176.373 585.437 175.55 588.467 174.291 607.305 164.941 610.741 162.936 613.691 160.451 616.068 157.26 618.004 153.88 619.554 151.583 621.922 149.348 625.328 148.267 628.228 148.246 631.2 150.013 632.443 153.37 632.811 156.366 632.296 158.675 631.592 160.076 633.908 160.301 635.989 161.314 637.666 163.2 638.78 166.239 638.244 169.745 635.166 172.812 630.873 172.996 627.135 172.175 623.438 171.853 620.066 172.487 615.907 174.505 594.835 184.837 590.811 187.134 588.313 190.111 586.148 194.032 584.224 197.493 581.911 199.806 578.404 200.478 575.592 199.613 573.066 197.824 571.518 195.798 570.952 192.844 571.413 190.118 572.036 188.629" fill="none" stroke="#ffefd8" stroke-miterlimit="10"/><g id="d2eaa073-6cb9-4152-a1ce-884b81c13fa0" data-name="hueso"><path d="M478.54573,56.51608a8.47964,8.47964,0,0,0-4.41094-8.1053,5.95117,5.95117,0,0,0-8.0933,1.34739c-3.46,3.31594-2.04054,8.0213-1.20028,12.48053a18.04337,18.04337,0,0,1-.971,10.47169c-1.63074,4.35631-3.43621,8.6181-5.259,12.90827-.79906,1.88081-1.69421,3.72534-2.44663,5.61007-1.41407,3.54208-3.07775,7.17708-5.96537,9.7734-3.01781,2.71339-7.9757,2.97907-9.01014,7.4757-1.5043,6.53927,6.22235,10.59237,10.8747,6.46938" transform="translate(0)" fill="none" stroke="#ffefd8" stroke-miterlimit="10"/><path d="M452.195,112.913a8.82314,8.82314,0,0,0,1.1711,5.30064c3.06984,4.03913,7.86224,4.02409,11.65528,1.53341,4.03917-3.06989,1.46141-8.26735.62116-12.72663-.46531-2.46957-.61982-5.51447.3715-7.84769q.94173-2.21662,1.88353-4.43326,2.68879-6.32855,5.37764-12.65714,1.73073-4.07368,3.46156-8.14739a15.129,15.129,0,0,1,1.61348-3.20552,16.999,16.999,0,0,1,6.59563-5.088c2.244-1.12361,4.29-2.49452,4.808-5.12364,1.30646-6.63112-6.73708-10.44732-11.2541-5.92128" transform="translate(0)" fill="none" stroke="#ffefd8" stroke-miterlimit="10"/></g><polygon points="452.026 115.18 450.051 116.281 447.48 116.691 444.806 116.282 442.897 114.791 441.549 112.989 440.984 111.022 441.121 108.732 442.104 106.419 444.39 104.321 447.569 102.685 450.075 101.03 451.874 99.107 453.605 96.521 455.073 93.587 463.204 74.192 464.49 70.428 465.095 66.618 464.806 62.65 464.059 58.826 463.728 56.076 464.057 52.835 465.926 49.79 468.105 47.877 471.509 47.269 474.646 48.995 476.884 51.02 478.005 53.103 478.389 54.623 480.288 53.279 482.525 52.683 485.026 53.012 487.857 54.582 489.746 57.584 489.424 61.918 486.297 64.865 482.933 66.69 479.927 68.865 477.791 71.55 475.965 75.797 466.788 97.398 465.248 101.767 465.306 105.653 466.234 110.034 467.043 113.911 466.807 117.174 464.594 119.976 461.901 121.162 458.82 121.461 456.324 120.941 453.964 119.078 452.529 116.714 452.026 115.18" fill="none" stroke="#ffefd8" stroke-miterlimit="10"/><polygon points="344.305 166.554 343.516 168.673 341.825 170.652 339.525 172.076 337.105 172.178 334.91 171.682 333.204 170.552 331.823 168.72 331.071 166.322 331.45 163.242 332.808 159.935 333.641 157.05 333.763 154.419 333.403 151.329 332.617 148.144 326.224 128.108 324.761 124.408 322.75 121.117 319.957 118.284 316.907 115.859 314.872 113.98 313.02 111.3 312.467 107.77 312.885 104.901 315.081 102.23 318.588 101.509 321.605 101.598 323.809 102.457 325.088 103.364 325.66 101.109 326.977 99.205 329.094 97.833 332.267 97.192 335.651 98.251 338.218 101.758 337.75 106.029 336.374 109.6 335.496 113.206 335.612 116.635 336.978 121.051 344.005 143.444 345.667 147.768 348.232 150.688 351.78 153.421 354.911 155.847 356.847 158.483 356.981 162.051 355.701 164.7 353.551 166.926 351.313 168.149 348.308 168.263 345.683 167.395 344.305 166.554" fill="none" stroke="#ffefd8" stroke-miterlimit="10"/><g id="060d3ef3-462f-4701-84da-6f30a34e4516" data-name="hueso"><path d="M326.70722,105.04764a8.47979,8.47979,0,0,0-8.61658-3.30255,5.95116,5.95116,0,0,0-5.28194,6.27841c-.47961,4.76829,3.65441,7.42629,7.18809,10.273a18.043,18.043,0,0,1,6.05862,8.596c1.58722,4.37238,2.98013,8.78627,4.37835,13.233.613,1.94936,1.12932,3.93353,1.78034,5.85566,1.22354,3.61233,2.31748,7.45736,1.80619,11.30672-.53439,4.023-4.13338,7.44326-2.00149,11.53531,3.10033,5.95087,11.60891,4.01865,12.4717-2.13761" transform="translate(0)" fill="none" stroke="#ffefd8" stroke-miterlimit="10"/><path d="M343.26982,165.0531a8.82373,8.82373,0,0,0,4.33154,3.272c4.95709,1.07987,8.59285-2.04228,9.8615-6.39909,1.07988-4.95708-4.25469-7.23755-7.78842-10.08429-1.957-1.57652-4.051-3.7925-4.8114-6.21084q-.72243-2.29749-1.44483-4.595-2.06251-6.55944-4.12508-13.11892-1.32767-4.22232-2.65532-8.44463a15.12578,15.12578,0,0,1-.85333-3.48571,16.99881,16.99881,0,0,1,1.7146-8.15172c.97763-2.31131,1.64418-4.6822.33165-7.01842-3.31049-5.89235-11.90628-3.57421-12.40449,2.80078" transform="translate(0)" fill="none" stroke="#ffefd8" stroke-miterlimit="10"/></g><polygon points="344.613 166.888 343.825 169.007 342.136 170.987 339.836 172.413 337.416 172.516 335.22 172.021 333.514 170.892 332.132 169.061 331.378 166.663 331.756 163.583 333.112 160.275 333.943 157.39 334.064 154.759 333.702 151.669 332.915 148.484 326.51 128.452 325.045 124.754 323.032 121.463 320.237 118.632 317.186 116.209 315.15 114.331 313.297 111.652 312.741 108.122 313.158 105.253 315.352 102.581 318.858 101.858 321.875 101.946 324.08 102.803 325.359 103.709 325.931 101.454 327.246 99.549 329.362 98.176 332.535 97.533 335.92 98.59 338.489 102.096 338.023 106.367 336.649 109.939 335.774 113.545 335.892 116.974 337.26 121.39 344.3 143.778 345.964 148.102 348.531 151.02 352.08 153.751 355.212 156.175 357.151 158.81 357.286 162.377 356.008 165.027 353.859 167.255 351.622 168.48 348.617 168.595 345.991 167.728 344.613 166.888" fill="none" stroke="#ffefd8" stroke-miterlimit="10"/><polygon points="694.542 101.739 695.949 103.509 696.771 105.979 696.802 108.685 695.64 110.81 694.081 112.433 692.233 113.31 689.951 113.547 687.509 112.953 685.067 111.037 682.937 108.166 680.896 105.963 678.707 104.5 675.874 103.212 672.741 102.24 652.282 97.367 648.359 96.709 644.502 96.731 640.633 97.66 636.982 99.019 634.322 99.792 631.071 99.993 627.762 98.644 625.521 96.804 624.368 93.544 625.562 90.169 627.196 87.632 629.07 86.187 630.507 85.561 628.872 83.906 627.921 81.796 627.84 79.274 628.929 76.226 631.584 73.875 635.913 73.488 639.329 76.095 641.676 79.117 644.31 81.731 647.307 83.402 651.794 84.514 674.598 90.061 679.159 90.871 682.984 90.183 687.157 88.556 690.851 87.128 694.109 86.831 697.232 88.56 698.84 91.024 699.636 94.015 699.528 96.562 698.073 99.194 695.974 100.994 694.542 101.739" fill="none" stroke="#ffefd8" stroke-miterlimit="10"/><polygon points="627.401 339.665 629.596 340.209 631.754 341.664 633.43 343.788 633.807 346.181 633.563 348.418 632.633 350.241 630.97 351.821 628.673 352.841 625.57 352.813 622.13 351.839 619.169 351.339 616.542 351.517 613.512 352.225 610.437 353.367 591.256 361.993 587.746 363.866 584.704 366.238 582.207 369.335 580.144 372.64 578.508 374.876 576.056 377.019 572.611 377.97 569.713 377.88 566.81 376.001 565.696 372.599 565.442 369.591 566.045 367.304 566.801 365.931 564.496 365.617 562.455 364.526 560.851 362.578 559.854 359.498 560.522 356.015 563.715 353.067 568.012 353.048 571.716 354.01 575.398 354.472 578.791 353.967 583.025 352.109 604.475 342.586 608.583 340.444 611.193 337.565 613.505 333.729 615.56 330.344 617.959 328.12 621.489 327.583 624.266 328.554 626.722 330.437 628.191 332.521 628.645 335.494 628.081 338.201 627.401 339.665" fill="none" stroke="#ffefd8" stroke-miterlimit="10"/><g id="7ebc63da-4914-44e2-ac50-e0336c22cf05" data-name="hueso"><path d="M567.97873,364.44018a8.47975,8.47975,0,0,0-2.30832,8.93445,5.95106,5.95106,0,0,0,6.83468,4.53912c4.792-.06195,6.96611-4.46968,9.3956-8.30226a18.04285,18.04285,0,0,1,7.85685-6.99057c4.16511-2.07084,8.39347-3.9533,12.65388-5.84478,1.86768-.82918,3.78085-1.56629,5.61712-2.43025,3.45108-1.62365,7.148-3.14478,11.03045-3.07145,4.05756.07663,7.86242,3.26635,11.68755.686,5.56267-3.75252,2.68192-11.98845-3.53235-12.1505" transform="translate(0)" fill="none" stroke="#ffefd8" stroke-miterlimit="10"/><path d="M625.72992,341.20715a8.82321,8.82321,0,0,0,2.76194-4.67332c.51316-5.04733-2.9996-8.3073-7.47177-9.07579-5.04732-.5132-6.71078,5.04483-9.14028,8.8774-1.34542,2.12248-3.31076,4.45334-5.62774,5.482q-2.20122.97719-4.40241,1.95449-6.28464,2.79008-12.56918,5.58021-4.04537,1.796-8.09075,3.592a15.12738,15.12738,0,0,1-3.367,1.24152,16.99879,16.99879,0,0,1-8.29319-.78308c-2.407-.71034-4.83792-1.10491-7.011.46308-5.48082,3.95473-2.20679,12.23373,4.18369,12.00884" transform="translate(0)" fill="none" stroke="#ffefd8" stroke-miterlimit="10"/></g></g><g id="0939a37d-34cf-4087-9cad-a862a15c3a3f" data-name="circulos"><path d="M295.37121,490.94919c-4.31022,1.59946-5.211,7.91464-.61327,9.77942a5.20119,5.20119,0,0,0,6.59457-7.17047A5.12586,5.12586,0,0,0,295.37121,490.94919Z" transform="translate(0)" fill="#f2f7db"/><path d="M38.67858,328.27767c-7.22145,2.67974-8.73062,13.26041-1.02748,16.38475a8.71426,8.71426,0,0,0,11.0488-12.01366C46.95481,329.20429,42.4343,326.884,38.67858,328.27767Z" transform="translate(0)" fill="#f2f7db"/><path d="M139.98925,213.57793c-7.22145,2.67973-8.73061,13.2604-1.02748,16.38474a8.71426,8.71426,0,0,0,11.0488-12.01366C148.26548,214.50454,143.745,212.18426,139.98925,213.57793Z" transform="translate(0)" fill="#f2f7db"/><path d="M230.58866,291.68087c-7.22145,2.67973-8.73061,13.2604-1.02748,16.38475A8.71427,8.71427,0,0,0,240.61,296.05195C238.86489,292.60748,234.34438,290.2872,230.58866,291.68087Z" transform="translate(0)" fill="#f2f7db"/><path d="M134.70231,248.60692c-4.31022,1.59946-5.211,7.91464-.61327,9.77942a5.20118,5.20118,0,0,0,6.59456-7.17047A5.12585,5.12585,0,0,0,134.70231,248.60692Z" transform="translate(0)" fill="#f2f7db"/><path d="M199.41617,311.98188c-4.31022,1.59945-5.211,7.91463-.61327,9.77942a5.20119,5.20119,0,0,0,6.59457-7.17047A5.12585,5.12585,0,0,0,199.41617,311.98188Z" transform="translate(0)" fill="#f2f7db"/><path d="M308.76029,333.4044c-4.31022,1.59946-5.211,7.91464-.61327,9.77942a5.20118,5.20118,0,0,0,6.59456-7.17047A5.12583,5.12583,0,0,0,308.76029,333.4044Z" transform="translate(0)" fill="#f2f7db"/><path d="M184.66667,272.84512c-3.0236,1.122-3.65548,5.55209-.43019,6.86025a3.64863,3.64863,0,0,0,4.6261-5.0301A3.59581,3.59581,0,0,0,184.66667,272.84512Z" transform="translate(0)" fill="#f2f7db"/><path d="M339.93277,203.75927c-7.22144,2.67974-8.7306,13.26041-1.02748,16.38475a8.71427,8.71427,0,0,0,11.0488-12.01366C348.209,204.68588,343.6885,202.3656,339.93277,203.75927Z" transform="translate(0)" fill="#f2f7db"/><path d="M322.59567,227.1844c-4.31022,1.59945-5.211,7.91464-.61328,9.77942a5.20119,5.20119,0,0,0,6.59457-7.17047A5.12583,5.12583,0,0,0,322.59567,227.1844Z" transform="translate(0)" fill="#f2f7db"/><path d="M299.81272,210.36276c-3.0236,1.122-3.65549,5.5521-.43019,6.86025a3.64863,3.64863,0,0,0,4.6261-5.03009A3.59581,3.59581,0,0,0,299.81272,210.36276Z" transform="translate(0)" fill="#f2f7db"/><path d="M354.70793,302.30108c-3.0236,1.122-3.65549,5.5521-.43019,6.86025a3.64863,3.64863,0,0,0,4.6261-5.03009A3.59581,3.59581,0,0,0,354.70793,302.30108Z" transform="translate(0)" fill="#f2f7db"/><path d="M34.73054,268.24423c-4.31021,1.59946-5.211,7.91464-.61327,9.77942a5.20118,5.20118,0,0,0,6.59457-7.17047A5.12585,5.12585,0,0,0,34.73054,268.24423Z" transform="translate(0)" fill="#f2f7db"/><path d="M2.57525,260.79495c-3.02361,1.122-3.65549,5.55209-.43019,6.86025a3.74434,3.74434,0,0,0,4.05693-.91126,3.74435,3.74435,0,0,0,.56917-4.11884A3.59582,3.59582,0,0,0,2.57525,260.79495Z" transform="translate(0)" fill="#f2f7db"/><path d="M65.9502,352.73327c-3.0236,1.122-3.65548,5.55209-.43019,6.86025a3.64864,3.64864,0,0,0,4.62611-5.0301A3.59583,3.59583,0,0,0,65.9502,352.73327Z" transform="translate(0)" fill="#f2f7db"/><path d="M413.12639,328.27767c-7.22144,2.67974-8.73061,13.26041-1.02747,16.38475a8.71426,8.71426,0,0,0,11.0488-12.01366C421.40263,329.20429,416.88212,326.884,413.12639,328.27767Z" transform="translate(0)" fill="#f2f7db"/><path d="M514.43707,213.57793c-7.22145,2.67973-8.73062,13.2604-1.02748,16.38474a8.71426,8.71426,0,0,0,11.0488-12.01366C522.7133,214.50454,518.19279,212.18426,514.43707,213.57793Z" transform="translate(0)" fill="#f2f7db"/><path d="M634.93875,276.06028c-7.22144,2.67973-8.73062,13.26041-1.02748,16.38475a8.71427,8.71427,0,0,0,11.0488-12.01366C643.215,276.98689,638.69447,274.66661,634.93875,276.06028Z" transform="translate(0)" fill="#f2f7db"/><path d="M509.15012,248.60692c-4.31021,1.59946-5.211,7.91464-.61326,9.77942a5.20118,5.20118,0,0,0,6.59456-7.17047A5.12585,5.12585,0,0,0,509.15012,248.60692Z" transform="translate(0)" fill="#f2f7db"/><path d="M603.76626,296.36129c-4.31021,1.59946-5.211,7.91464-.61327,9.77942a5.20119,5.20119,0,0,0,6.59457-7.17047A5.12585,5.12585,0,0,0,603.76626,296.36129Z" transform="translate(0)" fill="#f2f7db"/><path d="M683.20811,333.4044c-4.31021,1.59946-5.211,7.91464-.61327,9.77942a5.20119,5.20119,0,0,0,6.59457-7.17047A5.12584,5.12584,0,0,0,683.20811,333.4044Z" transform="translate(0)" fill="#f2f7db"/><path d="M571.611,288.912c-3.02361,1.122-3.65548,5.55209-.43019,6.86025a3.64864,3.64864,0,0,0,4.62611-5.0301A3.59583,3.59583,0,0,0,571.611,288.912Z" transform="translate(0)" fill="#f2f7db"/><path d="M714.3806,203.75927c-7.22144,2.67974-8.73062,13.26041-1.02748,16.38475a8.71427,8.71427,0,0,0,11.0488-12.01366C722.65683,204.68588,718.13632,202.3656,714.3806,203.75927Z" transform="translate(0)" fill="#f2f7db"/><path d="M697.04349,227.1844c-4.31022,1.59945-5.211,7.91464-.61327,9.77942a5.20119,5.20119,0,0,0,6.59457-7.17047A5.12585,5.12585,0,0,0,697.04349,227.1844Z" transform="translate(0)" fill="#f2f7db"/><path d="M674.26054,210.36276c-3.02361,1.122-3.65548,5.5521-.43019,6.86025a3.64864,3.64864,0,0,0,4.62611-5.03009A3.59582,3.59582,0,0,0,674.26054,210.36276Z" transform="translate(0)" fill="#f2f7db"/><path d="M729.15576,302.30108c-3.02362,1.122-3.65549,5.5521-.4302,6.86025a3.64864,3.64864,0,0,0,4.62611-5.03009A3.59581,3.59581,0,0,0,729.15576,302.30108Z" transform="translate(0)" fill="#f2f7db"/><path d="M409.17836,268.24423c-4.31021,1.59946-5.211,7.91464-.61327,9.77942a5.20118,5.20118,0,0,0,6.59457-7.17047A5.12585,5.12585,0,0,0,409.17836,268.24423Z" transform="translate(0)" fill="#f2f7db"/><path d="M377.02305,260.79495c-3.0236,1.122-3.65548,5.55209-.43019,6.86025a3.64864,3.64864,0,0,0,4.62611-5.0301A3.59583,3.59583,0,0,0,377.02305,260.79495Z" transform="translate(0)" fill="#f2f7db"/><path d="M440.398,352.73327c-3.02361,1.122-3.65548,5.55209-.43019,6.86025a3.64864,3.64864,0,0,0,4.62611-5.0301A3.59583,3.59583,0,0,0,440.398,352.73327Z" transform="translate(0)" fill="#f2f7db"/><path d="M38.67858,143.06213c-7.22145,2.67973-8.73062,13.2604-1.02748,16.38475a8.71427,8.71427,0,0,0,11.0488-12.01367C46.95481,143.98874,42.4343,141.66846,38.67858,143.06213Z" transform="translate(0)" fill="#f2f7db"/><path d="M139.98925,28.36238c-7.22145,2.67973-8.73061,13.2604-1.02748,16.38475a8.71427,8.71427,0,0,0,11.0488-12.01366C148.26548,29.289,143.745,26.96871,139.98925,28.36238Z" transform="translate(0)" fill="#f2f7db"/><path d="M220.3237,144.401c-7.22144,2.67973-8.73061,13.2604-1.02748,16.38474a8.71426,8.71426,0,0,0,11.0488-12.01366C228.59993,145.32765,224.07942,143.00737,220.3237,144.401Z" transform="translate(0)" fill="#f2f7db"/><path d="M134.70231,63.39137c-4.31022,1.59946-5.211,7.91464-.61327,9.77943a5.20118,5.20118,0,0,0,6.59456-7.17048A5.12585,5.12585,0,0,0,134.70231,63.39137Z" transform="translate(0)" fill="#f2f7db"/><path d="M189.15121,164.702c-4.31021,1.59946-5.211,7.91464-.61327,9.77943a5.20119,5.20119,0,0,0,6.59457-7.17048A5.12585,5.12585,0,0,0,189.15121,164.702Z" transform="translate(0)" fill="#f2f7db"/><path d="M308.76029,148.18885c-4.31022,1.59946-5.211,7.91464-.61327,9.77942a5.20118,5.20118,0,0,0,6.59456-7.17047A5.12585,5.12585,0,0,0,308.76029,148.18885Z" transform="translate(0)" fill="#f2f7db"/><path d="M167.26087,119.31705c-3.0236,1.122-3.65548,5.55209-.43019,6.86025a3.64864,3.64864,0,0,0,4.62611-5.0301A3.59583,3.59583,0,0,0,167.26087,119.31705Z" transform="translate(0)" fill="#f2f7db"/><path d="M263.66222,5.5099c-3.02361,1.122-3.65549,5.5521-.4302,6.86025a3.74433,3.74433,0,0,0,4.057-.91126,3.74435,3.74435,0,0,0,.56916-4.11883A3.59582,3.59582,0,0,0,263.66222,5.5099Z" transform="translate(0)" fill="#f2f7db"/><path d="M339.93277,18.54372c-7.22144,2.67974-8.7306,13.26041-1.02748,16.38473a8.71425,8.71425,0,0,0,11.0488-12.01364C348.209,19.47034,343.6885,17.15005,339.93277,18.54372Z" transform="translate(0)" fill="#f2f7db"/><path d="M322.59567,41.96885c-4.31022,1.59946-5.211,7.91464-.61328,9.77942A5.20118,5.20118,0,0,0,328.577,44.5778,5.12587,5.12587,0,0,0,322.59567,41.96885Z" transform="translate(0)" fill="#f2f7db"/><path d="M299.81272,25.14722c-3.0236,1.122-3.65549,5.55209-.43019,6.86025a3.64863,3.64863,0,0,0,4.6261-5.0301A3.59581,3.59581,0,0,0,299.81272,25.14722Z" transform="translate(0)" fill="#f2f7db"/><path d="M354.70793,117.08554c-3.0236,1.122-3.65549,5.55209-.43019,6.86025a3.64863,3.64863,0,0,0,4.6261-5.0301A3.59582,3.59582,0,0,0,354.70793,117.08554Z" transform="translate(0)" fill="#f2f7db"/><path d="M34.73054,83.02868c-4.31021,1.59946-5.211,7.91464-.61327,9.77943a5.20119,5.20119,0,0,0,6.59457-7.17048A5.12585,5.12585,0,0,0,34.73054,83.02868Z" transform="translate(0)" fill="#f2f7db"/><path d="M2.57525,75.5794c-3.02361,1.122-3.65549,5.55209-.43019,6.86025A3.74434,3.74434,0,0,0,6.202,81.52839a3.74435,3.74435,0,0,0,.56917-4.11884A3.59582,3.59582,0,0,0,2.57525,75.5794Z" transform="translate(0)" fill="#f2f7db"/><path d="M65.9502,167.51772c-3.0236,1.122-3.65548,5.55209-.43019,6.86025a3.64864,3.64864,0,0,0,4.62611-5.0301A3.59583,3.59583,0,0,0,65.9502,167.51772Z" transform="translate(0)" fill="#f2f7db"/><path d="M413.12639,143.06213c-7.22144,2.67973-8.73061,13.2604-1.02747,16.38475a8.71427,8.71427,0,0,0,11.0488-12.01367C421.40263,143.98874,416.88212,141.66846,413.12639,143.06213Z" transform="translate(0)" fill="#f2f7db"/><path d="M514.43707,28.36238c-7.22145,2.67973-8.73062,13.2604-1.02748,16.38475a8.71427,8.71427,0,0,0,11.0488-12.01366C522.7133,29.289,518.19279,26.96871,514.43707,28.36238Z" transform="translate(0)" fill="#f2f7db"/><path d="M605.03648,106.46532c-7.22144,2.67974-8.73062,13.26041-1.02748,16.38475a8.71427,8.71427,0,0,0,11.0488-12.01366C613.31271,107.39193,608.7922,105.07165,605.03648,106.46532Z" transform="translate(0)" fill="#f2f7db"/><path d="M541.73021,79.90456c-4.31021,1.59946-5.211,7.91464-.61327,9.77943a5.20119,5.20119,0,0,0,6.59457-7.17048A5.12585,5.12585,0,0,0,541.73021,79.90456Z" transform="translate(0)" fill="#f2f7db"/><path d="M573.864,126.76633c-4.31021,1.59946-5.211,7.91464-.61327,9.77942a5.20118,5.20118,0,0,0,6.59457-7.17047A5.12585,5.12585,0,0,0,573.864,126.76633Z" transform="translate(0)" fill="#f2f7db"/><path d="M683.20811,148.18885c-4.31021,1.59946-5.211,7.91464-.61327,9.77942a5.20118,5.20118,0,0,0,6.59457-7.17047A5.12585,5.12585,0,0,0,683.20811,148.18885Z" transform="translate(0)" fill="#f2f7db"/><path d="M541.7087,119.31705c-3.02361,1.122-3.65549,5.55209-.4302,6.86025a3.64864,3.64864,0,0,0,4.62611-5.0301A3.59582,3.59582,0,0,0,541.7087,119.31705Z" transform="translate(0)" fill="#f2f7db"/><path d="M714.3806,18.54372c-7.22144,2.67974-8.73062,13.26041-1.02748,16.38473a8.71425,8.71425,0,0,0,11.0488-12.01364C722.65683,19.47034,718.13632,17.15005,714.3806,18.54372Z" transform="translate(0)" fill="#f2f7db"/><path d="M697.04349,41.96885c-4.31022,1.59946-5.211,7.91464-.61327,9.77942a5.20118,5.20118,0,0,0,6.59457-7.17047A5.12588,5.12588,0,0,0,697.04349,41.96885Z" transform="translate(0)" fill="#f2f7db"/><path d="M674.26054,25.14722c-3.02361,1.122-3.65548,5.55209-.43019,6.86025a3.64864,3.64864,0,0,0,4.62611-5.0301A3.59583,3.59583,0,0,0,674.26054,25.14722Z" transform="translate(0)" fill="#f2f7db"/><path d="M729.15576,117.08554c-3.02362,1.122-3.65549,5.55209-.4302,6.86025a3.64864,3.64864,0,0,0,4.62611-5.0301A3.59582,3.59582,0,0,0,729.15576,117.08554Z" transform="translate(0)" fill="#f2f7db"/><path d="M409.17836,83.02868c-4.31021,1.59946-5.211,7.91464-.61327,9.77943a5.20119,5.20119,0,0,0,6.59457-7.17048A5.12585,5.12585,0,0,0,409.17836,83.02868Z" transform="translate(0)" fill="#f2f7db"/><path d="M377.02305,75.5794c-3.0236,1.122-3.65548,5.55209-.43019,6.86025a3.64864,3.64864,0,0,0,4.62611-5.0301A3.59583,3.59583,0,0,0,377.02305,75.5794Z" transform="translate(0)" fill="#f2f7db"/><path d="M440.398,167.51772c-3.02361,1.122-3.65548,5.55209-.43019,6.86025a3.64864,3.64864,0,0,0,4.62611-5.0301A3.59583,3.59583,0,0,0,440.398,167.51772Z" transform="translate(0)" fill="#f2f7db"/><path d="M38.67858,512.15431c-7.22145,2.67974-8.73062,13.26041-1.02748,16.38475A8.71426,8.71426,0,0,0,48.6999,516.5254C46.95481,513.08093,42.4343,510.76065,38.67858,512.15431Z" transform="translate(0)" fill="#f2f7db"/><path d="M139.98925,397.45457c-7.22145,2.67973-8.73061,13.2604-1.02748,16.38474a8.71426,8.71426,0,0,0,11.0488-12.01366C148.26548,398.38118,143.745,396.0609,139.98925,397.45457Z" transform="translate(0)" fill="#f2f7db"/><path d="M221.66261,486.26877c-7.22145,2.67973-8.73061,13.2604-1.02748,16.38475a8.71427,8.71427,0,0,0,11.0488-12.01367C229.93884,487.19538,225.41833,484.8751,221.66261,486.26877Z" transform="translate(0)" fill="#f2f7db"/><path d="M134.70231,432.48356c-4.31022,1.59946-5.211,7.91464-.61327,9.77942a5.20118,5.20118,0,0,0,6.59456-7.17047A5.12583,5.12583,0,0,0,134.70231,432.48356Z" transform="translate(0)" fill="#f2f7db"/><path d="M190.49012,506.56978c-4.31022,1.59945-5.211,7.91463-.61327,9.77942a5.20119,5.20119,0,0,0,6.59457-7.17047A5.12585,5.12585,0,0,0,190.49012,506.56978Z" transform="translate(0)" fill="#f2f7db"/><path d="M184.66667,450.91982c-3.0236,1.122-3.65548,5.5521-.43019,6.86025a3.64863,3.64863,0,0,0,4.6261-5.03009A3.59581,3.59581,0,0,0,184.66667,450.91982Z" transform="translate(0)" fill="#f2f7db"/><path d="M339.93277,387.63591c-7.22144,2.67973-8.7306,13.26041-1.02748,16.38475a8.71427,8.71427,0,0,0,11.0488-12.01366C348.209,388.56252,343.6885,386.24224,339.93277,387.63591Z" transform="translate(0)" fill="#f2f7db"/><path d="M322.59567,411.061c-4.31022,1.59945-5.211,7.91464-.61328,9.77942A5.20119,5.20119,0,0,0,328.577,413.67,5.12583,5.12583,0,0,0,322.59567,411.061Z" transform="translate(0)" fill="#f2f7db"/><path d="M299.81272,394.2394c-3.0236,1.122-3.65549,5.55209-.43019,6.86025a3.64863,3.64863,0,0,0,4.6261-5.03009A3.59581,3.59581,0,0,0,299.81272,394.2394Z" transform="translate(0)" fill="#f2f7db"/><path d="M354.70793,473.68125c-3.0236,1.122-3.65549,5.55209-.43019,6.86025a3.64863,3.64863,0,0,0,4.6261-5.0301A3.59582,3.59582,0,0,0,354.70793,473.68125Z" transform="translate(0)" fill="#f2f7db"/><path d="M34.73054,452.12087c-4.31021,1.59946-5.211,7.91464-.61327,9.77942a5.20119,5.20119,0,0,0,6.59457-7.17047A5.12585,5.12585,0,0,0,34.73054,452.12087Z" transform="translate(0)" fill="#f2f7db"/><path d="M2.57525,444.67159c-3.02361,1.122-3.65549,5.55209-.43019,6.86025a3.74434,3.74434,0,0,0,4.05693-.91126,3.74435,3.74435,0,0,0,.56917-4.11884A3.59582,3.59582,0,0,0,2.57525,444.67159Z" transform="translate(0)" fill="#f2f7db"/><path d="M65.9502,536.60991c-3.0236,1.122-3.65548,5.55209-.43019,6.86025a3.64864,3.64864,0,0,0,4.62611-5.0301A3.59583,3.59583,0,0,0,65.9502,536.60991Z" transform="translate(0)" fill="#f2f7db"/><path d="M406.87816,489.39289c-7.22144,2.67973-8.73062,13.2604-1.02748,16.38474a8.71426,8.71426,0,0,0,11.0488-12.01366C415.15439,490.3195,410.63388,487.99922,406.87816,489.39289Z" transform="translate(0)" fill="#f2f7db"/><path d="M514.43707,397.45457c-7.22145,2.67973-8.73062,13.2604-1.02748,16.38474a8.71426,8.71426,0,0,0,11.0488-12.01366C522.7133,398.38118,518.19279,396.0609,514.43707,397.45457Z" transform="translate(0)" fill="#f2f7db"/><path d="M584.95287,471.09448c-7.22145,2.67974-8.73062,13.26041-1.02748,16.38475a8.71426,8.71426,0,0,0,11.0488-12.01366C593.2291,472.0211,588.70859,469.70081,584.95287,471.09448Z" transform="translate(0)" fill="#f2f7db"/><path d="M509.15012,432.48356c-4.31021,1.59946-5.211,7.91464-.61326,9.77942a5.20118,5.20118,0,0,0,6.59456-7.17047A5.12584,5.12584,0,0,0,509.15012,432.48356Z" transform="translate(0)" fill="#f2f7db"/><path d="M541.2839,487.37877c-4.31021,1.59946-5.211,7.91464-.61326,9.77942a5.20119,5.20119,0,0,0,6.59457-7.17047A5.12585,5.12585,0,0,0,541.2839,487.37877Z" transform="translate(0)" fill="#f2f7db"/><path d="M683.20811,517.281c-4.31021,1.59945-5.211,7.91464-.61327,9.77942a5.20119,5.20119,0,0,0,6.59457-7.17047A5.12584,5.12584,0,0,0,683.20811,517.281Z" transform="translate(0)" fill="#f2f7db"/><path d="M527.427,527.23755c-3.02361,1.122-3.65548,5.5521-.43019,6.86025a3.64864,3.64864,0,0,0,4.62611-5.03009A3.59582,3.59582,0,0,0,527.427,527.23755Z" transform="translate(0)" fill="#f2f7db"/><path d="M714.3806,387.63591c-7.22144,2.67973-8.73062,13.26041-1.02748,16.38475a8.71427,8.71427,0,0,0,11.0488-12.01366C722.65683,388.56252,718.13632,386.24224,714.3806,387.63591Z" transform="translate(0)" fill="#f2f7db"/><path d="M697.04349,411.061c-4.31022,1.59945-5.211,7.91464-.61327,9.77942a5.20119,5.20119,0,0,0,6.59457-7.17047A5.12585,5.12585,0,0,0,697.04349,411.061Z" transform="translate(0)" fill="#f2f7db"/><path d="M674.26054,394.2394c-3.02361,1.122-3.65548,5.55209-.43019,6.86025a3.64864,3.64864,0,0,0,4.62611-5.03009A3.59582,3.59582,0,0,0,674.26054,394.2394Z" transform="translate(0)" fill="#f2f7db"/><path d="M734.06508,531.70058c-3.02361,1.122-3.65548,5.55209-.43019,6.86025a3.64864,3.64864,0,0,0,4.62611-5.0301A3.59583,3.59583,0,0,0,734.06508,531.70058Z" transform="translate(0)" fill="#f2f7db"/><path d="M409.17836,452.12087c-4.31021,1.59946-5.211,7.91464-.61327,9.77942a5.20119,5.20119,0,0,0,6.59457-7.17047A5.12585,5.12585,0,0,0,409.17836,452.12087Z" transform="translate(0)" fill="#f2f7db"/><path d="M342.67928,537.811c-4.31022,1.59946-5.211,7.91464-.61327,9.77943a5.20118,5.20118,0,0,0,6.59456-7.17048A5.12585,5.12585,0,0,0,342.67928,537.811Z" transform="translate(0)" fill="#f2f7db"/><path d="M377.02305,444.67159c-3.0236,1.122-3.65548,5.55209-.43019,6.86025a3.64864,3.64864,0,0,0,4.62611-5.0301A3.59583,3.59583,0,0,0,377.02305,444.67159Z" transform="translate(0)" fill="#f2f7db"/><path d="M422.99222,536.60991c-3.02361,1.122-3.65548,5.55209-.43019,6.86025a3.64864,3.64864,0,0,0,4.62611-5.0301A3.59583,3.59583,0,0,0,422.99222,536.60991Z" transform="translate(0)" fill="#f2f7db"/></g></g></g></svg>